ISO-10303-21;
HEADER;
/* Generated by software containing ST-Developer
 * from STEP Tools, Inc. (www.steptools.com) 
 */

FILE_DESCRIPTION(
/* description */ (''),
/* implementation_level */ '2;1');

FILE_NAME(
/* name */ 'Insert_Top_Lock.step',
/* time_stamp */ '2026-01-02T23:36:56-08:00',
/* author */ (''),
/* organization */ (''),
/* preprocessor_version */ 'ST-DEVELOPER v20.1',
/* originating_system */ 'Autodesk Translation Framework v14.21.0.0',
/* authorisation */ '');

FILE_SCHEMA (('AUTOMOTIVE_DESIGN { 1 0 10303 214 3 1 1 }'));
ENDSEC;

DATA;
#10=MECHANICAL_DESIGN_GEOMETRIC_PRESENTATION_REPRESENTATION('',(#13),#362);
#11=SHAPE_REPRESENTATION_RELATIONSHIP('SRR','None',#369,#12);
#12=ADVANCED_BREP_SHAPE_REPRESENTATION('',(#14),#361);
#13=STYLED_ITEM('',(#378),#14);
#14=MANIFOLD_SOLID_BREP('Body1',#206);
#15=FACE_BOUND('',#37,.T.);
#16=FACE_BOUND('',#46,.T.);
#17=PLANE('',#223);
#18=PLANE('',#224);
#19=PLANE('',#231);
#20=PLANE('',#234);
#21=PLANE('',#237);
#22=PLANE('',#240);
#23=FACE_OUTER_BOUND('',#34,.T.);
#24=FACE_OUTER_BOUND('',#35,.T.);
#25=FACE_OUTER_BOUND('',#36,.T.);
#26=FACE_OUTER_BOUND('',#38,.T.);
#27=FACE_OUTER_BOUND('',#39,.T.);
#28=FACE_OUTER_BOUND('',#40,.T.);
#29=FACE_OUTER_BOUND('',#41,.T.);
#30=FACE_OUTER_BOUND('',#42,.T.);
#31=FACE_OUTER_BOUND('',#43,.T.);
#32=FACE_OUTER_BOUND('',#44,.T.);
#33=FACE_OUTER_BOUND('',#45,.T.);
#34=EDGE_LOOP('',(#136,#137,#138,#139));
#35=EDGE_LOOP('',(#140,#141,#142,#143));
#36=EDGE_LOOP('',(#144,#145,#146,#147,#148,#149,#150,#151));
#37=EDGE_LOOP('',(#152));
#38=EDGE_LOOP('',(#153,#154,#155,#156));
#39=EDGE_LOOP('',(#157,#158,#159,#160));
#40=EDGE_LOOP('',(#161,#162,#163,#164));
#41=EDGE_LOOP('',(#165,#166,#167,#168));
#42=EDGE_LOOP('',(#169,#170,#171,#172));
#43=EDGE_LOOP('',(#173,#174,#175,#176));
#44=EDGE_LOOP('',(#177,#178,#179,#180));
#45=EDGE_LOOP('',(#181,#182,#183,#184,#185,#186,#187,#188));
#46=EDGE_LOOP('',(#189));
#47=LINE('',#308,#64);
#48=LINE('',#311,#65);
#49=LINE('',#314,#66);
#50=LINE('',#316,#67);
#51=LINE('',#317,#68);
#52=LINE('',#320,#69);
#53=LINE('',#324,#70);
#54=LINE('',#328,#71);
#55=LINE('',#336,#72);
#56=LINE('',#337,#73);
#57=LINE('',#340,#74);
#58=LINE('',#341,#75);
#59=LINE('',#345,#76);
#60=LINE('',#347,#77);
#61=LINE('',#351,#78);
#62=LINE('',#354,#79);
#63=LINE('',#355,#80);
#64=VECTOR('',#247,10.);
#65=VECTOR('',#250,10.);
#66=VECTOR('',#253,10.);
#67=VECTOR('',#254,10.);
#68=VECTOR('',#255,10.);
#69=VECTOR('',#258,10.);
#70=VECTOR('',#261,10.);
#71=VECTOR('',#264,10.);
#72=VECTOR('',#273,10.);
#73=VECTOR('',#274,10.);
#74=VECTOR('',#277,10.);
#75=VECTOR('',#278,10.);
#76=VECTOR('',#283,1.475549637593);
#77=VECTOR('',#286,10.);
#78=VECTOR('',#291,10.);
#79=VECTOR('',#294,10.);
#80=VECTOR('',#295,10.);
#81=CIRCLE('',#221,0.5);
#82=CIRCLE('',#222,0.5);
#83=CIRCLE('',#225,0.5);
#84=CIRCLE('',#226,0.1778);
#85=CIRCLE('',#227,0.1778);
#86=CIRCLE('',#228,1.475549637593);
#87=CIRCLE('',#230,0.5);
#88=CIRCLE('',#233,1.475549637593);
#89=CIRCLE('',#236,0.1778);
#90=CIRCLE('',#239,0.1778);
#91=VERTEX_POINT('',#304);
#92=VERTEX_POINT('',#305);
#93=VERTEX_POINT('',#307);
#94=VERTEX_POINT('',#309);
#95=VERTEX_POINT('',#313);
#96=VERTEX_POINT('',#315);
#97=VERTEX_POINT('',#319);
#98=VERTEX_POINT('',#321);
#99=VERTEX_POINT('',#323);
#100=VERTEX_POINT('',#325);
#101=VERTEX_POINT('',#327);
#102=VERTEX_POINT('',#330);
#103=VERTEX_POINT('',#333);
#104=VERTEX_POINT('',#334);
#105=VERTEX_POINT('',#339);
#106=VERTEX_POINT('',#343);
#107=VERTEX_POINT('',#349);
#108=VERTEX_POINT('',#353);
#109=EDGE_CURVE('',#91,#92,#81,.T.);
#110=EDGE_CURVE('',#92,#93,#47,.T.);
#111=EDGE_CURVE('',#93,#94,#82,.T.);
#112=EDGE_CURVE('',#94,#91,#48,.T.);
#113=EDGE_CURVE('',#94,#95,#49,.T.);
#114=EDGE_CURVE('',#95,#96,#50,.T.);
#115=EDGE_CURVE('',#91,#96,#51,.T.);
#116=EDGE_CURVE('',#93,#97,#52,.T.);
#117=EDGE_CURVE('',#98,#97,#83,.T.);
#118=EDGE_CURVE('',#99,#98,#53,.T.);
#119=EDGE_CURVE('',#100,#99,#84,.T.);
#120=EDGE_CURVE('',#101,#100,#54,.T.);
#121=EDGE_CURVE('',#95,#101,#85,.T.);
#122=EDGE_CURVE('',#102,#102,#86,.T.);
#123=EDGE_CURVE('',#103,#104,#87,.T.);
#124=EDGE_CURVE('',#104,#98,#55,.T.);
#125=EDGE_CURVE('',#97,#103,#56,.T.);
#126=EDGE_CURVE('',#105,#104,#57,.T.);
#127=EDGE_CURVE('',#99,#105,#58,.T.);
#128=EDGE_CURVE('',#106,#106,#88,.T.);
#129=EDGE_CURVE('',#106,#102,#59,.T.);
#130=EDGE_CURVE('',#103,#92,#60,.T.);
#131=EDGE_CURVE('',#107,#105,#89,.T.);
#132=EDGE_CURVE('',#100,#107,#61,.T.);
#133=EDGE_CURVE('',#108,#107,#62,.T.);
#134=EDGE_CURVE('',#101,#108,#63,.T.);
#135=EDGE_CURVE('',#96,#108,#90,.T.);
#136=ORIENTED_EDGE('',*,*,#109,.T.);
#137=ORIENTED_EDGE('',*,*,#110,.T.);
#138=ORIENTED_EDGE('',*,*,#111,.T.);
#139=ORIENTED_EDGE('',*,*,#112,.T.);
#140=ORIENTED_EDGE('',*,*,#112,.F.);
#141=ORIENTED_EDGE('',*,*,#113,.T.);
#142=ORIENTED_EDGE('',*,*,#114,.T.);
#143=ORIENTED_EDGE('',*,*,#115,.F.);
#144=ORIENTED_EDGE('',*,*,#111,.F.);
#145=ORIENTED_EDGE('',*,*,#116,.T.);
#146=ORIENTED_EDGE('',*,*,#117,.F.);
#147=ORIENTED_EDGE('',*,*,#118,.F.);
#148=ORIENTED_EDGE('',*,*,#119,.F.);
#149=ORIENTED_EDGE('',*,*,#120,.F.);
#150=ORIENTED_EDGE('',*,*,#121,.F.);
#151=ORIENTED_EDGE('',*,*,#113,.F.);
#152=ORIENTED_EDGE('',*,*,#122,.F.);
#153=ORIENTED_EDGE('',*,*,#123,.T.);
#154=ORIENTED_EDGE('',*,*,#124,.T.);
#155=ORIENTED_EDGE('',*,*,#117,.T.);
#156=ORIENTED_EDGE('',*,*,#125,.T.);
#157=ORIENTED_EDGE('',*,*,#124,.F.);
#158=ORIENTED_EDGE('',*,*,#126,.F.);
#159=ORIENTED_EDGE('',*,*,#127,.F.);
#160=ORIENTED_EDGE('',*,*,#118,.T.);
#161=ORIENTED_EDGE('',*,*,#128,.F.);
#162=ORIENTED_EDGE('',*,*,#129,.T.);
#163=ORIENTED_EDGE('',*,*,#122,.T.);
#164=ORIENTED_EDGE('',*,*,#129,.F.);
#165=ORIENTED_EDGE('',*,*,#110,.F.);
#166=ORIENTED_EDGE('',*,*,#130,.F.);
#167=ORIENTED_EDGE('',*,*,#125,.F.);
#168=ORIENTED_EDGE('',*,*,#116,.F.);
#169=ORIENTED_EDGE('',*,*,#119,.T.);
#170=ORIENTED_EDGE('',*,*,#127,.T.);
#171=ORIENTED_EDGE('',*,*,#131,.F.);
#172=ORIENTED_EDGE('',*,*,#132,.F.);
#173=ORIENTED_EDGE('',*,*,#120,.T.);
#174=ORIENTED_EDGE('',*,*,#132,.T.);
#175=ORIENTED_EDGE('',*,*,#133,.F.);
#176=ORIENTED_EDGE('',*,*,#134,.F.);
#177=ORIENTED_EDGE('',*,*,#121,.T.);
#178=ORIENTED_EDGE('',*,*,#134,.T.);
#179=ORIENTED_EDGE('',*,*,#135,.F.);
#180=ORIENTED_EDGE('',*,*,#114,.F.);
#181=ORIENTED_EDGE('',*,*,#109,.F.);
#182=ORIENTED_EDGE('',*,*,#115,.T.);
#183=ORIENTED_EDGE('',*,*,#135,.T.);
#184=ORIENTED_EDGE('',*,*,#133,.T.);
#185=ORIENTED_EDGE('',*,*,#131,.T.);
#186=ORIENTED_EDGE('',*,*,#126,.T.);
#187=ORIENTED_EDGE('',*,*,#123,.F.);
#188=ORIENTED_EDGE('',*,*,#130,.T.);
#189=ORIENTED_EDGE('',*,*,#128,.T.);
#190=CYLINDRICAL_SURFACE('',#220,0.5);
#191=CYLINDRICAL_SURFACE('',#229,0.5);
#192=CYLINDRICAL_SURFACE('',#232,1.475549637593);
#193=CYLINDRICAL_SURFACE('',#235,0.1778);
#194=CYLINDRICAL_SURFACE('',#238,0.1778);
#195=ADVANCED_FACE('',(#23),#190,.T.);
#196=ADVANCED_FACE('',(#24),#17,.T.);
#197=ADVANCED_FACE('',(#25,#15),#18,.F.);
#198=ADVANCED_FACE('',(#26),#191,.T.);
#199=ADVANCED_FACE('',(#27),#19,.T.);
#200=ADVANCED_FACE('',(#28),#192,.F.);
#201=ADVANCED_FACE('',(#29),#20,.T.);
#202=ADVANCED_FACE('',(#30),#193,.T.);
#203=ADVANCED_FACE('',(#31),#21,.T.);
#204=ADVANCED_FACE('',(#32),#194,.T.);
#205=ADVANCED_FACE('',(#33,#16),#22,.T.);
#206=CLOSED_SHELL('',(#195,#196,#197,#198,#199,#200,#201,#202,#203,#204,
#205));
#207=DERIVED_UNIT_ELEMENT(#209,1.);
#208=DERIVED_UNIT_ELEMENT(#364,-3.);
#209=(
MASS_UNIT()
NAMED_UNIT(*)
SI_UNIT(.KILO.,.GRAM.)
);
#210=DERIVED_UNIT((#207,#208));
#211=MEASURE_REPRESENTATION_ITEM('density measure',
POSITIVE_RATIO_MEASURE(7850.),#210);
#212=PROPERTY_DEFINITION_REPRESENTATION(#217,#214);
#213=PROPERTY_DEFINITION_REPRESENTATION(#218,#215);
#214=REPRESENTATION('material name',(#216),#361);
#215=REPRESENTATION('density',(#211),#361);
#216=DESCRIPTIVE_REPRESENTATION_ITEM('Steel','Steel');
#217=PROPERTY_DEFINITION('material property','material name',#371);
#218=PROPERTY_DEFINITION('material property','density of part',#371);
#219=AXIS2_PLACEMENT_3D('',#302,#241,#242);
#220=AXIS2_PLACEMENT_3D('',#303,#243,#244);
#221=AXIS2_PLACEMENT_3D('',#306,#245,#246);
#222=AXIS2_PLACEMENT_3D('',#310,#248,#249);
#223=AXIS2_PLACEMENT_3D('',#312,#251,#252);
#224=AXIS2_PLACEMENT_3D('',#318,#256,#257);
#225=AXIS2_PLACEMENT_3D('',#322,#259,#260);
#226=AXIS2_PLACEMENT_3D('',#326,#262,#263);
#227=AXIS2_PLACEMENT_3D('',#329,#265,#266);
#228=AXIS2_PLACEMENT_3D('',#331,#267,#268);
#229=AXIS2_PLACEMENT_3D('',#332,#269,#270);
#230=AXIS2_PLACEMENT_3D('',#335,#271,#272);
#231=AXIS2_PLACEMENT_3D('',#338,#275,#276);
#232=AXIS2_PLACEMENT_3D('',#342,#279,#280);
#233=AXIS2_PLACEMENT_3D('',#344,#281,#282);
#234=AXIS2_PLACEMENT_3D('',#346,#284,#285);
#235=AXIS2_PLACEMENT_3D('',#348,#287,#288);
#236=AXIS2_PLACEMENT_3D('',#350,#289,#290);
#237=AXIS2_PLACEMENT_3D('',#352,#292,#293);
#238=AXIS2_PLACEMENT_3D('',#356,#296,#297);
#239=AXIS2_PLACEMENT_3D('',#357,#298,#299);
#240=AXIS2_PLACEMENT_3D('',#358,#300,#301);
#241=DIRECTION('axis',(0.,0.,1.));
#242=DIRECTION('refdir',(1.,0.,0.));
#243=DIRECTION('center_axis',(0.,0.,1.));
#244=DIRECTION('ref_axis',(-0.499999999999995,0.866025403784442,0.));
#245=DIRECTION('center_axis',(0.,0.,-1.));
#246=DIRECTION('ref_axis',(-0.499999999999995,0.866025403784442,0.));
#247=DIRECTION('',(0.,0.,-1.));
#248=DIRECTION('center_axis',(0.,0.,1.));
#249=DIRECTION('ref_axis',(-0.499999999999995,0.866025403784442,0.));
#250=DIRECTION('',(0.,0.,1.));
#251=DIRECTION('center_axis',(-0.866025403784433,0.50000000000001,0.));
#252=DIRECTION('ref_axis',(-0.50000000000001,-0.866025403784433,0.));
#253=DIRECTION('',(-0.50000000000001,-0.866025403784433,0.));
#254=DIRECTION('',(0.,0.,1.));
#255=DIRECTION('',(-0.50000000000001,-0.866025403784433,0.));
#256=DIRECTION('center_axis',(0.,0.,1.));
#257=DIRECTION('ref_axis',(-1.,0.,0.));
#258=DIRECTION('',(1.,0.,0.));
#259=DIRECTION('center_axis',(0.,0.,1.));
#260=DIRECTION('ref_axis',(0.50000000000002,0.866025403784427,0.));
#261=DIRECTION('',(-0.49999999999996,0.866025403784461,0.));
#262=DIRECTION('center_axis',(0.,0.,1.));
#263=DIRECTION('ref_axis',(0.,-1.,0.));
#264=DIRECTION('',(1.,4.05111260580625E-18,0.));
#265=DIRECTION('center_axis',(0.,0.,1.));
#266=DIRECTION('ref_axis',(-0.866025403784336,0.500000000000178,0.));
#267=DIRECTION('center_axis',(0.,0.,-1.));
#268=DIRECTION('ref_axis',(-1.,0.,0.));
#269=DIRECTION('center_axis',(0.,0.,1.));
#270=DIRECTION('ref_axis',(0.50000000000002,0.866025403784427,0.));
#271=DIRECTION('center_axis',(0.,0.,-1.));
#272=DIRECTION('ref_axis',(0.50000000000002,0.866025403784427,0.));
#273=DIRECTION('',(0.,0.,-1.));
#274=DIRECTION('',(0.,0.,1.));
#275=DIRECTION('center_axis',(0.866025403784462,0.49999999999996,0.));
#276=DIRECTION('ref_axis',(-0.49999999999996,0.866025403784462,0.));
#277=DIRECTION('',(-0.49999999999996,0.866025403784461,0.));
#278=DIRECTION('',(0.,0.,1.));
#279=DIRECTION('center_axis',(0.,0.,1.));
#280=DIRECTION('ref_axis',(-1.,0.,0.));
#281=DIRECTION('center_axis',(0.,0.,-1.));
#282=DIRECTION('ref_axis',(-1.,0.,0.));
#283=DIRECTION('',(0.,0.,-1.));
#284=DIRECTION('center_axis',(0.,1.,0.));
#285=DIRECTION('ref_axis',(-1.,0.,0.));
#286=DIRECTION('',(-1.,0.,0.));
#287=DIRECTION('center_axis',(0.,0.,1.));
#288=DIRECTION('ref_axis',(0.,-1.,0.));
#289=DIRECTION('center_axis',(0.,0.,1.));
#290=DIRECTION('ref_axis',(0.,-1.,0.));
#291=DIRECTION('',(0.,0.,1.));
#292=DIRECTION('center_axis',(4.05111260580625E-18,-1.,0.));
#293=DIRECTION('ref_axis',(1.,4.05111260580625E-18,0.));
#294=DIRECTION('',(1.,4.05111260580625E-18,0.));
#295=DIRECTION('',(0.,0.,1.));
#296=DIRECTION('center_axis',(0.,0.,1.));
#297=DIRECTION('ref_axis',(-0.866025403784336,0.500000000000178,0.));
#298=DIRECTION('center_axis',(0.,0.,1.));
#299=DIRECTION('ref_axis',(-0.866025403784336,0.500000000000178,0.));
#300=DIRECTION('center_axis',(0.,0.,1.));
#301=DIRECTION('ref_axis',(-1.,0.,0.));
#302=CARTESIAN_POINT('',(0.,0.,0.));
#303=CARTESIAN_POINT('Origin',(2.62140116222859,3.5404,0.));
#304=CARTESIAN_POINT('',(2.18838846033637,3.7904,1.52));
#305=CARTESIAN_POINT('',(2.62140116222859,4.0404,1.52));
#306=CARTESIAN_POINT('Origin',(2.62140116222859,3.5404,1.52));
#307=CARTESIAN_POINT('',(2.62140116222859,4.0404,0.));
#308=CARTESIAN_POINT('',(2.62140116222859,4.0404,0.));
#309=CARTESIAN_POINT('',(2.18838846033637,3.7904,0.));
#310=CARTESIAN_POINT('Origin',(2.62140116222859,3.5404,0.));
#311=CARTESIAN_POINT('',(2.18838846033637,3.7904,0.));
#312=CARTESIAN_POINT('Origin',(2.33272602763378,4.0404,0.));
#313=CARTESIAN_POINT('',(0.153979316792845,0.266700000000032,0.));
#314=CARTESIAN_POINT('',(3.3655479241871,5.82929999999995,0.));
#315=CARTESIAN_POINT('',(0.153979316792845,0.266700000000032,1.52));
#316=CARTESIAN_POINT('',(0.153979316792845,0.266700000000032,0.));
#317=CARTESIAN_POINT('',(3.3655479241871,5.82929999999995,1.52));
#318=CARTESIAN_POINT('Origin',(3.51952724097985,2.0202,0.));
#319=CARTESIAN_POINT('',(4.41765331973138,4.0404,0.));
#320=CARTESIAN_POINT('',(2.33272602763378,4.0404,0.));
#321=CARTESIAN_POINT('',(4.85066602162362,3.79039999999998,0.));
#322=CARTESIAN_POINT('Origin',(4.41765331973138,3.5404,0.));
#323=CARTESIAN_POINT('',(6.8850751651669,0.266699999999945,0.));
#324=CARTESIAN_POINT('',(6.8850751651669,0.266699999999945,0.));
#325=CARTESIAN_POINT('',(6.731095848374,0.,0.));
#326=CARTESIAN_POINT('Origin',(6.731095848374,0.1778,0.));
#327=CARTESIAN_POINT('',(0.3079586335857,-2.60208521396521E-17,0.));
#328=CARTESIAN_POINT('',(0.3079586335857,-2.60208521396521E-17,0.));
#329=CARTESIAN_POINT('Origin',(0.3079586335857,0.1778,0.));
#330=CARTESIAN_POINT('',(4.995076878573,2.032,0.));
#331=CARTESIAN_POINT('Origin',(3.51952724098,2.032,0.));
#332=CARTESIAN_POINT('Origin',(4.41765331973138,3.5404,0.));
#333=CARTESIAN_POINT('',(4.41765331973138,4.0404,1.52));
#334=CARTESIAN_POINT('',(4.85066602162362,3.79039999999998,1.52));
#335=CARTESIAN_POINT('Origin',(4.41765331973138,3.5404,1.52));
#336=CARTESIAN_POINT('',(4.85066602162362,3.79039999999998,0.));
#337=CARTESIAN_POINT('',(4.41765331973138,4.0404,0.));
#338=CARTESIAN_POINT('Origin',(6.8850751651669,0.266699999999945,0.));
#339=CARTESIAN_POINT('',(6.8850751651669,0.266699999999945,1.52));
#340=CARTESIAN_POINT('',(6.8850751651669,0.266699999999945,1.52));
#341=CARTESIAN_POINT('',(6.8850751651669,0.266699999999945,0.));
#342=CARTESIAN_POINT('Origin',(3.51952724098,2.032,0.));
#343=CARTESIAN_POINT('',(4.995076878573,2.032,1.52));
#344=CARTESIAN_POINT('Origin',(3.51952724098,2.032,1.52));
#345=CARTESIAN_POINT('',(4.995076878573,2.032,0.));
#346=CARTESIAN_POINT('Origin',(4.70632845432621,4.0404,0.));
#347=CARTESIAN_POINT('',(2.33272602763378,4.0404,1.52));
#348=CARTESIAN_POINT('Origin',(6.731095848374,0.1778,0.));
#349=CARTESIAN_POINT('',(6.731095848374,0.,1.52));
#350=CARTESIAN_POINT('Origin',(6.731095848374,0.1778,1.52));
#351=CARTESIAN_POINT('',(6.731095848374,0.,0.));
#352=CARTESIAN_POINT('Origin',(0.3079586335857,-2.60208521396521E-17,0.));
#353=CARTESIAN_POINT('',(0.3079586335857,0.,1.52));
#354=CARTESIAN_POINT('',(0.3079586335857,-2.60208521396521E-17,1.52));
#355=CARTESIAN_POINT('',(0.3079586335857,-2.60208521396521E-17,0.));
#356=CARTESIAN_POINT('Origin',(0.3079586335857,0.1778,0.));
#357=CARTESIAN_POINT('Origin',(0.3079586335857,0.1778,1.52));
#358=CARTESIAN_POINT('Origin',(3.51952724097985,2.0202,1.52));
#359=UNCERTAINTY_MEASURE_WITH_UNIT(LENGTH_MEASURE(0.01),#363,
'DISTANCE_ACCURACY_VALUE',
'Maximum model space distance between geometric entities at asserted c
onnectivities');
#360=UNCERTAINTY_MEASURE_WITH_UNIT(LENGTH_MEASURE(0.01),#363,
'DISTANCE_ACCURACY_VALUE',
'Maximum model space distance between geometric entities at asserted c
onnectivities');
#361=(
GEOMETRIC_REPRESENTATION_CONTEXT(3)
GLOBAL_UNCERTAINTY_ASSIGNED_CONTEXT((#359))
GLOBAL_UNIT_ASSIGNED_CONTEXT((#363,#365,#366))
REPRESENTATION_CONTEXT('','3D')
);
#362=(
GEOMETRIC_REPRESENTATION_CONTEXT(3)
GLOBAL_UNCERTAINTY_ASSIGNED_CONTEXT((#360))
GLOBAL_UNIT_ASSIGNED_CONTEXT((#363,#365,#366))
REPRESENTATION_CONTEXT('','3D')
);
#363=(
LENGTH_UNIT()
NAMED_UNIT(*)
SI_UNIT(.MILLI.,.METRE.)
);
#364=(
LENGTH_UNIT()
NAMED_UNIT(*)
SI_UNIT($,.METRE.)
);
#365=(
NAMED_UNIT(*)
PLANE_ANGLE_UNIT()
SI_UNIT($,.RADIAN.)
);
#366=(
NAMED_UNIT(*)
SI_UNIT($,.STERADIAN.)
SOLID_ANGLE_UNIT()
);
#367=SHAPE_DEFINITION_REPRESENTATION(#368,#369);
#368=PRODUCT_DEFINITION_SHAPE('',$,#371);
#369=SHAPE_REPRESENTATION('',(#219),#361);
#370=PRODUCT_DEFINITION_CONTEXT('part definition',#375,'design');
#371=PRODUCT_DEFINITION('iLock','iLock',#372,#370);
#372=PRODUCT_DEFINITION_FORMATION('',$,#377);
#373=PRODUCT_RELATED_PRODUCT_CATEGORY('iLock','iLock',(#377));
#374=APPLICATION_PROTOCOL_DEFINITION('international standard',
'automotive_design',2009,#375);
#375=APPLICATION_CONTEXT(
'Core Data for Automotive Mechanical Design Process');
#376=PRODUCT_CONTEXT('part definition',#375,'mechanical');
#377=PRODUCT('iLock','iLock',$,(#376));
#378=PRESENTATION_STYLE_ASSIGNMENT((#379));
#379=SURFACE_STYLE_USAGE(.BOTH.,#380);
#380=SURFACE_SIDE_STYLE('',(#381));
#381=SURFACE_STYLE_FILL_AREA(#382);
#382=FILL_AREA_STYLE('Paint - Enamel Glossy (Red)',(#383));
#383=FILL_AREA_STYLE_COLOUR('Paint - Enamel Glossy (Red)',#384);
#384=COLOUR_RGB('Paint - Enamel Glossy (Red)',0.768627450980392,0.207843137254902,
0.152941176470588);
ENDSEC;
END-ISO-10303-21;
