ISO-10303-21;
HEADER;
/* Generated by software containing ST-Developer
 * from STEP Tools, Inc. (www.steptools.com) 
 */

FILE_DESCRIPTION(
/* description */ (''),
/* implementation_level */ '2;1');

FILE_NAME(
/* name */ '3D_UCF_B_Idler.step',
/* time_stamp */ '2025-09-15T10:08:39-07:00',
/* author */ (''),
/* organization */ (''),
/* preprocessor_version */ 'ST-DEVELOPER v20.1',
/* originating_system */ 'Autodesk Translation Framework v14.17.0.0',
/* authorisation */ '');

FILE_SCHEMA (('AUTOMOTIVE_DESIGN { 1 0 10303 214 3 1 1 }'));
ENDSEC;

DATA;
#10=MECHANICAL_DESIGN_GEOMETRIC_PRESENTATION_REPRESENTATION('',(#13),#330);
#11=SHAPE_REPRESENTATION_RELATIONSHIP('SRR','None',#337,#12);
#12=ADVANCED_BREP_SHAPE_REPRESENTATION('',(#14),#329);
#13=STYLED_ITEM('',(#346),#14);
#14=MANIFOLD_SOLID_BREP('Body3',#172);
#15=CONICAL_SURFACE('',#197,10.557618439613,1.36135681657239);
#16=CONICAL_SURFACE('',#205,10.5576184395879,1.36135681655844);
#17=FACE_BOUND('',#49,.T.);
#18=FACE_BOUND('',#57,.T.);
#19=PLANE('',#192);
#20=PLANE('',#210);
#21=LINE('',#289,#26);
#22=LINE('',#300,#27);
#23=LINE('',#310,#28);
#24=LINE('',#315,#29);
#25=LINE('',#324,#30);
#26=VECTOR('',#227,11.0999999999963);
#27=VECTOR('',#242,10.557618439613);
#28=VECTOR('',#255,11.0999999999933);
#29=VECTOR('',#262,10.5576184395878);
#30=VECTOR('',#275,5.9999999999948);
#31=CYLINDRICAL_SURFACE('',#190,11.0999999999963);
#32=CYLINDRICAL_SURFACE('',#203,11.0999999999933);
#33=CYLINDRICAL_SURFACE('',#212,5.9999999999948);
#34=FACE_OUTER_BOUND('',#46,.T.);
#35=FACE_OUTER_BOUND('',#47,.T.);
#36=FACE_OUTER_BOUND('',#48,.T.);
#37=FACE_OUTER_BOUND('',#50,.T.);
#38=FACE_OUTER_BOUND('',#51,.T.);
#39=FACE_OUTER_BOUND('',#52,.T.);
#40=FACE_OUTER_BOUND('',#53,.T.);
#41=FACE_OUTER_BOUND('',#54,.T.);
#42=FACE_OUTER_BOUND('',#55,.T.);
#43=FACE_OUTER_BOUND('',#56,.T.);
#44=FACE_OUTER_BOUND('',#58,.T.);
#45=FACE_OUTER_BOUND('',#59,.T.);
#46=EDGE_LOOP('',(#111,#112,#113,#114));
#47=EDGE_LOOP('',(#115,#116,#117,#118));
#48=EDGE_LOOP('',(#119));
#49=EDGE_LOOP('',(#120));
#50=EDGE_LOOP('',(#121,#122,#123,#124));
#51=EDGE_LOOP('',(#125,#126,#127,#128));
#52=EDGE_LOOP('',(#129,#130,#131,#132));
#53=EDGE_LOOP('',(#133,#134,#135,#136));
#54=EDGE_LOOP('',(#137,#138,#139,#140));
#55=EDGE_LOOP('',(#141,#142,#143,#144));
#56=EDGE_LOOP('',(#145));
#57=EDGE_LOOP('',(#146));
#58=EDGE_LOOP('',(#147,#148,#149,#150));
#59=EDGE_LOOP('',(#151,#152,#153,#154));
#60=CIRCLE('',#187,10.5999999999963);
#61=CIRCLE('',#188,0.5);
#62=CIRCLE('',#189,11.0999999999963);
#63=CIRCLE('',#191,11.0999999999963);
#64=CIRCLE('',#193,5.99999999999668);
#65=CIRCLE('',#195,0.5);
#66=CIRCLE('',#196,10.7039558453969);
#67=CIRCLE('',#198,10.0152368792302);
#68=CIRCLE('',#200,10.7039558454008);
#69=CIRCLE('',#201,0.5);
#70=CIRCLE('',#202,11.0999999999933);
#71=CIRCLE('',#204,11.0999999999933);
#72=CIRCLE('',#206,10.0152368792068);
#73=CIRCLE('',#208,0.5);
#74=CIRCLE('',#209,10.5999999999933);
#75=CIRCLE('',#211,5.99999999999292);
#76=CIRCLE('',#214,1.55);
#77=VERTEX_POINT('',#282);
#78=VERTEX_POINT('',#284);
#79=VERTEX_POINT('',#288);
#80=VERTEX_POINT('',#292);
#81=VERTEX_POINT('',#295);
#82=VERTEX_POINT('',#299);
#83=VERTEX_POINT('',#303);
#84=VERTEX_POINT('',#305);
#85=VERTEX_POINT('',#309);
#86=VERTEX_POINT('',#313);
#87=VERTEX_POINT('',#317);
#88=VERTEX_POINT('',#321);
#89=EDGE_CURVE('',#77,#77,#60,.T.);
#90=EDGE_CURVE('',#77,#78,#61,.T.);
#91=EDGE_CURVE('',#78,#78,#62,.T.);
#92=EDGE_CURVE('',#78,#79,#21,.T.);
#93=EDGE_CURVE('',#79,#79,#63,.T.);
#94=EDGE_CURVE('',#80,#80,#64,.T.);
#95=EDGE_CURVE('',#79,#81,#65,.T.);
#96=EDGE_CURVE('',#81,#81,#66,.T.);
#97=EDGE_CURVE('',#81,#82,#22,.T.);
#98=EDGE_CURVE('',#82,#82,#67,.T.);
#99=EDGE_CURVE('',#83,#83,#68,.T.);
#100=EDGE_CURVE('',#83,#84,#69,.T.);
#101=EDGE_CURVE('',#84,#84,#70,.T.);
#102=EDGE_CURVE('',#84,#85,#23,.T.);
#103=EDGE_CURVE('',#85,#85,#71,.T.);
#104=EDGE_CURVE('',#86,#86,#72,.T.);
#105=EDGE_CURVE('',#86,#83,#24,.T.);
#106=EDGE_CURVE('',#85,#87,#73,.T.);
#107=EDGE_CURVE('',#87,#87,#74,.T.);
#108=EDGE_CURVE('',#88,#88,#75,.T.);
#109=EDGE_CURVE('',#80,#88,#25,.T.);
#110=EDGE_CURVE('',#86,#82,#76,.T.);
#111=ORIENTED_EDGE('',*,*,#89,.T.);
#112=ORIENTED_EDGE('',*,*,#90,.T.);
#113=ORIENTED_EDGE('',*,*,#91,.T.);
#114=ORIENTED_EDGE('',*,*,#90,.F.);
#115=ORIENTED_EDGE('',*,*,#91,.F.);
#116=ORIENTED_EDGE('',*,*,#92,.T.);
#117=ORIENTED_EDGE('',*,*,#93,.F.);
#118=ORIENTED_EDGE('',*,*,#92,.F.);
#119=ORIENTED_EDGE('',*,*,#89,.F.);
#120=ORIENTED_EDGE('',*,*,#94,.F.);
#121=ORIENTED_EDGE('',*,*,#93,.T.);
#122=ORIENTED_EDGE('',*,*,#95,.T.);
#123=ORIENTED_EDGE('',*,*,#96,.T.);
#124=ORIENTED_EDGE('',*,*,#95,.F.);
#125=ORIENTED_EDGE('',*,*,#96,.F.);
#126=ORIENTED_EDGE('',*,*,#97,.T.);
#127=ORIENTED_EDGE('',*,*,#98,.T.);
#128=ORIENTED_EDGE('',*,*,#97,.F.);
#129=ORIENTED_EDGE('',*,*,#99,.T.);
#130=ORIENTED_EDGE('',*,*,#100,.T.);
#131=ORIENTED_EDGE('',*,*,#101,.T.);
#132=ORIENTED_EDGE('',*,*,#100,.F.);
#133=ORIENTED_EDGE('',*,*,#101,.F.);
#134=ORIENTED_EDGE('',*,*,#102,.T.);
#135=ORIENTED_EDGE('',*,*,#103,.F.);
#136=ORIENTED_EDGE('',*,*,#102,.F.);
#137=ORIENTED_EDGE('',*,*,#104,.F.);
#138=ORIENTED_EDGE('',*,*,#105,.T.);
#139=ORIENTED_EDGE('',*,*,#99,.F.);
#140=ORIENTED_EDGE('',*,*,#105,.F.);
#141=ORIENTED_EDGE('',*,*,#103,.T.);
#142=ORIENTED_EDGE('',*,*,#106,.T.);
#143=ORIENTED_EDGE('',*,*,#107,.T.);
#144=ORIENTED_EDGE('',*,*,#106,.F.);
#145=ORIENTED_EDGE('',*,*,#107,.F.);
#146=ORIENTED_EDGE('',*,*,#108,.T.);
#147=ORIENTED_EDGE('',*,*,#94,.T.);
#148=ORIENTED_EDGE('',*,*,#109,.T.);
#149=ORIENTED_EDGE('',*,*,#108,.F.);
#150=ORIENTED_EDGE('',*,*,#109,.F.);
#151=ORIENTED_EDGE('',*,*,#104,.T.);
#152=ORIENTED_EDGE('',*,*,#110,.T.);
#153=ORIENTED_EDGE('',*,*,#98,.F.);
#154=ORIENTED_EDGE('',*,*,#110,.F.);
#155=TOROIDAL_SURFACE('',#186,10.5999999999963,0.5);
#156=TOROIDAL_SURFACE('',#194,10.5999999999963,0.5);
#157=TOROIDAL_SURFACE('',#199,10.5999999999933,0.5);
#158=TOROIDAL_SURFACE('',#207,10.5999999999933,0.5);
#159=TOROIDAL_SURFACE('',#213,10.3374999999948,1.55);
#160=ADVANCED_FACE('',(#34),#155,.T.);
#161=ADVANCED_FACE('',(#35),#31,.T.);
#162=ADVANCED_FACE('',(#36,#17),#19,.T.);
#163=ADVANCED_FACE('',(#37),#156,.T.);
#164=ADVANCED_FACE('',(#38),#15,.T.);
#165=ADVANCED_FACE('',(#39),#157,.T.);
#166=ADVANCED_FACE('',(#40),#32,.T.);
#167=ADVANCED_FACE('',(#41),#16,.T.);
#168=ADVANCED_FACE('',(#42),#158,.T.);
#169=ADVANCED_FACE('',(#43,#18),#20,.T.);
#170=ADVANCED_FACE('',(#44),#33,.F.);
#171=ADVANCED_FACE('',(#45),#159,.F.);
#172=CLOSED_SHELL('',(#160,#161,#162,#163,#164,#165,#166,#167,#168,#169,
#170,#171));
#173=DERIVED_UNIT_ELEMENT(#175,1.);
#174=DERIVED_UNIT_ELEMENT(#332,-3.);
#175=(
MASS_UNIT()
NAMED_UNIT(*)
SI_UNIT(.KILO.,.GRAM.)
);
#176=DERIVED_UNIT((#173,#174));
#177=MEASURE_REPRESENTATION_ITEM('density measure',
POSITIVE_RATIO_MEASURE(7850.),#176);
#178=PROPERTY_DEFINITION_REPRESENTATION(#183,#180);
#179=PROPERTY_DEFINITION_REPRESENTATION(#184,#181);
#180=REPRESENTATION('material name',(#182),#329);
#181=REPRESENTATION('density',(#177),#329);
#182=DESCRIPTIVE_REPRESENTATION_ITEM('Steel','Steel');
#183=PROPERTY_DEFINITION('material property','material name',#339);
#184=PROPERTY_DEFINITION('material property','density of part',#339);
#185=AXIS2_PLACEMENT_3D('',#280,#215,#216);
#186=AXIS2_PLACEMENT_3D('',#281,#217,#218);
#187=AXIS2_PLACEMENT_3D('',#283,#219,#220);
#188=AXIS2_PLACEMENT_3D('',#285,#221,#222);
#189=AXIS2_PLACEMENT_3D('',#286,#223,#224);
#190=AXIS2_PLACEMENT_3D('',#287,#225,#226);
#191=AXIS2_PLACEMENT_3D('',#290,#228,#229);
#192=AXIS2_PLACEMENT_3D('',#291,#230,#231);
#193=AXIS2_PLACEMENT_3D('',#293,#232,#233);
#194=AXIS2_PLACEMENT_3D('',#294,#234,#235);
#195=AXIS2_PLACEMENT_3D('',#296,#236,#237);
#196=AXIS2_PLACEMENT_3D('',#297,#238,#239);
#197=AXIS2_PLACEMENT_3D('',#298,#240,#241);
#198=AXIS2_PLACEMENT_3D('',#301,#243,#244);
#199=AXIS2_PLACEMENT_3D('',#302,#245,#246);
#200=AXIS2_PLACEMENT_3D('',#304,#247,#248);
#201=AXIS2_PLACEMENT_3D('',#306,#249,#250);
#202=AXIS2_PLACEMENT_3D('',#307,#251,#252);
#203=AXIS2_PLACEMENT_3D('',#308,#253,#254);
#204=AXIS2_PLACEMENT_3D('',#311,#256,#257);
#205=AXIS2_PLACEMENT_3D('',#312,#258,#259);
#206=AXIS2_PLACEMENT_3D('',#314,#260,#261);
#207=AXIS2_PLACEMENT_3D('',#316,#263,#264);
#208=AXIS2_PLACEMENT_3D('',#318,#265,#266);
#209=AXIS2_PLACEMENT_3D('',#319,#267,#268);
#210=AXIS2_PLACEMENT_3D('',#320,#269,#270);
#211=AXIS2_PLACEMENT_3D('',#322,#271,#272);
#212=AXIS2_PLACEMENT_3D('',#323,#273,#274);
#213=AXIS2_PLACEMENT_3D('',#325,#276,#277);
#214=AXIS2_PLACEMENT_3D('',#326,#278,#279);
#215=DIRECTION('axis',(0.,0.,1.));
#216=DIRECTION('refdir',(1.,0.,0.));
#217=DIRECTION('center_axis',(-1.,0.,-5.87660592601174E-13));
#218=DIRECTION('ref_axis',(-5.87678054368448E-13,0.,1.));
#219=DIRECTION('center_axis',(1.,0.,5.87660592601174E-13));
#220=DIRECTION('ref_axis',(5.87660592601174E-13,1.22464679914735E-16,-1.));
#221=DIRECTION('center_axis',(-7.19676663714065E-29,-1.,1.22464679914735E-16));
#222=DIRECTION('ref_axis',(5.87668052359217E-13,-1.22464679914735E-16,-1.));
#223=DIRECTION('center_axis',(-1.,0.,-5.87660592601174E-13));
#224=DIRECTION('ref_axis',(5.87661801103425E-13,1.22464679914735E-16,-1.));
#225=DIRECTION('center_axis',(-1.,0.,-5.87660592601174E-13));
#226=DIRECTION('ref_axis',(-5.87603518186789E-13,0.,1.));
#227=DIRECTION('',(1.,0.,5.87660592601174E-13));
#228=DIRECTION('center_axis',(1.,0.,5.87660592601174E-13));
#229=DIRECTION('ref_axis',(5.8766180110347E-13,1.22464679914735E-16,-1.));
#230=DIRECTION('center_axis',(-1.,0.,-5.87660592601174E-13));
#231=DIRECTION('ref_axis',(-5.87660592601174E-13,0.,1.));
#232=DIRECTION('center_axis',(-1.,0.,-5.87660592601174E-13));
#233=DIRECTION('ref_axis',(-5.87660592601174E-13,0.,1.));
#234=DIRECTION('center_axis',(-1.,0.,-5.87660592601174E-13));
#235=DIRECTION('ref_axis',(-5.87678054368448E-13,0.,1.));
#236=DIRECTION('center_axis',(-7.19676663714065E-29,-1.,1.22464679914735E-16));
#237=DIRECTION('ref_axis',(5.87668052359217E-13,-1.22464679914735E-16,-1.));
#238=DIRECTION('center_axis',(-1.,1.23927837617037E-28,-5.87630277708847E-13));
#239=DIRECTION('ref_axis',(5.87630277708847E-13,2.30306474019676E-32,-1.));
#240=DIRECTION('center_axis',(-1.,0.,-5.87660592601174E-13));
#241=DIRECTION('ref_axis',(-5.87603518186789E-13,0.,1.));
#242=DIRECTION('',(0.207911690800744,1.1978853283366E-16,0.978147600737422));
#243=DIRECTION('center_axis',(-1.,0.,-5.87660592601174E-13));
#244=DIRECTION('ref_axis',(-5.87660592601174E-13,0.,1.));
#245=DIRECTION('center_axis',(-1.,0.,-5.87660592601174E-13));
#246=DIRECTION('ref_axis',(-5.87678054368602E-13,0.,1.));
#247=DIRECTION('center_axis',(1.,-1.23754355561749E-28,5.87604347504868E-13));
#248=DIRECTION('ref_axis',(5.87604347504868E-13,0.,-1.));
#249=DIRECTION('center_axis',(-7.19676663714065E-29,-1.,1.22464679914735E-16));
#250=DIRECTION('ref_axis',(5.87668052359371E-13,-1.22464679914735E-16,-1.));
#251=DIRECTION('center_axis',(-1.,0.,-5.87660592601174E-13));
#252=DIRECTION('ref_axis',(5.87661801104897E-13,1.22464679914735E-16,-1.));
#253=DIRECTION('center_axis',(-1.,0.,-5.87660592601174E-13));
#254=DIRECTION('ref_axis',(-5.87603518186789E-13,0.,1.));
#255=DIRECTION('',(1.,0.,5.87660592601174E-13));
#256=DIRECTION('center_axis',(1.,0.,5.87660592601174E-13));
#257=DIRECTION('ref_axis',(5.87661801103624E-13,1.22464679914735E-16,-1.));
#258=DIRECTION('center_axis',(1.,0.,5.87660592601174E-13));
#259=DIRECTION('ref_axis',(-5.87603518186789E-13,0.,1.));
#260=DIRECTION('center_axis',(-1.,0.,-5.87660592601174E-13));
#261=DIRECTION('ref_axis',(-5.87660592601174E-13,0.,1.));
#262=DIRECTION('',(0.207911690815535,-1.19788532833305E-16,-0.978147600734278));
#263=DIRECTION('center_axis',(-1.,0.,-5.87660592601174E-13));
#264=DIRECTION('ref_axis',(-5.87678054368602E-13,0.,1.));
#265=DIRECTION('center_axis',(-7.19676663714065E-29,-1.,1.22464679914735E-16));
#266=DIRECTION('ref_axis',(5.87668052359371E-13,-1.22464679914735E-16,-1.));
#267=DIRECTION('center_axis',(-1.,0.,-5.87660592601174E-13));
#268=DIRECTION('ref_axis',(5.87660592601174E-13,1.22464679914735E-16,-1.));
#269=DIRECTION('center_axis',(1.,0.,5.87660592601174E-13));
#270=DIRECTION('ref_axis',(5.87660592601174E-13,0.,-1.));
#271=DIRECTION('center_axis',(-1.,0.,-5.87660592601174E-13));
#272=DIRECTION('ref_axis',(-5.87660592601174E-13,0.,1.));
#273=DIRECTION('center_axis',(-1.,0.,-5.87660592601174E-13));
#274=DIRECTION('ref_axis',(-5.87603518186789E-13,0.,1.));
#275=DIRECTION('',(1.,0.,5.87660592601174E-13));
#276=DIRECTION('center_axis',(-1.,0.,-5.87660592601174E-13));
#277=DIRECTION('ref_axis',(-5.87660592601174E-13,0.,1.));
#278=DIRECTION('center_axis',(-7.19676663714065E-29,-1.,1.22464679914735E-16));
#279=DIRECTION('ref_axis',(5.87660592601174E-13,-1.22464679914735E-16,-1.));
#280=CARTESIAN_POINT('',(0.,0.,0.));
#281=CARTESIAN_POINT('Origin',(-2.69999999999923,0.,3.61195627938848E-12));
#282=CARTESIAN_POINT('',(-3.199999999993,-1.29812560709574E-15,-10.5999999999929));
#283=CARTESIAN_POINT('Origin',(-3.19999999999923,0.,3.31812598308789E-12));
#284=CARTESIAN_POINT('',(-2.69999999999271,-1.3593579470531E-15,-11.0999999999926));
#285=CARTESIAN_POINT('Origin',(-2.699999999993,-1.29812560709574E-15,-10.5999999999926));
#286=CARTESIAN_POINT('Origin',(-2.69999999999923,0.,3.61195627938848E-12));
#287=CARTESIAN_POINT('Origin',(-2.47335115014479,0.,3.74514887680631E-12));
#288=CARTESIAN_POINT('',(-2.15159431688732,-1.3593579470531E-15,-11.0999999999923));
#289=CARTESIAN_POINT('',(-2.47335115013827,-1.3593579470531E-15,-11.0999999999925));
#290=CARTESIAN_POINT('Origin',(-2.15159431689385,0.,3.93423268810804E-12));
#291=CARTESIAN_POINT('Origin',(-3.20000000000276,0.,6.));
#292=CARTESIAN_POINT('',(-3.19999999999331,-7.34788079487775E-16,-5.99999999999148));
#293=CARTESIAN_POINT('Origin',(-3.19999999999684,0.,3.31812598308929E-12));
#294=CARTESIAN_POINT('Origin',(-2.15159431689385,0.,3.93423268810804E-12));
#295=CARTESIAN_POINT('',(-1.6625205165189,-1.31085652642799E-15,-10.7039558453927));
#296=CARTESIAN_POINT('Origin',(-2.15159431688762,-1.29812560709574E-15,
-10.5999999999923));
#297=CARTESIAN_POINT('Origin',(-1.66252051652519,-1.31085652642799E-15,
4.22217816264947E-12));
#298=CARTESIAN_POINT('Origin',(-1.63141554071063,0.,4.23992125597842E-12));
#299=CARTESIAN_POINT('',(-1.51612878112609,-1.22651277868518E-15,-10.0152368792259));
#300=CARTESIAN_POINT('',(-1.63141554070443,-1.29293536286912E-15,-10.5576184396088));
#301=CARTESIAN_POINT('Origin',(-1.51612878113197,0.,4.30767074143148E-12));
#302=CARTESIAN_POINT('Origin',(2.15159431691514,0.,6.46304707072686E-12));
#303=CARTESIAN_POINT('',(1.66252051655423,-1.31085652642847E-15,-10.7039558453947));
#304=CARTESIAN_POINT('Origin',(1.66252051654794,-1.31085652642847E-15,6.17617068598975E-12));
#305=CARTESIAN_POINT('',(2.15159431692166,-1.35935794705275E-15,-11.0999999999869));
#306=CARTESIAN_POINT('Origin',(2.15159431692137,-1.29812560709538E-15,-10.5999999999869));
#307=CARTESIAN_POINT('Origin',(2.15159431691514,0.,6.46304707072686E-12));
#308=CARTESIAN_POINT('Origin',(2.47335115015548,0.,6.65213088202236E-12));
#309=CARTESIAN_POINT('',(2.70000000000623,-1.35935794705275E-15,-11.0999999999866));
#310=CARTESIAN_POINT('',(2.473351150162,-1.35935794705275E-15,-11.0999999999867));
#311=CARTESIAN_POINT('Origin',(2.69999999999971,0.,6.78532347943419E-12));
#312=CARTESIAN_POINT('Origin',(1.63141554072506,0.,6.15735850285245E-12));
#313=CARTESIAN_POINT('',(1.51612878114475,-1.22651277868232E-15,-10.0152368792007));
#314=CARTESIAN_POINT('Origin',(1.51612878113887,0.,6.08960901739496E-12));
#315=CARTESIAN_POINT('',(1.63141554073126,-1.29293536286603E-15,-10.5576184395817));
#316=CARTESIAN_POINT('Origin',(2.69999999999971,0.,6.78532347943419E-12));
#317=CARTESIAN_POINT('',(3.20000000000594,-1.29812560709538E-15,-10.5999999999863));
#318=CARTESIAN_POINT('Origin',(2.70000000000594,-1.29812560709538E-15,-10.5999999999866));
#319=CARTESIAN_POINT('Origin',(3.19999999999971,0.,7.07915377573478E-12));
#320=CARTESIAN_POINT('Origin',(3.19999999999318,0.,11.1));
#321=CARTESIAN_POINT('',(3.19999999999911,-7.34788079487775E-16,-5.99999999998772));
#322=CARTESIAN_POINT('Origin',(3.19999999999558,0.,7.07915377573235E-12));
#323=CARTESIAN_POINT('Origin',(-6.29600538371022E-13,0.,5.19863987941082E-12));
#324=CARTESIAN_POINT('',(2.89602057074666E-12,-7.34788079487775E-16,-5.9999999999896));
#325=CARTESIAN_POINT('Origin',(6.07493222393174E-12,0.,5.19863987941476E-12));
#326=CARTESIAN_POINT('Origin',(1.21498735999433E-11,-1.26597862861794E-15,
-10.3374999999896));
#327=UNCERTAINTY_MEASURE_WITH_UNIT(LENGTH_MEASURE(0.01),#331,
'DISTANCE_ACCURACY_VALUE',
'Maximum model space distance between geometric entities at asserted c
onnectivities');
#328=UNCERTAINTY_MEASURE_WITH_UNIT(LENGTH_MEASURE(0.01),#331,
'DISTANCE_ACCURACY_VALUE',
'Maximum model space distance between geometric entities at asserted c
onnectivities');
#329=(
GEOMETRIC_REPRESENTATION_CONTEXT(3)
GLOBAL_UNCERTAINTY_ASSIGNED_CONTEXT((#327))
GLOBAL_UNIT_ASSIGNED_CONTEXT((#331,#333,#334))
REPRESENTATION_CONTEXT('','3D')
);
#330=(
GEOMETRIC_REPRESENTATION_CONTEXT(3)
GLOBAL_UNCERTAINTY_ASSIGNED_CONTEXT((#328))
GLOBAL_UNIT_ASSIGNED_CONTEXT((#331,#333,#334))
REPRESENTATION_CONTEXT('','3D')
);
#331=(
LENGTH_UNIT()
NAMED_UNIT(*)
SI_UNIT(.MILLI.,.METRE.)
);
#332=(
LENGTH_UNIT()
NAMED_UNIT(*)
SI_UNIT($,.METRE.)
);
#333=(
NAMED_UNIT(*)
PLANE_ANGLE_UNIT()
SI_UNIT($,.RADIAN.)
);
#334=(
NAMED_UNIT(*)
SI_UNIT($,.STERADIAN.)
SOLID_ANGLE_UNIT()
);
#335=SHAPE_DEFINITION_REPRESENTATION(#336,#337);
#336=PRODUCT_DEFINITION_SHAPE('',$,#339);
#337=SHAPE_REPRESENTATION('',(#185),#329);
#338=PRODUCT_DEFINITION_CONTEXT('part definition',#343,'design');
#339=PRODUCT_DEFINITION('3D_UCF_B_Idler','3D_UCF_B_Idler',#340,#338);
#340=PRODUCT_DEFINITION_FORMATION('',$,#345);
#341=PRODUCT_RELATED_PRODUCT_CATEGORY('3D_UCF_B_Idler','3D_UCF_B_Idler',
(#345));
#342=APPLICATION_PROTOCOL_DEFINITION('international standard',
'automotive_design',2009,#343);
#343=APPLICATION_CONTEXT(
'Core Data for Automotive Mechanical Design Process');
#344=PRODUCT_CONTEXT('part definition',#343,'mechanical');
#345=PRODUCT('3D_UCF_B_Idler','3D_UCF_B_Idler',$,(#344));
#346=PRESENTATION_STYLE_ASSIGNMENT((#347));
#347=SURFACE_STYLE_USAGE(.BOTH.,#348);
#348=SURFACE_SIDE_STYLE('',(#349));
#349=SURFACE_STYLE_FILL_AREA(#350);
#350=FILL_AREA_STYLE('Paint - Enamel Glossy (Green)',(#351));
#351=FILL_AREA_STYLE_COLOUR('Paint - Enamel Glossy (Green)',#352);
#352=COLOUR_RGB('Paint - Enamel Glossy (Green)',0.266666666666667,0.588235294117647,
0.282352941176471);
ENDSEC;
END-ISO-10303-21;
