ISO-10303-21;
HEADER;
/* Generated by software containing ST-Developer
 * from STEP Tools, Inc. (www.steptools.com) 
 */

FILE_DESCRIPTION(
/* description */ (''),
/* implementation_level */ '2;1');

FILE_NAME(
/* name */ 'Cutterhead_Insert_CCW.step',
/* time_stamp */ '2025-09-15T11:09:04-07:00',
/* author */ (''),
/* organization */ (''),
/* preprocessor_version */ 'ST-DEVELOPER v20.1',
/* originating_system */ 'Autodesk Translation Framework v14.17.0.0',
/* authorisation */ '');

FILE_SCHEMA (('AUTOMOTIVE_DESIGN { 1 0 10303 214 3 1 1 }'));
ENDSEC;

DATA;
#10=MECHANICAL_DESIGN_GEOMETRIC_PRESENTATION_REPRESENTATION('',(#13),#1052);
#11=SHAPE_REPRESENTATION_RELATIONSHIP('SRR','None',#1059,#12);
#12=ADVANCED_BREP_SHAPE_REPRESENTATION('',(#14),#1051);
#13=STYLED_ITEM('',(#1068),#14);
#14=MANIFOLD_SOLID_BREP('Body1',#479);
#15=CYLINDRICAL_SURFACE('',#510,0.874999999999999);
#16=CYLINDRICAL_SURFACE('',#522,7.25000000000001);
#17=CYLINDRICAL_SURFACE('',#527,9.04999999999999);
#18=CYLINDRICAL_SURFACE('',#531,5.09999999999862);
#19=CYLINDRICAL_SURFACE('',#535,3.6);
#20=CYLINDRICAL_SURFACE('',#539,5.10000000000067);
#21=FACE_BOUND('',#94,.T.);
#22=FACE_BOUND('',#103,.T.);
#23=FACE_BOUND('',#108,.T.);
#24=FACE_BOUND('',#111,.T.);
#25=FACE_BOUND('',#114,.T.);
#26=CONICAL_SURFACE('',#500,9.99806790798152,0.785398163397447);
#27=CONICAL_SURFACE('',#504,10.9108715800847,0.785398163397467);
#28=CONICAL_SURFACE('',#525,8.15,1.36135681655556);
#29=CONICAL_SURFACE('',#540,8.49618227742571,1.36135681655385);
#30=B_SPLINE_SURFACE_WITH_KNOTS('',3,3,((#713,#714,#715,#716,#717,#718,
#719,#720,#721,#722),(#723,#724,#725,#726,#727,#728,#729,#730,#731,#732),
(#733,#734,#735,#736,#737,#738,#739,#740,#741,#742),(#743,#744,#745,#746,
#747,#748,#749,#750,#751,#752)),.UNSPECIFIED.,.F.,.F.,.F.,(4,4),(4,1,1,
1,1,1,1,4),(0.,1.),(-3.57132860368984,-3.38629727130972,-3.20126593892961,
-3.01623460654949,-2.83120327416937,-2.64617194178926,-2.46114060940914,
-2.27610927702902),.UNSPECIFIED.);
#31=B_SPLINE_SURFACE_WITH_KNOTS('',3,3,((#880,#881,#882,#883,#884,#885,
#886),(#887,#888,#889,#890,#891,#892,#893),(#894,#895,#896,#897,#898,#899,
#900),(#901,#902,#903,#904,#905,#906,#907)),.UNSPECIFIED.,.F.,.F.,.F.,(4,
4),(4,1,1,1,4),(0.,1.00000000059934),(-0.865483376559696,-0.495420711746538,
-0.310389379339959,0.0596732854731987,0.429735950286356),.UNSPECIFIED.);
#32=CIRCLE('',#495,12.0793786053181);
#33=CIRCLE('',#496,12.0793786053181);
#34=CIRCLE('',#497,12.079378605318);
#35=CIRCLE('',#498,12.079378605318);
#36=CIRCLE('',#501,10.3693886032305);
#37=CIRCLE('',#502,9.13091675991428);
#38=CIRCLE('',#505,9.74236455485141);
#39=CIRCLE('',#506,10.3693886032409);
#40=CIRCLE('',#509,0.874999999999999);
#41=CIRCLE('',#511,0.874999999999999);
#42=CIRCLE('',#518,4.1454);
#43=CIRCLE('',#519,6.19967630918356);
#44=CIRCLE('',#521,5.10000000000067);
#45=CIRCLE('',#523,7.24999999999999);
#46=CIRCLE('',#524,7.25000000000002);
#47=CIRCLE('',#526,9.05);
#48=CIRCLE('',#528,9.04999999999999);
#49=CIRCLE('',#530,5.09999999999805);
#50=CIRCLE('',#532,5.09999999999919);
#51=CIRCLE('',#534,3.60000000000001);
#52=CIRCLE('',#536,3.6);
#53=CIRCLE('',#538,5.10000000000067);
#54=TOROIDAL_SURFACE('',#494,10.4,2.375);
#55=TOROIDAL_SURFACE('',#517,6.19967630918356,4.1454);
#56=FACE_OUTER_BOUND('',#84,.T.);
#57=FACE_OUTER_BOUND('',#85,.T.);
#58=FACE_OUTER_BOUND('',#86,.T.);
#59=FACE_OUTER_BOUND('',#87,.T.);
#60=FACE_OUTER_BOUND('',#88,.T.);
#61=FACE_OUTER_BOUND('',#89,.T.);
#62=FACE_OUTER_BOUND('',#90,.T.);
#63=FACE_OUTER_BOUND('',#91,.T.);
#64=FACE_OUTER_BOUND('',#92,.T.);
#65=FACE_OUTER_BOUND('',#93,.T.);
#66=FACE_OUTER_BOUND('',#95,.T.);
#67=FACE_OUTER_BOUND('',#96,.T.);
#68=FACE_OUTER_BOUND('',#97,.T.);
#69=FACE_OUTER_BOUND('',#98,.T.);
#70=FACE_OUTER_BOUND('',#99,.T.);
#71=FACE_OUTER_BOUND('',#100,.T.);
#72=FACE_OUTER_BOUND('',#101,.T.);
#73=FACE_OUTER_BOUND('',#102,.T.);
#74=FACE_OUTER_BOUND('',#104,.T.);
#75=FACE_OUTER_BOUND('',#105,.T.);
#76=FACE_OUTER_BOUND('',#106,.T.);
#77=FACE_OUTER_BOUND('',#107,.T.);
#78=FACE_OUTER_BOUND('',#109,.T.);
#79=FACE_OUTER_BOUND('',#110,.T.);
#80=FACE_OUTER_BOUND('',#112,.T.);
#81=FACE_OUTER_BOUND('',#113,.T.);
#82=FACE_OUTER_BOUND('',#115,.T.);
#83=FACE_OUTER_BOUND('',#116,.T.);
#84=EDGE_LOOP('',(#299,#300,#301,#302,#303));
#85=EDGE_LOOP('',(#304,#305,#306,#307,#308,#309,#310));
#86=EDGE_LOOP('',(#311,#312,#313,#314,#315,#316));
#87=EDGE_LOOP('',(#317,#318,#319));
#88=EDGE_LOOP('',(#320,#321,#322,#323,#324,#325,#326,#327,#328,#329,#330,
#331,#332,#333));
#89=EDGE_LOOP('',(#334,#335,#336,#337,#338,#339));
#90=EDGE_LOOP('',(#340,#341,#342));
#91=EDGE_LOOP('',(#343,#344,#345,#346,#347,#348,#349,#350,#351,#352,#353,
#354,#355,#356));
#92=EDGE_LOOP('',(#357,#358,#359));
#93=EDGE_LOOP('',(#360,#361,#362,#363,#364,#365,#366,#367,#368,#369,#370,
#371));
#94=EDGE_LOOP('',(#372));
#95=EDGE_LOOP('',(#373,#374,#375,#376));
#96=EDGE_LOOP('',(#377));
#97=EDGE_LOOP('',(#378,#379,#380));
#98=EDGE_LOOP('',(#381,#382,#383,#384,#385));
#99=EDGE_LOOP('',(#386,#387,#388,#389,#390,#391));
#100=EDGE_LOOP('',(#392,#393,#394,#395,#396));
#101=EDGE_LOOP('',(#397,#398,#399,#400));
#102=EDGE_LOOP('',(#401));
#103=EDGE_LOOP('',(#402));
#104=EDGE_LOOP('',(#403,#404,#405,#406));
#105=EDGE_LOOP('',(#407,#408,#409,#410));
#106=EDGE_LOOP('',(#411,#412,#413,#414));
#107=EDGE_LOOP('',(#415));
#108=EDGE_LOOP('',(#416));
#109=EDGE_LOOP('',(#417,#418,#419,#420));
#110=EDGE_LOOP('',(#421));
#111=EDGE_LOOP('',(#422));
#112=EDGE_LOOP('',(#423,#424,#425,#426));
#113=EDGE_LOOP('',(#427));
#114=EDGE_LOOP('',(#428));
#115=EDGE_LOOP('',(#429,#430,#431,#432));
#116=EDGE_LOOP('',(#433,#434,#435,#436));
#117=LINE('',#676,#137);
#118=LINE('',#878,#138);
#119=LINE('',#959,#139);
#120=LINE('',#960,#140);
#121=LINE('',#964,#141);
#122=LINE('',#987,#142);
#123=LINE('',#989,#143);
#124=LINE('',#991,#144);
#125=LINE('',#992,#145);
#126=LINE('',#997,#146);
#127=LINE('',#1001,#147);
#128=LINE('',#1003,#148);
#129=LINE('',#1005,#149);
#130=LINE('',#1018,#150);
#131=LINE('',#1023,#151);
#132=LINE('',#1027,#152);
#133=LINE('',#1033,#153);
#134=LINE('',#1040,#154);
#135=LINE('',#1046,#155);
#136=LINE('',#1048,#156);
#137=VECTOR('',#545,10.);
#138=VECTOR('',#562,9.99806790798153);
#139=VECTOR('',#567,10.);
#140=VECTOR('',#568,10.);
#141=VECTOR('',#573,10.9108715800847);
#142=VECTOR('',#580,10.);
#143=VECTOR('',#581,10.);
#144=VECTOR('',#582,10.);
#145=VECTOR('',#583,10.);
#146=VECTOR('',#588,0.874999999999999);
#147=VECTOR('',#595,10.);
#148=VECTOR('',#598,10.);
#149=VECTOR('',#601,10.);
#150=VECTOR('',#618,7.25000000000001);
#151=VECTOR('',#625,8.15);
#152=VECTOR('',#630,9.04999999999999);
#153=VECTOR('',#637,5.09999999999862);
#154=VECTOR('',#646,3.6);
#155=VECTOR('',#655,5.10000000000067);
#156=VECTOR('',#658,8.49618227742571);
#157=(
BOUNDED_CURVE()
B_SPLINE_CURVE(2,(#672,#673,#674),.UNSPECIFIED.,.F.,.F.)
B_SPLINE_CURVE_WITH_KNOTS((3,3),(0.,0.476216720984649),.UNSPECIFIED.)
CURVE()
GEOMETRIC_REPRESENTATION_ITEM()
RATIONAL_B_SPLINE_CURVE((1.,1.02022326495939,1.))
REPRESENTATION_ITEM('')
);
#158=(
BOUNDED_CURVE()
B_SPLINE_CURVE(2,(#678,#679,#680),.UNSPECIFIED.,.F.,.F.)
B_SPLINE_CURVE_WITH_KNOTS((3,3),(0.,0.476216720984659),.UNSPECIFIED.)
CURVE()
GEOMETRIC_REPRESENTATION_ITEM()
RATIONAL_B_SPLINE_CURVE((1.,1.02022326495939,1.))
REPRESENTATION_ITEM('')
);
#159=(
BOUNDED_CURVE()
B_SPLINE_CURVE(2,(#858,#859,#860),.UNSPECIFIED.,.F.,.F.)
B_SPLINE_CURVE_WITH_KNOTS((3,3),(0.437696134533954,0.478885373579472),
 .UNSPECIFIED.)
CURVE()
GEOMETRIC_REPRESENTATION_ITEM()
RATIONAL_B_SPLINE_CURVE((1.00100724618135,1.00055101636248,1.))
REPRESENTATION_ITEM('')
);
#160=(
BOUNDED_CURVE()
B_SPLINE_CURVE(2,(#861,#862,#863),.UNSPECIFIED.,.F.,.F.)
B_SPLINE_CURVE_WITH_KNOTS((3,3),(0.478885373579472,0.5200746126251),
 .UNSPECIFIED.)
CURVE()
GEOMETRIC_REPRESENTATION_ITEM()
RATIONAL_B_SPLINE_CURVE((1.,1.00055101636248,1.00100724618135))
REPRESENTATION_ITEM('')
);
#161=(
BOUNDED_CURVE()
B_SPLINE_CURVE(2,(#866,#867,#868),.UNSPECIFIED.,.F.,.F.)
B_SPLINE_CURVE_WITH_KNOTS((3,3),(0.,0.0224394439241543),.UNSPECIFIED.)
CURVE()
GEOMETRIC_REPRESENTATION_ITEM()
RATIONAL_B_SPLINE_CURVE((1.,1.00048534184628,1.00090047376043))
REPRESENTATION_ITEM('')
);
#162=(
BOUNDED_CURVE()
B_SPLINE_CURVE(2,(#871,#872,#873),.UNSPECIFIED.,.F.,.F.)
B_SPLINE_CURVE_WITH_KNOTS((3,3),(0.201524365673712,0.23459274887678),
 .UNSPECIFIED.)
CURVE()
GEOMETRIC_REPRESENTATION_ITEM()
RATIONAL_B_SPLINE_CURVE((1.00578671377972,1.00589932471809,1.00589307991289))
REPRESENTATION_ITEM('')
);
#163=(
BOUNDED_CURVE()
B_SPLINE_CURVE(2,(#874,#875,#876),.UNSPECIFIED.,.F.,.F.)
B_SPLINE_CURVE_WITH_KNOTS((3,3),(0.,0.187006049232513),.UNSPECIFIED.)
CURVE()
GEOMETRIC_REPRESENTATION_ITEM()
RATIONAL_B_SPLINE_CURVE((1.,1.00227279397957,1.00104056334519))
REPRESENTATION_ITEM('')
);
#164=(
BOUNDED_CURVE()
B_SPLINE_CURVE(2,(#966,#967,#968),.UNSPECIFIED.,.F.,.F.)
B_SPLINE_CURVE_WITH_KNOTS((3,3),(0.0555179097485227,0.242523958972508),
 .UNSPECIFIED.)
CURVE()
GEOMETRIC_REPRESENTATION_ITEM()
RATIONAL_B_SPLINE_CURVE((1.00104056336225,1.00227279401655,1.))
REPRESENTATION_ITEM('')
);
#165=(
BOUNDED_CURVE()
B_SPLINE_CURVE(2,(#969,#970,#971),.UNSPECIFIED.,.F.,.F.)
B_SPLINE_CURVE_WITH_KNOTS((3,3),(0.231117853928202,0.264186237131469),
 .UNSPECIFIED.)
CURVE()
GEOMETRIC_REPRESENTATION_ITEM()
RATIONAL_B_SPLINE_CURVE((1.00589307991555,1.00589932472076,1.00578671378235))
REPRESENTATION_ITEM('')
);
#166=(
BOUNDED_CURVE()
B_SPLINE_CURVE(2,(#973,#974,#975),.UNSPECIFIED.,.F.,.F.)
B_SPLINE_CURVE_WITH_KNOTS((3,3),(0.478885373579432,0.520074612624706),
 .UNSPECIFIED.)
CURVE()
GEOMETRIC_REPRESENTATION_ITEM()
RATIONAL_B_SPLINE_CURVE((1.,1.00055101636247,1.00100724618135))
REPRESENTATION_ITEM('')
);
#167=(
BOUNDED_CURVE()
B_SPLINE_CURVE(2,(#976,#977,#978),.UNSPECIFIED.,.F.,.F.)
B_SPLINE_CURVE_WITH_KNOTS((3,3),(0.437696134534046,0.478885373579432),
 .UNSPECIFIED.)
CURVE()
GEOMETRIC_REPRESENTATION_ITEM()
RATIONAL_B_SPLINE_CURVE((1.00100724618135,1.00055101636248,1.))
REPRESENTATION_ITEM('')
);
#168=(
BOUNDED_CURVE()
B_SPLINE_CURVE(2,(#981,#982,#983),.UNSPECIFIED.,.F.,.F.)
B_SPLINE_CURVE_WITH_KNOTS((3,3),(0.287795897762095,0.310235341683867),
 .UNSPECIFIED.)
CURVE()
GEOMETRIC_REPRESENTATION_ITEM()
RATIONAL_B_SPLINE_CURVE((1.00090047376033,1.00048534184623,1.))
REPRESENTATION_ITEM('')
);
#169=B_SPLINE_CURVE_WITH_KNOTS('',3,(#663,#664,#665,#666,#667,#668,#669,
#670),.UNSPECIFIED.,.F.,.F.,(4,2,2,4),(0.809085413112599,0.875529170985565,
0.961149339098806,1.01740559475196),.UNSPECIFIED.);
#170=B_SPLINE_CURVE_WITH_KNOTS('',3,(#681,#682,#683,#684,#685,#686,#687,
#688),.UNSPECIFIED.,.F.,.F.,(4,2,2,4),(0.600765231473238,0.657021487126392,
0.742641655239633,0.809085413112599),.UNSPECIFIED.);
#171=B_SPLINE_CURVE_WITH_KNOTS('',3,(#695,#696,#697,#698,#699,#700,#701,
#702,#703,#704,#705,#706,#707,#708,#709),.UNSPECIFIED.,.F.,.F.,(4,2,2,3,
2,2,4),(-0.176032431989781,-0.175780449958573,-0.0877914412703595,0.,0.0877914412703596,
0.175780449958573,0.17603243198978),.UNSPECIFIED.);
#172=B_SPLINE_CURVE_WITH_KNOTS('',3,(#755,#756,#757,#758,#759,#760,#761),
 .UNSPECIFIED.,.F.,.F.,(4,3,4),(9.57254630320618,9.66948257848931,9.83584607966496),
 .UNSPECIFIED.);
#173=B_SPLINE_CURVE_WITH_KNOTS('',3,(#763,#764,#765,#766,#767,#768,#769,
#770,#771,#772,#773,#774,#775,#776,#777,#778,#779,#780,#781,#782,#783,#784,
#785,#786,#787,#788,#789,#790,#791,#792,#793,#794,#795,#796,#797,#798,#799,
#800,#801,#802,#803,#804,#805,#806,#807,#808,#809,#810,#811,#812,#813,#814,
#815,#816,#817,#818,#819,#820,#821,#822,#823),.UNSPECIFIED.,.F.,.F.,(4,
3,3,3,3,3,3,3,3,3,3,3,3,3,3,3,3,3,3,3,4),(0.,0.00429277458713473,0.0110739127561607,
0.0219865974754275,0.0306580961283714,0.0340905204871437,0.0417974613982908,
0.0443534185451255,0.0508605145867264,0.0519928633188204,0.0525711249591485,
0.0530262561881875,0.053532795690796,0.0543692200462184,0.0573722164542377,
0.0655128032799829,0.069667660944774,0.0762387853274833,0.0874351746378425,
0.0990754795578964,0.103288746478844),.UNSPECIFIED.);
#174=B_SPLINE_CURVE_WITH_KNOTS('',3,(#825,#826,#827,#828,#829,#830),
 .UNSPECIFIED.,.F.,.F.,(4,1,1,4),(2.62768329690655,2.64617194178926,2.83120327416937,
2.99382431115298),.UNSPECIFIED.);
#175=B_SPLINE_CURVE_WITH_KNOTS('',3,(#832,#833,#834,#835,#836,#837),
 .UNSPECIFIED.,.F.,.F.,(4,2,4),(0.,0.0494324149236486,0.192935375805651),
 .UNSPECIFIED.);
#176=B_SPLINE_CURVE_WITH_KNOTS('',3,(#839,#840,#841,#842,#843,#844,#845,
#846,#847,#848),.UNSPECIFIED.,.F.,.F.,(4,1,1,1,1,1,1,4),(-3.57132860368984,
-3.38629727130972,-3.20126593892961,-3.01623460654949,-2.83120327416937,
-2.64617194178926,-2.46114060940914,-2.27610927769793),.UNSPECIFIED.);
#177=B_SPLINE_CURVE_WITH_KNOTS('',3,(#849,#850,#851,#852,#853,#854,#855),
 .UNSPECIFIED.,.F.,.F.,(4,3,4),(0.,0.039933394519211,0.0796328463579557),
 .UNSPECIFIED.);
#178=B_SPLINE_CURVE_WITH_KNOTS('',3,(#910,#911,#912,#913,#914,#915,#916,
#917,#918,#919,#920,#921,#922,#923,#924,#925),.UNSPECIFIED.,.F.,.F.,(4,
2,2,2,2,2,2,4),(0.,0.0437448194399432,0.0617602715676606,0.0733053630650119,
0.084860881083169,0.102933325182726,0.142112892961102,0.146490463292372),
 .UNSPECIFIED.);
#179=B_SPLINE_CURVE_WITH_KNOTS('',3,(#927,#928,#929,#930),.UNSPECIFIED.,
 .F.,.F.,(4,4),(-0.411039239275644,-0.146172154324696),.UNSPECIFIED.);
#180=B_SPLINE_CURVE_WITH_KNOTS('',3,(#932,#933,#934,#935),.UNSPECIFIED.,
 .F.,.F.,(4,4),(0.,0.0788448218017354),.UNSPECIFIED.);
#181=B_SPLINE_CURVE_WITH_KNOTS('',3,(#937,#938,#939,#940,#941,#942,#943),
 .UNSPECIFIED.,.F.,.F.,(4,1,1,1,4),(-0.865483375891799,-0.495420711746538,
-0.310389379339959,0.0596732854731987,0.429735950100068),.UNSPECIFIED.);
#182=B_SPLINE_CURVE_WITH_KNOTS('',3,(#945,#946,#947,#948,#949,#950),
 .UNSPECIFIED.,.F.,.F.,(4,2,4),(0.,0.0986646899404696,0.193957815872923),
 .UNSPECIFIED.);
#183=B_SPLINE_CURVE_WITH_KNOTS('',3,(#951,#952,#953,#954,#955,#956),
 .UNSPECIFIED.,.F.,.F.,(4,1,1,4),(0.147768342435965,0.310389379339959,0.495420711746538,
0.513909356675534),.UNSPECIFIED.);
#184=VERTEX_POINT('',#661);
#185=VERTEX_POINT('',#662);
#186=VERTEX_POINT('',#671);
#187=VERTEX_POINT('',#675);
#188=VERTEX_POINT('',#677);
#189=VERTEX_POINT('',#690);
#190=VERTEX_POINT('',#692);
#191=VERTEX_POINT('',#694);
#192=VERTEX_POINT('',#710);
#193=VERTEX_POINT('',#753);
#194=VERTEX_POINT('',#754);
#195=VERTEX_POINT('',#762);
#196=VERTEX_POINT('',#824);
#197=VERTEX_POINT('',#831);
#198=VERTEX_POINT('',#838);
#199=VERTEX_POINT('',#857);
#200=VERTEX_POINT('',#865);
#201=VERTEX_POINT('',#870);
#202=VERTEX_POINT('',#877);
#203=VERTEX_POINT('',#908);
#204=VERTEX_POINT('',#909);
#205=VERTEX_POINT('',#926);
#206=VERTEX_POINT('',#931);
#207=VERTEX_POINT('',#936);
#208=VERTEX_POINT('',#944);
#209=VERTEX_POINT('',#958);
#210=VERTEX_POINT('',#962);
#211=VERTEX_POINT('',#965);
#212=VERTEX_POINT('',#972);
#213=VERTEX_POINT('',#979);
#214=VERTEX_POINT('',#986);
#215=VERTEX_POINT('',#988);
#216=VERTEX_POINT('',#990);
#217=VERTEX_POINT('',#993);
#218=VERTEX_POINT('',#996);
#219=VERTEX_POINT('',#1008);
#220=VERTEX_POINT('',#1012);
#221=VERTEX_POINT('',#1015);
#222=VERTEX_POINT('',#1017);
#223=VERTEX_POINT('',#1021);
#224=VERTEX_POINT('',#1025);
#225=VERTEX_POINT('',#1029);
#226=VERTEX_POINT('',#1032);
#227=VERTEX_POINT('',#1036);
#228=VERTEX_POINT('',#1039);
#229=VERTEX_POINT('',#1043);
#230=EDGE_CURVE('',#184,#185,#169,.T.);
#231=EDGE_CURVE('',#185,#186,#157,.T.);
#232=EDGE_CURVE('',#186,#187,#117,.T.);
#233=EDGE_CURVE('',#187,#188,#158,.T.);
#234=EDGE_CURVE('',#188,#184,#170,.T.);
#235=EDGE_CURVE('',#189,#188,#32,.T.);
#236=EDGE_CURVE('',#190,#189,#33,.T.);
#237=EDGE_CURVE('',#191,#190,#171,.T.);
#238=EDGE_CURVE('',#191,#192,#34,.T.);
#239=EDGE_CURVE('',#192,#185,#35,.T.);
#240=EDGE_CURVE('',#193,#194,#172,.T.);
#241=EDGE_CURVE('',#195,#193,#173,.T.);
#242=EDGE_CURVE('',#196,#195,#174,.T.);
#243=EDGE_CURVE('',#197,#196,#175,.F.);
#244=EDGE_CURVE('',#198,#197,#176,.T.);
#245=EDGE_CURVE('',#198,#194,#177,.T.);
#246=EDGE_CURVE('',#193,#199,#159,.T.);
#247=EDGE_CURVE('',#199,#195,#160,.T.);
#248=EDGE_CURVE('',#200,#187,#161,.T.);
#249=EDGE_CURVE('',#196,#200,#36,.T.);
#250=EDGE_CURVE('',#194,#201,#162,.T.);
#251=EDGE_CURVE('',#190,#201,#163,.T.);
#252=EDGE_CURVE('',#189,#202,#118,.T.);
#253=EDGE_CURVE('',#202,#202,#37,.T.);
#254=EDGE_CURVE('',#203,#204,#178,.T.);
#255=EDGE_CURVE('',#205,#203,#179,.T.);
#256=EDGE_CURVE('',#206,#205,#180,.F.);
#257=EDGE_CURVE('',#207,#206,#181,.T.);
#258=EDGE_CURVE('',#208,#207,#182,.F.);
#259=EDGE_CURVE('',#204,#208,#183,.T.);
#260=EDGE_CURVE('',#209,#206,#119,.T.);
#261=EDGE_CURVE('',#209,#207,#120,.T.);
#262=EDGE_CURVE('',#210,#210,#38,.T.);
#263=EDGE_CURVE('',#210,#192,#121,.T.);
#264=EDGE_CURVE('',#211,#191,#164,.T.);
#265=EDGE_CURVE('',#211,#205,#165,.T.);
#266=EDGE_CURVE('',#212,#203,#166,.T.);
#267=EDGE_CURVE('',#204,#212,#167,.T.);
#268=EDGE_CURVE('',#213,#208,#39,.T.);
#269=EDGE_CURVE('',#186,#213,#168,.T.);
#270=EDGE_CURVE('',#198,#214,#122,.T.);
#271=EDGE_CURVE('',#214,#215,#123,.T.);
#272=EDGE_CURVE('',#215,#216,#124,.T.);
#273=EDGE_CURVE('',#216,#209,#125,.T.);
#274=EDGE_CURVE('',#217,#217,#40,.T.);
#275=EDGE_CURVE('',#217,#218,#126,.T.);
#276=EDGE_CURVE('',#218,#218,#41,.T.);
#277=EDGE_CURVE('',#214,#197,#127,.T.);
#278=EDGE_CURVE('',#215,#200,#128,.T.);
#279=EDGE_CURVE('',#216,#213,#129,.T.);
#280=EDGE_CURVE('',#202,#219,#42,.T.);
#281=EDGE_CURVE('',#219,#219,#43,.T.);
#282=EDGE_CURVE('',#220,#220,#44,.T.);
#283=EDGE_CURVE('',#221,#221,#45,.T.);
#284=EDGE_CURVE('',#221,#222,#130,.T.);
#285=EDGE_CURVE('',#222,#222,#46,.T.);
#286=EDGE_CURVE('',#223,#223,#47,.T.);
#287=EDGE_CURVE('',#223,#221,#131,.T.);
#288=EDGE_CURVE('',#224,#224,#48,.T.);
#289=EDGE_CURVE('',#224,#223,#132,.T.);
#290=EDGE_CURVE('',#225,#225,#49,.T.);
#291=EDGE_CURVE('',#225,#226,#133,.T.);
#292=EDGE_CURVE('',#226,#226,#50,.T.);
#293=EDGE_CURVE('',#227,#227,#51,.T.);
#294=EDGE_CURVE('',#227,#228,#134,.T.);
#295=EDGE_CURVE('',#228,#228,#52,.T.);
#296=EDGE_CURVE('',#229,#229,#53,.T.);
#297=EDGE_CURVE('',#229,#220,#135,.T.);
#298=EDGE_CURVE('',#222,#210,#136,.T.);
#299=ORIENTED_EDGE('',*,*,#230,.T.);
#300=ORIENTED_EDGE('',*,*,#231,.T.);
#301=ORIENTED_EDGE('',*,*,#232,.T.);
#302=ORIENTED_EDGE('',*,*,#233,.T.);
#303=ORIENTED_EDGE('',*,*,#234,.T.);
#304=ORIENTED_EDGE('',*,*,#234,.F.);
#305=ORIENTED_EDGE('',*,*,#235,.F.);
#306=ORIENTED_EDGE('',*,*,#236,.F.);
#307=ORIENTED_EDGE('',*,*,#237,.F.);
#308=ORIENTED_EDGE('',*,*,#238,.T.);
#309=ORIENTED_EDGE('',*,*,#239,.T.);
#310=ORIENTED_EDGE('',*,*,#230,.F.);
#311=ORIENTED_EDGE('',*,*,#240,.F.);
#312=ORIENTED_EDGE('',*,*,#241,.F.);
#313=ORIENTED_EDGE('',*,*,#242,.F.);
#314=ORIENTED_EDGE('',*,*,#243,.F.);
#315=ORIENTED_EDGE('',*,*,#244,.F.);
#316=ORIENTED_EDGE('',*,*,#245,.T.);
#317=ORIENTED_EDGE('',*,*,#241,.T.);
#318=ORIENTED_EDGE('',*,*,#246,.T.);
#319=ORIENTED_EDGE('',*,*,#247,.T.);
#320=ORIENTED_EDGE('',*,*,#233,.F.);
#321=ORIENTED_EDGE('',*,*,#248,.F.);
#322=ORIENTED_EDGE('',*,*,#249,.F.);
#323=ORIENTED_EDGE('',*,*,#242,.T.);
#324=ORIENTED_EDGE('',*,*,#247,.F.);
#325=ORIENTED_EDGE('',*,*,#246,.F.);
#326=ORIENTED_EDGE('',*,*,#240,.T.);
#327=ORIENTED_EDGE('',*,*,#250,.T.);
#328=ORIENTED_EDGE('',*,*,#251,.F.);
#329=ORIENTED_EDGE('',*,*,#236,.T.);
#330=ORIENTED_EDGE('',*,*,#252,.T.);
#331=ORIENTED_EDGE('',*,*,#253,.T.);
#332=ORIENTED_EDGE('',*,*,#252,.F.);
#333=ORIENTED_EDGE('',*,*,#235,.T.);
#334=ORIENTED_EDGE('',*,*,#254,.F.);
#335=ORIENTED_EDGE('',*,*,#255,.F.);
#336=ORIENTED_EDGE('',*,*,#256,.F.);
#337=ORIENTED_EDGE('',*,*,#257,.F.);
#338=ORIENTED_EDGE('',*,*,#258,.F.);
#339=ORIENTED_EDGE('',*,*,#259,.F.);
#340=ORIENTED_EDGE('',*,*,#257,.T.);
#341=ORIENTED_EDGE('',*,*,#260,.F.);
#342=ORIENTED_EDGE('',*,*,#261,.T.);
#343=ORIENTED_EDGE('',*,*,#262,.T.);
#344=ORIENTED_EDGE('',*,*,#263,.T.);
#345=ORIENTED_EDGE('',*,*,#238,.F.);
#346=ORIENTED_EDGE('',*,*,#264,.F.);
#347=ORIENTED_EDGE('',*,*,#265,.T.);
#348=ORIENTED_EDGE('',*,*,#255,.T.);
#349=ORIENTED_EDGE('',*,*,#266,.F.);
#350=ORIENTED_EDGE('',*,*,#267,.F.);
#351=ORIENTED_EDGE('',*,*,#259,.T.);
#352=ORIENTED_EDGE('',*,*,#268,.F.);
#353=ORIENTED_EDGE('',*,*,#269,.F.);
#354=ORIENTED_EDGE('',*,*,#231,.F.);
#355=ORIENTED_EDGE('',*,*,#239,.F.);
#356=ORIENTED_EDGE('',*,*,#263,.F.);
#357=ORIENTED_EDGE('',*,*,#254,.T.);
#358=ORIENTED_EDGE('',*,*,#267,.T.);
#359=ORIENTED_EDGE('',*,*,#266,.T.);
#360=ORIENTED_EDGE('',*,*,#264,.T.);
#361=ORIENTED_EDGE('',*,*,#237,.T.);
#362=ORIENTED_EDGE('',*,*,#251,.T.);
#363=ORIENTED_EDGE('',*,*,#250,.F.);
#364=ORIENTED_EDGE('',*,*,#245,.F.);
#365=ORIENTED_EDGE('',*,*,#270,.T.);
#366=ORIENTED_EDGE('',*,*,#271,.T.);
#367=ORIENTED_EDGE('',*,*,#272,.T.);
#368=ORIENTED_EDGE('',*,*,#273,.T.);
#369=ORIENTED_EDGE('',*,*,#260,.T.);
#370=ORIENTED_EDGE('',*,*,#256,.T.);
#371=ORIENTED_EDGE('',*,*,#265,.F.);
#372=ORIENTED_EDGE('',*,*,#274,.T.);
#373=ORIENTED_EDGE('',*,*,#274,.F.);
#374=ORIENTED_EDGE('',*,*,#275,.T.);
#375=ORIENTED_EDGE('',*,*,#276,.F.);
#376=ORIENTED_EDGE('',*,*,#275,.F.);
#377=ORIENTED_EDGE('',*,*,#276,.T.);
#378=ORIENTED_EDGE('',*,*,#244,.T.);
#379=ORIENTED_EDGE('',*,*,#277,.F.);
#380=ORIENTED_EDGE('',*,*,#270,.F.);
#381=ORIENTED_EDGE('',*,*,#249,.T.);
#382=ORIENTED_EDGE('',*,*,#278,.F.);
#383=ORIENTED_EDGE('',*,*,#271,.F.);
#384=ORIENTED_EDGE('',*,*,#277,.T.);
#385=ORIENTED_EDGE('',*,*,#243,.T.);
#386=ORIENTED_EDGE('',*,*,#232,.F.);
#387=ORIENTED_EDGE('',*,*,#269,.T.);
#388=ORIENTED_EDGE('',*,*,#279,.F.);
#389=ORIENTED_EDGE('',*,*,#272,.F.);
#390=ORIENTED_EDGE('',*,*,#278,.T.);
#391=ORIENTED_EDGE('',*,*,#248,.T.);
#392=ORIENTED_EDGE('',*,*,#268,.T.);
#393=ORIENTED_EDGE('',*,*,#258,.T.);
#394=ORIENTED_EDGE('',*,*,#261,.F.);
#395=ORIENTED_EDGE('',*,*,#273,.F.);
#396=ORIENTED_EDGE('',*,*,#279,.T.);
#397=ORIENTED_EDGE('',*,*,#253,.F.);
#398=ORIENTED_EDGE('',*,*,#280,.T.);
#399=ORIENTED_EDGE('',*,*,#281,.F.);
#400=ORIENTED_EDGE('',*,*,#280,.F.);
#401=ORIENTED_EDGE('',*,*,#281,.T.);
#402=ORIENTED_EDGE('',*,*,#282,.F.);
#403=ORIENTED_EDGE('',*,*,#283,.T.);
#404=ORIENTED_EDGE('',*,*,#284,.T.);
#405=ORIENTED_EDGE('',*,*,#285,.F.);
#406=ORIENTED_EDGE('',*,*,#284,.F.);
#407=ORIENTED_EDGE('',*,*,#286,.T.);
#408=ORIENTED_EDGE('',*,*,#287,.T.);
#409=ORIENTED_EDGE('',*,*,#283,.F.);
#410=ORIENTED_EDGE('',*,*,#287,.F.);
#411=ORIENTED_EDGE('',*,*,#288,.T.);
#412=ORIENTED_EDGE('',*,*,#289,.T.);
#413=ORIENTED_EDGE('',*,*,#286,.F.);
#414=ORIENTED_EDGE('',*,*,#289,.F.);
#415=ORIENTED_EDGE('',*,*,#288,.F.);
#416=ORIENTED_EDGE('',*,*,#290,.T.);
#417=ORIENTED_EDGE('',*,*,#290,.F.);
#418=ORIENTED_EDGE('',*,*,#291,.T.);
#419=ORIENTED_EDGE('',*,*,#292,.T.);
#420=ORIENTED_EDGE('',*,*,#291,.F.);
#421=ORIENTED_EDGE('',*,*,#292,.F.);
#422=ORIENTED_EDGE('',*,*,#293,.T.);
#423=ORIENTED_EDGE('',*,*,#293,.F.);
#424=ORIENTED_EDGE('',*,*,#294,.T.);
#425=ORIENTED_EDGE('',*,*,#295,.T.);
#426=ORIENTED_EDGE('',*,*,#294,.F.);
#427=ORIENTED_EDGE('',*,*,#296,.T.);
#428=ORIENTED_EDGE('',*,*,#295,.F.);
#429=ORIENTED_EDGE('',*,*,#296,.F.);
#430=ORIENTED_EDGE('',*,*,#297,.T.);
#431=ORIENTED_EDGE('',*,*,#282,.T.);
#432=ORIENTED_EDGE('',*,*,#297,.F.);
#433=ORIENTED_EDGE('',*,*,#285,.T.);
#434=ORIENTED_EDGE('',*,*,#298,.T.);
#435=ORIENTED_EDGE('',*,*,#262,.F.);
#436=ORIENTED_EDGE('',*,*,#298,.F.);
#437=PLANE('',#493);
#438=PLANE('',#499);
#439=PLANE('',#503);
#440=PLANE('',#507);
#441=PLANE('',#508);
#442=PLANE('',#512);
#443=PLANE('',#513);
#444=PLANE('',#514);
#445=PLANE('',#515);
#446=PLANE('',#516);
#447=PLANE('',#520);
#448=PLANE('',#529);
#449=PLANE('',#533);
#450=PLANE('',#537);
#451=ADVANCED_FACE('',(#56),#437,.T.);
#452=ADVANCED_FACE('',(#57),#54,.T.);
#453=ADVANCED_FACE('',(#58),#30,.F.);
#454=ADVANCED_FACE('',(#59),#438,.T.);
#455=ADVANCED_FACE('',(#60),#26,.T.);
#456=ADVANCED_FACE('',(#61),#31,.F.);
#457=ADVANCED_FACE('',(#62),#439,.T.);
#458=ADVANCED_FACE('',(#63),#27,.T.);
#459=ADVANCED_FACE('',(#64),#440,.T.);
#460=ADVANCED_FACE('',(#65,#21),#441,.T.);
#461=ADVANCED_FACE('',(#66),#15,.F.);
#462=ADVANCED_FACE('',(#67),#442,.T.);
#463=ADVANCED_FACE('',(#68),#443,.T.);
#464=ADVANCED_FACE('',(#69),#444,.T.);
#465=ADVANCED_FACE('',(#70),#445,.T.);
#466=ADVANCED_FACE('',(#71),#446,.T.);
#467=ADVANCED_FACE('',(#72),#55,.T.);
#468=ADVANCED_FACE('',(#73,#22),#447,.F.);
#469=ADVANCED_FACE('',(#74),#16,.T.);
#470=ADVANCED_FACE('',(#75),#28,.T.);
#471=ADVANCED_FACE('',(#76),#17,.T.);
#472=ADVANCED_FACE('',(#77,#23),#448,.F.);
#473=ADVANCED_FACE('',(#78),#18,.F.);
#474=ADVANCED_FACE('',(#79,#24),#449,.F.);
#475=ADVANCED_FACE('',(#80),#19,.F.);
#476=ADVANCED_FACE('',(#81,#25),#450,.F.);
#477=ADVANCED_FACE('',(#82),#20,.F.);
#478=ADVANCED_FACE('',(#83),#29,.T.);
#479=CLOSED_SHELL('',(#451,#452,#453,#454,#455,#456,#457,#458,#459,#460,
#461,#462,#463,#464,#465,#466,#467,#468,#469,#470,#471,#472,#473,#474,#475,
#476,#477,#478));
#480=DERIVED_UNIT_ELEMENT(#482,1.);
#481=DERIVED_UNIT_ELEMENT(#1054,-3.);
#482=(
MASS_UNIT()
NAMED_UNIT(*)
SI_UNIT(.KILO.,.GRAM.)
);
#483=DERIVED_UNIT((#480,#481));
#484=MEASURE_REPRESENTATION_ITEM('density measure',
POSITIVE_RATIO_MEASURE(7850.),#483);
#485=PROPERTY_DEFINITION_REPRESENTATION(#490,#487);
#486=PROPERTY_DEFINITION_REPRESENTATION(#491,#488);
#487=REPRESENTATION('material name',(#489),#1051);
#488=REPRESENTATION('density',(#484),#1051);
#489=DESCRIPTIVE_REPRESENTATION_ITEM('Steel','Steel');
#490=PROPERTY_DEFINITION('material property','material name',#1061);
#491=PROPERTY_DEFINITION('material property','density of part',#1061);
#492=AXIS2_PLACEMENT_3D('',#659,#541,#542);
#493=AXIS2_PLACEMENT_3D('',#660,#543,#544);
#494=AXIS2_PLACEMENT_3D('',#689,#546,#547);
#495=AXIS2_PLACEMENT_3D('',#691,#548,#549);
#496=AXIS2_PLACEMENT_3D('',#693,#550,#551);
#497=AXIS2_PLACEMENT_3D('',#711,#552,#553);
#498=AXIS2_PLACEMENT_3D('',#712,#554,#555);
#499=AXIS2_PLACEMENT_3D('',#856,#556,#557);
#500=AXIS2_PLACEMENT_3D('',#864,#558,#559);
#501=AXIS2_PLACEMENT_3D('',#869,#560,#561);
#502=AXIS2_PLACEMENT_3D('',#879,#563,#564);
#503=AXIS2_PLACEMENT_3D('',#957,#565,#566);
#504=AXIS2_PLACEMENT_3D('',#961,#569,#570);
#505=AXIS2_PLACEMENT_3D('',#963,#571,#572);
#506=AXIS2_PLACEMENT_3D('',#980,#574,#575);
#507=AXIS2_PLACEMENT_3D('',#984,#576,#577);
#508=AXIS2_PLACEMENT_3D('',#985,#578,#579);
#509=AXIS2_PLACEMENT_3D('',#994,#584,#585);
#510=AXIS2_PLACEMENT_3D('',#995,#586,#587);
#511=AXIS2_PLACEMENT_3D('',#998,#589,#590);
#512=AXIS2_PLACEMENT_3D('',#999,#591,#592);
#513=AXIS2_PLACEMENT_3D('',#1000,#593,#594);
#514=AXIS2_PLACEMENT_3D('',#1002,#596,#597);
#515=AXIS2_PLACEMENT_3D('',#1004,#599,#600);
#516=AXIS2_PLACEMENT_3D('',#1006,#602,#603);
#517=AXIS2_PLACEMENT_3D('',#1007,#604,#605);
#518=AXIS2_PLACEMENT_3D('',#1009,#606,#607);
#519=AXIS2_PLACEMENT_3D('',#1010,#608,#609);
#520=AXIS2_PLACEMENT_3D('',#1011,#610,#611);
#521=AXIS2_PLACEMENT_3D('',#1013,#612,#613);
#522=AXIS2_PLACEMENT_3D('',#1014,#614,#615);
#523=AXIS2_PLACEMENT_3D('',#1016,#616,#617);
#524=AXIS2_PLACEMENT_3D('',#1019,#619,#620);
#525=AXIS2_PLACEMENT_3D('',#1020,#621,#622);
#526=AXIS2_PLACEMENT_3D('',#1022,#623,#624);
#527=AXIS2_PLACEMENT_3D('',#1024,#626,#627);
#528=AXIS2_PLACEMENT_3D('',#1026,#628,#629);
#529=AXIS2_PLACEMENT_3D('',#1028,#631,#632);
#530=AXIS2_PLACEMENT_3D('',#1030,#633,#634);
#531=AXIS2_PLACEMENT_3D('',#1031,#635,#636);
#532=AXIS2_PLACEMENT_3D('',#1034,#638,#639);
#533=AXIS2_PLACEMENT_3D('',#1035,#640,#641);
#534=AXIS2_PLACEMENT_3D('',#1037,#642,#643);
#535=AXIS2_PLACEMENT_3D('',#1038,#644,#645);
#536=AXIS2_PLACEMENT_3D('',#1041,#647,#648);
#537=AXIS2_PLACEMENT_3D('',#1042,#649,#650);
#538=AXIS2_PLACEMENT_3D('',#1044,#651,#652);
#539=AXIS2_PLACEMENT_3D('',#1045,#653,#654);
#540=AXIS2_PLACEMENT_3D('',#1047,#656,#657);
#541=DIRECTION('axis',(0.,0.,1.));
#542=DIRECTION('refdir',(1.,0.,0.));
#543=DIRECTION('center_axis',(0.891238445480483,-0.453535040870639,0.));
#544=DIRECTION('ref_axis',(-0.453535040870639,-0.891238445480483,0.));
#545=DIRECTION('',(-3.68505479155132E-14,-7.24147465569122E-14,1.));
#546=DIRECTION('center_axis',(0.,0.,-1.));
#547=DIRECTION('ref_axis',(-0.89504852645533,-0.445968760441964,0.));
#548=DIRECTION('center_axis',(0.,0.,1.));
#549=DIRECTION('ref_axis',(1.,0.,0.));
#550=DIRECTION('center_axis',(0.,0.,1.));
#551=DIRECTION('ref_axis',(1.,0.,0.));
#552=DIRECTION('center_axis',(0.,0.,1.));
#553=DIRECTION('ref_axis',(1.,0.,0.));
#554=DIRECTION('center_axis',(0.,0.,1.));
#555=DIRECTION('ref_axis',(1.,0.,0.));
#556=DIRECTION('center_axis',(0.866025403784375,0.,-0.50000000000011));
#557=DIRECTION('ref_axis',(0.50000000000011,0.,0.866025403784375));
#558=DIRECTION('center_axis',(0.,0.,-1.));
#559=DIRECTION('ref_axis',(1.,-1.32688265252857E-19,0.));
#560=DIRECTION('center_axis',(3.01715669870765E-12,0.,-1.));
#561=DIRECTION('ref_axis',(1.,-1.32688265252857E-19,0.));
#562=DIRECTION('',(0.707106781186546,8.6501780851405E-17,0.707106781186549));
#563=DIRECTION('center_axis',(0.,0.,-1.));
#564=DIRECTION('ref_axis',(-1.,6.63441326264231E-20,0.));
#565=DIRECTION('center_axis',(-0.500000000000025,0.,0.866025403784424));
#566=DIRECTION('ref_axis',(-0.866025403784424,1.26013068232239E-18,-0.500000000000025));
#567=DIRECTION('',(0.866025403784424,-1.26013068232239E-18,0.500000000000025));
#568=DIRECTION('',(0.,-1.,0.));
#569=DIRECTION('center_axis',(0.,0.,1.));
#570=DIRECTION('ref_axis',(1.,-1.32688265252857E-19,0.));
#571=DIRECTION('center_axis',(0.,0.,1.));
#572=DIRECTION('ref_axis',(1.,0.,0.));
#573=DIRECTION('',(-0.707106781186561,-8.65017808514068E-17,0.707106781186534));
#574=DIRECTION('center_axis',(2.77030346630988E-12,0.,1.));
#575=DIRECTION('ref_axis',(1.,-1.32688265252857E-19,0.));
#576=DIRECTION('center_axis',(0.86602540378439,0.,0.500000000000084));
#577=DIRECTION('ref_axis',(-0.500000000000084,0.,0.86602540378439));
#578=DIRECTION('center_axis',(0.,-1.,0.));
#579=DIRECTION('ref_axis',(1.,0.,0.));
#580=DIRECTION('',(-0.866025403784416,1.26013068232243E-18,0.50000000000004));
#581=DIRECTION('',(-1.,-8.29103378515097E-17,-3.01715669870765E-12));
#582=DIRECTION('',(3.68505479155132E-14,0.,-1.));
#583=DIRECTION('',(1.,3.16232622312542E-17,-2.77030346630988E-12));
#584=DIRECTION('center_axis',(0.,1.,0.));
#585=DIRECTION('ref_axis',(1.,0.,0.));
#586=DIRECTION('center_axis',(0.,-1.,0.));
#587=DIRECTION('ref_axis',(1.,0.,0.));
#588=DIRECTION('',(0.,1.,0.));
#589=DIRECTION('center_axis',(0.,-1.,0.));
#590=DIRECTION('ref_axis',(1.,0.,0.));
#591=DIRECTION('center_axis',(0.,-1.,0.));
#592=DIRECTION('ref_axis',(1.,0.,0.));
#593=DIRECTION('center_axis',(-0.50000000000004,0.,-0.866025403784416));
#594=DIRECTION('ref_axis',(0.866025403784416,-1.26013068232242E-18,-0.50000000000004));
#595=DIRECTION('',(0.,-1.,0.));
#596=DIRECTION('center_axis',(3.01715669870765E-12,0.,-1.));
#597=DIRECTION('ref_axis',(1.,8.29103378515097E-17,3.01715669870765E-12));
#598=DIRECTION('',(0.,-1.,0.));
#599=DIRECTION('center_axis',(1.,0.,3.68505479155132E-14));
#600=DIRECTION('ref_axis',(-3.68505479155132E-14,0.,1.));
#601=DIRECTION('',(0.,-1.,0.));
#602=DIRECTION('center_axis',(2.77030346630988E-12,0.,1.));
#603=DIRECTION('ref_axis',(-1.,-3.16232622312542E-17,2.77030346630988E-12));
#604=DIRECTION('center_axis',(0.,0.,-1.));
#605=DIRECTION('ref_axis',(1.,0.,0.));
#606=DIRECTION('center_axis',(-1.22464679914735E-16,1.,0.));
#607=DIRECTION('ref_axis',(-1.,-1.22464679914735E-16,0.));
#608=DIRECTION('center_axis',(0.,0.,1.));
#609=DIRECTION('ref_axis',(-1.,1.22464679914735E-16,0.));
#610=DIRECTION('center_axis',(0.,0.,-1.));
#611=DIRECTION('ref_axis',(-1.,0.,0.));
#612=DIRECTION('center_axis',(0.,0.,1.));
#613=DIRECTION('ref_axis',(1.,0.,0.));
#614=DIRECTION('center_axis',(0.,0.,1.));
#615=DIRECTION('ref_axis',(1.,-1.32688265252857E-19,0.));
#616=DIRECTION('center_axis',(0.,0.,1.));
#617=DIRECTION('ref_axis',(1.,0.,0.));
#618=DIRECTION('',(0.,0.,1.));
#619=DIRECTION('center_axis',(0.,0.,1.));
#620=DIRECTION('ref_axis',(1.,0.,0.));
#621=DIRECTION('center_axis',(0.,0.,-1.));
#622=DIRECTION('ref_axis',(1.,-1.32688265252857E-19,0.));
#623=DIRECTION('center_axis',(0.,0.,1.));
#624=DIRECTION('ref_axis',(1.,0.,0.));
#625=DIRECTION('',(0.978147600733802,1.19658744124929E-16,0.207911690817775));
#626=DIRECTION('center_axis',(0.,0.,1.));
#627=DIRECTION('ref_axis',(1.,-1.32688265252857E-19,0.));
#628=DIRECTION('center_axis',(0.,0.,1.));
#629=DIRECTION('ref_axis',(1.,0.,0.));
#630=DIRECTION('',(0.,0.,1.));
#631=DIRECTION('center_axis',(0.,0.,1.));
#632=DIRECTION('ref_axis',(1.,0.,0.));
#633=DIRECTION('center_axis',(0.,0.,1.));
#634=DIRECTION('ref_axis',(1.,0.,0.));
#635=DIRECTION('center_axis',(0.,0.,1.));
#636=DIRECTION('ref_axis',(1.,-1.32688265252857E-19,0.));
#637=DIRECTION('',(0.,0.,1.));
#638=DIRECTION('center_axis',(0.,0.,1.));
#639=DIRECTION('ref_axis',(1.,0.,0.));
#640=DIRECTION('center_axis',(0.,0.,1.));
#641=DIRECTION('ref_axis',(1.,0.,0.));
#642=DIRECTION('center_axis',(0.,0.,1.));
#643=DIRECTION('ref_axis',(1.,0.,0.));
#644=DIRECTION('center_axis',(0.,0.,1.));
#645=DIRECTION('ref_axis',(1.,-1.32688265252857E-19,0.));
#646=DIRECTION('',(0.,0.,1.));
#647=DIRECTION('center_axis',(0.,0.,1.));
#648=DIRECTION('ref_axis',(1.,0.,0.));
#649=DIRECTION('center_axis',(0.,0.,-1.));
#650=DIRECTION('ref_axis',(-1.,0.,0.));
#651=DIRECTION('center_axis',(0.,0.,1.));
#652=DIRECTION('ref_axis',(1.,0.,0.));
#653=DIRECTION('center_axis',(0.,0.,1.));
#654=DIRECTION('ref_axis',(1.,-1.32688265252857E-19,0.));
#655=DIRECTION('',(0.,0.,1.));
#656=DIRECTION('center_axis',(0.,0.,1.));
#657=DIRECTION('ref_axis',(1.,-1.32688265252857E-19,0.));
#658=DIRECTION('',(-0.978147600733446,-1.19658744124885E-16,0.207911690819451));
#659=CARTESIAN_POINT('',(0.,0.,0.));
#660=CARTESIAN_POINT('Origin',(8.36799999999979,-6.29864347866951,0.));
#661=CARTESIAN_POINT('',(5.77428322825343,-11.3955376441795,0.));
#662=CARTESIAN_POINT('',(6.34150803633333,-10.2808882551915,-1.67937860531802));
#663=CARTESIAN_POINT('Ctrl Pts',(5.77428322825344,-11.3955376441795,-2.77555756156289E-16));
#664=CARTESIAN_POINT('Ctrl Pts',(5.77428322825344,-11.3955376441795,-0.221479192909886));
#665=CARTESIAN_POINT('Ctrl Pts',(5.80465313644229,-11.3358579561191,-0.478680224933701));
#666=CARTESIAN_POINT('Ctrl Pts',(5.9092065086705,-11.1304008766495,-0.93010360175881));
#667=CARTESIAN_POINT('Ctrl Pts',(6.01331683696975,-10.9258144196168,-1.18426581795957));
#668=CARTESIAN_POINT('Ctrl Pts',(6.18192455218397,-10.5944846116375,-1.47657842317419));
#669=CARTESIAN_POINT('Ctrl Pts',(6.25937762054773,-10.4422821442963,-1.58513188250037));
#670=CARTESIAN_POINT('Ctrl Pts',(6.34150803633332,-10.2808882551915,-1.67937860531807));
#671=CARTESIAN_POINT('',(8.36799999999979,-6.29864347866951,-3.2851554580686));
#672=CARTESIAN_POINT('Ctrl Pts',(6.34150803633333,-10.2808882551915,-1.67937860531802));
#673=CARTESIAN_POINT('Ctrl Pts',(7.42689734104236,-8.14799754224231,-2.92489019772556));
#674=CARTESIAN_POINT('Ctrl Pts',(8.3679999999998,-6.2986434786695,-3.28515545806861));
#675=CARTESIAN_POINT('',(8.36799999999979,-6.29864347866951,3.28515545806874));
#676=CARTESIAN_POINT('',(8.36800000000003,-6.29864347866903,-1.69468430369741));
#677=CARTESIAN_POINT('',(6.3415080363333,-10.2808882551916,1.67937860531805));
#678=CARTESIAN_POINT('Ctrl Pts',(8.36799999999979,-6.29864347866951,3.28515545806874));
#679=CARTESIAN_POINT('Ctrl Pts',(7.42689734104235,-8.14799754224233,2.92489019772567));
#680=CARTESIAN_POINT('Ctrl Pts',(6.3415080363333,-10.2808882551916,1.67937860531805));
#681=CARTESIAN_POINT('Ctrl Pts',(6.3415080363333,-10.2808882551916,1.67937860531805));
#682=CARTESIAN_POINT('Ctrl Pts',(6.25937762054771,-10.4422821442963,1.58513188250035));
#683=CARTESIAN_POINT('Ctrl Pts',(6.18192455218396,-10.5944846116375,1.47657842317418));
#684=CARTESIAN_POINT('Ctrl Pts',(6.01331683696975,-10.9258144196168,1.18426581795957));
#685=CARTESIAN_POINT('Ctrl Pts',(5.9092065086705,-11.1304008766495,0.93010360175881));
#686=CARTESIAN_POINT('Ctrl Pts',(5.80465313644229,-11.3358579561191,0.478680224933701));
#687=CARTESIAN_POINT('Ctrl Pts',(5.77428322825344,-11.3955376441795,0.221479192909886));
#688=CARTESIAN_POINT('Ctrl Pts',(5.77428322825344,-11.3955376441795,2.77555756156289E-16));
#689=CARTESIAN_POINT('Origin',(0.,0.,0.));
#690=CARTESIAN_POINT('',(-12.0793786053181,-1.47769444267671E-15,1.67937860531805));
#691=CARTESIAN_POINT('Origin',(0.,0.,1.67937860531805));
#692=CARTESIAN_POINT('',(12.0202424705417,1.1938,1.67937860531805));
#693=CARTESIAN_POINT('Origin',(0.,0.,1.67937860531805));
#694=CARTESIAN_POINT('',(12.0202424705417,1.1938,-1.67937860531802));
#695=CARTESIAN_POINT('Ctrl Pts',(12.0202424705417,1.1938,-1.67937860531805));
#696=CARTESIAN_POINT('Ctrl Pts',(12.0208384530045,1.1938,-1.67878554056322));
#697=CARTESIAN_POINT('Ctrl Pts',(12.0214338222473,1.1938,-1.67819245728019));
#698=CARTESIAN_POINT('Ctrl Pts',(12.229709601761,1.1938,-1.47049662162783));
#699=CARTESIAN_POINT('Ctrl Pts',(12.4256922863922,1.1938,-1.1781546340111));
#700=CARTESIAN_POINT('Ctrl Pts',(12.6503909114425,1.1938,-0.637016798841487));
#701=CARTESIAN_POINT('Ctrl Pts',(12.7190984963558,1.1938,-0.292638137567865));
#702=CARTESIAN_POINT('Ctrl Pts',(12.7190984963558,1.1938,0.));
#703=CARTESIAN_POINT('Ctrl Pts',(12.7190984963558,1.1938,0.292638137567865));
#704=CARTESIAN_POINT('Ctrl Pts',(12.6503909114425,1.1938,0.637016798841487));
#705=CARTESIAN_POINT('Ctrl Pts',(12.4256922863922,1.1938,1.1781546340111));
#706=CARTESIAN_POINT('Ctrl Pts',(12.229709601761,1.1938,1.47049662162783));
#707=CARTESIAN_POINT('Ctrl Pts',(12.0214338222473,1.1938,1.67819245728019));
#708=CARTESIAN_POINT('Ctrl Pts',(12.0208384530045,1.1938,1.67878554056322));
#709=CARTESIAN_POINT('Ctrl Pts',(12.0202424705417,1.1938,1.67937860531805));
#710=CARTESIAN_POINT('',(-12.079378605318,-1.4776944426767E-15,-1.67937860531802));
#711=CARTESIAN_POINT('Origin',(0.,0.,-1.67937860531802));
#712=CARTESIAN_POINT('Origin',(0.,0.,-1.67937860531802));
#713=CARTESIAN_POINT('Ctrl Pts',(10.4109315087089,1.25436420566887,3.27253174865546));
#714=CARTESIAN_POINT('Ctrl Pts',(10.5114949014388,1.05339515605241,3.19673038289329));
#715=CARTESIAN_POINT('Ctrl Pts',(10.6545914140973,0.669466657880248,3.08778677081115));
#716=CARTESIAN_POINT('Ctrl Pts',(10.7371605911937,0.157490378139881,3.02418816346259));
#717=CARTESIAN_POINT('Ctrl Pts',(10.7201227795474,-0.333423713122985,3.03734159690282));
#718=CARTESIAN_POINT('Ctrl Pts',(10.5959839815877,-0.866181788340841,3.1326651991153));
#719=CARTESIAN_POINT('Ctrl Pts',(10.3236485381929,-1.46455587722489,3.33887946913488));
#720=CARTESIAN_POINT('Ctrl Pts',(9.86644629326228,-2.10317602780561,3.67969776940079));
#721=CARTESIAN_POINT('Ctrl Pts',(9.4317618383191,-2.52016001249517,3.99955401296747));
#722=CARTESIAN_POINT('Ctrl Pts',(9.18445650910063,-2.71750841132449,4.18070452059623));
#723=CARTESIAN_POINT('Ctrl Pts',(10.252242975247,1.23417613807949,3.0599709069136));
#724=CARTESIAN_POINT('Ctrl Pts',(10.3551377501866,1.03632297668182,2.98873720497143));
#725=CARTESIAN_POINT('Ctrl Pts',(10.5015487151109,0.658233173450525,2.88665559364095));
#726=CARTESIAN_POINT('Ctrl Pts',(10.5858991918569,0.154745927865662,2.8273376427019));
#727=CARTESIAN_POINT('Ctrl Pts',(10.5685074114987,-0.327660860275434,2.83958989063997));
#728=CARTESIAN_POINT('Ctrl Pts',(10.4416071187029,-0.851910319976421,2.92862383137491));
#729=CARTESIAN_POINT('Ctrl Pts',(10.162910599809,-1.44122796373121,3.12218356055765));
#730=CARTESIAN_POINT('Ctrl Pts',(9.69526552685608,-2.06922511091167,3.4434135433663));
#731=CARTESIAN_POINT('Ctrl Pts',(9.2513015479766,-2.47739514499351,3.74566363707801));
#732=CARTESIAN_POINT('Ctrl Pts',(8.99897100900701,-2.66976093596341,3.91692588116516));
#733=CARTESIAN_POINT('Ctrl Pts',(10.0935544417851,1.21398807049011,2.84741006517175));
#734=CARTESIAN_POINT('Ctrl Pts',(10.1987805989343,1.01925079731124,2.78074402704956));
#735=CARTESIAN_POINT('Ctrl Pts',(10.3485060161244,0.646999689020804,2.68552441647075));
#736=CARTESIAN_POINT('Ctrl Pts',(10.4346377925201,0.152001477591445,2.63048712194121));
#737=CARTESIAN_POINT('Ctrl Pts',(10.4168920434499,-0.321898007427882,2.64183818437712));
#738=CARTESIAN_POINT('Ctrl Pts',(10.2872302558181,-0.837638851612002,2.72458246363451));
#739=CARTESIAN_POINT('Ctrl Pts',(10.0021726614251,-1.41790005023753,2.90548765198042));
#740=CARTESIAN_POINT('Ctrl Pts',(9.52408476044988,-2.03527419401774,3.20712931733182));
#741=CARTESIAN_POINT('Ctrl Pts',(9.07084125763409,-2.43463027749185,3.49177326118855));
#742=CARTESIAN_POINT('Ctrl Pts',(8.81348550891339,-2.62201346060234,3.6531472417341));
#743=CARTESIAN_POINT('Ctrl Pts',(9.93486590832324,1.19380000290073,2.63484922342989));
#744=CARTESIAN_POINT('Ctrl Pts',(10.0424234476821,1.00217861794065,2.5727508491277));
#745=CARTESIAN_POINT('Ctrl Pts',(10.195463317138,0.635766204591081,2.48439323930055));
#746=CARTESIAN_POINT('Ctrl Pts',(10.2833763931833,0.149257027317226,2.43363660118052));
#747=CARTESIAN_POINT('Ctrl Pts',(10.2652766754012,-0.316135154580332,2.44408647811426));
#748=CARTESIAN_POINT('Ctrl Pts',(10.1328533929332,-0.823367383247583,2.52054109589412));
#749=CARTESIAN_POINT('Ctrl Pts',(9.8414347230412,-1.39457213674385,2.68879174340319));
#750=CARTESIAN_POINT('Ctrl Pts',(9.35290399404368,-2.0013232771238,2.97084509129734));
#751=CARTESIAN_POINT('Ctrl Pts',(8.89038096729159,-2.39186540999019,3.23788288529909));
#752=CARTESIAN_POINT('Ctrl Pts',(8.62800000881977,-2.57426598524126,3.38936860230304));
#753=CARTESIAN_POINT('',(10.6930664351192,0.402859037826489,3.05811600676899));
#754=CARTESIAN_POINT('',(10.4404891502663,1.19381537644472,3.25023628030681));
#755=CARTESIAN_POINT('Ctrl Pts',(10.693085931277,0.402901259814717,3.05810280468048));
#756=CARTESIAN_POINT('Ctrl Pts',(10.6784397794075,0.493068194402886,3.06934534622248));
#757=CARTESIAN_POINT('Ctrl Pts',(10.6585301075218,0.585131912044769,3.08460113324984));
#758=CARTESIAN_POINT('Ctrl Pts',(10.6325788154488,0.680119402466561,3.10442290594025));
#759=CARTESIAN_POINT('Ctrl Pts',(10.5880408156474,0.843138369600406,3.13844133190777));
#760=CARTESIAN_POINT('Ctrl Pts',(10.5257078619833,1.01476900051146,3.18590838617228));
#761=CARTESIAN_POINT('Ctrl Pts',(10.4404902356956,1.19381350490205,3.25023543359107));
#762=CARTESIAN_POINT('',(10.6929737850865,-0.402743881391149,3.0581819184847));
#763=CARTESIAN_POINT('Ctrl Pts',(10.6929255180592,-0.402703308436202,3.05821697651353));
#764=CARTESIAN_POINT('Ctrl Pts',(10.6869397777744,-0.39485229129791,3.04785180414674));
#765=CARTESIAN_POINT('Ctrl Pts',(10.6809911508072,-0.386847185998854,3.03754966146714));
#766=CARTESIAN_POINT('Ctrl Pts',(10.6751076369287,-0.378696761219713,3.02735841939684));
#767=CARTESIAN_POINT('Ctrl Pts',(10.6658136663929,-0.365821834889025,3.01125968903261));
#768=CARTESIAN_POINT('Ctrl Pts',(10.6565086385728,-0.352340858697959,2.9951362256654));
#769=CARTESIAN_POINT('Ctrl Pts',(10.6473680412806,-0.338316234197407,2.97928932755084));
#770=CARTESIAN_POINT('Ctrl Pts',(10.632658348909,-0.315746821561089,2.95378738398443));
#771=CARTESIAN_POINT('Ctrl Pts',(10.6183750606279,-0.291773156970136,2.92900254468611));
#772=CARTESIAN_POINT('Ctrl Pts',(10.6052325911574,-0.266602360154356,2.90618047889868));
#773=CARTESIAN_POINT('Ctrl Pts',(10.5947892484565,-0.246601000608413,2.88804548115758));
#774=CARTESIAN_POINT('Ctrl Pts',(10.5846877309175,-0.225122541396577,2.87049295084437));
#775=CARTESIAN_POINT('Ctrl Pts',(10.5755576968018,-0.202359205964205,2.85462709318853));
#776=CARTESIAN_POINT('Ctrl Pts',(10.5719437711414,-0.193348834152816,2.84834693811151));
#777=CARTESIAN_POINT('Ctrl Pts',(10.568482003613,-0.184136616389921,2.84233091439955));
#778=CARTESIAN_POINT('Ctrl Pts',(10.5652113593408,-0.174732217975714,2.83664697884423));
#779=CARTESIAN_POINT('Ctrl Pts',(10.5578676688431,-0.153616197546031,2.82388464211404));
#780=CARTESIAN_POINT('Ctrl Pts',(10.5513646583524,-0.13118448784004,2.81258401151389));
#781=CARTESIAN_POINT('Ctrl Pts',(10.5462626088731,-0.107562557727132,2.80372750843542));
#782=CARTESIAN_POINT('Ctrl Pts',(10.5445705471355,-0.0997284972626505,2.80079030642487));
#783=CARTESIAN_POINT('Ctrl Pts',(10.5430325940536,-0.0917631140010332,2.79812187626427));
#784=CARTESIAN_POINT('Ctrl Pts',(10.5416693042144,-0.0836697018185008,2.79575792716398));
#785=CARTESIAN_POINT('Ctrl Pts',(10.538198566089,-0.0630650487079333,2.78973965574966));
#786=CARTESIAN_POINT('Ctrl Pts',(10.5359071567819,-0.0419249586777592,2.78577814443416));
#787=CARTESIAN_POINT('Ctrl Pts',(10.5350108806327,-0.0202500576120267,2.78424685781017));
#788=CARTESIAN_POINT('Ctrl Pts',(10.5348549128777,-0.0164782450272523,2.78398038710557));
#789=CARTESIAN_POINT('Ctrl Pts',(10.5347416560714,-0.0127013651760709,2.78378828442267));
#790=CARTESIAN_POINT('Ctrl Pts',(10.534671484882,-0.00891927369508213,2.78367116918105));
#791=CARTESIAN_POINT('Ctrl Pts',(10.5346356502439,-0.00698785595982031,
2.78361136141176));
#792=CARTESIAN_POINT('Ctrl Pts',(10.5346110667224,-0.00505587913010197,
2.78357113424704));
#793=CARTESIAN_POINT('Ctrl Pts',(10.5345977564504,-0.00312332239347801,
2.78355052125343));
#794=CARTESIAN_POINT('Ctrl Pts',(10.5345872803614,-0.00160226884023208,
2.7835342974259));
#795=CARTESIAN_POINT('Ctrl Pts',(10.5345837898758,-8.1159819278763E-5,2.78353022734498));
#796=CARTESIAN_POINT('Ctrl Pts',(10.5345872874851,0.00144001496498101,2.78353831276567));
#797=CARTESIAN_POINT('Ctrl Pts',(10.5345911801586,0.0031330104560321,2.78354731145597));
#798=CARTESIAN_POINT('Ctrl Pts',(10.5346037279234,0.00482573676299162,2.78357136486041));
#799=CARTESIAN_POINT('Ctrl Pts',(10.5346249235457,0.00651820796557427,2.78361045663241));
#800=CARTESIAN_POINT('Ctrl Pts',(10.5346599228591,0.00931290438589537,2.78367500699824));
#801=CARTESIAN_POINT('Ctrl Pts',(10.5347184850818,0.0121055801356618,2.7837805308894));
#802=CARTESIAN_POINT('Ctrl Pts',(10.5348005110158,0.0148962957231556,2.78392683760904));
#803=CARTESIAN_POINT('Ctrl Pts',(10.535095006966,0.0249157419895381,2.78445211948381));
#804=CARTESIAN_POINT('Ctrl Pts',(10.5356906033771,0.0348641584353538,2.78550070282578));
#805=CARTESIAN_POINT('Ctrl Pts',(10.5365744111439,0.0447433604747755,2.78704921325854));
#806=CARTESIAN_POINT('Ctrl Pts',(10.5389702561216,0.0715241124451156,2.79124694842558));
#807=CARTESIAN_POINT('Ctrl Pts',(10.5434295383958,0.0971788313462204,2.79902258909824));
#808=CARTESIAN_POINT('Ctrl Pts',(10.5493820267337,0.121640891674882,2.80936576629795));
#809=CARTESIAN_POINT('Ctrl Pts',(10.5524201052315,0.134126033229013,2.81464479961415));
#810=CARTESIAN_POINT('Ctrl Pts',(10.5558435291811,0.146281905887278,2.82058603648184));
#811=CARTESIAN_POINT('Ctrl Pts',(10.5595679011079,0.158089840831541,2.82704166647601));
#812=CARTESIAN_POINT('Ctrl Pts',(10.565458189814,0.17676470661075,2.83725158245458));
#813=CARTESIAN_POINT('Ctrl Pts',(10.5721009350508,0.194570090680814,2.84874863123969));
#814=CARTESIAN_POINT('Ctrl Pts',(10.5791538831277,0.211409040023043,2.86095076607021));
#815=CARTESIAN_POINT('Ctrl Pts',(10.5911712408667,0.240100542638502,2.88174170594946));
#816=CARTESIAN_POINT('Ctrl Pts',(10.6051661481491,0.267882948821158,2.90594307034127));
#817=CARTESIAN_POINT('Ctrl Pts',(10.6205855424159,0.294727848543476,2.93261778230487));
#818=CARTESIAN_POINT('Ctrl Pts',(10.6366162864329,0.322637097646392,2.96035009602709));
#819=CARTESIAN_POINT('Ctrl Pts',(10.6541872794038,0.349532694552395,2.99075627176696));
#820=CARTESIAN_POINT('Ctrl Pts',(10.6726771224401,0.375328986569824,3.02276612729946));
#821=CARTESIAN_POINT('Ctrl Pts',(10.679369614138,0.384666084230633,3.03435225553113));
#822=CARTESIAN_POINT('Ctrl Pts',(10.6861824441064,0.393858692340206,3.04614829105336));
#823=CARTESIAN_POINT('Ctrl Pts',(10.693085931277,0.402901259814743,3.05810280468048));
#824=CARTESIAN_POINT('',(10.2554364261535,-1.5332882307093,3.38933712489042));
#825=CARTESIAN_POINT('Ctrl Pts',(10.2554645396426,-1.53325687428984,3.38931637765531));
#826=CARTESIAN_POINT('Ctrl Pts',(10.2682308941123,-1.51253138080989,3.37975760410092));
#827=CARTESIAN_POINT('Ctrl Pts',(10.4053562793636,-1.28502803256264,3.27700980578723));
#828=CARTESIAN_POINT('Ctrl Pts',(10.5849892351757,-0.890339390762393,3.14099049668638));
#829=CARTESIAN_POINT('Ctrl Pts',(10.6683573794706,-0.554187255778501,3.07708406559689));
#830=CARTESIAN_POINT('Ctrl Pts',(10.6929255180592,-0.402703308436199,3.05821697651353));
#831=CARTESIAN_POINT('',(8.62800000921417,-2.5742659785617,3.38936860207534));
#832=CARTESIAN_POINT('Ctrl Pts',(10.2553937668862,-1.5333358049692,3.38936860741133));
#833=CARTESIAN_POINT('Ctrl Pts',(10.1383900883481,-1.6493566926458,3.38936860741098));
#834=CARTESIAN_POINT('Ctrl Pts',(10.0129525134414,-1.75780719148417,3.3893686074106));
#835=CARTESIAN_POINT('Ctrl Pts',(9.50375095994667,-2.15105223151526,3.38936860740906));
#836=CARTESIAN_POINT('Ctrl Pts',(9.07133399042976,-2.38801751972525,3.38936860740776));
#837=CARTESIAN_POINT('Ctrl Pts',(8.6280000124084,-2.57426598616504,3.38936860740642));
#838=CARTESIAN_POINT('',(9.93486590743844,1.19380000223853,2.63484922394073));
#839=CARTESIAN_POINT('Ctrl Pts',(9.93486590832324,1.19380000290073,2.63484922342989));
#840=CARTESIAN_POINT('Ctrl Pts',(10.0424234476821,1.00217861794065,2.5727508491277));
#841=CARTESIAN_POINT('Ctrl Pts',(10.195463317138,0.635766204591081,2.48439323930055));
#842=CARTESIAN_POINT('Ctrl Pts',(10.2833763931833,0.149257027317226,2.43363660118052));
#843=CARTESIAN_POINT('Ctrl Pts',(10.2652766754012,-0.316135154580332,2.44408647811426));
#844=CARTESIAN_POINT('Ctrl Pts',(10.1328533929332,-0.823367383247583,2.52054109589412));
#845=CARTESIAN_POINT('Ctrl Pts',(9.8414347230412,-1.39457213674385,2.68879174340319));
#846=CARTESIAN_POINT('Ctrl Pts',(9.35290399463238,-2.00132327639264,2.97084509095746));
#847=CARTESIAN_POINT('Ctrl Pts',(8.89038096896366,-2.39186540857834,3.23788288433372));
#848=CARTESIAN_POINT('Ctrl Pts',(8.62800001166538,-2.57426598326307,3.38936860066013));
#849=CARTESIAN_POINT('Ctrl Pts',(9.93486590995143,1.1938,2.63484922248985));
#850=CARTESIAN_POINT('Ctrl Pts',(10.0195919457916,1.1938000000003,2.73751431416607));
#851=CARTESIAN_POINT('Ctrl Pts',(10.1042469078014,1.19380153558746,2.84033340306022));
#852=CARTESIAN_POINT('Ctrl Pts',(10.1887461183161,1.19380397778831,2.94318349001782));
#853=CARTESIAN_POINT('Ctrl Pts',(10.2727503052536,1.19380640568196,3.04543104805648));
#854=CARTESIAN_POINT('Ctrl Pts',(10.3566918231248,1.1938097345983,3.14782033054176));
#855=CARTESIAN_POINT('Ctrl Pts',(10.4404902356956,1.19381350490204,3.25023543359107));
#856=CARTESIAN_POINT('Origin',(10.3202070630677,4.66690566304893E-18,2.41237240400834));
#857=CARTESIAN_POINT('',(10.6958141860088,4.66690566304893E-18,3.06294302462698));
#858=CARTESIAN_POINT('Ctrl Pts',(10.6930383040777,0.402798115643174,3.05813505608643));
#859=CARTESIAN_POINT('Ctrl Pts',(10.6958141860089,0.201379927840205,3.06294302462714));
#860=CARTESIAN_POINT('Ctrl Pts',(10.6958141860089,0.,3.06294302462719));
#861=CARTESIAN_POINT('Ctrl Pts',(10.6958141860089,0.,3.06294302462719));
#862=CARTESIAN_POINT('Ctrl Pts',(10.6958141860089,-0.20137992784011,3.06294302462719));
#863=CARTESIAN_POINT('Ctrl Pts',(10.6930383040777,-0.402798115643199,3.05813505608648));
#864=CARTESIAN_POINT('Origin',(0.,0.,3.76068930265459));
#865=CARTESIAN_POINT('',(8.36799999999985,-6.12378935013352,3.38936860740564));
#866=CARTESIAN_POINT('Ctrl Pts',(8.36799999999985,-6.12378935013351,3.38936860740564));
#867=CARTESIAN_POINT('Ctrl Pts',(8.36799999999985,-6.2107792866406,3.33799546795314));
#868=CARTESIAN_POINT('Ctrl Pts',(8.36799999999985,-6.29864347866949,3.2851554580687));
#869=CARTESIAN_POINT('Origin',(0.,0.,3.38936860740564));
#870=CARTESIAN_POINT('',(10.6714490654221,1.1938,3.02074139783822));
#871=CARTESIAN_POINT('Ctrl Pts',(10.4404980680662,1.1938,3.25022932375809));
#872=CARTESIAN_POINT('Ctrl Pts',(10.5547262941151,1.1938,3.13674058525722));
#873=CARTESIAN_POINT('Ctrl Pts',(10.6714490654221,1.1938,3.02074139783822));
#874=CARTESIAN_POINT('Ctrl Pts',(12.0202424705417,1.1938,1.67937860531805));
#875=CARTESIAN_POINT('Ctrl Pts',(11.3062001087596,1.1938,2.38992528187326));
#876=CARTESIAN_POINT('Ctrl Pts',(10.6714490654221,1.1938,3.02074139783822));
#877=CARTESIAN_POINT('',(-9.13091675991428,-1.11700323282595E-15,4.62784045072184));
#878=CARTESIAN_POINT('',(-9.99806790798152,-1.22308355983015E-15,3.76068930265459));
#879=CARTESIAN_POINT('Origin',(0.,-1.11760901557847E-15,4.62784045072184));
#880=CARTESIAN_POINT('Ctrl Pts',(9.18445650910464,-2.71750841132093,-4.18070452059322));
#881=CARTESIAN_POINT('Ctrl Pts',(9.6790671676116,-2.32281161360561,-3.8184035052844));
#882=CARTESIAN_POINT('Ctrl Pts',(10.2346546575962,-1.66605460120092,-3.40641339617571));
#883=CARTESIAN_POINT('Ctrl Pts',(10.6836153071523,-0.661927694735887,-3.06609383863085));
#884=CARTESIAN_POINT('Ctrl Pts',(10.7817672099559,0.149727162029098,-2.98936795570193));
#885=CARTESIAN_POINT('Ctrl Pts',(10.612058294009,0.852426106951455,-3.12092901725371));
#886=CARTESIAN_POINT('Ctrl Pts',(10.4109315084048,1.25436420627587,-3.27253174888466));
#887=CARTESIAN_POINT('Ctrl Pts',(8.99897100889995,-2.66976093593132,-3.91692588100424));
#888=CARTESIAN_POINT('Ctrl Pts',(9.50363208691659,-2.28502935394222,-3.57440139279328));
#889=CARTESIAN_POINT('Ctrl Pts',(10.0718422710234,-1.63973909525744,-3.18553074192266));
#890=CARTESIAN_POINT('Ctrl Pts',(10.5312682842586,-0.650605855190582,-2.86620633907946));
#891=CARTESIAN_POINT('Ctrl Pts',(10.6314488781786,0.147018265483641,-2.7949951426003));
#892=CARTESIAN_POINT('Ctrl Pts',(10.4580325248703,0.838469815783581,-2.91750350302196));
#893=CARTESIAN_POINT('Ctrl Pts',(10.2522429748408,1.23417613866498,-3.05997090700161));
#894=CARTESIAN_POINT('Ctrl Pts',(8.81348550869526,-2.62201346054172,-3.65314724141526));
#895=CARTESIAN_POINT('Ctrl Pts',(9.32819700622158,-2.24724709427883,-3.33039928030217));
#896=CARTESIAN_POINT('Ctrl Pts',(9.90902988445069,-1.61342358931396,-2.96464808766961));
#897=CARTESIAN_POINT('Ctrl Pts',(10.3789212613648,-0.639284015645278,-2.66631883952807));
#898=CARTESIAN_POINT('Ctrl Pts',(10.4811305464012,0.144309368938185,-2.60062232949867));
#899=CARTESIAN_POINT('Ctrl Pts',(10.3040067557317,0.824513524615708,-2.71407798879021));
#900=CARTESIAN_POINT('Ctrl Pts',(10.0935544412767,1.21398807105409,-2.84741006511855));
#901=CARTESIAN_POINT('Ctrl Pts',(8.62800000849056,-2.57426598515211,-3.38936860182628));
#902=CARTESIAN_POINT('Ctrl Pts',(9.15276192552657,-2.20946483461544,-3.08639716781105));
#903=CARTESIAN_POINT('Ctrl Pts',(9.74621749787794,-1.58710808337048,-2.74376543341655));
#904=CARTESIAN_POINT('Ctrl Pts',(10.226574238471,-0.627962176099973,-2.46643133997667));
#905=CARTESIAN_POINT('Ctrl Pts',(10.3308122146239,0.141600472392728,-2.40624951639704));
#906=CARTESIAN_POINT('Ctrl Pts',(10.149980986593,0.810557233447833,-2.51065247455846));
#907=CARTESIAN_POINT('Ctrl Pts',(9.93486590771268,1.19380000344319,-2.6348492232355));
#908=CARTESIAN_POINT('',(10.6928638668196,0.402752192918409,-3.05828905825569));
#909=CARTESIAN_POINT('',(10.6935996946163,-0.403591801637312,-3.05773701875956));
#910=CARTESIAN_POINT('Ctrl Pts',(10.6930383040777,0.40279811564085,-3.05813505608644));
#911=CARTESIAN_POINT('Ctrl Pts',(10.6320541715879,0.322885243764251,-2.95250744015859));
#912=CARTESIAN_POINT('Ctrl Pts',(10.5894148637943,0.246013943118148,-2.87865399265898));
#913=CARTESIAN_POINT('Ctrl Pts',(10.5533036103163,0.140071491179486,-2.81610746690999));
#914=CARTESIAN_POINT('Ctrl Pts',(10.544630590953,0.106447783577298,-2.80108535671938));
#915=CARTESIAN_POINT('Ctrl Pts',(10.536250029278,0.0473640458641094,-2.78656979810234));
#916=CARTESIAN_POINT('Ctrl Pts',(10.5345152328288,0.0238414195340357,-2.78356504251156));
#917=CARTESIAN_POINT('Ctrl Pts',(10.5345293753451,-0.0241551324526819,-2.78358953806828));
#918=CARTESIAN_POINT('Ctrl Pts',(10.536281188008,-0.0476949626035828,-2.78662376660573));
#919=CARTESIAN_POINT('Ctrl Pts',(10.5447185750908,-0.106891959843862,-2.80123774971635));
#920=CARTESIAN_POINT('Ctrl Pts',(10.5534485318195,-0.140600521693495,-2.81635847831823));
#921=CARTESIAN_POINT('Ctrl Pts',(10.5870007506533,-0.238703119869932,-2.87447262604516));
#922=CARTESIAN_POINT('Ctrl Pts',(10.6236528131768,-0.307516788286217,-2.93795586053804));
#923=CARTESIAN_POINT('Ctrl Pts',(10.6812927743251,-0.387211009385869,-3.03779120179304));
#924=CARTESIAN_POINT('Ctrl Pts',(10.6871477292126,-0.39507917736534,-3.04793228113427));
#925=CARTESIAN_POINT('Ctrl Pts',(10.6930383040777,-0.402798115640858,-3.05813505608643));
#926=CARTESIAN_POINT('',(10.4405327586711,1.19382532822553,-3.25020578898438));
#927=CARTESIAN_POINT('Ctrl Pts',(10.4405327586711,1.19382532822553,-3.25020578898438));
#928=CARTESIAN_POINT('Ctrl Pts',(10.5761763511224,0.909734498769898,-3.14783648673198));
#929=CARTESIAN_POINT('Ctrl Pts',(10.6536594019264,0.650595127993697,-3.08845916802457));
#930=CARTESIAN_POINT('Ctrl Pts',(10.692860033636,0.402751183786355,-3.05829244238706));
#931=CARTESIAN_POINT('',(9.93486590743807,1.19380000223853,-2.63484922394097));
#932=CARTESIAN_POINT('Ctrl Pts',(10.4404883871494,1.19391825612285,-3.25023927583975));
#933=CARTESIAN_POINT('Ctrl Pts',(10.2740491665103,1.19384750171246,-3.04682041969727));
#934=CARTESIAN_POINT('Ctrl Pts',(10.1052358449568,1.19379287686871,-2.84128445526087));
#935=CARTESIAN_POINT('Ctrl Pts',(9.93486590798623,1.19380000347799,-2.63484922360191));
#936=CARTESIAN_POINT('',(8.62800000921417,-2.57426597856139,-3.38936860207534));
#937=CARTESIAN_POINT('Ctrl Pts',(8.62800001166537,-2.57426598326276,-3.38936860066013));
#938=CARTESIAN_POINT('Ctrl Pts',(9.15276192727012,-2.20946483318572,-3.08639716742525));
#939=CARTESIAN_POINT('Ctrl Pts',(9.74621749851746,-1.58710808272537,-2.74376543361349));
#940=CARTESIAN_POINT('Ctrl Pts',(10.226574238745,-0.62796217612033,-2.46643134033608));
#941=CARTESIAN_POINT('Ctrl Pts',(10.3308122148732,0.141600472242641,-2.40624951675865));
#942=CARTESIAN_POINT('Ctrl Pts',(10.149980986961,0.810557233136177,-2.51065247487167));
#943=CARTESIAN_POINT('Ctrl Pts',(9.93486590832287,1.19380000290073,-2.63484922343013));
#944=CARTESIAN_POINT('',(10.2552439369908,-1.53344107684653,-3.38945355569807));
#945=CARTESIAN_POINT('Ctrl Pts',(8.62800001240647,-2.57426598616014,-3.38936860739508));
#946=CARTESIAN_POINT('Ctrl Pts',(8.93121183797977,-2.44688405669103,-3.38936860739592));
#947=CARTESIAN_POINT('Ctrl Pts',(9.22775102631033,-2.2964363321183,-3.38936860739675));
#948=CARTESIAN_POINT('Ctrl Pts',(9.77394679828985,-1.95211030960001,-3.38936860739826));
#949=CARTESIAN_POINT('Ctrl Pts',(10.0306740883945,-1.75616791505362,-3.38936860739897));
#950=CARTESIAN_POINT('Ctrl Pts',(10.2553937669018,-1.53333580494319,-3.38936860739959));
#951=CARTESIAN_POINT('Ctrl Pts',(10.69399930114,-0.404156759683766,-3.05745368959463));
#952=CARTESIAN_POINT('Ctrl Pts',(10.669095101586,-0.55504644542208,-3.07655318197375));
#953=CARTESIAN_POINT('Ctrl Pts',(10.5829478939096,-0.887076287025972,-3.14240139379811));
#954=CARTESIAN_POINT('Ctrl Pts',(10.4052667353252,-1.28447065172793,-3.27708663477258));
#955=CARTESIAN_POINT('Ctrl Pts',(10.2680284089744,-1.51265956842232,-3.37988496770577));
#956=CARTESIAN_POINT('Ctrl Pts',(10.2552439369908,-1.53344107684653,-3.38945355569807));
#957=CARTESIAN_POINT('Origin',(10.3202070630677,4.66690566304891E-18,-2.41237240400834));
#958=CARTESIAN_POINT('',(8.6280000000001,1.1938,-3.38936860739508));
#959=CARTESIAN_POINT('',(10.3202070630677,1.1938,-2.41237240400834));
#960=CARTESIAN_POINT('',(8.6280000000001,7.12919144784904E-18,-3.38936860739508));
#961=CARTESIAN_POINT('Origin',(0.,0.,-2.84788563055128));
#962=CARTESIAN_POINT('',(-9.74236455485141,-1.1918028593703E-15,-4.01639265578454));
#963=CARTESIAN_POINT('Origin',(0.,0.,-4.01639265578454));
#964=CARTESIAN_POINT('',(-10.9108715800847,-1.3347486510235E-15,-2.84788563055128));
#965=CARTESIAN_POINT('',(10.671449065422,1.1938,-3.02074139783812));
#966=CARTESIAN_POINT('Ctrl Pts',(10.671449065422,1.1938,-3.02074139783812));
#967=CARTESIAN_POINT('Ctrl Pts',(11.3062001086411,1.1938,-2.38992528199088));
#968=CARTESIAN_POINT('Ctrl Pts',(12.0202424705417,1.1938,-1.67937860531802));
#969=CARTESIAN_POINT('Ctrl Pts',(10.671449065422,1.1938,-3.02074139783812));
#970=CARTESIAN_POINT('Ctrl Pts',(10.5547262940903,1.1938,-3.13674058528176));
#971=CARTESIAN_POINT('Ctrl Pts',(10.4404980680658,1.1938,-3.25022932375834));
#972=CARTESIAN_POINT('',(10.6958141860088,4.66690566304891E-18,-3.06294302462698));
#973=CARTESIAN_POINT('Ctrl Pts',(10.6958141860089,0.,-3.06294302462708));
#974=CARTESIAN_POINT('Ctrl Pts',(10.6958141860089,0.20137992783902,-3.06294302462704));
#975=CARTESIAN_POINT('Ctrl Pts',(10.6930383040777,0.402798115640802,-3.05813505608638));
#976=CARTESIAN_POINT('Ctrl Pts',(10.6930383040777,-0.402798115640832,-3.05813505608643));
#977=CARTESIAN_POINT('Ctrl Pts',(10.6958141860089,-0.201379927838927,-3.06294302462708));
#978=CARTESIAN_POINT('Ctrl Pts',(10.6958141860089,0.,-3.06294302462708));
#979=CARTESIAN_POINT('',(8.36800000000009,-6.12378935015203,-3.38936860739436));
#980=CARTESIAN_POINT('Origin',(0.,0.,-3.38936860739508));
#981=CARTESIAN_POINT('Ctrl Pts',(8.36800000000009,-6.2986434786694,-3.28515545806843));
#982=CARTESIAN_POINT('Ctrl Pts',(8.36800000000009,-6.21077928664991,-3.33799546794721));
#983=CARTESIAN_POINT('Ctrl Pts',(8.36800000000009,-6.12378935015203,-3.38936860739436));
#984=CARTESIAN_POINT('Origin',(10.6958141860088,4.66690566304891E-18,-3.06294302462698));
#985=CARTESIAN_POINT('Origin',(8.67937860531805,1.1938,-0.779000000005716));
#986=CARTESIAN_POINT('',(8.6280000000001,1.1938,3.38936860739508));
#987=CARTESIAN_POINT('',(10.3202070630677,1.1938,2.41237240400834));
#988=CARTESIAN_POINT('',(8.36799999999985,1.1938,3.38936860740564));
#989=CARTESIAN_POINT('',(8.36799999999985,1.1938,3.38936860740564));
#990=CARTESIAN_POINT('',(8.36800000000009,1.1938,-3.38936860739436));
#991=CARTESIAN_POINT('',(8.36799999999985,1.1938,3.38936860740564));
#992=CARTESIAN_POINT('',(8.36800000000009,1.1938,-3.38936860739436));
#993=CARTESIAN_POINT('',(9.525,1.1938,0.));
#994=CARTESIAN_POINT('Origin',(10.4,1.1938,0.));
#995=CARTESIAN_POINT('Origin',(10.4,0.,0.));
#996=CARTESIAN_POINT('',(9.525,5.2753234498,-1.07156594925393E-16));
#997=CARTESIAN_POINT('',(9.525,0.,-1.07156594925393E-16));
#998=CARTESIAN_POINT('Origin',(10.4,5.2753234498,0.));
#999=CARTESIAN_POINT('Origin',(10.4,5.2753234498,0.));
#1000=CARTESIAN_POINT('Origin',(8.6280000000001,7.12919144784905E-18,3.38936860739508));
#1001=CARTESIAN_POINT('',(8.6280000000001,7.12919144784905E-18,3.38936860739508));
#1002=CARTESIAN_POINT('Origin',(8.36799999999985,0.,3.38936860740564));
#1003=CARTESIAN_POINT('',(8.36799999999985,0.,3.38936860740564));
#1004=CARTESIAN_POINT('Origin',(8.36800000000009,0.,-3.38936860739436));
#1005=CARTESIAN_POINT('',(8.36800000000009,0.,-3.38936860739436));
#1006=CARTESIAN_POINT('Origin',(8.6280000000001,8.22204818012609E-18,-3.38936860739508));
#1007=CARTESIAN_POINT('Origin',(0.,0.,1.69659999999113));
#1008=CARTESIAN_POINT('',(-6.19967630918356,-7.59241374779132E-16,5.84199999999113));
#1009=CARTESIAN_POINT('Origin',(-6.19967630918356,-7.59241374779132E-16,
1.69659999999113));
#1010=CARTESIAN_POINT('Origin',(0.,0.,5.84199999999113));
#1011=CARTESIAN_POINT('Origin',(7.91675721064499,0.,5.84199999999113));
#1012=CARTESIAN_POINT('',(-5.10000000000067,-6.23893157412442E-16,5.84199999999113));
#1013=CARTESIAN_POINT('Origin',(0.,0.,5.84199999999113));
#1014=CARTESIAN_POINT('Origin',(0.,0.,-5.29217816069649));
#1015=CARTESIAN_POINT('',(-7.25000000000001,-8.86906939458748E-16,-6.03819522539649));
#1016=CARTESIAN_POINT('Origin',(0.,0.,-6.03819522539649));
#1017=CARTESIAN_POINT('',(-7.25000000000001,-8.86906939458748E-16,-4.54616109599649));
#1018=CARTESIAN_POINT('',(-7.25000000000001,-8.86906939458748E-16,-5.29217816069649));
#1019=CARTESIAN_POINT('Origin',(0.,0.,-4.54616109599649));
#1020=CARTESIAN_POINT('Origin',(0.,0.,-6.22949613089953));
#1021=CARTESIAN_POINT('',(-9.05,-1.10710452442782E-15,-6.42079703640256));
#1022=CARTESIAN_POINT('Origin',(0.,0.,-6.42079703640256));
#1023=CARTESIAN_POINT('',(-8.15,-9.97005731943282E-16,-6.22949613089953));
#1024=CARTESIAN_POINT('Origin',(0.,0.,-6.91039851820256));
#1025=CARTESIAN_POINT('',(-9.04999999999999,-1.10710452442782E-15,-7.40000000000256));
#1026=CARTESIAN_POINT('Origin',(0.,0.,-7.40000000000256));
#1027=CARTESIAN_POINT('',(-9.04999999999999,-1.10710452442782E-15,-6.91039851820256));
#1028=CARTESIAN_POINT('Origin',(5.09999999999805,0.,-7.40000000000144));
#1029=CARTESIAN_POINT('',(-5.09999999999862,-6.23893157412192E-16,-7.40000000000144));
#1030=CARTESIAN_POINT('Origin',(0.,0.,-7.40000000000144));
#1031=CARTESIAN_POINT('Origin',(0.,0.,-5.40000000000072));
#1032=CARTESIAN_POINT('',(-5.09999999999862,-6.23893157412192E-16,-3.4));
#1033=CARTESIAN_POINT('',(-5.09999999999862,-6.23893157412192E-16,-5.40000000000072));
#1034=CARTESIAN_POINT('Origin',(0.,0.,-3.4));
#1035=CARTESIAN_POINT('Origin',(3.60000000000001,0.,-3.4));
#1036=CARTESIAN_POINT('',(-3.6,-4.40395169938137E-16,-3.4));
#1037=CARTESIAN_POINT('Origin',(0.,0.,-3.4));
#1038=CARTESIAN_POINT('Origin',(0.,0.,-0.779000000000001));
#1039=CARTESIAN_POINT('',(-3.6,-4.40395169938137E-16,1.842));
#1040=CARTESIAN_POINT('',(-3.6,-4.40395169938137E-16,-0.779000000000001));
#1041=CARTESIAN_POINT('Origin',(0.,0.,1.842));
#1042=CARTESIAN_POINT('Origin',(5.10000000000067,0.,1.842));
#1043=CARTESIAN_POINT('',(-5.10000000000067,-6.23893157412442E-16,1.842));
#1044=CARTESIAN_POINT('Origin',(0.,0.,1.842));
#1045=CARTESIAN_POINT('Origin',(0.,0.,3.84199999999556));
#1046=CARTESIAN_POINT('',(-5.10000000000067,-6.23893157412442E-16,3.84199999999556));
#1047=CARTESIAN_POINT('Origin',(0.,0.,-4.28127687589052));
#1048=CARTESIAN_POINT('',(-8.49618227742571,-1.03935489941452E-15,-4.28127687589052));
#1049=UNCERTAINTY_MEASURE_WITH_UNIT(LENGTH_MEASURE(0.01),#1053,
'DISTANCE_ACCURACY_VALUE',
'Maximum model space distance between geometric entities at asserted c
onnectivities');
#1050=UNCERTAINTY_MEASURE_WITH_UNIT(LENGTH_MEASURE(0.01),#1053,
'DISTANCE_ACCURACY_VALUE',
'Maximum model space distance between geometric entities at asserted c
onnectivities');
#1051=(
GEOMETRIC_REPRESENTATION_CONTEXT(3)
GLOBAL_UNCERTAINTY_ASSIGNED_CONTEXT((#1049))
GLOBAL_UNIT_ASSIGNED_CONTEXT((#1053,#1055,#1056))
REPRESENTATION_CONTEXT('','3D')
);
#1052=(
GEOMETRIC_REPRESENTATION_CONTEXT(3)
GLOBAL_UNCERTAINTY_ASSIGNED_CONTEXT((#1050))
GLOBAL_UNIT_ASSIGNED_CONTEXT((#1053,#1055,#1056))
REPRESENTATION_CONTEXT('','3D')
);
#1053=(
LENGTH_UNIT()
NAMED_UNIT(*)
SI_UNIT(.MILLI.,.METRE.)
);
#1054=(
LENGTH_UNIT()
NAMED_UNIT(*)
SI_UNIT($,.METRE.)
);
#1055=(
NAMED_UNIT(*)
PLANE_ANGLE_UNIT()
SI_UNIT($,.RADIAN.)
);
#1056=(
NAMED_UNIT(*)
SI_UNIT($,.STERADIAN.)
SOLID_ANGLE_UNIT()
);
#1057=SHAPE_DEFINITION_REPRESENTATION(#1058,#1059);
#1058=PRODUCT_DEFINITION_SHAPE('',$,#1061);
#1059=SHAPE_REPRESENTATION('',(#492),#1051);
#1060=PRODUCT_DEFINITION_CONTEXT('part definition',#1065,'design');
#1061=PRODUCT_DEFINITION('Cutterhead_Insert_CCW',
'Cutterhead_Insert_CCW',#1062,#1060);
#1062=PRODUCT_DEFINITION_FORMATION('',$,#1067);
#1063=PRODUCT_RELATED_PRODUCT_CATEGORY('Cutterhead_Insert_CCW',
'Cutterhead_Insert_CCW',(#1067));
#1064=APPLICATION_PROTOCOL_DEFINITION('international standard',
'automotive_design',2009,#1065);
#1065=APPLICATION_CONTEXT(
'Core Data for Automotive Mechanical Design Process');
#1066=PRODUCT_CONTEXT('part definition',#1065,'mechanical');
#1067=PRODUCT('Cutterhead_Insert_CCW','Cutterhead_Insert_CCW',$,(#1066));
#1068=PRESENTATION_STYLE_ASSIGNMENT((#1069));
#1069=SURFACE_STYLE_USAGE(.BOTH.,#1070);
#1070=SURFACE_SIDE_STYLE('',(#1071));
#1071=SURFACE_STYLE_FILL_AREA(#1072);
#1072=FILL_AREA_STYLE('Paint - Enamel Glossy (Blue)',(#1073));
#1073=FILL_AREA_STYLE_COLOUR('Paint - Enamel Glossy (Blue)',#1074);
#1074=COLOUR_RGB('Paint - Enamel Glossy (Blue)',0.188235294117647,0.231372549019608,
0.588235294117647);
ENDSEC;
END-ISO-10303-21;
