ISO-10303-21;
HEADER;
/* Generated by software containing ST-Developer
 * from STEP Tools, Inc. (www.steptools.com) 
 */

FILE_DESCRIPTION(
/* description */ (''),
/* implementation_level */ '2;1');

FILE_NAME(
/* name */ 'Knob_03.step',
/* time_stamp */ '2026-01-22T14:49:47-08:00',
/* author */ (''),
/* organization */ (''),
/* preprocessor_version */ 'ST-DEVELOPER v20.1',
/* originating_system */ 'Autodesk Translation Framework v14.21.0.0',
/* authorisation */ '');

FILE_SCHEMA (('AUTOMOTIVE_DESIGN { 1 0 10303 214 3 1 1 }'));
ENDSEC;

DATA;
#10=MECHANICAL_DESIGN_GEOMETRIC_PRESENTATION_REPRESENTATION('',(#13),#1877);
#11=SHAPE_REPRESENTATION_RELATIONSHIP('SRR','None',#1884,#12);
#12=ADVANCED_BREP_SHAPE_REPRESENTATION('',(#14),#1876);
#13=STYLED_ITEM('',(#1893),#14);
#14=MANIFOLD_SOLID_BREP('Body1',#1051);
#15=CYLINDRICAL_SURFACE('',#1125,2.);
#16=CYLINDRICAL_SURFACE('',#1127,4.);
#17=CYLINDRICAL_SURFACE('',#1129,2.);
#18=CYLINDRICAL_SURFACE('',#1131,12.5);
#19=CYLINDRICAL_SURFACE('',#1133,2.);
#20=CYLINDRICAL_SURFACE('',#1135,4.);
#21=CYLINDRICAL_SURFACE('',#1137,2.);
#22=CYLINDRICAL_SURFACE('',#1139,12.5);
#23=CYLINDRICAL_SURFACE('',#1141,2.);
#24=CYLINDRICAL_SURFACE('',#1143,4.);
#25=CYLINDRICAL_SURFACE('',#1197,2.);
#26=CYLINDRICAL_SURFACE('',#1198,4.);
#27=CYLINDRICAL_SURFACE('',#1199,2.);
#28=CYLINDRICAL_SURFACE('',#1200,12.5);
#29=CYLINDRICAL_SURFACE('',#1201,2.);
#30=CYLINDRICAL_SURFACE('',#1203,12.5);
#31=CYLINDRICAL_SURFACE('',#1204,2.);
#32=CYLINDRICAL_SURFACE('',#1205,4.);
#33=CYLINDRICAL_SURFACE('',#1206,2.);
#34=CYLINDRICAL_SURFACE('',#1207,12.5);
#35=CYLINDRICAL_SURFACE('',#1208,2.);
#36=FACE_BOUND('',#120,.T.);
#37=FACE_BOUND('',#126,.T.);
#38=FACE_BOUND('',#158,.T.);
#39=FACE_BOUND('',#185,.T.);
#40=PLANE('',#1068);
#41=PLANE('',#1079);
#42=PLANE('',#1080);
#43=PLANE('',#1081);
#44=PLANE('',#1082);
#45=PLANE('',#1083);
#46=PLANE('',#1145);
#47=PLANE('',#1202);
#48=FACE_OUTER_BOUND('',#118,.T.);
#49=FACE_OUTER_BOUND('',#119,.T.);
#50=FACE_OUTER_BOUND('',#121,.T.);
#51=FACE_OUTER_BOUND('',#122,.T.);
#52=FACE_OUTER_BOUND('',#123,.T.);
#53=FACE_OUTER_BOUND('',#124,.T.);
#54=FACE_OUTER_BOUND('',#125,.T.);
#55=FACE_OUTER_BOUND('',#127,.T.);
#56=FACE_OUTER_BOUND('',#128,.T.);
#57=FACE_OUTER_BOUND('',#129,.T.);
#58=FACE_OUTER_BOUND('',#130,.T.);
#59=FACE_OUTER_BOUND('',#131,.T.);
#60=FACE_OUTER_BOUND('',#132,.T.);
#61=FACE_OUTER_BOUND('',#133,.T.);
#62=FACE_OUTER_BOUND('',#134,.T.);
#63=FACE_OUTER_BOUND('',#135,.T.);
#64=FACE_OUTER_BOUND('',#136,.T.);
#65=FACE_OUTER_BOUND('',#137,.T.);
#66=FACE_OUTER_BOUND('',#138,.T.);
#67=FACE_OUTER_BOUND('',#139,.T.);
#68=FACE_OUTER_BOUND('',#140,.T.);
#69=FACE_OUTER_BOUND('',#141,.T.);
#70=FACE_OUTER_BOUND('',#142,.T.);
#71=FACE_OUTER_BOUND('',#143,.T.);
#72=FACE_OUTER_BOUND('',#144,.T.);
#73=FACE_OUTER_BOUND('',#145,.T.);
#74=FACE_OUTER_BOUND('',#146,.T.);
#75=FACE_OUTER_BOUND('',#147,.T.);
#76=FACE_OUTER_BOUND('',#148,.T.);
#77=FACE_OUTER_BOUND('',#149,.T.);
#78=FACE_OUTER_BOUND('',#150,.T.);
#79=FACE_OUTER_BOUND('',#151,.T.);
#80=FACE_OUTER_BOUND('',#152,.T.);
#81=FACE_OUTER_BOUND('',#153,.T.);
#82=FACE_OUTER_BOUND('',#154,.T.);
#83=FACE_OUTER_BOUND('',#155,.T.);
#84=FACE_OUTER_BOUND('',#156,.T.);
#85=FACE_OUTER_BOUND('',#157,.T.);
#86=FACE_OUTER_BOUND('',#159,.T.);
#87=FACE_OUTER_BOUND('',#160,.T.);
#88=FACE_OUTER_BOUND('',#161,.T.);
#89=FACE_OUTER_BOUND('',#162,.T.);
#90=FACE_OUTER_BOUND('',#163,.T.);
#91=FACE_OUTER_BOUND('',#164,.T.);
#92=FACE_OUTER_BOUND('',#165,.T.);
#93=FACE_OUTER_BOUND('',#166,.T.);
#94=FACE_OUTER_BOUND('',#167,.T.);
#95=FACE_OUTER_BOUND('',#168,.T.);
#96=FACE_OUTER_BOUND('',#169,.T.);
#97=FACE_OUTER_BOUND('',#170,.T.);
#98=FACE_OUTER_BOUND('',#171,.T.);
#99=FACE_OUTER_BOUND('',#172,.T.);
#100=FACE_OUTER_BOUND('',#173,.T.);
#101=FACE_OUTER_BOUND('',#174,.T.);
#102=FACE_OUTER_BOUND('',#175,.T.);
#103=FACE_OUTER_BOUND('',#176,.T.);
#104=FACE_OUTER_BOUND('',#177,.T.);
#105=FACE_OUTER_BOUND('',#178,.T.);
#106=FACE_OUTER_BOUND('',#179,.T.);
#107=FACE_OUTER_BOUND('',#180,.T.);
#108=FACE_OUTER_BOUND('',#181,.T.);
#109=FACE_OUTER_BOUND('',#182,.T.);
#110=FACE_OUTER_BOUND('',#183,.T.);
#111=FACE_OUTER_BOUND('',#184,.T.);
#112=FACE_OUTER_BOUND('',#186,.T.);
#113=FACE_OUTER_BOUND('',#187,.T.);
#114=FACE_OUTER_BOUND('',#188,.T.);
#115=FACE_OUTER_BOUND('',#189,.T.);
#116=FACE_OUTER_BOUND('',#190,.T.);
#117=FACE_OUTER_BOUND('',#191,.T.);
#118=EDGE_LOOP('',(#644,#645,#646,#647));
#119=EDGE_LOOP('',(#648,#649,#650,#651,#652,#653,#654,#655,#656,#657));
#120=EDGE_LOOP('',(#658));
#121=EDGE_LOOP('',(#659,#660,#661,#662));
#122=EDGE_LOOP('',(#663,#664,#665,#666));
#123=EDGE_LOOP('',(#667,#668,#669,#670));
#124=EDGE_LOOP('',(#671,#672,#673,#674));
#125=EDGE_LOOP('',(#675,#676,#677,#678));
#126=EDGE_LOOP('',(#679));
#127=EDGE_LOOP('',(#680,#681,#682,#683));
#128=EDGE_LOOP('',(#684,#685,#686,#687));
#129=EDGE_LOOP('',(#688,#689,#690));
#130=EDGE_LOOP('',(#691,#692,#693,#694));
#131=EDGE_LOOP('',(#695,#696,#697));
#132=EDGE_LOOP('',(#698,#699,#700,#701));
#133=EDGE_LOOP('',(#702,#703,#704));
#134=EDGE_LOOP('',(#705,#706,#707,#708));
#135=EDGE_LOOP('',(#709,#710,#711));
#136=EDGE_LOOP('',(#712,#713,#714,#715));
#137=EDGE_LOOP('',(#716,#717,#718));
#138=EDGE_LOOP('',(#719,#720,#721,#722));
#139=EDGE_LOOP('',(#723,#724,#725));
#140=EDGE_LOOP('',(#726,#727,#728,#729));
#141=EDGE_LOOP('',(#730,#731,#732));
#142=EDGE_LOOP('',(#733,#734,#735,#736));
#143=EDGE_LOOP('',(#737,#738,#739));
#144=EDGE_LOOP('',(#740,#741,#742,#743));
#145=EDGE_LOOP('',(#744,#745,#746));
#146=EDGE_LOOP('',(#747,#748,#749));
#147=EDGE_LOOP('',(#750,#751,#752,#753));
#148=EDGE_LOOP('',(#754,#755,#756,#757));
#149=EDGE_LOOP('',(#758,#759,#760,#761));
#150=EDGE_LOOP('',(#762,#763,#764,#765));
#151=EDGE_LOOP('',(#766,#767,#768,#769));
#152=EDGE_LOOP('',(#770,#771,#772,#773));
#153=EDGE_LOOP('',(#774,#775,#776,#777));
#154=EDGE_LOOP('',(#778,#779,#780,#781));
#155=EDGE_LOOP('',(#782,#783,#784,#785));
#156=EDGE_LOOP('',(#786,#787,#788,#789));
#157=EDGE_LOOP('',(#790));
#158=EDGE_LOOP('',(#791));
#159=EDGE_LOOP('',(#792,#793,#794,#795));
#160=EDGE_LOOP('',(#796,#797,#798,#799));
#161=EDGE_LOOP('',(#800,#801,#802,#803));
#162=EDGE_LOOP('',(#804,#805,#806,#807));
#163=EDGE_LOOP('',(#808,#809,#810,#811));
#164=EDGE_LOOP('',(#812,#813,#814,#815));
#165=EDGE_LOOP('',(#816,#817,#818,#819));
#166=EDGE_LOOP('',(#820,#821,#822,#823));
#167=EDGE_LOOP('',(#824,#825,#826,#827));
#168=EDGE_LOOP('',(#828,#829,#830,#831));
#169=EDGE_LOOP('',(#832,#833,#834,#835));
#170=EDGE_LOOP('',(#836,#837,#838,#839));
#171=EDGE_LOOP('',(#840,#841,#842,#843));
#172=EDGE_LOOP('',(#844,#845,#846,#847));
#173=EDGE_LOOP('',(#848,#849,#850,#851));
#174=EDGE_LOOP('',(#852,#853,#854,#855));
#175=EDGE_LOOP('',(#856,#857,#858,#859));
#176=EDGE_LOOP('',(#860,#861,#862,#863));
#177=EDGE_LOOP('',(#864,#865,#866,#867));
#178=EDGE_LOOP('',(#868,#869,#870,#871));
#179=EDGE_LOOP('',(#872,#873,#874,#875));
#180=EDGE_LOOP('',(#876,#877,#878,#879));
#181=EDGE_LOOP('',(#880,#881,#882,#883));
#182=EDGE_LOOP('',(#884,#885,#886,#887));
#183=EDGE_LOOP('',(#888,#889,#890,#891));
#184=EDGE_LOOP('',(#892,#893,#894,#895,#896,#897,#898,#899,#900,#901,#902,
#903,#904,#905,#906,#907,#908,#909,#910,#911));
#185=EDGE_LOOP('',(#912,#913,#914,#915));
#186=EDGE_LOOP('',(#916,#917,#918,#919));
#187=EDGE_LOOP('',(#920,#921,#922,#923));
#188=EDGE_LOOP('',(#924,#925,#926,#927));
#189=EDGE_LOOP('',(#928,#929,#930,#931));
#190=EDGE_LOOP('',(#932,#933,#934,#935));
#191=EDGE_LOOP('',(#936,#937,#938,#939));
#192=LINE('',#1578,#266);
#193=LINE('',#1604,#267);
#194=LINE('',#1606,#268);
#195=LINE('',#1608,#269);
#196=LINE('',#1609,#270);
#197=LINE('',#1612,#271);
#198=LINE('',#1614,#272);
#199=LINE('',#1615,#273);
#200=LINE('',#1618,#274);
#201=LINE('',#1620,#275);
#202=LINE('',#1621,#276);
#203=LINE('',#1623,#277);
#204=LINE('',#1624,#278);
#205=LINE('',#1630,#279);
#206=LINE('',#1633,#280);
#207=LINE('',#1636,#281);
#208=LINE('',#1638,#282);
#209=LINE('',#1644,#283);
#210=LINE('',#1647,#284);
#211=LINE('',#1652,#285);
#212=LINE('',#1654,#286);
#213=LINE('',#1660,#287);
#214=LINE('',#1663,#288);
#215=LINE('',#1668,#289);
#216=LINE('',#1670,#290);
#217=LINE('',#1676,#291);
#218=LINE('',#1679,#292);
#219=LINE('',#1684,#293);
#220=LINE('',#1686,#294);
#221=LINE('',#1692,#295);
#222=LINE('',#1695,#296);
#223=LINE('',#1700,#297);
#224=LINE('',#1702,#298);
#225=LINE('',#1710,#299);
#226=LINE('',#1713,#300);
#227=LINE('',#1716,#301);
#228=LINE('',#1720,#302);
#229=LINE('',#1724,#303);
#230=LINE('',#1728,#304);
#231=LINE('',#1732,#305);
#232=LINE('',#1736,#306);
#233=LINE('',#1740,#307);
#234=LINE('',#1744,#308);
#235=LINE('',#1748,#309);
#236=LINE('',#1755,#310);
#237=LINE('',#1758,#311);
#238=LINE('',#1761,#312);
#239=LINE('',#1765,#313);
#240=LINE('',#1769,#314);
#241=LINE('',#1773,#315);
#242=LINE('',#1779,#316);
#243=LINE('',#1784,#317);
#244=LINE('',#1791,#318);
#245=LINE('',#1796,#319);
#246=LINE('',#1803,#320);
#247=LINE('',#1808,#321);
#248=LINE('',#1815,#322);
#249=LINE('',#1820,#323);
#250=LINE('',#1827,#324);
#251=LINE('',#1831,#325);
#252=LINE('',#1836,#326);
#253=LINE('',#1840,#327);
#254=LINE('',#1844,#328);
#255=LINE('',#1848,#329);
#256=LINE('',#1853,#330);
#257=LINE('',#1854,#331);
#258=LINE('',#1856,#332);
#259=LINE('',#1858,#333);
#260=LINE('',#1860,#334);
#261=LINE('',#1864,#335);
#262=LINE('',#1866,#336);
#263=LINE('',#1868,#337);
#264=LINE('',#1870,#338);
#265=LINE('',#1873,#339);
#266=VECTOR('',#1215,6.2);
#267=VECTOR('',#1242,10.);
#268=VECTOR('',#1243,10.);
#269=VECTOR('',#1244,10.);
#270=VECTOR('',#1245,10.);
#271=VECTOR('',#1248,10.);
#272=VECTOR('',#1249,10.);
#273=VECTOR('',#1250,10.);
#274=VECTOR('',#1253,10.);
#275=VECTOR('',#1254,10.);
#276=VECTOR('',#1255,10.);
#277=VECTOR('',#1258,10.);
#278=VECTOR('',#1259,10.);
#279=VECTOR('',#1266,10.);
#280=VECTOR('',#1269,10.);
#281=VECTOR('',#1272,10.);
#282=VECTOR('',#1273,10.);
#283=VECTOR('',#1282,10.);
#284=VECTOR('',#1285,10.);
#285=VECTOR('',#1292,10.);
#286=VECTOR('',#1293,10.);
#287=VECTOR('',#1302,10.);
#288=VECTOR('',#1305,10.);
#289=VECTOR('',#1312,10.);
#290=VECTOR('',#1313,10.);
#291=VECTOR('',#1322,10.);
#292=VECTOR('',#1325,10.);
#293=VECTOR('',#1332,10.);
#294=VECTOR('',#1333,10.);
#295=VECTOR('',#1342,10.);
#296=VECTOR('',#1345,10.);
#297=VECTOR('',#1352,10.);
#298=VECTOR('',#1353,10.);
#299=VECTOR('',#1366,10.);
#300=VECTOR('',#1369,10.);
#301=VECTOR('',#1372,10.);
#302=VECTOR('',#1377,10.);
#303=VECTOR('',#1382,10.);
#304=VECTOR('',#1387,10.);
#305=VECTOR('',#1392,10.);
#306=VECTOR('',#1397,10.);
#307=VECTOR('',#1402,10.);
#308=VECTOR('',#1407,10.);
#309=VECTOR('',#1412,10.);
#310=VECTOR('',#1421,10.);
#311=VECTOR('',#1424,10.);
#312=VECTOR('',#1427,10.);
#313=VECTOR('',#1432,10.);
#314=VECTOR('',#1437,10.);
#315=VECTOR('',#1442,10.);
#316=VECTOR('',#1449,10.);
#317=VECTOR('',#1454,10.);
#318=VECTOR('',#1463,10.);
#319=VECTOR('',#1468,10.);
#320=VECTOR('',#1477,10.);
#321=VECTOR('',#1482,10.);
#322=VECTOR('',#1491,10.);
#323=VECTOR('',#1496,10.);
#324=VECTOR('',#1505,10.);
#325=VECTOR('',#1510,10.);
#326=VECTOR('',#1517,10.);
#327=VECTOR('',#1522,10.);
#328=VECTOR('',#1527,10.);
#329=VECTOR('',#1532,10.);
#330=VECTOR('',#1541,10.);
#331=VECTOR('',#1542,10.);
#332=VECTOR('',#1545,10.);
#333=VECTOR('',#1548,10.);
#334=VECTOR('',#1551,10.);
#335=VECTOR('',#1558,10.);
#336=VECTOR('',#1561,10.);
#337=VECTOR('',#1564,10.);
#338=VECTOR('',#1567,10.);
#339=VECTOR('',#1572,2.);
#340=CIRCLE('',#1066,6.4);
#341=CIRCLE('',#1067,6.);
#342=CIRCLE('',#1069,10.5);
#343=CIRCLE('',#1070,6.);
#344=CIRCLE('',#1071,10.5);
#345=CIRCLE('',#1072,6.);
#346=CIRCLE('',#1073,10.5);
#347=CIRCLE('',#1074,6.);
#348=CIRCLE('',#1075,10.5);
#349=CIRCLE('',#1076,6.);
#350=CIRCLE('',#1077,10.5);
#351=CIRCLE('',#1078,6.);
#352=CIRCLE('',#1084,2.);
#353=CIRCLE('',#1086,12.5);
#354=CIRCLE('',#1088,4.);
#355=CIRCLE('',#1090,2.);
#356=CIRCLE('',#1092,12.5);
#357=CIRCLE('',#1094,2.);
#358=CIRCLE('',#1096,4.);
#359=CIRCLE('',#1098,2.);
#360=CIRCLE('',#1100,12.5);
#361=CIRCLE('',#1102,2.);
#362=CIRCLE('',#1104,4.);
#363=CIRCLE('',#1106,2.);
#364=CIRCLE('',#1108,12.5);
#365=CIRCLE('',#1110,2.);
#366=CIRCLE('',#1112,4.);
#367=CIRCLE('',#1114,2.);
#368=CIRCLE('',#1116,12.5);
#369=CIRCLE('',#1118,2.);
#370=CIRCLE('',#1120,4.);
#371=CIRCLE('',#1122,2.);
#372=CIRCLE('',#1124,2.);
#373=CIRCLE('',#1126,2.);
#374=CIRCLE('',#1128,4.);
#375=CIRCLE('',#1130,2.);
#376=CIRCLE('',#1132,12.5);
#377=CIRCLE('',#1134,2.);
#378=CIRCLE('',#1136,4.);
#379=CIRCLE('',#1138,2.);
#380=CIRCLE('',#1140,12.5);
#381=CIRCLE('',#1142,2.);
#382=CIRCLE('',#1144,4.);
#383=CIRCLE('',#1146,2.);
#384=CIRCLE('',#1148,4.75);
#385=CIRCLE('',#1150,1.25);
#386=CIRCLE('',#1152,11.75);
#387=CIRCLE('',#1154,1.25);
#388=CIRCLE('',#1156,4.75);
#389=CIRCLE('',#1158,2.);
#390=CIRCLE('',#1159,1.25);
#391=CIRCLE('',#1161,11.75);
#392=CIRCLE('',#1162,12.5);
#393=CIRCLE('',#1164,2.);
#394=CIRCLE('',#1165,1.25);
#395=CIRCLE('',#1167,4.75);
#396=CIRCLE('',#1168,4.);
#397=CIRCLE('',#1170,2.);
#398=CIRCLE('',#1171,1.25);
#399=CIRCLE('',#1173,11.75);
#400=CIRCLE('',#1174,12.5);
#401=CIRCLE('',#1176,2.);
#402=CIRCLE('',#1177,1.25);
#403=CIRCLE('',#1179,4.75);
#404=CIRCLE('',#1180,4.);
#405=CIRCLE('',#1182,2.);
#406=CIRCLE('',#1183,1.25);
#407=CIRCLE('',#1185,11.75);
#408=CIRCLE('',#1186,12.5);
#409=CIRCLE('',#1188,1.25);
#410=CIRCLE('',#1190,4.75);
#411=CIRCLE('',#1192,1.25);
#412=CIRCLE('',#1194,11.75);
#413=CIRCLE('',#1196,1.25);
#414=VERTEX_POINT('',#1575);
#415=VERTEX_POINT('',#1577);
#416=VERTEX_POINT('',#1581);
#417=VERTEX_POINT('',#1582);
#418=VERTEX_POINT('',#1584);
#419=VERTEX_POINT('',#1586);
#420=VERTEX_POINT('',#1588);
#421=VERTEX_POINT('',#1590);
#422=VERTEX_POINT('',#1592);
#423=VERTEX_POINT('',#1594);
#424=VERTEX_POINT('',#1596);
#425=VERTEX_POINT('',#1598);
#426=VERTEX_POINT('',#1602);
#427=VERTEX_POINT('',#1603);
#428=VERTEX_POINT('',#1605);
#429=VERTEX_POINT('',#1607);
#430=VERTEX_POINT('',#1611);
#431=VERTEX_POINT('',#1613);
#432=VERTEX_POINT('',#1617);
#433=VERTEX_POINT('',#1619);
#434=VERTEX_POINT('',#1626);
#435=VERTEX_POINT('',#1629);
#436=VERTEX_POINT('',#1631);
#437=VERTEX_POINT('',#1635);
#438=VERTEX_POINT('',#1637);
#439=VERTEX_POINT('',#1643);
#440=VERTEX_POINT('',#1645);
#441=VERTEX_POINT('',#1651);
#442=VERTEX_POINT('',#1653);
#443=VERTEX_POINT('',#1659);
#444=VERTEX_POINT('',#1661);
#445=VERTEX_POINT('',#1667);
#446=VERTEX_POINT('',#1669);
#447=VERTEX_POINT('',#1675);
#448=VERTEX_POINT('',#1677);
#449=VERTEX_POINT('',#1683);
#450=VERTEX_POINT('',#1685);
#451=VERTEX_POINT('',#1691);
#452=VERTEX_POINT('',#1693);
#453=VERTEX_POINT('',#1699);
#454=VERTEX_POINT('',#1701);
#455=VERTEX_POINT('',#1709);
#456=VERTEX_POINT('',#1711);
#457=VERTEX_POINT('',#1715);
#458=VERTEX_POINT('',#1719);
#459=VERTEX_POINT('',#1723);
#460=VERTEX_POINT('',#1727);
#461=VERTEX_POINT('',#1731);
#462=VERTEX_POINT('',#1735);
#463=VERTEX_POINT('',#1739);
#464=VERTEX_POINT('',#1743);
#465=VERTEX_POINT('',#1747);
#466=VERTEX_POINT('',#1751);
#467=VERTEX_POINT('',#1754);
#468=VERTEX_POINT('',#1756);
#469=VERTEX_POINT('',#1760);
#470=VERTEX_POINT('',#1764);
#471=VERTEX_POINT('',#1768);
#472=VERTEX_POINT('',#1772);
#473=VERTEX_POINT('',#1776);
#474=VERTEX_POINT('',#1778);
#475=VERTEX_POINT('',#1782);
#476=VERTEX_POINT('',#1783);
#477=VERTEX_POINT('',#1788);
#478=VERTEX_POINT('',#1790);
#479=VERTEX_POINT('',#1794);
#480=VERTEX_POINT('',#1795);
#481=VERTEX_POINT('',#1800);
#482=VERTEX_POINT('',#1802);
#483=VERTEX_POINT('',#1806);
#484=VERTEX_POINT('',#1807);
#485=VERTEX_POINT('',#1812);
#486=VERTEX_POINT('',#1814);
#487=VERTEX_POINT('',#1818);
#488=VERTEX_POINT('',#1819);
#489=VERTEX_POINT('',#1824);
#490=VERTEX_POINT('',#1826);
#491=VERTEX_POINT('',#1830);
#492=VERTEX_POINT('',#1835);
#493=VERTEX_POINT('',#1839);
#494=VERTEX_POINT('',#1843);
#495=VERTEX_POINT('',#1847);
#496=EDGE_CURVE('',#414,#414,#340,.T.);
#497=EDGE_CURVE('',#414,#415,#192,.T.);
#498=EDGE_CURVE('',#415,#415,#341,.T.);
#499=EDGE_CURVE('',#416,#417,#342,.T.);
#500=EDGE_CURVE('',#418,#416,#343,.T.);
#501=EDGE_CURVE('',#419,#418,#344,.T.);
#502=EDGE_CURVE('',#420,#419,#345,.T.);
#503=EDGE_CURVE('',#421,#420,#346,.T.);
#504=EDGE_CURVE('',#422,#421,#347,.T.);
#505=EDGE_CURVE('',#423,#422,#348,.T.);
#506=EDGE_CURVE('',#424,#423,#349,.T.);
#507=EDGE_CURVE('',#425,#424,#350,.T.);
#508=EDGE_CURVE('',#417,#425,#351,.T.);
#509=EDGE_CURVE('',#426,#427,#193,.T.);
#510=EDGE_CURVE('',#428,#426,#194,.T.);
#511=EDGE_CURVE('',#429,#428,#195,.T.);
#512=EDGE_CURVE('',#429,#427,#196,.T.);
#513=EDGE_CURVE('',#427,#430,#197,.T.);
#514=EDGE_CURVE('',#431,#429,#198,.T.);
#515=EDGE_CURVE('',#431,#430,#199,.T.);
#516=EDGE_CURVE('',#430,#432,#200,.T.);
#517=EDGE_CURVE('',#433,#431,#201,.T.);
#518=EDGE_CURVE('',#433,#432,#202,.T.);
#519=EDGE_CURVE('',#432,#426,#203,.T.);
#520=EDGE_CURVE('',#428,#433,#204,.T.);
#521=EDGE_CURVE('',#434,#434,#352,.T.);
#522=EDGE_CURVE('',#417,#435,#205,.T.);
#523=EDGE_CURVE('',#435,#436,#353,.T.);
#524=EDGE_CURVE('',#436,#416,#206,.T.);
#525=EDGE_CURVE('',#437,#417,#207,.T.);
#526=EDGE_CURVE('',#425,#438,#208,.T.);
#527=EDGE_CURVE('',#438,#437,#354,.T.);
#528=EDGE_CURVE('',#437,#435,#355,.T.);
#529=EDGE_CURVE('',#424,#439,#209,.T.);
#530=EDGE_CURVE('',#439,#440,#356,.T.);
#531=EDGE_CURVE('',#440,#425,#210,.T.);
#532=EDGE_CURVE('',#440,#438,#357,.T.);
#533=EDGE_CURVE('',#441,#424,#211,.T.);
#534=EDGE_CURVE('',#423,#442,#212,.T.);
#535=EDGE_CURVE('',#442,#441,#358,.T.);
#536=EDGE_CURVE('',#441,#439,#359,.T.);
#537=EDGE_CURVE('',#422,#443,#213,.T.);
#538=EDGE_CURVE('',#443,#444,#360,.T.);
#539=EDGE_CURVE('',#444,#423,#214,.T.);
#540=EDGE_CURVE('',#444,#442,#361,.T.);
#541=EDGE_CURVE('',#445,#422,#215,.T.);
#542=EDGE_CURVE('',#421,#446,#216,.T.);
#543=EDGE_CURVE('',#446,#445,#362,.T.);
#544=EDGE_CURVE('',#445,#443,#363,.T.);
#545=EDGE_CURVE('',#420,#447,#217,.T.);
#546=EDGE_CURVE('',#447,#448,#364,.T.);
#547=EDGE_CURVE('',#448,#421,#218,.T.);
#548=EDGE_CURVE('',#448,#446,#365,.T.);
#549=EDGE_CURVE('',#449,#420,#219,.T.);
#550=EDGE_CURVE('',#419,#450,#220,.T.);
#551=EDGE_CURVE('',#450,#449,#366,.T.);
#552=EDGE_CURVE('',#449,#447,#367,.T.);
#553=EDGE_CURVE('',#418,#451,#221,.T.);
#554=EDGE_CURVE('',#451,#452,#368,.T.);
#555=EDGE_CURVE('',#452,#419,#222,.T.);
#556=EDGE_CURVE('',#452,#450,#369,.T.);
#557=EDGE_CURVE('',#453,#418,#223,.T.);
#558=EDGE_CURVE('',#416,#454,#224,.T.);
#559=EDGE_CURVE('',#454,#453,#370,.T.);
#560=EDGE_CURVE('',#453,#451,#371,.T.);
#561=EDGE_CURVE('',#436,#454,#372,.T.);
#562=EDGE_CURVE('',#445,#455,#225,.T.);
#563=EDGE_CURVE('',#456,#455,#373,.T.);
#564=EDGE_CURVE('',#456,#443,#226,.T.);
#565=EDGE_CURVE('',#457,#446,#227,.T.);
#566=EDGE_CURVE('',#455,#457,#374,.T.);
#567=EDGE_CURVE('',#448,#458,#228,.T.);
#568=EDGE_CURVE('',#457,#458,#375,.T.);
#569=EDGE_CURVE('',#459,#447,#229,.T.);
#570=EDGE_CURVE('',#458,#459,#376,.T.);
#571=EDGE_CURVE('',#449,#460,#230,.T.);
#572=EDGE_CURVE('',#459,#460,#377,.T.);
#573=EDGE_CURVE('',#461,#450,#231,.T.);
#574=EDGE_CURVE('',#460,#461,#378,.T.);
#575=EDGE_CURVE('',#452,#462,#232,.T.);
#576=EDGE_CURVE('',#461,#462,#379,.T.);
#577=EDGE_CURVE('',#463,#451,#233,.T.);
#578=EDGE_CURVE('',#462,#463,#380,.T.);
#579=EDGE_CURVE('',#453,#464,#234,.T.);
#580=EDGE_CURVE('',#463,#464,#381,.T.);
#581=EDGE_CURVE('',#465,#454,#235,.T.);
#582=EDGE_CURVE('',#464,#465,#382,.T.);
#583=EDGE_CURVE('',#466,#466,#383,.T.);
#584=EDGE_CURVE('',#461,#467,#236,.T.);
#585=EDGE_CURVE('',#467,#468,#384,.T.);
#586=EDGE_CURVE('',#468,#460,#237,.T.);
#587=EDGE_CURVE('',#462,#469,#238,.T.);
#588=EDGE_CURVE('',#469,#467,#385,.T.);
#589=EDGE_CURVE('',#463,#470,#239,.T.);
#590=EDGE_CURVE('',#470,#469,#386,.T.);
#591=EDGE_CURVE('',#464,#471,#240,.T.);
#592=EDGE_CURVE('',#471,#470,#387,.T.);
#593=EDGE_CURVE('',#465,#472,#241,.T.);
#594=EDGE_CURVE('',#472,#471,#388,.T.);
#595=EDGE_CURVE('',#465,#473,#389,.T.);
#596=EDGE_CURVE('',#473,#474,#242,.T.);
#597=EDGE_CURVE('',#474,#472,#390,.T.);
#598=EDGE_CURVE('',#475,#476,#243,.T.);
#599=EDGE_CURVE('',#476,#474,#391,.T.);
#600=EDGE_CURVE('',#473,#475,#392,.T.);
#601=EDGE_CURVE('',#475,#477,#393,.T.);
#602=EDGE_CURVE('',#477,#478,#244,.T.);
#603=EDGE_CURVE('',#478,#476,#394,.T.);
#604=EDGE_CURVE('',#479,#480,#245,.T.);
#605=EDGE_CURVE('',#480,#478,#395,.T.);
#606=EDGE_CURVE('',#477,#479,#396,.T.);
#607=EDGE_CURVE('',#479,#481,#397,.T.);
#608=EDGE_CURVE('',#481,#482,#246,.T.);
#609=EDGE_CURVE('',#482,#480,#398,.T.);
#610=EDGE_CURVE('',#483,#484,#247,.T.);
#611=EDGE_CURVE('',#484,#482,#399,.T.);
#612=EDGE_CURVE('',#481,#483,#400,.T.);
#613=EDGE_CURVE('',#483,#485,#401,.T.);
#614=EDGE_CURVE('',#485,#486,#248,.T.);
#615=EDGE_CURVE('',#486,#484,#402,.T.);
#616=EDGE_CURVE('',#487,#488,#249,.T.);
#617=EDGE_CURVE('',#488,#486,#403,.T.);
#618=EDGE_CURVE('',#485,#487,#404,.T.);
#619=EDGE_CURVE('',#487,#489,#405,.T.);
#620=EDGE_CURVE('',#489,#490,#250,.T.);
#621=EDGE_CURVE('',#490,#488,#406,.T.);
#622=EDGE_CURVE('',#456,#491,#251,.T.);
#623=EDGE_CURVE('',#491,#490,#407,.T.);
#624=EDGE_CURVE('',#489,#456,#408,.T.);
#625=EDGE_CURVE('',#455,#492,#252,.T.);
#626=EDGE_CURVE('',#492,#491,#409,.T.);
#627=EDGE_CURVE('',#457,#493,#253,.T.);
#628=EDGE_CURVE('',#493,#492,#410,.T.);
#629=EDGE_CURVE('',#458,#494,#254,.T.);
#630=EDGE_CURVE('',#494,#493,#411,.T.);
#631=EDGE_CURVE('',#459,#495,#255,.T.);
#632=EDGE_CURVE('',#495,#494,#412,.T.);
#633=EDGE_CURVE('',#468,#495,#413,.T.);
#634=EDGE_CURVE('',#440,#481,#256,.T.);
#635=EDGE_CURVE('',#479,#438,#257,.T.);
#636=EDGE_CURVE('',#437,#477,#258,.T.);
#637=EDGE_CURVE('',#475,#435,#259,.T.);
#638=EDGE_CURVE('',#436,#473,#260,.T.);
#639=EDGE_CURVE('',#483,#439,#261,.T.);
#640=EDGE_CURVE('',#441,#485,#262,.T.);
#641=EDGE_CURVE('',#487,#442,#263,.T.);
#642=EDGE_CURVE('',#444,#489,#264,.T.);
#643=EDGE_CURVE('',#434,#466,#265,.T.);
#644=ORIENTED_EDGE('',*,*,#496,.T.);
#645=ORIENTED_EDGE('',*,*,#497,.T.);
#646=ORIENTED_EDGE('',*,*,#498,.F.);
#647=ORIENTED_EDGE('',*,*,#497,.F.);
#648=ORIENTED_EDGE('',*,*,#499,.F.);
#649=ORIENTED_EDGE('',*,*,#500,.F.);
#650=ORIENTED_EDGE('',*,*,#501,.F.);
#651=ORIENTED_EDGE('',*,*,#502,.F.);
#652=ORIENTED_EDGE('',*,*,#503,.F.);
#653=ORIENTED_EDGE('',*,*,#504,.F.);
#654=ORIENTED_EDGE('',*,*,#505,.F.);
#655=ORIENTED_EDGE('',*,*,#506,.F.);
#656=ORIENTED_EDGE('',*,*,#507,.F.);
#657=ORIENTED_EDGE('',*,*,#508,.F.);
#658=ORIENTED_EDGE('',*,*,#496,.F.);
#659=ORIENTED_EDGE('',*,*,#509,.F.);
#660=ORIENTED_EDGE('',*,*,#510,.F.);
#661=ORIENTED_EDGE('',*,*,#511,.F.);
#662=ORIENTED_EDGE('',*,*,#512,.T.);
#663=ORIENTED_EDGE('',*,*,#513,.F.);
#664=ORIENTED_EDGE('',*,*,#512,.F.);
#665=ORIENTED_EDGE('',*,*,#514,.F.);
#666=ORIENTED_EDGE('',*,*,#515,.T.);
#667=ORIENTED_EDGE('',*,*,#516,.F.);
#668=ORIENTED_EDGE('',*,*,#515,.F.);
#669=ORIENTED_EDGE('',*,*,#517,.F.);
#670=ORIENTED_EDGE('',*,*,#518,.T.);
#671=ORIENTED_EDGE('',*,*,#519,.F.);
#672=ORIENTED_EDGE('',*,*,#518,.F.);
#673=ORIENTED_EDGE('',*,*,#520,.F.);
#674=ORIENTED_EDGE('',*,*,#510,.T.);
#675=ORIENTED_EDGE('',*,*,#514,.T.);
#676=ORIENTED_EDGE('',*,*,#511,.T.);
#677=ORIENTED_EDGE('',*,*,#520,.T.);
#678=ORIENTED_EDGE('',*,*,#517,.T.);
#679=ORIENTED_EDGE('',*,*,#521,.F.);
#680=ORIENTED_EDGE('',*,*,#522,.T.);
#681=ORIENTED_EDGE('',*,*,#523,.T.);
#682=ORIENTED_EDGE('',*,*,#524,.T.);
#683=ORIENTED_EDGE('',*,*,#499,.T.);
#684=ORIENTED_EDGE('',*,*,#525,.T.);
#685=ORIENTED_EDGE('',*,*,#508,.T.);
#686=ORIENTED_EDGE('',*,*,#526,.T.);
#687=ORIENTED_EDGE('',*,*,#527,.T.);
#688=ORIENTED_EDGE('',*,*,#525,.F.);
#689=ORIENTED_EDGE('',*,*,#528,.T.);
#690=ORIENTED_EDGE('',*,*,#522,.F.);
#691=ORIENTED_EDGE('',*,*,#529,.T.);
#692=ORIENTED_EDGE('',*,*,#530,.T.);
#693=ORIENTED_EDGE('',*,*,#531,.T.);
#694=ORIENTED_EDGE('',*,*,#507,.T.);
#695=ORIENTED_EDGE('',*,*,#531,.F.);
#696=ORIENTED_EDGE('',*,*,#532,.T.);
#697=ORIENTED_EDGE('',*,*,#526,.F.);
#698=ORIENTED_EDGE('',*,*,#533,.T.);
#699=ORIENTED_EDGE('',*,*,#506,.T.);
#700=ORIENTED_EDGE('',*,*,#534,.T.);
#701=ORIENTED_EDGE('',*,*,#535,.T.);
#702=ORIENTED_EDGE('',*,*,#533,.F.);
#703=ORIENTED_EDGE('',*,*,#536,.T.);
#704=ORIENTED_EDGE('',*,*,#529,.F.);
#705=ORIENTED_EDGE('',*,*,#537,.T.);
#706=ORIENTED_EDGE('',*,*,#538,.T.);
#707=ORIENTED_EDGE('',*,*,#539,.T.);
#708=ORIENTED_EDGE('',*,*,#505,.T.);
#709=ORIENTED_EDGE('',*,*,#539,.F.);
#710=ORIENTED_EDGE('',*,*,#540,.T.);
#711=ORIENTED_EDGE('',*,*,#534,.F.);
#712=ORIENTED_EDGE('',*,*,#541,.T.);
#713=ORIENTED_EDGE('',*,*,#504,.T.);
#714=ORIENTED_EDGE('',*,*,#542,.T.);
#715=ORIENTED_EDGE('',*,*,#543,.T.);
#716=ORIENTED_EDGE('',*,*,#541,.F.);
#717=ORIENTED_EDGE('',*,*,#544,.T.);
#718=ORIENTED_EDGE('',*,*,#537,.F.);
#719=ORIENTED_EDGE('',*,*,#545,.T.);
#720=ORIENTED_EDGE('',*,*,#546,.T.);
#721=ORIENTED_EDGE('',*,*,#547,.T.);
#722=ORIENTED_EDGE('',*,*,#503,.T.);
#723=ORIENTED_EDGE('',*,*,#547,.F.);
#724=ORIENTED_EDGE('',*,*,#548,.T.);
#725=ORIENTED_EDGE('',*,*,#542,.F.);
#726=ORIENTED_EDGE('',*,*,#549,.T.);
#727=ORIENTED_EDGE('',*,*,#502,.T.);
#728=ORIENTED_EDGE('',*,*,#550,.T.);
#729=ORIENTED_EDGE('',*,*,#551,.T.);
#730=ORIENTED_EDGE('',*,*,#549,.F.);
#731=ORIENTED_EDGE('',*,*,#552,.T.);
#732=ORIENTED_EDGE('',*,*,#545,.F.);
#733=ORIENTED_EDGE('',*,*,#553,.T.);
#734=ORIENTED_EDGE('',*,*,#554,.T.);
#735=ORIENTED_EDGE('',*,*,#555,.T.);
#736=ORIENTED_EDGE('',*,*,#501,.T.);
#737=ORIENTED_EDGE('',*,*,#555,.F.);
#738=ORIENTED_EDGE('',*,*,#556,.T.);
#739=ORIENTED_EDGE('',*,*,#550,.F.);
#740=ORIENTED_EDGE('',*,*,#557,.T.);
#741=ORIENTED_EDGE('',*,*,#500,.T.);
#742=ORIENTED_EDGE('',*,*,#558,.T.);
#743=ORIENTED_EDGE('',*,*,#559,.T.);
#744=ORIENTED_EDGE('',*,*,#557,.F.);
#745=ORIENTED_EDGE('',*,*,#560,.T.);
#746=ORIENTED_EDGE('',*,*,#553,.F.);
#747=ORIENTED_EDGE('',*,*,#524,.F.);
#748=ORIENTED_EDGE('',*,*,#561,.T.);
#749=ORIENTED_EDGE('',*,*,#558,.F.);
#750=ORIENTED_EDGE('',*,*,#544,.F.);
#751=ORIENTED_EDGE('',*,*,#562,.T.);
#752=ORIENTED_EDGE('',*,*,#563,.F.);
#753=ORIENTED_EDGE('',*,*,#564,.T.);
#754=ORIENTED_EDGE('',*,*,#543,.F.);
#755=ORIENTED_EDGE('',*,*,#565,.F.);
#756=ORIENTED_EDGE('',*,*,#566,.F.);
#757=ORIENTED_EDGE('',*,*,#562,.F.);
#758=ORIENTED_EDGE('',*,*,#548,.F.);
#759=ORIENTED_EDGE('',*,*,#567,.T.);
#760=ORIENTED_EDGE('',*,*,#568,.F.);
#761=ORIENTED_EDGE('',*,*,#565,.T.);
#762=ORIENTED_EDGE('',*,*,#546,.F.);
#763=ORIENTED_EDGE('',*,*,#569,.F.);
#764=ORIENTED_EDGE('',*,*,#570,.F.);
#765=ORIENTED_EDGE('',*,*,#567,.F.);
#766=ORIENTED_EDGE('',*,*,#552,.F.);
#767=ORIENTED_EDGE('',*,*,#571,.T.);
#768=ORIENTED_EDGE('',*,*,#572,.F.);
#769=ORIENTED_EDGE('',*,*,#569,.T.);
#770=ORIENTED_EDGE('',*,*,#551,.F.);
#771=ORIENTED_EDGE('',*,*,#573,.F.);
#772=ORIENTED_EDGE('',*,*,#574,.F.);
#773=ORIENTED_EDGE('',*,*,#571,.F.);
#774=ORIENTED_EDGE('',*,*,#556,.F.);
#775=ORIENTED_EDGE('',*,*,#575,.T.);
#776=ORIENTED_EDGE('',*,*,#576,.F.);
#777=ORIENTED_EDGE('',*,*,#573,.T.);
#778=ORIENTED_EDGE('',*,*,#554,.F.);
#779=ORIENTED_EDGE('',*,*,#577,.F.);
#780=ORIENTED_EDGE('',*,*,#578,.F.);
#781=ORIENTED_EDGE('',*,*,#575,.F.);
#782=ORIENTED_EDGE('',*,*,#560,.F.);
#783=ORIENTED_EDGE('',*,*,#579,.T.);
#784=ORIENTED_EDGE('',*,*,#580,.F.);
#785=ORIENTED_EDGE('',*,*,#577,.T.);
#786=ORIENTED_EDGE('',*,*,#559,.F.);
#787=ORIENTED_EDGE('',*,*,#581,.F.);
#788=ORIENTED_EDGE('',*,*,#582,.F.);
#789=ORIENTED_EDGE('',*,*,#579,.F.);
#790=ORIENTED_EDGE('',*,*,#498,.T.);
#791=ORIENTED_EDGE('',*,*,#583,.T.);
#792=ORIENTED_EDGE('',*,*,#584,.T.);
#793=ORIENTED_EDGE('',*,*,#585,.T.);
#794=ORIENTED_EDGE('',*,*,#586,.T.);
#795=ORIENTED_EDGE('',*,*,#574,.T.);
#796=ORIENTED_EDGE('',*,*,#584,.F.);
#797=ORIENTED_EDGE('',*,*,#576,.T.);
#798=ORIENTED_EDGE('',*,*,#587,.T.);
#799=ORIENTED_EDGE('',*,*,#588,.T.);
#800=ORIENTED_EDGE('',*,*,#589,.T.);
#801=ORIENTED_EDGE('',*,*,#590,.T.);
#802=ORIENTED_EDGE('',*,*,#587,.F.);
#803=ORIENTED_EDGE('',*,*,#578,.T.);
#804=ORIENTED_EDGE('',*,*,#589,.F.);
#805=ORIENTED_EDGE('',*,*,#580,.T.);
#806=ORIENTED_EDGE('',*,*,#591,.T.);
#807=ORIENTED_EDGE('',*,*,#592,.T.);
#808=ORIENTED_EDGE('',*,*,#593,.T.);
#809=ORIENTED_EDGE('',*,*,#594,.T.);
#810=ORIENTED_EDGE('',*,*,#591,.F.);
#811=ORIENTED_EDGE('',*,*,#582,.T.);
#812=ORIENTED_EDGE('',*,*,#593,.F.);
#813=ORIENTED_EDGE('',*,*,#595,.T.);
#814=ORIENTED_EDGE('',*,*,#596,.T.);
#815=ORIENTED_EDGE('',*,*,#597,.T.);
#816=ORIENTED_EDGE('',*,*,#598,.T.);
#817=ORIENTED_EDGE('',*,*,#599,.T.);
#818=ORIENTED_EDGE('',*,*,#596,.F.);
#819=ORIENTED_EDGE('',*,*,#600,.T.);
#820=ORIENTED_EDGE('',*,*,#598,.F.);
#821=ORIENTED_EDGE('',*,*,#601,.T.);
#822=ORIENTED_EDGE('',*,*,#602,.T.);
#823=ORIENTED_EDGE('',*,*,#603,.T.);
#824=ORIENTED_EDGE('',*,*,#604,.T.);
#825=ORIENTED_EDGE('',*,*,#605,.T.);
#826=ORIENTED_EDGE('',*,*,#602,.F.);
#827=ORIENTED_EDGE('',*,*,#606,.T.);
#828=ORIENTED_EDGE('',*,*,#604,.F.);
#829=ORIENTED_EDGE('',*,*,#607,.T.);
#830=ORIENTED_EDGE('',*,*,#608,.T.);
#831=ORIENTED_EDGE('',*,*,#609,.T.);
#832=ORIENTED_EDGE('',*,*,#610,.T.);
#833=ORIENTED_EDGE('',*,*,#611,.T.);
#834=ORIENTED_EDGE('',*,*,#608,.F.);
#835=ORIENTED_EDGE('',*,*,#612,.T.);
#836=ORIENTED_EDGE('',*,*,#610,.F.);
#837=ORIENTED_EDGE('',*,*,#613,.T.);
#838=ORIENTED_EDGE('',*,*,#614,.T.);
#839=ORIENTED_EDGE('',*,*,#615,.T.);
#840=ORIENTED_EDGE('',*,*,#616,.T.);
#841=ORIENTED_EDGE('',*,*,#617,.T.);
#842=ORIENTED_EDGE('',*,*,#614,.F.);
#843=ORIENTED_EDGE('',*,*,#618,.T.);
#844=ORIENTED_EDGE('',*,*,#616,.F.);
#845=ORIENTED_EDGE('',*,*,#619,.T.);
#846=ORIENTED_EDGE('',*,*,#620,.T.);
#847=ORIENTED_EDGE('',*,*,#621,.T.);
#848=ORIENTED_EDGE('',*,*,#622,.T.);
#849=ORIENTED_EDGE('',*,*,#623,.T.);
#850=ORIENTED_EDGE('',*,*,#620,.F.);
#851=ORIENTED_EDGE('',*,*,#624,.T.);
#852=ORIENTED_EDGE('',*,*,#622,.F.);
#853=ORIENTED_EDGE('',*,*,#563,.T.);
#854=ORIENTED_EDGE('',*,*,#625,.T.);
#855=ORIENTED_EDGE('',*,*,#626,.T.);
#856=ORIENTED_EDGE('',*,*,#627,.T.);
#857=ORIENTED_EDGE('',*,*,#628,.T.);
#858=ORIENTED_EDGE('',*,*,#625,.F.);
#859=ORIENTED_EDGE('',*,*,#566,.T.);
#860=ORIENTED_EDGE('',*,*,#627,.F.);
#861=ORIENTED_EDGE('',*,*,#568,.T.);
#862=ORIENTED_EDGE('',*,*,#629,.T.);
#863=ORIENTED_EDGE('',*,*,#630,.T.);
#864=ORIENTED_EDGE('',*,*,#631,.T.);
#865=ORIENTED_EDGE('',*,*,#632,.T.);
#866=ORIENTED_EDGE('',*,*,#629,.F.);
#867=ORIENTED_EDGE('',*,*,#570,.T.);
#868=ORIENTED_EDGE('',*,*,#631,.F.);
#869=ORIENTED_EDGE('',*,*,#572,.T.);
#870=ORIENTED_EDGE('',*,*,#586,.F.);
#871=ORIENTED_EDGE('',*,*,#633,.T.);
#872=ORIENTED_EDGE('',*,*,#532,.F.);
#873=ORIENTED_EDGE('',*,*,#634,.T.);
#874=ORIENTED_EDGE('',*,*,#607,.F.);
#875=ORIENTED_EDGE('',*,*,#635,.T.);
#876=ORIENTED_EDGE('',*,*,#527,.F.);
#877=ORIENTED_EDGE('',*,*,#635,.F.);
#878=ORIENTED_EDGE('',*,*,#606,.F.);
#879=ORIENTED_EDGE('',*,*,#636,.F.);
#880=ORIENTED_EDGE('',*,*,#528,.F.);
#881=ORIENTED_EDGE('',*,*,#636,.T.);
#882=ORIENTED_EDGE('',*,*,#601,.F.);
#883=ORIENTED_EDGE('',*,*,#637,.T.);
#884=ORIENTED_EDGE('',*,*,#523,.F.);
#885=ORIENTED_EDGE('',*,*,#637,.F.);
#886=ORIENTED_EDGE('',*,*,#600,.F.);
#887=ORIENTED_EDGE('',*,*,#638,.F.);
#888=ORIENTED_EDGE('',*,*,#561,.F.);
#889=ORIENTED_EDGE('',*,*,#638,.T.);
#890=ORIENTED_EDGE('',*,*,#595,.F.);
#891=ORIENTED_EDGE('',*,*,#581,.T.);
#892=ORIENTED_EDGE('',*,*,#585,.F.);
#893=ORIENTED_EDGE('',*,*,#588,.F.);
#894=ORIENTED_EDGE('',*,*,#590,.F.);
#895=ORIENTED_EDGE('',*,*,#592,.F.);
#896=ORIENTED_EDGE('',*,*,#594,.F.);
#897=ORIENTED_EDGE('',*,*,#597,.F.);
#898=ORIENTED_EDGE('',*,*,#599,.F.);
#899=ORIENTED_EDGE('',*,*,#603,.F.);
#900=ORIENTED_EDGE('',*,*,#605,.F.);
#901=ORIENTED_EDGE('',*,*,#609,.F.);
#902=ORIENTED_EDGE('',*,*,#611,.F.);
#903=ORIENTED_EDGE('',*,*,#615,.F.);
#904=ORIENTED_EDGE('',*,*,#617,.F.);
#905=ORIENTED_EDGE('',*,*,#621,.F.);
#906=ORIENTED_EDGE('',*,*,#623,.F.);
#907=ORIENTED_EDGE('',*,*,#626,.F.);
#908=ORIENTED_EDGE('',*,*,#628,.F.);
#909=ORIENTED_EDGE('',*,*,#630,.F.);
#910=ORIENTED_EDGE('',*,*,#632,.F.);
#911=ORIENTED_EDGE('',*,*,#633,.F.);
#912=ORIENTED_EDGE('',*,*,#516,.T.);
#913=ORIENTED_EDGE('',*,*,#519,.T.);
#914=ORIENTED_EDGE('',*,*,#509,.T.);
#915=ORIENTED_EDGE('',*,*,#513,.T.);
#916=ORIENTED_EDGE('',*,*,#530,.F.);
#917=ORIENTED_EDGE('',*,*,#639,.F.);
#918=ORIENTED_EDGE('',*,*,#612,.F.);
#919=ORIENTED_EDGE('',*,*,#634,.F.);
#920=ORIENTED_EDGE('',*,*,#536,.F.);
#921=ORIENTED_EDGE('',*,*,#640,.T.);
#922=ORIENTED_EDGE('',*,*,#613,.F.);
#923=ORIENTED_EDGE('',*,*,#639,.T.);
#924=ORIENTED_EDGE('',*,*,#535,.F.);
#925=ORIENTED_EDGE('',*,*,#641,.F.);
#926=ORIENTED_EDGE('',*,*,#618,.F.);
#927=ORIENTED_EDGE('',*,*,#640,.F.);
#928=ORIENTED_EDGE('',*,*,#540,.F.);
#929=ORIENTED_EDGE('',*,*,#642,.T.);
#930=ORIENTED_EDGE('',*,*,#619,.F.);
#931=ORIENTED_EDGE('',*,*,#641,.T.);
#932=ORIENTED_EDGE('',*,*,#538,.F.);
#933=ORIENTED_EDGE('',*,*,#564,.F.);
#934=ORIENTED_EDGE('',*,*,#624,.F.);
#935=ORIENTED_EDGE('',*,*,#642,.F.);
#936=ORIENTED_EDGE('',*,*,#521,.T.);
#937=ORIENTED_EDGE('',*,*,#643,.T.);
#938=ORIENTED_EDGE('',*,*,#583,.F.);
#939=ORIENTED_EDGE('',*,*,#643,.F.);
#940=CONICAL_SURFACE('',#1065,6.2,0.785398163397449);
#941=CONICAL_SURFACE('',#1085,11.5,0.785398163397448);
#942=CONICAL_SURFACE('',#1087,5.,0.785398163397449);
#943=CONICAL_SURFACE('',#1089,2.,0.785398163397449);
#944=CONICAL_SURFACE('',#1091,11.5,0.785398163397448);
#945=CONICAL_SURFACE('',#1093,2.,0.785398163397448);
#946=CONICAL_SURFACE('',#1095,5.,0.785398163397449);
#947=CONICAL_SURFACE('',#1097,2.,0.785398163397448);
#948=CONICAL_SURFACE('',#1099,11.5,0.785398163397449);
#949=CONICAL_SURFACE('',#1101,2.,0.785398163397448);
#950=CONICAL_SURFACE('',#1103,5.,0.785398163397448);
#951=CONICAL_SURFACE('',#1105,2.,0.785398163397448);
#952=CONICAL_SURFACE('',#1107,11.5,0.785398163397448);
#953=CONICAL_SURFACE('',#1109,2.,0.785398163397448);
#954=CONICAL_SURFACE('',#1111,5.,0.785398163397448);
#955=CONICAL_SURFACE('',#1113,2.,0.785398163397448);
#956=CONICAL_SURFACE('',#1115,11.5,0.785398163397448);
#957=CONICAL_SURFACE('',#1117,2.,0.785398163397448);
#958=CONICAL_SURFACE('',#1119,5.,0.785398163397449);
#959=CONICAL_SURFACE('',#1121,2.,0.785398163397448);
#960=CONICAL_SURFACE('',#1123,2.,0.785398163397448);
#961=CONICAL_SURFACE('',#1147,4.375,0.785398163397448);
#962=CONICAL_SURFACE('',#1149,1.625,0.785398163397449);
#963=CONICAL_SURFACE('',#1151,12.125,0.785398163397448);
#964=CONICAL_SURFACE('',#1153,1.625,0.785398163397449);
#965=CONICAL_SURFACE('',#1155,4.375,0.785398163397449);
#966=CONICAL_SURFACE('',#1157,1.625,0.785398163397449);
#967=CONICAL_SURFACE('',#1160,12.125,0.785398163397448);
#968=CONICAL_SURFACE('',#1163,1.625,0.785398163397449);
#969=CONICAL_SURFACE('',#1166,4.375,0.785398163397449);
#970=CONICAL_SURFACE('',#1169,1.625,0.785398163397449);
#971=CONICAL_SURFACE('',#1172,12.125,0.785398163397448);
#972=CONICAL_SURFACE('',#1175,1.625,0.785398163397449);
#973=CONICAL_SURFACE('',#1178,4.375,0.785398163397449);
#974=CONICAL_SURFACE('',#1181,1.625,0.785398163397449);
#975=CONICAL_SURFACE('',#1184,12.125,0.785398163397448);
#976=CONICAL_SURFACE('',#1187,1.625,0.785398163397449);
#977=CONICAL_SURFACE('',#1189,4.375,0.785398163397448);
#978=CONICAL_SURFACE('',#1191,1.625,0.785398163397449);
#979=CONICAL_SURFACE('',#1193,12.125,0.785398163397447);
#980=CONICAL_SURFACE('',#1195,1.625,0.785398163397449);
#981=ADVANCED_FACE('',(#48),#940,.T.);
#982=ADVANCED_FACE('',(#49,#36),#40,.F.);
#983=ADVANCED_FACE('',(#50),#41,.F.);
#984=ADVANCED_FACE('',(#51),#42,.F.);
#985=ADVANCED_FACE('',(#52),#43,.F.);
#986=ADVANCED_FACE('',(#53),#44,.F.);
#987=ADVANCED_FACE('',(#54,#37),#45,.T.);
#988=ADVANCED_FACE('',(#55),#941,.T.);
#989=ADVANCED_FACE('',(#56),#942,.F.);
#990=ADVANCED_FACE('',(#57),#943,.T.);
#991=ADVANCED_FACE('',(#58),#944,.T.);
#992=ADVANCED_FACE('',(#59),#945,.T.);
#993=ADVANCED_FACE('',(#60),#946,.F.);
#994=ADVANCED_FACE('',(#61),#947,.T.);
#995=ADVANCED_FACE('',(#62),#948,.T.);
#996=ADVANCED_FACE('',(#63),#949,.T.);
#997=ADVANCED_FACE('',(#64),#950,.F.);
#998=ADVANCED_FACE('',(#65),#951,.T.);
#999=ADVANCED_FACE('',(#66),#952,.T.);
#1000=ADVANCED_FACE('',(#67),#953,.T.);
#1001=ADVANCED_FACE('',(#68),#954,.F.);
#1002=ADVANCED_FACE('',(#69),#955,.T.);
#1003=ADVANCED_FACE('',(#70),#956,.T.);
#1004=ADVANCED_FACE('',(#71),#957,.T.);
#1005=ADVANCED_FACE('',(#72),#958,.F.);
#1006=ADVANCED_FACE('',(#73),#959,.T.);
#1007=ADVANCED_FACE('',(#74),#960,.T.);
#1008=ADVANCED_FACE('',(#75),#15,.T.);
#1009=ADVANCED_FACE('',(#76),#16,.F.);
#1010=ADVANCED_FACE('',(#77),#17,.T.);
#1011=ADVANCED_FACE('',(#78),#18,.T.);
#1012=ADVANCED_FACE('',(#79),#19,.T.);
#1013=ADVANCED_FACE('',(#80),#20,.F.);
#1014=ADVANCED_FACE('',(#81),#21,.T.);
#1015=ADVANCED_FACE('',(#82),#22,.T.);
#1016=ADVANCED_FACE('',(#83),#23,.T.);
#1017=ADVANCED_FACE('',(#84),#24,.F.);
#1018=ADVANCED_FACE('',(#85,#38),#46,.F.);
#1019=ADVANCED_FACE('',(#86),#961,.F.);
#1020=ADVANCED_FACE('',(#87),#962,.T.);
#1021=ADVANCED_FACE('',(#88),#963,.T.);
#1022=ADVANCED_FACE('',(#89),#964,.T.);
#1023=ADVANCED_FACE('',(#90),#965,.F.);
#1024=ADVANCED_FACE('',(#91),#966,.T.);
#1025=ADVANCED_FACE('',(#92),#967,.T.);
#1026=ADVANCED_FACE('',(#93),#968,.T.);
#1027=ADVANCED_FACE('',(#94),#969,.F.);
#1028=ADVANCED_FACE('',(#95),#970,.T.);
#1029=ADVANCED_FACE('',(#96),#971,.T.);
#1030=ADVANCED_FACE('',(#97),#972,.T.);
#1031=ADVANCED_FACE('',(#98),#973,.F.);
#1032=ADVANCED_FACE('',(#99),#974,.T.);
#1033=ADVANCED_FACE('',(#100),#975,.T.);
#1034=ADVANCED_FACE('',(#101),#976,.T.);
#1035=ADVANCED_FACE('',(#102),#977,.F.);
#1036=ADVANCED_FACE('',(#103),#978,.T.);
#1037=ADVANCED_FACE('',(#104),#979,.T.);
#1038=ADVANCED_FACE('',(#105),#980,.T.);
#1039=ADVANCED_FACE('',(#106),#25,.T.);
#1040=ADVANCED_FACE('',(#107),#26,.F.);
#1041=ADVANCED_FACE('',(#108),#27,.T.);
#1042=ADVANCED_FACE('',(#109),#28,.T.);
#1043=ADVANCED_FACE('',(#110),#29,.T.);
#1044=ADVANCED_FACE('',(#111,#39),#47,.T.);
#1045=ADVANCED_FACE('',(#112),#30,.T.);
#1046=ADVANCED_FACE('',(#113),#31,.T.);
#1047=ADVANCED_FACE('',(#114),#32,.F.);
#1048=ADVANCED_FACE('',(#115),#33,.T.);
#1049=ADVANCED_FACE('',(#116),#34,.T.);
#1050=ADVANCED_FACE('',(#117),#35,.F.);
#1051=CLOSED_SHELL('',(#981,#982,#983,#984,#985,#986,#987,#988,#989,#990,
#991,#992,#993,#994,#995,#996,#997,#998,#999,#1000,#1001,#1002,#1003,#1004,
#1005,#1006,#1007,#1008,#1009,#1010,#1011,#1012,#1013,#1014,#1015,#1016,
#1017,#1018,#1019,#1020,#1021,#1022,#1023,#1024,#1025,#1026,#1027,#1028,
#1029,#1030,#1031,#1032,#1033,#1034,#1035,#1036,#1037,#1038,#1039,#1040,
#1041,#1042,#1043,#1044,#1045,#1046,#1047,#1048,#1049,#1050));
#1052=DERIVED_UNIT_ELEMENT(#1054,1.);
#1053=DERIVED_UNIT_ELEMENT(#1879,-3.);
#1054=(
MASS_UNIT()
NAMED_UNIT(*)
SI_UNIT(.KILO.,.GRAM.)
);
#1055=DERIVED_UNIT((#1052,#1053));
#1056=MEASURE_REPRESENTATION_ITEM('density measure',
POSITIVE_RATIO_MEASURE(7850.),#1055);
#1057=PROPERTY_DEFINITION_REPRESENTATION(#1062,#1059);
#1058=PROPERTY_DEFINITION_REPRESENTATION(#1063,#1060);
#1059=REPRESENTATION('material name',(#1061),#1876);
#1060=REPRESENTATION('density',(#1056),#1876);
#1061=DESCRIPTIVE_REPRESENTATION_ITEM('Steel','Steel');
#1062=PROPERTY_DEFINITION('material property','material name',#1886);
#1063=PROPERTY_DEFINITION('material property','density of part',#1886);
#1064=AXIS2_PLACEMENT_3D('',#1573,#1209,#1210);
#1065=AXIS2_PLACEMENT_3D('',#1574,#1211,#1212);
#1066=AXIS2_PLACEMENT_3D('',#1576,#1213,#1214);
#1067=AXIS2_PLACEMENT_3D('',#1579,#1216,#1217);
#1068=AXIS2_PLACEMENT_3D('',#1580,#1218,#1219);
#1069=AXIS2_PLACEMENT_3D('',#1583,#1220,#1221);
#1070=AXIS2_PLACEMENT_3D('',#1585,#1222,#1223);
#1071=AXIS2_PLACEMENT_3D('',#1587,#1224,#1225);
#1072=AXIS2_PLACEMENT_3D('',#1589,#1226,#1227);
#1073=AXIS2_PLACEMENT_3D('',#1591,#1228,#1229);
#1074=AXIS2_PLACEMENT_3D('',#1593,#1230,#1231);
#1075=AXIS2_PLACEMENT_3D('',#1595,#1232,#1233);
#1076=AXIS2_PLACEMENT_3D('',#1597,#1234,#1235);
#1077=AXIS2_PLACEMENT_3D('',#1599,#1236,#1237);
#1078=AXIS2_PLACEMENT_3D('',#1600,#1238,#1239);
#1079=AXIS2_PLACEMENT_3D('',#1601,#1240,#1241);
#1080=AXIS2_PLACEMENT_3D('',#1610,#1246,#1247);
#1081=AXIS2_PLACEMENT_3D('',#1616,#1251,#1252);
#1082=AXIS2_PLACEMENT_3D('',#1622,#1256,#1257);
#1083=AXIS2_PLACEMENT_3D('',#1625,#1260,#1261);
#1084=AXIS2_PLACEMENT_3D('',#1627,#1262,#1263);
#1085=AXIS2_PLACEMENT_3D('',#1628,#1264,#1265);
#1086=AXIS2_PLACEMENT_3D('',#1632,#1267,#1268);
#1087=AXIS2_PLACEMENT_3D('',#1634,#1270,#1271);
#1088=AXIS2_PLACEMENT_3D('',#1639,#1274,#1275);
#1089=AXIS2_PLACEMENT_3D('',#1640,#1276,#1277);
#1090=AXIS2_PLACEMENT_3D('',#1641,#1278,#1279);
#1091=AXIS2_PLACEMENT_3D('',#1642,#1280,#1281);
#1092=AXIS2_PLACEMENT_3D('',#1646,#1283,#1284);
#1093=AXIS2_PLACEMENT_3D('',#1648,#1286,#1287);
#1094=AXIS2_PLACEMENT_3D('',#1649,#1288,#1289);
#1095=AXIS2_PLACEMENT_3D('',#1650,#1290,#1291);
#1096=AXIS2_PLACEMENT_3D('',#1655,#1294,#1295);
#1097=AXIS2_PLACEMENT_3D('',#1656,#1296,#1297);
#1098=AXIS2_PLACEMENT_3D('',#1657,#1298,#1299);
#1099=AXIS2_PLACEMENT_3D('',#1658,#1300,#1301);
#1100=AXIS2_PLACEMENT_3D('',#1662,#1303,#1304);
#1101=AXIS2_PLACEMENT_3D('',#1664,#1306,#1307);
#1102=AXIS2_PLACEMENT_3D('',#1665,#1308,#1309);
#1103=AXIS2_PLACEMENT_3D('',#1666,#1310,#1311);
#1104=AXIS2_PLACEMENT_3D('',#1671,#1314,#1315);
#1105=AXIS2_PLACEMENT_3D('',#1672,#1316,#1317);
#1106=AXIS2_PLACEMENT_3D('',#1673,#1318,#1319);
#1107=AXIS2_PLACEMENT_3D('',#1674,#1320,#1321);
#1108=AXIS2_PLACEMENT_3D('',#1678,#1323,#1324);
#1109=AXIS2_PLACEMENT_3D('',#1680,#1326,#1327);
#1110=AXIS2_PLACEMENT_3D('',#1681,#1328,#1329);
#1111=AXIS2_PLACEMENT_3D('',#1682,#1330,#1331);
#1112=AXIS2_PLACEMENT_3D('',#1687,#1334,#1335);
#1113=AXIS2_PLACEMENT_3D('',#1688,#1336,#1337);
#1114=AXIS2_PLACEMENT_3D('',#1689,#1338,#1339);
#1115=AXIS2_PLACEMENT_3D('',#1690,#1340,#1341);
#1116=AXIS2_PLACEMENT_3D('',#1694,#1343,#1344);
#1117=AXIS2_PLACEMENT_3D('',#1696,#1346,#1347);
#1118=AXIS2_PLACEMENT_3D('',#1697,#1348,#1349);
#1119=AXIS2_PLACEMENT_3D('',#1698,#1350,#1351);
#1120=AXIS2_PLACEMENT_3D('',#1703,#1354,#1355);
#1121=AXIS2_PLACEMENT_3D('',#1704,#1356,#1357);
#1122=AXIS2_PLACEMENT_3D('',#1705,#1358,#1359);
#1123=AXIS2_PLACEMENT_3D('',#1706,#1360,#1361);
#1124=AXIS2_PLACEMENT_3D('',#1707,#1362,#1363);
#1125=AXIS2_PLACEMENT_3D('',#1708,#1364,#1365);
#1126=AXIS2_PLACEMENT_3D('',#1712,#1367,#1368);
#1127=AXIS2_PLACEMENT_3D('',#1714,#1370,#1371);
#1128=AXIS2_PLACEMENT_3D('',#1717,#1373,#1374);
#1129=AXIS2_PLACEMENT_3D('',#1718,#1375,#1376);
#1130=AXIS2_PLACEMENT_3D('',#1721,#1378,#1379);
#1131=AXIS2_PLACEMENT_3D('',#1722,#1380,#1381);
#1132=AXIS2_PLACEMENT_3D('',#1725,#1383,#1384);
#1133=AXIS2_PLACEMENT_3D('',#1726,#1385,#1386);
#1134=AXIS2_PLACEMENT_3D('',#1729,#1388,#1389);
#1135=AXIS2_PLACEMENT_3D('',#1730,#1390,#1391);
#1136=AXIS2_PLACEMENT_3D('',#1733,#1393,#1394);
#1137=AXIS2_PLACEMENT_3D('',#1734,#1395,#1396);
#1138=AXIS2_PLACEMENT_3D('',#1737,#1398,#1399);
#1139=AXIS2_PLACEMENT_3D('',#1738,#1400,#1401);
#1140=AXIS2_PLACEMENT_3D('',#1741,#1403,#1404);
#1141=AXIS2_PLACEMENT_3D('',#1742,#1405,#1406);
#1142=AXIS2_PLACEMENT_3D('',#1745,#1408,#1409);
#1143=AXIS2_PLACEMENT_3D('',#1746,#1410,#1411);
#1144=AXIS2_PLACEMENT_3D('',#1749,#1413,#1414);
#1145=AXIS2_PLACEMENT_3D('',#1750,#1415,#1416);
#1146=AXIS2_PLACEMENT_3D('',#1752,#1417,#1418);
#1147=AXIS2_PLACEMENT_3D('',#1753,#1419,#1420);
#1148=AXIS2_PLACEMENT_3D('',#1757,#1422,#1423);
#1149=AXIS2_PLACEMENT_3D('',#1759,#1425,#1426);
#1150=AXIS2_PLACEMENT_3D('',#1762,#1428,#1429);
#1151=AXIS2_PLACEMENT_3D('',#1763,#1430,#1431);
#1152=AXIS2_PLACEMENT_3D('',#1766,#1433,#1434);
#1153=AXIS2_PLACEMENT_3D('',#1767,#1435,#1436);
#1154=AXIS2_PLACEMENT_3D('',#1770,#1438,#1439);
#1155=AXIS2_PLACEMENT_3D('',#1771,#1440,#1441);
#1156=AXIS2_PLACEMENT_3D('',#1774,#1443,#1444);
#1157=AXIS2_PLACEMENT_3D('',#1775,#1445,#1446);
#1158=AXIS2_PLACEMENT_3D('',#1777,#1447,#1448);
#1159=AXIS2_PLACEMENT_3D('',#1780,#1450,#1451);
#1160=AXIS2_PLACEMENT_3D('',#1781,#1452,#1453);
#1161=AXIS2_PLACEMENT_3D('',#1785,#1455,#1456);
#1162=AXIS2_PLACEMENT_3D('',#1786,#1457,#1458);
#1163=AXIS2_PLACEMENT_3D('',#1787,#1459,#1460);
#1164=AXIS2_PLACEMENT_3D('',#1789,#1461,#1462);
#1165=AXIS2_PLACEMENT_3D('',#1792,#1464,#1465);
#1166=AXIS2_PLACEMENT_3D('',#1793,#1466,#1467);
#1167=AXIS2_PLACEMENT_3D('',#1797,#1469,#1470);
#1168=AXIS2_PLACEMENT_3D('',#1798,#1471,#1472);
#1169=AXIS2_PLACEMENT_3D('',#1799,#1473,#1474);
#1170=AXIS2_PLACEMENT_3D('',#1801,#1475,#1476);
#1171=AXIS2_PLACEMENT_3D('',#1804,#1478,#1479);
#1172=AXIS2_PLACEMENT_3D('',#1805,#1480,#1481);
#1173=AXIS2_PLACEMENT_3D('',#1809,#1483,#1484);
#1174=AXIS2_PLACEMENT_3D('',#1810,#1485,#1486);
#1175=AXIS2_PLACEMENT_3D('',#1811,#1487,#1488);
#1176=AXIS2_PLACEMENT_3D('',#1813,#1489,#1490);
#1177=AXIS2_PLACEMENT_3D('',#1816,#1492,#1493);
#1178=AXIS2_PLACEMENT_3D('',#1817,#1494,#1495);
#1179=AXIS2_PLACEMENT_3D('',#1821,#1497,#1498);
#1180=AXIS2_PLACEMENT_3D('',#1822,#1499,#1500);
#1181=AXIS2_PLACEMENT_3D('',#1823,#1501,#1502);
#1182=AXIS2_PLACEMENT_3D('',#1825,#1503,#1504);
#1183=AXIS2_PLACEMENT_3D('',#1828,#1506,#1507);
#1184=AXIS2_PLACEMENT_3D('',#1829,#1508,#1509);
#1185=AXIS2_PLACEMENT_3D('',#1832,#1511,#1512);
#1186=AXIS2_PLACEMENT_3D('',#1833,#1513,#1514);
#1187=AXIS2_PLACEMENT_3D('',#1834,#1515,#1516);
#1188=AXIS2_PLACEMENT_3D('',#1837,#1518,#1519);
#1189=AXIS2_PLACEMENT_3D('',#1838,#1520,#1521);
#1190=AXIS2_PLACEMENT_3D('',#1841,#1523,#1524);
#1191=AXIS2_PLACEMENT_3D('',#1842,#1525,#1526);
#1192=AXIS2_PLACEMENT_3D('',#1845,#1528,#1529);
#1193=AXIS2_PLACEMENT_3D('',#1846,#1530,#1531);
#1194=AXIS2_PLACEMENT_3D('',#1849,#1533,#1534);
#1195=AXIS2_PLACEMENT_3D('',#1850,#1535,#1536);
#1196=AXIS2_PLACEMENT_3D('',#1851,#1537,#1538);
#1197=AXIS2_PLACEMENT_3D('',#1852,#1539,#1540);
#1198=AXIS2_PLACEMENT_3D('',#1855,#1543,#1544);
#1199=AXIS2_PLACEMENT_3D('',#1857,#1546,#1547);
#1200=AXIS2_PLACEMENT_3D('',#1859,#1549,#1550);
#1201=AXIS2_PLACEMENT_3D('',#1861,#1552,#1553);
#1202=AXIS2_PLACEMENT_3D('',#1862,#1554,#1555);
#1203=AXIS2_PLACEMENT_3D('',#1863,#1556,#1557);
#1204=AXIS2_PLACEMENT_3D('',#1865,#1559,#1560);
#1205=AXIS2_PLACEMENT_3D('',#1867,#1562,#1563);
#1206=AXIS2_PLACEMENT_3D('',#1869,#1565,#1566);
#1207=AXIS2_PLACEMENT_3D('',#1871,#1568,#1569);
#1208=AXIS2_PLACEMENT_3D('',#1872,#1570,#1571);
#1209=DIRECTION('axis',(0.,0.,1.));
#1210=DIRECTION('refdir',(1.,0.,0.));
#1211=DIRECTION('center_axis',(0.,0.,1.));
#1212=DIRECTION('ref_axis',(1.,0.,0.));
#1213=DIRECTION('center_axis',(0.,0.,-1.));
#1214=DIRECTION('ref_axis',(1.,0.,0.));
#1215=DIRECTION('',(0.707106781186548,8.65956056235494E-17,-0.707106781186547));
#1216=DIRECTION('center_axis',(0.,0.,-1.));
#1217=DIRECTION('ref_axis',(1.,0.,0.));
#1218=DIRECTION('center_axis',(0.,0.,1.));
#1219=DIRECTION('ref_axis',(1.,0.,0.));
#1220=DIRECTION('center_axis',(0.,0.,1.));
#1221=DIRECTION('ref_axis',(-1.,0.,0.));
#1222=DIRECTION('center_axis',(0.,0.,-1.));
#1223=DIRECTION('ref_axis',(1.,0.,0.));
#1224=DIRECTION('center_axis',(0.,0.,1.));
#1225=DIRECTION('ref_axis',(-1.,0.,0.));
#1226=DIRECTION('center_axis',(0.,0.,-1.));
#1227=DIRECTION('ref_axis',(-1.,0.,0.));
#1228=DIRECTION('center_axis',(0.,0.,1.));
#1229=DIRECTION('ref_axis',(1.,0.,0.));
#1230=DIRECTION('center_axis',(0.,0.,-1.));
#1231=DIRECTION('ref_axis',(-1.,0.,0.));
#1232=DIRECTION('center_axis',(0.,0.,1.));
#1233=DIRECTION('ref_axis',(1.,0.,0.));
#1234=DIRECTION('center_axis',(0.,0.,-1.));
#1235=DIRECTION('ref_axis',(-1.,0.,0.));
#1236=DIRECTION('center_axis',(0.,0.,1.));
#1237=DIRECTION('ref_axis',(-1.,0.,0.));
#1238=DIRECTION('center_axis',(0.,0.,-1.));
#1239=DIRECTION('ref_axis',(1.,0.,0.));
#1240=DIRECTION('center_axis',(0.,-1.,0.));
#1241=DIRECTION('ref_axis',(1.,0.,0.));
#1242=DIRECTION('',(-1.,0.,0.));
#1243=DIRECTION('',(0.,0.,1.));
#1244=DIRECTION('',(1.,0.,0.));
#1245=DIRECTION('',(0.,0.,1.));
#1246=DIRECTION('center_axis',(-1.,0.,0.));
#1247=DIRECTION('ref_axis',(0.,-1.,0.));
#1248=DIRECTION('',(0.,1.,0.));
#1249=DIRECTION('',(0.,-1.,0.));
#1250=DIRECTION('',(0.,0.,1.));
#1251=DIRECTION('center_axis',(0.,1.,0.));
#1252=DIRECTION('ref_axis',(-1.,0.,0.));
#1253=DIRECTION('',(1.,0.,0.));
#1254=DIRECTION('',(-1.,0.,0.));
#1255=DIRECTION('',(0.,0.,1.));
#1256=DIRECTION('center_axis',(1.,0.,0.));
#1257=DIRECTION('ref_axis',(0.,1.,0.));
#1258=DIRECTION('',(0.,-1.,0.));
#1259=DIRECTION('',(0.,1.,0.));
#1260=DIRECTION('center_axis',(0.,0.,1.));
#1261=DIRECTION('ref_axis',(1.,0.,0.));
#1262=DIRECTION('center_axis',(0.,0.,1.));
#1263=DIRECTION('ref_axis',(1.,0.,0.));
#1264=DIRECTION('center_axis',(0.,0.,1.));
#1265=DIRECTION('ref_axis',(-1.,0.,0.));
#1266=DIRECTION('',(-0.696640592661485,-0.121210084796009,0.707106781186547));
#1267=DIRECTION('center_axis',(0.,0.,-1.));
#1268=DIRECTION('ref_axis',(-1.,0.,0.));
#1269=DIRECTION('',(0.696640592661485,-0.121210084796009,-0.707106781186547));
#1270=DIRECTION('center_axis',(0.,0.,-1.));
#1271=DIRECTION('ref_axis',(1.,0.,0.));
#1272=DIRECTION('',(0.0441812273981219,0.705725172532194,-0.707106781186547));
#1273=DIRECTION('',(-0.684837274148629,0.176062227455739,0.707106781186547));
#1274=DIRECTION('center_axis',(0.,0.,1.));
#1275=DIRECTION('ref_axis',(1.,0.,0.));
#1276=DIRECTION('center_axis',(0.,0.,1.));
#1277=DIRECTION('ref_axis',(-0.667261139610149,-0.744823852710267,0.));
#1278=DIRECTION('center_axis',(0.,0.,-1.));
#1279=DIRECTION('ref_axis',(-0.667261139610149,-0.744823852710267,0.));
#1280=DIRECTION('center_axis',(0.,0.,1.));
#1281=DIRECTION('ref_axis',(-1.,0.,0.));
#1282=DIRECTION('',(-0.0999961411179023,-0.700000551258017,0.707106781186548));
#1283=DIRECTION('center_axis',(0.,0.,-1.));
#1284=DIRECTION('ref_axis',(-1.,0.,0.));
#1285=DIRECTION('',(0.330551423089766,0.625088599074827,-0.707106781186548));
#1286=DIRECTION('center_axis',(0.,0.,1.));
#1287=DIRECTION('ref_axis',(-0.914564610437692,-0.404439826593466,0.));
#1288=DIRECTION('center_axis',(0.,0.,-1.));
#1289=DIRECTION('ref_axis',(-0.914564610437692,-0.404439826593466,0.));
#1290=DIRECTION('center_axis',(0.,0.,-1.));
#1291=DIRECTION('ref_axis',(-1.,0.,0.));
#1292=DIRECTION('',(-0.657531773951901,0.260099915885541,-0.707106781186548));
#1293=DIRECTION('',(-0.379071484788561,-0.596912731829533,0.707106781186547));
#1294=DIRECTION('center_axis',(0.,0.,1.));
#1295=DIRECTION('ref_axis',(-1.,0.,0.));
#1296=DIRECTION('center_axis',(0.,0.,1.));
#1297=DIRECTION('ref_axis',(0.502174546786632,-0.864766283200057,0.));
#1298=DIRECTION('center_axis',(0.,0.,-1.));
#1299=DIRECTION('ref_axis',(0.502174546786632,-0.864766283200057,0.));
#1300=DIRECTION('center_axis',(0.,0.,1.));
#1301=DIRECTION('ref_axis',(1.,0.,0.));
#1302=DIRECTION('',(0.63483957870679,-0.311414048025109,0.707106781186547));
#1303=DIRECTION('center_axis',(0.,0.,-1.));
#1304=DIRECTION('ref_axis',(1.,0.,0.));
#1305=DIRECTION('',(-0.492348578162362,0.507536085004309,-0.707106781186547));
#1306=DIRECTION('center_axis',(0.,0.,1.));
#1307=DIRECTION('ref_axis',(0.102029125451849,-0.994781411949143,0.));
#1308=DIRECTION('center_axis',(0.,0.,-1.));
#1309=DIRECTION('ref_axis',(0.102029125451849,-0.994781411949143,0.));
#1310=DIRECTION('center_axis',(0.,0.,-1.));
#1311=DIRECTION('ref_axis',(-1.,0.,0.));
#1312=DIRECTION('',(-0.450558212383409,-0.544974584043941,-0.707106781186548));
#1313=DIRECTION('',(0.450558212383409,-0.544974584043941,0.707106781186548));
#1314=DIRECTION('center_axis',(0.,0.,1.));
#1315=DIRECTION('ref_axis',(-1.,0.,0.));
#1316=DIRECTION('center_axis',(0.,0.,1.));
#1317=DIRECTION('ref_axis',(0.977622077809361,0.210368897367715,0.));
#1318=DIRECTION('center_axis',(0.,0.,-1.));
#1319=DIRECTION('ref_axis',(0.977622077809361,0.210368897367715,0.));
#1320=DIRECTION('center_axis',(0.,0.,1.));
#1321=DIRECTION('ref_axis',(1.,0.,0.));
#1322=DIRECTION('',(0.492348578162362,0.507536085004308,0.707106781186548));
#1323=DIRECTION('center_axis',(0.,0.,-1.));
#1324=DIRECTION('ref_axis',(1.,0.,0.));
#1325=DIRECTION('',(-0.63483957870679,-0.311414048025109,-0.707106781186548));
#1326=DIRECTION('center_axis',(0.,0.,1.));
#1327=DIRECTION('ref_axis',(0.977622077809361,-0.210368897367715,0.));
#1328=DIRECTION('center_axis',(0.,0.,-1.));
#1329=DIRECTION('ref_axis',(0.977622077809361,-0.210368897367715,0.));
#1330=DIRECTION('center_axis',(0.,0.,-1.));
#1331=DIRECTION('ref_axis',(-1.,0.,0.));
#1332=DIRECTION('',(0.379071484788561,-0.596912731829533,-0.707106781186547));
#1333=DIRECTION('',(0.657531773951902,0.260099915885541,0.707106781186548));
#1334=DIRECTION('center_axis',(0.,0.,1.));
#1335=DIRECTION('ref_axis',(-1.,0.,0.));
#1336=DIRECTION('center_axis',(0.,0.,1.));
#1337=DIRECTION('ref_axis',(0.102029125451849,0.994781411949143,0.));
#1338=DIRECTION('center_axis',(0.,0.,-1.));
#1339=DIRECTION('ref_axis',(0.102029125451849,0.994781411949143,0.));
#1340=DIRECTION('center_axis',(0.,0.,1.));
#1341=DIRECTION('ref_axis',(-1.,0.,0.));
#1342=DIRECTION('',(-0.330551423089766,0.625088599074828,0.707106781186547));
#1343=DIRECTION('center_axis',(0.,0.,-1.));
#1344=DIRECTION('ref_axis',(-1.,0.,0.));
#1345=DIRECTION('',(0.0999961411179019,-0.700000551258017,-0.707106781186548));
#1346=DIRECTION('center_axis',(0.,0.,1.));
#1347=DIRECTION('ref_axis',(0.502174546786632,0.864766283200057,0.));
#1348=DIRECTION('center_axis',(0.,0.,-1.));
#1349=DIRECTION('ref_axis',(0.502174546786632,0.864766283200057,0.));
#1350=DIRECTION('center_axis',(0.,0.,-1.));
#1351=DIRECTION('ref_axis',(1.,0.,0.));
#1352=DIRECTION('',(0.684837274148629,0.176062227455739,-0.707106781186547));
#1353=DIRECTION('',(-0.0441812273981219,0.705725172532194,0.707106781186547));
#1354=DIRECTION('center_axis',(0.,0.,1.));
#1355=DIRECTION('ref_axis',(1.,0.,0.));
#1356=DIRECTION('center_axis',(0.,0.,1.));
#1357=DIRECTION('ref_axis',(-0.914564610437692,0.404439826593467,0.));
#1358=DIRECTION('center_axis',(0.,0.,-1.));
#1359=DIRECTION('ref_axis',(-0.914564610437692,0.404439826593467,0.));
#1360=DIRECTION('center_axis',(0.,0.,1.));
#1361=DIRECTION('ref_axis',(-0.667261139610148,0.744823852710268,0.));
#1362=DIRECTION('center_axis',(0.,0.,-1.));
#1363=DIRECTION('ref_axis',(-0.667261139610148,0.744823852710268,0.));
#1364=DIRECTION('center_axis',(0.,0.,1.));
#1365=DIRECTION('ref_axis',(0.977622077809361,0.210368897367715,0.));
#1366=DIRECTION('',(0.,0.,1.));
#1367=DIRECTION('center_axis',(0.,0.,1.));
#1368=DIRECTION('ref_axis',(0.977622077809361,0.210368897367715,0.));
#1369=DIRECTION('',(0.,0.,-1.));
#1370=DIRECTION('center_axis',(0.,0.,1.));
#1371=DIRECTION('ref_axis',(-1.,1.22464679914735E-16,0.));
#1372=DIRECTION('',(0.,0.,-1.));
#1373=DIRECTION('center_axis',(0.,0.,-1.));
#1374=DIRECTION('ref_axis',(-1.,0.,0.));
#1375=DIRECTION('center_axis',(0.,0.,1.));
#1376=DIRECTION('ref_axis',(0.977622077809361,-0.210368897367715,0.));
#1377=DIRECTION('',(0.,0.,1.));
#1378=DIRECTION('center_axis',(0.,0.,1.));
#1379=DIRECTION('ref_axis',(0.977622077809361,-0.210368897367715,0.));
#1380=DIRECTION('center_axis',(0.,0.,1.));
#1381=DIRECTION('ref_axis',(1.,0.,0.));
#1382=DIRECTION('',(0.,0.,-1.));
#1383=DIRECTION('center_axis',(0.,0.,1.));
#1384=DIRECTION('ref_axis',(1.,0.,0.));
#1385=DIRECTION('center_axis',(0.,0.,1.));
#1386=DIRECTION('ref_axis',(0.102029125451848,0.994781411949143,0.));
#1387=DIRECTION('',(0.,0.,1.));
#1388=DIRECTION('center_axis',(0.,0.,1.));
#1389=DIRECTION('ref_axis',(0.102029125451848,0.994781411949143,0.));
#1390=DIRECTION('center_axis',(0.,0.,1.));
#1391=DIRECTION('ref_axis',(1.,0.,0.));
#1392=DIRECTION('',(0.,0.,-1.));
#1393=DIRECTION('center_axis',(0.,0.,-1.));
#1394=DIRECTION('ref_axis',(-1.,0.,0.));
#1395=DIRECTION('center_axis',(0.,0.,1.));
#1396=DIRECTION('ref_axis',(0.502174546786632,0.864766283200057,0.));
#1397=DIRECTION('',(0.,0.,1.));
#1398=DIRECTION('center_axis',(0.,0.,1.));
#1399=DIRECTION('ref_axis',(0.502174546786632,0.864766283200057,0.));
#1400=DIRECTION('center_axis',(0.,0.,1.));
#1401=DIRECTION('ref_axis',(1.,0.,0.));
#1402=DIRECTION('',(0.,0.,-1.));
#1403=DIRECTION('center_axis',(0.,0.,1.));
#1404=DIRECTION('ref_axis',(-1.,0.,0.));
#1405=DIRECTION('center_axis',(0.,0.,1.));
#1406=DIRECTION('ref_axis',(-0.914564610437692,0.404439826593467,0.));
#1407=DIRECTION('',(0.,0.,1.));
#1408=DIRECTION('center_axis',(0.,0.,1.));
#1409=DIRECTION('ref_axis',(-0.914564610437692,0.404439826593467,0.));
#1410=DIRECTION('center_axis',(0.,0.,1.));
#1411=DIRECTION('ref_axis',(1.,0.,0.));
#1412=DIRECTION('',(0.,0.,-1.));
#1413=DIRECTION('center_axis',(0.,0.,-1.));
#1414=DIRECTION('ref_axis',(1.,0.,0.));
#1415=DIRECTION('center_axis',(0.,0.,1.));
#1416=DIRECTION('ref_axis',(1.,0.,0.));
#1417=DIRECTION('center_axis',(0.,0.,1.));
#1418=DIRECTION('ref_axis',(1.,0.,0.));
#1419=DIRECTION('center_axis',(0.,0.,1.));
#1420=DIRECTION('ref_axis',(-1.,0.,0.));
#1421=DIRECTION('',(-0.657531773951902,-0.260099915885541,0.707106781186548));
#1422=DIRECTION('center_axis',(0.,0.,1.));
#1423=DIRECTION('ref_axis',(-1.,0.,0.));
#1424=DIRECTION('',(-0.379071484788561,0.596912731829533,-0.707106781186548));
#1425=DIRECTION('center_axis',(0.,0.,-1.));
#1426=DIRECTION('ref_axis',(0.502174546786632,0.864766283200057,0.));
#1427=DIRECTION('',(0.0999961411179016,-0.700000551258017,0.707106781186548));
#1428=DIRECTION('center_axis',(0.,0.,-1.));
#1429=DIRECTION('ref_axis',(0.502174546786632,0.864766283200057,0.));
#1430=DIRECTION('center_axis',(0.,0.,-1.));
#1431=DIRECTION('ref_axis',(-1.,0.,0.));
#1432=DIRECTION('',(0.330551423089766,-0.625088599074829,0.707106781186546));
#1433=DIRECTION('center_axis',(0.,0.,-1.));
#1434=DIRECTION('ref_axis',(-1.,0.,0.));
#1435=DIRECTION('center_axis',(0.,0.,-1.));
#1436=DIRECTION('ref_axis',(-0.914564610437692,0.404439826593467,0.));
#1437=DIRECTION('',(0.684837274148629,0.176062227455739,0.707106781186547));
#1438=DIRECTION('center_axis',(0.,0.,-1.));
#1439=DIRECTION('ref_axis',(-0.914564610437692,0.404439826593467,0.));
#1440=DIRECTION('center_axis',(0.,0.,1.));
#1441=DIRECTION('ref_axis',(1.,0.,0.));
#1442=DIRECTION('',(0.0441812273981225,-0.705725172532194,0.707106781186547));
#1443=DIRECTION('center_axis',(0.,0.,1.));
#1444=DIRECTION('ref_axis',(1.,0.,0.));
#1445=DIRECTION('center_axis',(0.,0.,-1.));
#1446=DIRECTION('ref_axis',(-0.667261139610148,0.744823852710267,0.));
#1447=DIRECTION('center_axis',(0.,0.,1.));
#1448=DIRECTION('ref_axis',(-0.667261139610148,0.744823852710267,0.));
#1449=DIRECTION('',(0.696640592661485,-0.121210084796009,0.707106781186547));
#1450=DIRECTION('center_axis',(0.,0.,-1.));
#1451=DIRECTION('ref_axis',(-0.667261139610148,0.744823852710267,0.));
#1452=DIRECTION('center_axis',(0.,0.,-1.));
#1453=DIRECTION('ref_axis',(-1.,0.,0.));
#1454=DIRECTION('',(0.696640592661485,0.121210084796009,0.707106781186547));
#1455=DIRECTION('center_axis',(0.,0.,-1.));
#1456=DIRECTION('ref_axis',(-1.,0.,0.));
#1457=DIRECTION('center_axis',(0.,0.,1.));
#1458=DIRECTION('ref_axis',(-1.,0.,0.));
#1459=DIRECTION('center_axis',(0.,0.,-1.));
#1460=DIRECTION('ref_axis',(-0.667261139610149,-0.744823852710267,0.));
#1461=DIRECTION('center_axis',(0.,0.,1.));
#1462=DIRECTION('ref_axis',(-0.667261139610149,-0.744823852710267,0.));
#1463=DIRECTION('',(0.0441812273981225,0.705725172532194,0.707106781186548));
#1464=DIRECTION('center_axis',(0.,0.,-1.));
#1465=DIRECTION('ref_axis',(-0.667261139610149,-0.744823852710267,0.));
#1466=DIRECTION('center_axis',(0.,0.,1.));
#1467=DIRECTION('ref_axis',(1.,0.,0.));
#1468=DIRECTION('',(0.684837274148629,-0.176062227455739,0.707106781186547));
#1469=DIRECTION('center_axis',(0.,0.,1.));
#1470=DIRECTION('ref_axis',(1.,0.,0.));
#1471=DIRECTION('center_axis',(0.,0.,-1.));
#1472=DIRECTION('ref_axis',(1.,0.,0.));
#1473=DIRECTION('center_axis',(0.,0.,-1.));
#1474=DIRECTION('ref_axis',(-0.914564610437692,-0.404439826593466,0.));
#1475=DIRECTION('center_axis',(0.,0.,1.));
#1476=DIRECTION('ref_axis',(-0.914564610437692,-0.404439826593466,0.));
#1477=DIRECTION('',(0.330551423089767,0.625088599074827,0.707106781186547));
#1478=DIRECTION('center_axis',(0.,0.,-1.));
#1479=DIRECTION('ref_axis',(-0.914564610437692,-0.404439826593466,0.));
#1480=DIRECTION('center_axis',(0.,0.,-1.));
#1481=DIRECTION('ref_axis',(-1.,0.,0.));
#1482=DIRECTION('',(0.0999961411179032,0.700000551258017,0.707106781186548));
#1483=DIRECTION('center_axis',(0.,0.,-1.));
#1484=DIRECTION('ref_axis',(-1.,0.,0.));
#1485=DIRECTION('center_axis',(0.,0.,1.));
#1486=DIRECTION('ref_axis',(-1.,0.,0.));
#1487=DIRECTION('center_axis',(0.,0.,-1.));
#1488=DIRECTION('ref_axis',(0.502174546786632,-0.864766283200057,0.));
#1489=DIRECTION('center_axis',(0.,0.,1.));
#1490=DIRECTION('ref_axis',(0.502174546786632,-0.864766283200057,0.));
#1491=DIRECTION('',(-0.657531773951902,0.260099915885542,0.707106781186547));
#1492=DIRECTION('center_axis',(0.,0.,-1.));
#1493=DIRECTION('ref_axis',(0.502174546786632,-0.864766283200057,0.));
#1494=DIRECTION('center_axis',(0.,0.,1.));
#1495=DIRECTION('ref_axis',(-1.,0.,0.));
#1496=DIRECTION('',(0.37907148478856,0.596912731829534,0.707106781186547));
#1497=DIRECTION('center_axis',(0.,0.,1.));
#1498=DIRECTION('ref_axis',(-1.,0.,0.));
#1499=DIRECTION('center_axis',(0.,0.,-1.));
#1500=DIRECTION('ref_axis',(-1.,0.,0.));
#1501=DIRECTION('center_axis',(0.,0.,-1.));
#1502=DIRECTION('ref_axis',(0.102029125451848,-0.994781411949143,0.));
#1503=DIRECTION('center_axis',(0.,0.,1.));
#1504=DIRECTION('ref_axis',(0.102029125451848,-0.994781411949143,0.));
#1505=DIRECTION('',(-0.492348578162362,0.507536085004308,0.707106781186547));
#1506=DIRECTION('center_axis',(0.,0.,-1.));
#1507=DIRECTION('ref_axis',(0.102029125451848,-0.994781411949143,0.));
#1508=DIRECTION('center_axis',(0.,0.,-1.));
#1509=DIRECTION('ref_axis',(1.,0.,0.));
#1510=DIRECTION('',(-0.634839578706789,0.311414048025109,0.707106781186548));
#1511=DIRECTION('center_axis',(0.,0.,-1.));
#1512=DIRECTION('ref_axis',(1.,0.,0.));
#1513=DIRECTION('center_axis',(0.,0.,1.));
#1514=DIRECTION('ref_axis',(1.,0.,0.));
#1515=DIRECTION('center_axis',(0.,0.,-1.));
#1516=DIRECTION('ref_axis',(0.977622077809361,0.210368897367715,0.));
#1517=DIRECTION('',(-0.450558212383409,-0.544974584043941,0.707106781186547));
#1518=DIRECTION('center_axis',(0.,0.,-1.));
#1519=DIRECTION('ref_axis',(0.977622077809361,0.210368897367715,0.));
#1520=DIRECTION('center_axis',(0.,0.,1.));
#1521=DIRECTION('ref_axis',(-1.,0.,0.));
#1522=DIRECTION('',(-0.450558212383409,0.544974584043941,0.707106781186548));
#1523=DIRECTION('center_axis',(0.,0.,1.));
#1524=DIRECTION('ref_axis',(-1.,0.,0.));
#1525=DIRECTION('center_axis',(0.,0.,-1.));
#1526=DIRECTION('ref_axis',(0.977622077809361,-0.210368897367715,0.));
#1527=DIRECTION('',(-0.63483957870679,-0.31141404802511,0.707106781186547));
#1528=DIRECTION('center_axis',(0.,0.,-1.));
#1529=DIRECTION('ref_axis',(0.977622077809361,-0.210368897367715,0.));
#1530=DIRECTION('center_axis',(0.,0.,-1.));
#1531=DIRECTION('ref_axis',(1.,0.,0.));
#1532=DIRECTION('',(-0.492348578162361,-0.507536085004307,0.707106781186549));
#1533=DIRECTION('center_axis',(0.,0.,-1.));
#1534=DIRECTION('ref_axis',(1.,0.,0.));
#1535=DIRECTION('center_axis',(0.,0.,-1.));
#1536=DIRECTION('ref_axis',(0.102029125451848,0.994781411949143,0.));
#1537=DIRECTION('center_axis',(0.,0.,-1.));
#1538=DIRECTION('ref_axis',(0.102029125451848,0.994781411949143,0.));
#1539=DIRECTION('center_axis',(0.,0.,1.));
#1540=DIRECTION('ref_axis',(-0.914564610437692,-0.404439826593466,0.));
#1541=DIRECTION('',(0.,0.,1.));
#1542=DIRECTION('',(0.,0.,-1.));
#1543=DIRECTION('center_axis',(0.,0.,1.));
#1544=DIRECTION('ref_axis',(1.,0.,0.));
#1545=DIRECTION('',(0.,0.,1.));
#1546=DIRECTION('center_axis',(0.,0.,1.));
#1547=DIRECTION('ref_axis',(-0.667261139610149,-0.744823852710267,0.));
#1548=DIRECTION('',(0.,0.,-1.));
#1549=DIRECTION('center_axis',(0.,0.,1.));
#1550=DIRECTION('ref_axis',(-1.,1.22464679914735E-16,0.));
#1551=DIRECTION('',(0.,0.,1.));
#1552=DIRECTION('center_axis',(0.,0.,1.));
#1553=DIRECTION('ref_axis',(-0.667261139610148,0.744823852710267,0.));
#1554=DIRECTION('center_axis',(0.,0.,1.));
#1555=DIRECTION('ref_axis',(1.,0.,0.));
#1556=DIRECTION('center_axis',(0.,0.,1.));
#1557=DIRECTION('ref_axis',(1.,0.,0.));
#1558=DIRECTION('',(0.,0.,-1.));
#1559=DIRECTION('center_axis',(0.,0.,1.));
#1560=DIRECTION('ref_axis',(0.502174546786632,-0.864766283200057,0.));
#1561=DIRECTION('',(0.,0.,1.));
#1562=DIRECTION('center_axis',(0.,0.,1.));
#1563=DIRECTION('ref_axis',(1.,0.,0.));
#1564=DIRECTION('',(0.,0.,-1.));
#1565=DIRECTION('center_axis',(0.,0.,1.));
#1566=DIRECTION('ref_axis',(0.102029125451848,-0.994781411949143,0.));
#1567=DIRECTION('',(0.,0.,1.));
#1568=DIRECTION('center_axis',(0.,0.,1.));
#1569=DIRECTION('ref_axis',(1.,0.,0.));
#1570=DIRECTION('center_axis',(0.,0.,1.));
#1571=DIRECTION('ref_axis',(1.,0.,0.));
#1572=DIRECTION('',(0.,0.,-1.));
#1573=CARTESIAN_POINT('',(0.,0.,0.));
#1574=CARTESIAN_POINT('Origin',(0.,0.,-0.2));
#1575=CARTESIAN_POINT('',(-6.4,7.83773951454306E-16,0.));
#1576=CARTESIAN_POINT('Origin',(0.,0.,0.));
#1577=CARTESIAN_POINT('',(-6.,-7.34788079488412E-16,-0.4));
#1578=CARTESIAN_POINT('',(-6.2,-7.59281015471359E-16,-0.2));
#1579=CARTESIAN_POINT('Origin',(0.,0.,-0.4));
#1580=CARTESIAN_POINT('Origin',(-0.29127358490566,0.,0.));
#1581=CARTESIAN_POINT('',(-10.3445850295358,1.79987793105654,0.));
#1582=CARTESIAN_POINT('',(-10.3445850295358,-1.79987793105654,0.));
#1583=CARTESIAN_POINT('Origin',(0.,0.,0.));
#1584=CARTESIAN_POINT('',(-4.90843820875038,9.2820921322124,0.));
#1585=CARTESIAN_POINT('Origin',(-10.7194751754681,7.78815459287527,0.));
#1586=CARTESIAN_POINT('',(-1.48486693901606,10.3944778692062,0.));
#1587=CARTESIAN_POINT('Origin',(0.,0.,0.));
#1588=CARTESIAN_POINT('',(7.31100338484939,7.53652635547179,0.));
#1589=CARTESIAN_POINT('Origin',(4.09447517546805,12.6014988409108,0.));
#1590=CARTESIAN_POINT('',(9.42688679245283,4.62426268742147,0.));
#1591=CARTESIAN_POINT('Origin',(0.,0.,0.));
#1592=CARTESIAN_POINT('',(9.42688679245283,-4.62426268742147,0.));
#1593=CARTESIAN_POINT('Origin',(13.25,0.,0.));
#1594=CARTESIAN_POINT('',(7.31100338484938,-7.53652635547179,0.));
#1595=CARTESIAN_POINT('Origin',(0.,0.,0.));
#1596=CARTESIAN_POINT('',(-1.48486693901606,-10.3944778692062,0.));
#1597=CARTESIAN_POINT('Origin',(4.09447517546805,-12.6014988409108,0.));
#1598=CARTESIAN_POINT('',(-4.90843820875038,-9.2820921322124,0.));
#1599=CARTESIAN_POINT('Origin',(0.,0.,0.));
#1600=CARTESIAN_POINT('Origin',(-10.7194751754681,-7.78815459287527,0.));
#1601=CARTESIAN_POINT('Origin',(-3.55,-3.55,2.5));
#1602=CARTESIAN_POINT('',(3.55,-3.55,7.5));
#1603=CARTESIAN_POINT('',(-3.55,-3.55,7.5));
#1604=CARTESIAN_POINT('',(-1.92063679245283,-3.55,7.5));
#1605=CARTESIAN_POINT('',(3.55,-3.55,2.5));
#1606=CARTESIAN_POINT('',(3.55,-3.55,2.5));
#1607=CARTESIAN_POINT('',(-3.55,-3.55,2.5));
#1608=CARTESIAN_POINT('',(-3.55,-3.55,2.5));
#1609=CARTESIAN_POINT('',(-3.55,-3.55,2.5));
#1610=CARTESIAN_POINT('Origin',(-3.55,3.55,2.5));
#1611=CARTESIAN_POINT('',(-3.55,3.55,7.5));
#1612=CARTESIAN_POINT('',(-3.55,1.775,7.5));
#1613=CARTESIAN_POINT('',(-3.55,3.55,2.5));
#1614=CARTESIAN_POINT('',(-3.55,3.55,2.5));
#1615=CARTESIAN_POINT('',(-3.55,3.55,2.5));
#1616=CARTESIAN_POINT('Origin',(3.55,3.55,2.5));
#1617=CARTESIAN_POINT('',(3.55,3.55,7.5));
#1618=CARTESIAN_POINT('',(1.62936320754717,3.55,7.5));
#1619=CARTESIAN_POINT('',(3.55,3.55,2.5));
#1620=CARTESIAN_POINT('',(3.55,3.55,2.5));
#1621=CARTESIAN_POINT('',(3.55,3.55,2.5));
#1622=CARTESIAN_POINT('Origin',(3.55,-3.55,2.5));
#1623=CARTESIAN_POINT('',(3.55,-1.775,7.5));
#1624=CARTESIAN_POINT('',(3.55,-3.55,2.5));
#1625=CARTESIAN_POINT('Origin',(0.,0.,2.5));
#1626=CARTESIAN_POINT('',(-2.,-2.44929359829471E-16,2.5));
#1627=CARTESIAN_POINT('Origin',(0.,0.,2.5));
#1628=CARTESIAN_POINT('Origin',(0.,0.,1.));
#1629=CARTESIAN_POINT('',(-12.3149821780188,-2.14271182268635,2.));
#1630=CARTESIAN_POINT('',(-10.3445850295358,-1.79987793105654,0.));
#1631=CARTESIAN_POINT('',(-12.3149821780188,2.14271182268636,2.));
#1632=CARTESIAN_POINT('Origin',(0.,0.,2.));
#1633=CARTESIAN_POINT('',(-12.3149821780188,2.14271182268636,2.));
#1634=CARTESIAN_POINT('Origin',(-10.7194751754681,-7.78815459287527,1.));
#1635=CARTESIAN_POINT('',(-10.4695484115132,-3.79597015166278,2.));
#1636=CARTESIAN_POINT('',(-10.4695484115132,-3.79597015166278,2.));
#1637=CARTESIAN_POINT('',(-6.84545053098961,-8.78411295243336,2.));
#1638=CARTESIAN_POINT('',(-4.90843820875038,-9.2820921322124,0.));
#1639=CARTESIAN_POINT('Origin',(-10.7194751754681,-7.78815459287527,2.));
#1640=CARTESIAN_POINT('Origin',(-10.3445850295358,-1.79987793105654,2.));
#1641=CARTESIAN_POINT('Origin',(-10.3445850295358,-1.79987793105654,2.));
#1642=CARTESIAN_POINT('Origin',(0.,0.,1.));
#1643=CARTESIAN_POINT('',(-1.76769873692389,-12.3743784157216,2.));
#1644=CARTESIAN_POINT('',(-1.48486693901606,-10.3944778692062,0.));
#1645=CARTESIAN_POINT('',(-5.84337881994093,-11.0501096812052,2.));
#1646=CARTESIAN_POINT('Origin',(0.,0.,2.));
#1647=CARTESIAN_POINT('',(-5.84337881994093,-11.0501096812052,2.));
#1648=CARTESIAN_POINT('Origin',(-4.90843820875038,-9.2820921322124,2.));
#1649=CARTESIAN_POINT('Origin',(-4.90843820875038,-9.2820921322124,2.));
#1650=CARTESIAN_POINT('Origin',(4.09447517546805,-12.6014988409108,1.));
#1651=CARTESIAN_POINT('',(0.374913765811974,-11.1301515264411,2.));
#1652=CARTESIAN_POINT('',(0.374913765811974,-11.1301515264411,2.));
#1653=CARTESIAN_POINT('',(6.23882731505561,-9.22485051728479,2.));
#1654=CARTESIAN_POINT('',(7.31100338484938,-7.53652635547179,0.));
#1655=CARTESIAN_POINT('Origin',(4.09447517546805,-12.6014988409108,2.));
#1656=CARTESIAN_POINT('Origin',(-1.48486693901606,-10.3944778692062,2.));
#1657=CARTESIAN_POINT('Origin',(-1.48486693901606,-10.3944778692062,2.));
#1658=CARTESIAN_POINT('Origin',(0.,0.,1.));
#1659=CARTESIAN_POINT('',(11.2224842767296,-5.5050746278827,2.));
#1660=CARTESIAN_POINT('',(9.42688679245283,-4.62426268742147,0.));
#1661=CARTESIAN_POINT('',(8.70357545815403,-8.97205518508546,2.));
#1662=CARTESIAN_POINT('Origin',(0.,0.,2.));
#1663=CARTESIAN_POINT('',(8.70357545815403,-8.97205518508546,2.));
#1664=CARTESIAN_POINT('Origin',(7.31100338484939,-7.53652635547179,2.));
#1665=CARTESIAN_POINT('Origin',(7.31100338484939,-7.53652635547179,2.));
#1666=CARTESIAN_POINT('Origin',(13.25,0.,1.));
#1667=CARTESIAN_POINT('',(10.7012578616352,-3.08284179161431,2.));
#1668=CARTESIAN_POINT('',(10.7012578616352,-3.08284179161431,2.));
#1669=CARTESIAN_POINT('',(10.7012578616352,3.08284179161431,2.));
#1670=CARTESIAN_POINT('',(9.42688679245283,4.62426268742147,0.));
#1671=CARTESIAN_POINT('Origin',(13.25,0.,2.));
#1672=CARTESIAN_POINT('Origin',(9.42688679245283,-4.62426268742147,2.));
#1673=CARTESIAN_POINT('Origin',(9.42688679245283,-4.62426268742147,2.));
#1674=CARTESIAN_POINT('Origin',(0.,0.,1.));
#1675=CARTESIAN_POINT('',(8.70357545815403,8.97205518508546,2.));
#1676=CARTESIAN_POINT('',(7.31100338484939,7.53652635547179,0.));
#1677=CARTESIAN_POINT('',(11.2224842767296,5.5050746278827,2.));
#1678=CARTESIAN_POINT('Origin',(0.,0.,2.));
#1679=CARTESIAN_POINT('',(11.2224842767296,5.5050746278827,2.));
#1680=CARTESIAN_POINT('Origin',(9.42688679245283,4.62426268742147,2.));
#1681=CARTESIAN_POINT('Origin',(9.42688679245283,4.62426268742147,2.));
#1682=CARTESIAN_POINT('Origin',(4.09447517546805,12.6014988409108,1.));
#1683=CARTESIAN_POINT('',(6.23882731505561,9.22485051728478,2.));
#1684=CARTESIAN_POINT('',(6.23882731505561,9.22485051728478,2.));
#1685=CARTESIAN_POINT('',(0.374913765811976,11.1301515264411,2.));
#1686=CARTESIAN_POINT('',(-1.48486693901606,10.3944778692062,0.));
#1687=CARTESIAN_POINT('Origin',(4.09447517546805,12.6014988409108,2.));
#1688=CARTESIAN_POINT('Origin',(7.31100338484939,7.53652635547178,2.));
#1689=CARTESIAN_POINT('Origin',(7.31100338484939,7.53652635547178,2.));
#1690=CARTESIAN_POINT('Origin',(0.,0.,1.));
#1691=CARTESIAN_POINT('',(-5.84337881994093,11.0501096812052,2.));
#1692=CARTESIAN_POINT('',(-4.90843820875038,9.2820921322124,0.));
#1693=CARTESIAN_POINT('',(-1.76769873692388,12.3743784157216,2.));
#1694=CARTESIAN_POINT('Origin',(0.,0.,2.));
#1695=CARTESIAN_POINT('',(-1.76769873692388,12.3743784157216,2.));
#1696=CARTESIAN_POINT('Origin',(-1.48486693901606,10.3944778692062,2.));
#1697=CARTESIAN_POINT('Origin',(-1.48486693901606,10.3944778692062,2.));
#1698=CARTESIAN_POINT('Origin',(-10.7194751754681,7.78815459287527,1.));
#1699=CARTESIAN_POINT('',(-6.8454505309896,8.78411295243336,2.));
#1700=CARTESIAN_POINT('',(-6.8454505309896,8.78411295243336,2.));
#1701=CARTESIAN_POINT('',(-10.4695484115132,3.79597015166278,2.));
#1702=CARTESIAN_POINT('',(-10.3445850295358,1.79987793105654,0.));
#1703=CARTESIAN_POINT('Origin',(-10.7194751754681,7.78815459287527,2.));
#1704=CARTESIAN_POINT('Origin',(-4.90843820875038,9.2820921322124,2.));
#1705=CARTESIAN_POINT('Origin',(-4.90843820875038,9.2820921322124,2.));
#1706=CARTESIAN_POINT('Origin',(-10.3445850295358,1.79987793105654,2.));
#1707=CARTESIAN_POINT('Origin',(-10.3445850295358,1.79987793105654,2.));
#1708=CARTESIAN_POINT('Origin',(9.42688679245283,-4.62426268742147,0.));
#1709=CARTESIAN_POINT('',(10.7012578616352,-3.08284179161431,6.75));
#1710=CARTESIAN_POINT('',(10.7012578616352,-3.08284179161431,0.));
#1711=CARTESIAN_POINT('',(11.2224842767296,-5.5050746278827,6.75));
#1712=CARTESIAN_POINT('Origin',(9.42688679245283,-4.62426268742147,6.75));
#1713=CARTESIAN_POINT('',(11.2224842767296,-5.5050746278827,0.));
#1714=CARTESIAN_POINT('Origin',(13.25,0.,0.));
#1715=CARTESIAN_POINT('',(10.7012578616352,3.08284179161431,6.75));
#1716=CARTESIAN_POINT('',(10.7012578616352,3.08284179161431,0.));
#1717=CARTESIAN_POINT('Origin',(13.25,0.,6.75));
#1718=CARTESIAN_POINT('Origin',(9.42688679245283,4.62426268742147,0.));
#1719=CARTESIAN_POINT('',(11.2224842767296,5.5050746278827,6.75));
#1720=CARTESIAN_POINT('',(11.2224842767296,5.5050746278827,0.));
#1721=CARTESIAN_POINT('Origin',(9.42688679245283,4.62426268742147,6.75));
#1722=CARTESIAN_POINT('Origin',(0.,0.,0.));
#1723=CARTESIAN_POINT('',(8.70357545815403,8.97205518508546,6.75));
#1724=CARTESIAN_POINT('',(8.70357545815403,8.97205518508546,0.));
#1725=CARTESIAN_POINT('Origin',(0.,0.,6.75));
#1726=CARTESIAN_POINT('Origin',(7.31100338484939,7.53652635547178,0.));
#1727=CARTESIAN_POINT('',(6.23882731505561,9.22485051728478,6.75));
#1728=CARTESIAN_POINT('',(6.23882731505561,9.22485051728478,0.));
#1729=CARTESIAN_POINT('Origin',(7.31100338484939,7.53652635547178,6.75));
#1730=CARTESIAN_POINT('Origin',(4.09447517546805,12.6014988409108,0.));
#1731=CARTESIAN_POINT('',(0.374913765811976,11.1301515264411,6.75));
#1732=CARTESIAN_POINT('',(0.374913765811976,11.1301515264411,0.));
#1733=CARTESIAN_POINT('Origin',(4.09447517546805,12.6014988409108,6.75));
#1734=CARTESIAN_POINT('Origin',(-1.48486693901606,10.3944778692062,0.));
#1735=CARTESIAN_POINT('',(-1.76769873692388,12.3743784157216,6.75));
#1736=CARTESIAN_POINT('',(-1.76769873692388,12.3743784157216,0.));
#1737=CARTESIAN_POINT('Origin',(-1.48486693901606,10.3944778692062,6.75));
#1738=CARTESIAN_POINT('Origin',(0.,0.,0.));
#1739=CARTESIAN_POINT('',(-5.84337881994093,11.0501096812052,6.75));
#1740=CARTESIAN_POINT('',(-5.84337881994093,11.0501096812052,0.));
#1741=CARTESIAN_POINT('Origin',(0.,0.,6.75));
#1742=CARTESIAN_POINT('Origin',(-4.90843820875038,9.2820921322124,0.));
#1743=CARTESIAN_POINT('',(-6.8454505309896,8.78411295243336,6.75));
#1744=CARTESIAN_POINT('',(-6.8454505309896,8.78411295243336,0.));
#1745=CARTESIAN_POINT('Origin',(-4.90843820875038,9.2820921322124,6.75));
#1746=CARTESIAN_POINT('Origin',(-10.7194751754681,7.78815459287527,0.));
#1747=CARTESIAN_POINT('',(-10.4695484115132,3.79597015166278,6.75));
#1748=CARTESIAN_POINT('',(-10.4695484115132,3.79597015166278,0.));
#1749=CARTESIAN_POINT('Origin',(-10.7194751754681,7.78815459287527,6.75));
#1750=CARTESIAN_POINT('Origin',(0.,0.,-0.4));
#1751=CARTESIAN_POINT('',(-2.,-2.44929359829471E-16,-0.4));
#1752=CARTESIAN_POINT('Origin',(0.,0.,-0.4));
#1753=CARTESIAN_POINT('Origin',(4.09447517546805,12.6014988409108,7.125));
#1754=CARTESIAN_POINT('',(-0.322503998498538,10.854273904978,7.5));
#1755=CARTESIAN_POINT('',(0.374913765811976,11.1301515264411,6.75));
#1756=CARTESIAN_POINT('',(6.64089334122828,8.59172895660491,7.5));
#1757=CARTESIAN_POINT('Origin',(4.09447517546805,12.6014988409108,7.5));
#1758=CARTESIAN_POINT('',(6.64089334122828,8.59172895660491,7.5));
#1759=CARTESIAN_POINT('Origin',(-1.48486693901606,10.3944778692062,7.125));
#1760=CARTESIAN_POINT('',(-1.66163681270845,11.6319157107783,7.5));
#1761=CARTESIAN_POINT('',(-1.76769873692388,12.3743784157216,6.75));
#1762=CARTESIAN_POINT('Origin',(-1.48486693901606,10.3944778692062,7.5));
#1763=CARTESIAN_POINT('Origin',(0.,0.,7.125));
#1764=CARTESIAN_POINT('',(-5.49277609074447,10.3871031003329,7.5));
#1765=CARTESIAN_POINT('',(-5.84337881994093,11.0501096812052,6.75));
#1766=CARTESIAN_POINT('Origin',(0.,0.,7.5));
#1767=CARTESIAN_POINT('Origin',(-4.90843820875038,9.2820921322124,7.125));
#1768=CARTESIAN_POINT('',(-6.11907091014989,8.9708551448505,7.5));
#1769=CARTESIAN_POINT('',(-6.8454505309896,8.78411295243336,6.75));
#1770=CARTESIAN_POINT('Origin',(-4.90843820875038,9.2820921322124,7.5));
#1771=CARTESIAN_POINT('Origin',(-10.7194751754681,7.78815459287527,7.125));
#1772=CARTESIAN_POINT('',(-10.4226871432717,3.04743556893544,7.5));
#1773=CARTESIAN_POINT('',(-10.4695484115132,3.79597015166278,6.75));
#1774=CARTESIAN_POINT('Origin',(-10.7194751754681,7.78815459287527,7.5));
#1775=CARTESIAN_POINT('Origin',(-10.3445850295358,1.79987793105654,7.125));
#1776=CARTESIAN_POINT('',(-12.3149821780188,2.14271182268636,6.75));
#1777=CARTESIAN_POINT('Origin',(-10.3445850295358,1.79987793105654,6.75));
#1778=CARTESIAN_POINT('',(-11.5760832473377,2.01414911332517,7.5));
#1779=CARTESIAN_POINT('',(-12.3149821780188,2.14271182268636,6.75));
#1780=CARTESIAN_POINT('Origin',(-10.3445850295358,1.79987793105654,7.5));
#1781=CARTESIAN_POINT('Origin',(0.,0.,7.125));
#1782=CARTESIAN_POINT('',(-12.3149821780188,-2.14271182268635,6.75));
#1783=CARTESIAN_POINT('',(-11.5760832473377,-2.01414911332517,7.5));
#1784=CARTESIAN_POINT('',(-12.3149821780188,-2.14271182268635,6.75));
#1785=CARTESIAN_POINT('Origin',(0.,0.,7.5));
#1786=CARTESIAN_POINT('Origin',(0.,0.,6.75));
#1787=CARTESIAN_POINT('Origin',(-10.3445850295358,-1.79987793105654,7.125));
#1788=CARTESIAN_POINT('',(-10.4695484115132,-3.79597015166278,6.75));
#1789=CARTESIAN_POINT('Origin',(-10.3445850295358,-1.79987793105654,6.75));
#1790=CARTESIAN_POINT('',(-10.4226871432717,-3.04743556893544,7.5));
#1791=CARTESIAN_POINT('',(-10.4695484115132,-3.79597015166278,6.75));
#1792=CARTESIAN_POINT('Origin',(-10.3445850295358,-1.79987793105654,7.5));
#1793=CARTESIAN_POINT('Origin',(-10.7194751754681,-7.78815459287527,7.125));
#1794=CARTESIAN_POINT('',(-6.84545053098961,-8.78411295243336,6.75));
#1795=CARTESIAN_POINT('',(-6.1190709101499,-8.9708551448505,7.5));
#1796=CARTESIAN_POINT('',(-6.84545053098961,-8.78411295243336,6.75));
#1797=CARTESIAN_POINT('Origin',(-10.7194751754681,-7.78815459287527,7.5));
#1798=CARTESIAN_POINT('Origin',(-10.7194751754681,-7.78815459287527,6.75));
#1799=CARTESIAN_POINT('Origin',(-4.90843820875038,-9.2820921322124,7.125));
#1800=CARTESIAN_POINT('',(-5.84337881994093,-11.0501096812052,6.75));
#1801=CARTESIAN_POINT('Origin',(-4.90843820875038,-9.2820921322124,6.75));
#1802=CARTESIAN_POINT('',(-5.49277609074447,-10.3871031003329,7.5));
#1803=CARTESIAN_POINT('',(-5.84337881994093,-11.0501096812052,6.75));
#1804=CARTESIAN_POINT('Origin',(-4.90843820875038,-9.2820921322124,7.5));
#1805=CARTESIAN_POINT('Origin',(0.,0.,7.125));
#1806=CARTESIAN_POINT('',(-1.76769873692389,-12.3743784157216,6.75));
#1807=CARTESIAN_POINT('',(-1.66163681270845,-11.6319157107783,7.5));
#1808=CARTESIAN_POINT('',(-1.76769873692389,-12.3743784157216,6.75));
#1809=CARTESIAN_POINT('Origin',(0.,0.,7.5));
#1810=CARTESIAN_POINT('Origin',(0.,0.,6.75));
#1811=CARTESIAN_POINT('Origin',(-1.48486693901606,-10.3944778692062,7.125));
#1812=CARTESIAN_POINT('',(0.374913765811974,-11.1301515264411,6.75));
#1813=CARTESIAN_POINT('Origin',(-1.48486693901606,-10.3944778692062,6.75));
#1814=CARTESIAN_POINT('',(-0.322503998498541,-10.854273904978,7.5));
#1815=CARTESIAN_POINT('',(0.374913765811974,-11.1301515264411,6.75));
#1816=CARTESIAN_POINT('Origin',(-1.48486693901606,-10.3944778692062,7.5));
#1817=CARTESIAN_POINT('Origin',(4.09447517546805,-12.6014988409108,7.125));
#1818=CARTESIAN_POINT('',(6.23882731505561,-9.22485051728479,6.75));
#1819=CARTESIAN_POINT('',(6.64089334122827,-8.59172895660491,7.5));
#1820=CARTESIAN_POINT('',(6.23882731505561,-9.22485051728479,6.75));
#1821=CARTESIAN_POINT('Origin',(4.09447517546805,-12.6014988409108,7.5));
#1822=CARTESIAN_POINT('Origin',(4.09447517546805,-12.6014988409108,6.75));
#1823=CARTESIAN_POINT('Origin',(7.31100338484939,-7.53652635547179,7.125));
#1824=CARTESIAN_POINT('',(8.70357545815403,-8.97205518508546,6.75));
#1825=CARTESIAN_POINT('Origin',(7.31100338484939,-7.53652635547179,6.75));
#1826=CARTESIAN_POINT('',(8.18136093066479,-8.43373187398033,7.5));
#1827=CARTESIAN_POINT('',(8.70357545815403,-8.97205518508546,6.75));
#1828=CARTESIAN_POINT('Origin',(7.31100338484939,-7.53652635547179,7.5));
#1829=CARTESIAN_POINT('Origin',(0.,0.,7.125));
#1830=CARTESIAN_POINT('',(10.5491352201258,-5.17477015020974,7.5));
#1831=CARTESIAN_POINT('',(11.2224842767296,-5.5050746278827,6.75));
#1832=CARTESIAN_POINT('Origin',(0.,0.,7.5));
#1833=CARTESIAN_POINT('Origin',(0.,0.,6.75));
#1834=CARTESIAN_POINT('Origin',(9.42688679245283,-4.62426268742147,7.125));
#1835=CARTESIAN_POINT('',(10.2233687106918,-3.66087462754199,7.5));
#1836=CARTESIAN_POINT('',(10.7012578616352,-3.08284179161431,6.75));
#1837=CARTESIAN_POINT('Origin',(9.42688679245283,-4.62426268742147,7.5));
#1838=CARTESIAN_POINT('Origin',(13.25,0.,7.125));
#1839=CARTESIAN_POINT('',(10.2233687106918,3.66087462754199,7.5));
#1840=CARTESIAN_POINT('',(10.7012578616352,3.08284179161431,6.75));
#1841=CARTESIAN_POINT('Origin',(13.25,0.,7.5));
#1842=CARTESIAN_POINT('Origin',(9.42688679245283,4.62426268742147,7.125));
#1843=CARTESIAN_POINT('',(10.5491352201258,5.17477015020973,7.5));
#1844=CARTESIAN_POINT('',(11.2224842767296,5.5050746278827,6.75));
#1845=CARTESIAN_POINT('Origin',(9.42688679245283,4.62426268742147,7.5));
#1846=CARTESIAN_POINT('Origin',(0.,0.,7.125));
#1847=CARTESIAN_POINT('',(8.18136093066479,8.43373187398033,7.5));
#1848=CARTESIAN_POINT('',(8.70357545815403,8.97205518508546,6.75));
#1849=CARTESIAN_POINT('Origin',(0.,0.,7.5));
#1850=CARTESIAN_POINT('Origin',(7.31100338484939,7.53652635547178,7.125));
#1851=CARTESIAN_POINT('Origin',(7.31100338484939,7.53652635547178,7.5));
#1852=CARTESIAN_POINT('Origin',(-4.90843820875038,-9.2820921322124,0.));
#1853=CARTESIAN_POINT('',(-5.84337881994093,-11.0501096812052,0.));
#1854=CARTESIAN_POINT('',(-6.84545053098961,-8.78411295243336,0.));
#1855=CARTESIAN_POINT('Origin',(-10.7194751754681,-7.78815459287527,0.));
#1856=CARTESIAN_POINT('',(-10.4695484115132,-3.79597015166278,0.));
#1857=CARTESIAN_POINT('Origin',(-10.3445850295358,-1.79987793105654,0.));
#1858=CARTESIAN_POINT('',(-12.3149821780188,-2.14271182268635,0.));
#1859=CARTESIAN_POINT('Origin',(0.,0.,0.));
#1860=CARTESIAN_POINT('',(-12.3149821780188,2.14271182268636,0.));
#1861=CARTESIAN_POINT('Origin',(-10.3445850295358,1.79987793105654,0.));
#1862=CARTESIAN_POINT('Origin',(-0.29127358490566,0.,7.5));
#1863=CARTESIAN_POINT('Origin',(0.,0.,0.));
#1864=CARTESIAN_POINT('',(-1.76769873692389,-12.3743784157216,0.));
#1865=CARTESIAN_POINT('Origin',(-1.48486693901606,-10.3944778692062,0.));
#1866=CARTESIAN_POINT('',(0.374913765811974,-11.1301515264411,0.));
#1867=CARTESIAN_POINT('Origin',(4.09447517546805,-12.6014988409108,0.));
#1868=CARTESIAN_POINT('',(6.23882731505561,-9.22485051728479,0.));
#1869=CARTESIAN_POINT('Origin',(7.31100338484939,-7.53652635547179,0.));
#1870=CARTESIAN_POINT('',(8.70357545815403,-8.97205518508546,0.));
#1871=CARTESIAN_POINT('Origin',(0.,0.,0.));
#1872=CARTESIAN_POINT('Origin',(0.,0.,0.));
#1873=CARTESIAN_POINT('',(-2.,-2.44929359829471E-16,0.));
#1874=UNCERTAINTY_MEASURE_WITH_UNIT(LENGTH_MEASURE(0.01),#1878,
'DISTANCE_ACCURACY_VALUE',
'Maximum model space distance between geometric entities at asserted c
onnectivities');
#1875=UNCERTAINTY_MEASURE_WITH_UNIT(LENGTH_MEASURE(0.01),#1878,
'DISTANCE_ACCURACY_VALUE',
'Maximum model space distance between geometric entities at asserted c
onnectivities');
#1876=(
GEOMETRIC_REPRESENTATION_CONTEXT(3)
GLOBAL_UNCERTAINTY_ASSIGNED_CONTEXT((#1874))
GLOBAL_UNIT_ASSIGNED_CONTEXT((#1878,#1880,#1881))
REPRESENTATION_CONTEXT('','3D')
);
#1877=(
GEOMETRIC_REPRESENTATION_CONTEXT(3)
GLOBAL_UNCERTAINTY_ASSIGNED_CONTEXT((#1875))
GLOBAL_UNIT_ASSIGNED_CONTEXT((#1878,#1880,#1881))
REPRESENTATION_CONTEXT('','3D')
);
#1878=(
LENGTH_UNIT()
NAMED_UNIT(*)
SI_UNIT(.MILLI.,.METRE.)
);
#1879=(
LENGTH_UNIT()
NAMED_UNIT(*)
SI_UNIT($,.METRE.)
);
#1880=(
NAMED_UNIT(*)
PLANE_ANGLE_UNIT()
SI_UNIT($,.RADIAN.)
);
#1881=(
NAMED_UNIT(*)
SI_UNIT($,.STERADIAN.)
SOLID_ANGLE_UNIT()
);
#1882=SHAPE_DEFINITION_REPRESENTATION(#1883,#1884);
#1883=PRODUCT_DEFINITION_SHAPE('',$,#1886);
#1884=SHAPE_REPRESENTATION('',(#1064),#1876);
#1885=PRODUCT_DEFINITION_CONTEXT('part definition',#1890,'design');
#1886=PRODUCT_DEFINITION('Knob_03','Knob_03',#1887,#1885);
#1887=PRODUCT_DEFINITION_FORMATION('',$,#1892);
#1888=PRODUCT_RELATED_PRODUCT_CATEGORY('Knob_03','Knob_03',(#1892));
#1889=APPLICATION_PROTOCOL_DEFINITION('international standard',
'automotive_design',2009,#1890);
#1890=APPLICATION_CONTEXT(
'Core Data for Automotive Mechanical Design Process');
#1891=PRODUCT_CONTEXT('part definition',#1890,'mechanical');
#1892=PRODUCT('Knob_03','Knob_03',$,(#1891));
#1893=PRESENTATION_STYLE_ASSIGNMENT((#1894));
#1894=SURFACE_STYLE_USAGE(.BOTH.,#1895);
#1895=SURFACE_SIDE_STYLE('',(#1896));
#1896=SURFACE_STYLE_FILL_AREA(#1897);
#1897=FILL_AREA_STYLE('Paint - Enamel Glossy (Green)',(#1898));
#1898=FILL_AREA_STYLE_COLOUR('Paint - Enamel Glossy (Green)',#1899);
#1899=COLOUR_RGB('Paint - Enamel Glossy (Green)',0.266666666666667,0.588235294117647,
0.282352941176471);
ENDSEC;
END-ISO-10303-21;
