ISO-10303-21;
HEADER;
/* Generated by software containing ST-Developer
 * from STEP Tools, Inc. (www.steptools.com) 
 */

FILE_DESCRIPTION(
/* description */ (''),
/* implementation_level */ '2;1');

FILE_NAME(
/* name */ 'Cutterhead_Round_08.step',
/* time_stamp */ '2026-01-02T23:04:36-08:00',
/* author */ (''),
/* organization */ (''),
/* preprocessor_version */ 'ST-DEVELOPER v20.1',
/* originating_system */ 'Autodesk Translation Framework v14.21.0.0',
/* authorisation */ '');

FILE_SCHEMA (('AUTOMOTIVE_DESIGN { 1 0 10303 214 3 1 1 }'));
ENDSEC;

DATA;
#10=MECHANICAL_DESIGN_GEOMETRIC_PRESENTATION_REPRESENTATION('',(#13),#843);
#11=SHAPE_REPRESENTATION_RELATIONSHIP('SRR','None',#850,#12);
#12=ADVANCED_BREP_SHAPE_REPRESENTATION('',(#14),#842);
#13=STYLED_ITEM('',(#860),#14);
#14=MANIFOLD_SOLID_BREP('Body1',#364);
#15=B_SPLINE_CURVE_WITH_KNOTS('',3,(#562,#563,#564,#565,#566,#567,#568,
#569,#570,#571,#572,#573,#574,#575,#576,#577,#578,#579,#580,#581,#582,#583,
#584,#585,#586,#587,#588,#589,#590,#591,#592,#593,#594,#595),
 .UNSPECIFIED.,.T.,.F.,(4,2,2,2,2,2,2,2,2,2,2,2,2,2,2,2,4),(0.,0.0600637729625373,
0.120127545925075,0.19345376092477,0.266779975924465,0.334573576047575,
0.402367176170685,0.461588526629245,0.520809877087805,0.580031227546364,
0.639252578004924,0.707046178128034,0.774839778251144,0.848165993250839,
0.921492208250534,0.981555981213072,1.04161975417561),.UNSPECIFIED.);
#16=B_SPLINE_CURVE_WITH_KNOTS('',3,(#597,#598,#599,#600,#601,#602,#603,
#604,#605,#606,#607,#608,#609,#610,#611,#612,#613,#614,#615,#616,#617,#618,
#619,#620,#621,#622,#623,#624,#625,#626,#627,#628,#629,#630),
 .UNSPECIFIED.,.T.,.F.,(4,2,2,2,2,2,2,2,2,2,2,2,2,2,2,2,4),(0.,0.0600637729625373,
0.120127545925075,0.19345376092477,0.266779975924465,0.334573576047575,
0.402367176170685,0.461588526629245,0.520809877087805,0.580031227546364,
0.639252578004924,0.707046178128034,0.774839778251144,0.848165993250839,
0.921492208250535,0.981555981213072,1.04161975417561),.UNSPECIFIED.);
#17=B_SPLINE_CURVE_WITH_KNOTS('',3,(#633,#634,#635,#636,#637,#638,#639,
#640,#641,#642,#643,#644,#645,#646,#647,#648,#649,#650),.UNSPECIFIED.,.F.,
 .F.,(4,2,2,2,2,2,2,2,4),(0.,0.0428679312049303,0.0857358624098606,0.136026713183613,
0.186317563957366,0.239767354122205,0.293217144287045,0.336549629859351,
0.379882115431656),.UNSPECIFIED.);
#18=B_SPLINE_CURVE_WITH_KNOTS('',3,(#651,#652,#653,#654,#655,#656,#657,
#658,#659,#660,#661,#662,#663,#664,#665,#666,#667,#668),.UNSPECIFIED.,.F.,
 .F.,(4,2,2,2,2,2,2,2,4),(0.379882115431656,0.423214601003962,0.466547086576268,
0.519996876741107,0.573446666905946,0.623737517679699,0.674028368453452,
0.716896299658382,0.759764230863313),.UNSPECIFIED.);
#19=B_SPLINE_CURVE_WITH_KNOTS('',3,(#671,#672,#673,#674,#675,#676,#677,
#678,#679,#680,#681,#682,#683,#684,#685,#686,#687,#688),.UNSPECIFIED.,.F.,
 .F.,(4,2,2,2,2,2,2,2,4),(0.,0.0428679312049303,0.0857358624098606,0.136026713183613,
0.186317563957366,0.239767354122205,0.293217144287045,0.336549629859351,
0.379882115431656),.UNSPECIFIED.);
#20=B_SPLINE_CURVE_WITH_KNOTS('',3,(#689,#690,#691,#692,#693,#694,#695,
#696,#697,#698,#699,#700,#701,#702,#703,#704,#705,#706),.UNSPECIFIED.,.F.,
 .F.,(4,2,2,2,2,2,2,2,4),(0.379882115431656,0.423214601003962,0.466547086576268,
0.519996876741107,0.573446666905946,0.623737517679699,0.674028368453452,
0.716896299658382,0.759764230863313),.UNSPECIFIED.);
#21=B_SPLINE_CURVE_WITH_KNOTS('',3,(#732,#733,#734,#735,#736,#737,#738,
#739,#740,#741,#742,#743,#744,#745,#746,#747,#748,#749,#750,#751,#752,#753,
#754,#755,#756,#757),.UNSPECIFIED.,.F.,.F.,(4,2,2,2,2,2,2,2,2,2,2,2,4),
(0.,0.0459917652777042,0.0919835305554084,0.137182015051008,0.182380499546608,
0.227578984042208,0.272777468537808,0.318769233815512,0.364760999093216,
0.410752764370921,0.456744529648625,0.501943014144225,0.547141498639825),
 .UNSPECIFIED.);
#22=B_SPLINE_CURVE_WITH_KNOTS('',3,(#758,#759,#760,#761,#762,#763,#764,
#765,#766,#767),.UNSPECIFIED.,.F.,.F.,(4,2,2,2,4),(0.547141498639825,0.592339983135424,
0.637538467631024,0.683530232908728,0.729521998186433),.UNSPECIFIED.);
#23=B_SPLINE_CURVE_WITH_KNOTS('',3,(#773,#774,#775,#776,#777,#778,#779,
#780,#781,#782,#783,#784,#785,#786,#787,#788,#789,#790,#791,#792,#793,#794,
#795,#796,#797,#798),.UNSPECIFIED.,.F.,.F.,(4,2,2,2,2,2,2,2,2,2,2,2,4),
(0.,0.0459917652777042,0.0919835305554085,0.137182015051008,0.182380499546608,
0.227578984042208,0.272777468537808,0.318769233815512,0.364760999093216,
0.410752764370921,0.456744529648625,0.501943014144225,0.547141498639825),
 .UNSPECIFIED.);
#24=B_SPLINE_CURVE_WITH_KNOTS('',3,(#799,#800,#801,#802,#803,#804,#805,
#806,#807,#808),.UNSPECIFIED.,.F.,.F.,(4,2,2,2,4),(0.547141498639825,0.592339983135424,
0.637538467631024,0.683530232908728,0.729521998186433),.UNSPECIFIED.);
#25=CYLINDRICAL_SURFACE('',#391,11.2499999999911);
#26=CYLINDRICAL_SURFACE('',#404,10.3500000000052);
#27=CYLINDRICAL_SURFACE('',#406,1.15);
#28=CYLINDRICAL_SURFACE('',#407,1.15);
#29=CYLINDRICAL_SURFACE('',#408,1.5875);
#30=CYLINDRICAL_SURFACE('',#414,3.65);
#31=CYLINDRICAL_SURFACE('',#420,6.55000000000165);
#32=CYLINDRICAL_SURFACE('',#421,8.55000000000568);
#33=CYLINDRICAL_SURFACE('',#424,6.54999999999948);
#34=FACE_BOUND('',#106,.T.);
#35=FACE_BOUND('',#109,.T.);
#36=FACE_BOUND('',#110,.T.);
#37=FACE_BOUND('',#111,.T.);
#38=FACE_BOUND('',#112,.T.);
#39=FACE_BOUND('',#121,.T.);
#40=FACE_BOUND('',#122,.T.);
#41=FACE_BOUND('',#124,.T.);
#42=FACE_BOUND('',#129,.T.);
#43=FACE_BOUND('',#133,.T.);
#44=PLANE('',#385);
#45=PLANE('',#409);
#46=PLANE('',#418);
#47=PLANE('',#422);
#48=LINE('',#547,#62);
#49=LINE('',#560,#63);
#50=LINE('',#714,#64);
#51=LINE('',#723,#65);
#52=LINE('',#728,#66);
#53=LINE('',#768,#67);
#54=LINE('',#771,#68);
#55=LINE('',#810,#69);
#56=LINE('',#818,#70);
#57=LINE('',#822,#71);
#58=LINE('',#826,#72);
#59=LINE('',#832,#73);
#60=LINE('',#834,#74);
#61=LINE('',#839,#75);
#62=VECTOR('',#441,9.66249999998674);
#63=VECTOR('',#458,11.2499999999911);
#64=VECTOR('',#469,9.9000000000028);
#65=VECTOR('',#480,9.45000000000497);
#66=VECTOR('',#487,10.3500000000052);
#67=VECTOR('',#490,1.15);
#68=VECTOR('',#493,1.15);
#69=VECTOR('',#496,1.5875);
#70=VECTOR('',#505,4.10000000000001);
#71=VECTOR('',#510,3.65);
#72=VECTOR('',#515,4.10000000000082);
#73=VECTOR('',#524,6.55000000000165);
#74=VECTOR('',#527,8.55000000000568);
#75=VECTOR('',#534,6.54999999999948);
#76=CONICAL_SURFACE('',#383,9.66249999998674,0.785398163398831);
#77=CONICAL_SURFACE('',#396,9.9000000000028,1.36135681655385);
#78=CONICAL_SURFACE('',#402,9.45000000000497,1.36135681655553);
#79=CONICAL_SURFACE('',#412,4.10000000000001,0.698131700797735);
#80=CONICAL_SURFACE('',#416,4.10000000000082,0.872664625997165);
#81=FACE_OUTER_BOUND('',#103,.T.);
#82=FACE_OUTER_BOUND('',#104,.T.);
#83=FACE_OUTER_BOUND('',#105,.T.);
#84=FACE_OUTER_BOUND('',#107,.T.);
#85=FACE_OUTER_BOUND('',#108,.T.);
#86=FACE_OUTER_BOUND('',#113,.T.);
#87=FACE_OUTER_BOUND('',#114,.T.);
#88=FACE_OUTER_BOUND('',#115,.T.);
#89=FACE_OUTER_BOUND('',#116,.T.);
#90=FACE_OUTER_BOUND('',#117,.T.);
#91=FACE_OUTER_BOUND('',#118,.T.);
#92=FACE_OUTER_BOUND('',#119,.T.);
#93=FACE_OUTER_BOUND('',#120,.T.);
#94=FACE_OUTER_BOUND('',#123,.T.);
#95=FACE_OUTER_BOUND('',#125,.T.);
#96=FACE_OUTER_BOUND('',#126,.T.);
#97=FACE_OUTER_BOUND('',#127,.T.);
#98=FACE_OUTER_BOUND('',#128,.T.);
#99=FACE_OUTER_BOUND('',#130,.T.);
#100=FACE_OUTER_BOUND('',#131,.T.);
#101=FACE_OUTER_BOUND('',#132,.T.);
#102=FACE_OUTER_BOUND('',#134,.T.);
#103=EDGE_LOOP('',(#240,#241,#242,#243,#244));
#104=EDGE_LOOP('',(#245,#246,#247,#248,#249));
#105=EDGE_LOOP('',(#250));
#106=EDGE_LOOP('',(#251));
#107=EDGE_LOOP('',(#252,#253,#254,#255,#256));
#108=EDGE_LOOP('',(#257,#258,#259,#260,#261));
#109=EDGE_LOOP('',(#262));
#110=EDGE_LOOP('',(#263));
#111=EDGE_LOOP('',(#264,#265));
#112=EDGE_LOOP('',(#266,#267));
#113=EDGE_LOOP('',(#268,#269,#270,#271));
#114=EDGE_LOOP('',(#272,#273,#274,#275));
#115=EDGE_LOOP('',(#276,#277,#278,#279));
#116=EDGE_LOOP('',(#280,#281,#282,#283));
#117=EDGE_LOOP('',(#284,#285,#286,#287));
#118=EDGE_LOOP('',(#288,#289,#290,#291,#292,#293));
#119=EDGE_LOOP('',(#294,#295,#296,#297,#298,#299));
#120=EDGE_LOOP('',(#300,#301,#302,#303));
#121=EDGE_LOOP('',(#304,#305));
#122=EDGE_LOOP('',(#306,#307));
#123=EDGE_LOOP('',(#308));
#124=EDGE_LOOP('',(#309));
#125=EDGE_LOOP('',(#310,#311,#312,#313));
#126=EDGE_LOOP('',(#314,#315,#316,#317));
#127=EDGE_LOOP('',(#318,#319,#320,#321));
#128=EDGE_LOOP('',(#322));
#129=EDGE_LOOP('',(#323));
#130=EDGE_LOOP('',(#324,#325,#326,#327));
#131=EDGE_LOOP('',(#328,#329,#330,#331));
#132=EDGE_LOOP('',(#332));
#133=EDGE_LOOP('',(#333));
#134=EDGE_LOOP('',(#334,#335,#336,#337));
#135=CIRCLE('',#379,8.44111652349896);
#136=CIRCLE('',#380,1.25);
#137=CIRCLE('',#381,7.55723304701699);
#138=CIRCLE('',#382,8.44111652349896);
#139=CIRCLE('',#384,10.5154238072045);
#140=CIRCLE('',#386,6.55000000000165);
#141=CIRCLE('',#388,2.508);
#142=CIRCLE('',#389,11.2499999999911);
#143=CIRCLE('',#390,11.2499999999911);
#144=CIRCLE('',#392,11.2499999999911);
#145=CIRCLE('',#394,10.2202851980564);
#146=CIRCLE('',#395,1.3);
#147=CIRCLE('',#397,8.55000000000569);
#148=CIRCLE('',#399,10.3500000000052);
#149=CIRCLE('',#400,0.4);
#150=CIRCLE('',#401,10.0331646763324);
#151=CIRCLE('',#403,8.55000000000567);
#152=CIRCLE('',#405,10.3500000000062);
#153=CIRCLE('',#410,6.55000000000001);
#154=CIRCLE('',#411,4.55000000000001);
#155=CIRCLE('',#413,3.65);
#156=CIRCLE('',#415,3.65);
#157=CIRCLE('',#417,4.55000000000165);
#158=CIRCLE('',#419,6.55000000000165);
#159=CIRCLE('',#423,6.54999999999894);
#160=VERTEX_POINT('',#537);
#161=VERTEX_POINT('',#538);
#162=VERTEX_POINT('',#540);
#163=VERTEX_POINT('',#545);
#164=VERTEX_POINT('',#549);
#165=VERTEX_POINT('',#552);
#166=VERTEX_POINT('',#554);
#167=VERTEX_POINT('',#558);
#168=VERTEX_POINT('',#561);
#169=VERTEX_POINT('',#596);
#170=VERTEX_POINT('',#631);
#171=VERTEX_POINT('',#632);
#172=VERTEX_POINT('',#669);
#173=VERTEX_POINT('',#670);
#174=VERTEX_POINT('',#708);
#175=VERTEX_POINT('',#712);
#176=VERTEX_POINT('',#716);
#177=VERTEX_POINT('',#718);
#178=VERTEX_POINT('',#722);
#179=VERTEX_POINT('',#726);
#180=VERTEX_POINT('',#730);
#181=VERTEX_POINT('',#731);
#182=VERTEX_POINT('',#770);
#183=VERTEX_POINT('',#772);
#184=VERTEX_POINT('',#812);
#185=VERTEX_POINT('',#814);
#186=VERTEX_POINT('',#817);
#187=VERTEX_POINT('',#821);
#188=VERTEX_POINT('',#825);
#189=VERTEX_POINT('',#829);
#190=VERTEX_POINT('',#836);
#191=EDGE_CURVE('',#160,#161,#135,.T.);
#192=EDGE_CURVE('',#161,#162,#136,.T.);
#193=EDGE_CURVE('',#162,#162,#137,.T.);
#194=EDGE_CURVE('',#161,#160,#138,.T.);
#195=EDGE_CURVE('',#163,#163,#139,.T.);
#196=EDGE_CURVE('',#163,#160,#48,.T.);
#197=EDGE_CURVE('',#164,#164,#140,.T.);
#198=EDGE_CURVE('',#163,#165,#141,.T.);
#199=EDGE_CURVE('',#165,#166,#142,.T.);
#200=EDGE_CURVE('',#166,#165,#143,.T.);
#201=EDGE_CURVE('',#167,#167,#144,.T.);
#202=EDGE_CURVE('',#167,#166,#49,.T.);
#203=EDGE_CURVE('',#168,#168,#15,.T.);
#204=EDGE_CURVE('',#169,#169,#16,.T.);
#205=EDGE_CURVE('',#170,#171,#17,.T.);
#206=EDGE_CURVE('',#171,#170,#18,.T.);
#207=EDGE_CURVE('',#172,#173,#19,.T.);
#208=EDGE_CURVE('',#173,#172,#20,.T.);
#209=EDGE_CURVE('',#174,#174,#145,.T.);
#210=EDGE_CURVE('',#174,#167,#146,.T.);
#211=EDGE_CURVE('',#175,#175,#147,.T.);
#212=EDGE_CURVE('',#175,#174,#50,.T.);
#213=EDGE_CURVE('',#176,#176,#148,.T.);
#214=EDGE_CURVE('',#176,#177,#149,.T.);
#215=EDGE_CURVE('',#177,#177,#150,.T.);
#216=EDGE_CURVE('',#177,#178,#51,.T.);
#217=EDGE_CURVE('',#178,#178,#151,.T.);
#218=EDGE_CURVE('',#179,#179,#152,.T.);
#219=EDGE_CURVE('',#179,#176,#52,.T.);
#220=EDGE_CURVE('',#180,#181,#21,.T.);
#221=EDGE_CURVE('',#181,#180,#22,.T.);
#222=EDGE_CURVE('',#181,#173,#53,.T.);
#223=EDGE_CURVE('',#171,#182,#54,.T.);
#224=EDGE_CURVE('',#183,#182,#23,.T.);
#225=EDGE_CURVE('',#182,#183,#24,.T.);
#226=EDGE_CURVE('',#168,#169,#55,.T.);
#227=EDGE_CURVE('',#184,#184,#153,.T.);
#228=EDGE_CURVE('',#185,#185,#154,.T.);
#229=EDGE_CURVE('',#185,#186,#56,.T.);
#230=EDGE_CURVE('',#186,#186,#155,.T.);
#231=EDGE_CURVE('',#186,#187,#57,.T.);
#232=EDGE_CURVE('',#187,#187,#156,.T.);
#233=EDGE_CURVE('',#187,#188,#58,.T.);
#234=EDGE_CURVE('',#188,#188,#157,.T.);
#235=EDGE_CURVE('',#189,#189,#158,.T.);
#236=EDGE_CURVE('',#189,#164,#59,.T.);
#237=EDGE_CURVE('',#178,#175,#60,.T.);
#238=EDGE_CURVE('',#190,#190,#159,.T.);
#239=EDGE_CURVE('',#190,#184,#61,.T.);
#240=ORIENTED_EDGE('',*,*,#191,.T.);
#241=ORIENTED_EDGE('',*,*,#192,.T.);
#242=ORIENTED_EDGE('',*,*,#193,.T.);
#243=ORIENTED_EDGE('',*,*,#192,.F.);
#244=ORIENTED_EDGE('',*,*,#194,.T.);
#245=ORIENTED_EDGE('',*,*,#195,.F.);
#246=ORIENTED_EDGE('',*,*,#196,.T.);
#247=ORIENTED_EDGE('',*,*,#194,.F.);
#248=ORIENTED_EDGE('',*,*,#191,.F.);
#249=ORIENTED_EDGE('',*,*,#196,.F.);
#250=ORIENTED_EDGE('',*,*,#193,.F.);
#251=ORIENTED_EDGE('',*,*,#197,.T.);
#252=ORIENTED_EDGE('',*,*,#195,.T.);
#253=ORIENTED_EDGE('',*,*,#198,.T.);
#254=ORIENTED_EDGE('',*,*,#199,.T.);
#255=ORIENTED_EDGE('',*,*,#200,.T.);
#256=ORIENTED_EDGE('',*,*,#198,.F.);
#257=ORIENTED_EDGE('',*,*,#201,.F.);
#258=ORIENTED_EDGE('',*,*,#202,.T.);
#259=ORIENTED_EDGE('',*,*,#199,.F.);
#260=ORIENTED_EDGE('',*,*,#200,.F.);
#261=ORIENTED_EDGE('',*,*,#202,.F.);
#262=ORIENTED_EDGE('',*,*,#203,.T.);
#263=ORIENTED_EDGE('',*,*,#204,.T.);
#264=ORIENTED_EDGE('',*,*,#205,.T.);
#265=ORIENTED_EDGE('',*,*,#206,.T.);
#266=ORIENTED_EDGE('',*,*,#207,.T.);
#267=ORIENTED_EDGE('',*,*,#208,.T.);
#268=ORIENTED_EDGE('',*,*,#209,.T.);
#269=ORIENTED_EDGE('',*,*,#210,.T.);
#270=ORIENTED_EDGE('',*,*,#201,.T.);
#271=ORIENTED_EDGE('',*,*,#210,.F.);
#272=ORIENTED_EDGE('',*,*,#211,.F.);
#273=ORIENTED_EDGE('',*,*,#212,.T.);
#274=ORIENTED_EDGE('',*,*,#209,.F.);
#275=ORIENTED_EDGE('',*,*,#212,.F.);
#276=ORIENTED_EDGE('',*,*,#213,.T.);
#277=ORIENTED_EDGE('',*,*,#214,.T.);
#278=ORIENTED_EDGE('',*,*,#215,.T.);
#279=ORIENTED_EDGE('',*,*,#214,.F.);
#280=ORIENTED_EDGE('',*,*,#215,.F.);
#281=ORIENTED_EDGE('',*,*,#216,.T.);
#282=ORIENTED_EDGE('',*,*,#217,.T.);
#283=ORIENTED_EDGE('',*,*,#216,.F.);
#284=ORIENTED_EDGE('',*,*,#218,.F.);
#285=ORIENTED_EDGE('',*,*,#219,.T.);
#286=ORIENTED_EDGE('',*,*,#213,.F.);
#287=ORIENTED_EDGE('',*,*,#219,.F.);
#288=ORIENTED_EDGE('',*,*,#220,.F.);
#289=ORIENTED_EDGE('',*,*,#221,.F.);
#290=ORIENTED_EDGE('',*,*,#222,.T.);
#291=ORIENTED_EDGE('',*,*,#207,.F.);
#292=ORIENTED_EDGE('',*,*,#208,.F.);
#293=ORIENTED_EDGE('',*,*,#222,.F.);
#294=ORIENTED_EDGE('',*,*,#205,.F.);
#295=ORIENTED_EDGE('',*,*,#206,.F.);
#296=ORIENTED_EDGE('',*,*,#223,.T.);
#297=ORIENTED_EDGE('',*,*,#224,.F.);
#298=ORIENTED_EDGE('',*,*,#225,.F.);
#299=ORIENTED_EDGE('',*,*,#223,.F.);
#300=ORIENTED_EDGE('',*,*,#203,.F.);
#301=ORIENTED_EDGE('',*,*,#226,.T.);
#302=ORIENTED_EDGE('',*,*,#204,.F.);
#303=ORIENTED_EDGE('',*,*,#226,.F.);
#304=ORIENTED_EDGE('',*,*,#220,.T.);
#305=ORIENTED_EDGE('',*,*,#221,.T.);
#306=ORIENTED_EDGE('',*,*,#224,.T.);
#307=ORIENTED_EDGE('',*,*,#225,.T.);
#308=ORIENTED_EDGE('',*,*,#227,.T.);
#309=ORIENTED_EDGE('',*,*,#228,.F.);
#310=ORIENTED_EDGE('',*,*,#228,.T.);
#311=ORIENTED_EDGE('',*,*,#229,.T.);
#312=ORIENTED_EDGE('',*,*,#230,.F.);
#313=ORIENTED_EDGE('',*,*,#229,.F.);
#314=ORIENTED_EDGE('',*,*,#230,.T.);
#315=ORIENTED_EDGE('',*,*,#231,.T.);
#316=ORIENTED_EDGE('',*,*,#232,.F.);
#317=ORIENTED_EDGE('',*,*,#231,.F.);
#318=ORIENTED_EDGE('',*,*,#232,.T.);
#319=ORIENTED_EDGE('',*,*,#233,.T.);
#320=ORIENTED_EDGE('',*,*,#234,.F.);
#321=ORIENTED_EDGE('',*,*,#233,.F.);
#322=ORIENTED_EDGE('',*,*,#235,.F.);
#323=ORIENTED_EDGE('',*,*,#234,.T.);
#324=ORIENTED_EDGE('',*,*,#235,.T.);
#325=ORIENTED_EDGE('',*,*,#236,.T.);
#326=ORIENTED_EDGE('',*,*,#197,.F.);
#327=ORIENTED_EDGE('',*,*,#236,.F.);
#328=ORIENTED_EDGE('',*,*,#217,.F.);
#329=ORIENTED_EDGE('',*,*,#237,.T.);
#330=ORIENTED_EDGE('',*,*,#211,.T.);
#331=ORIENTED_EDGE('',*,*,#237,.F.);
#332=ORIENTED_EDGE('',*,*,#218,.T.);
#333=ORIENTED_EDGE('',*,*,#238,.F.);
#334=ORIENTED_EDGE('',*,*,#238,.T.);
#335=ORIENTED_EDGE('',*,*,#239,.T.);
#336=ORIENTED_EDGE('',*,*,#227,.F.);
#337=ORIENTED_EDGE('',*,*,#239,.F.);
#338=TOROIDAL_SURFACE('',#378,7.55723304701699,1.25);
#339=TOROIDAL_SURFACE('',#387,8.74199999999113,2.508);
#340=TOROIDAL_SURFACE('',#393,9.94999999999113,1.3);
#341=TOROIDAL_SURFACE('',#398,9.95000000000525,0.4);
#342=ADVANCED_FACE('',(#81),#338,.T.);
#343=ADVANCED_FACE('',(#82),#76,.T.);
#344=ADVANCED_FACE('',(#83,#34),#44,.T.);
#345=ADVANCED_FACE('',(#84),#339,.T.);
#346=ADVANCED_FACE('',(#85,#35,#36,#37,#38),#25,.T.);
#347=ADVANCED_FACE('',(#86),#340,.T.);
#348=ADVANCED_FACE('',(#87),#77,.T.);
#349=ADVANCED_FACE('',(#88),#341,.T.);
#350=ADVANCED_FACE('',(#89),#78,.T.);
#351=ADVANCED_FACE('',(#90),#26,.T.);
#352=ADVANCED_FACE('',(#91),#27,.F.);
#353=ADVANCED_FACE('',(#92),#28,.F.);
#354=ADVANCED_FACE('',(#93,#39,#40),#29,.F.);
#355=ADVANCED_FACE('',(#94,#41),#45,.T.);
#356=ADVANCED_FACE('',(#95),#79,.F.);
#357=ADVANCED_FACE('',(#96),#30,.F.);
#358=ADVANCED_FACE('',(#97),#80,.F.);
#359=ADVANCED_FACE('',(#98,#42),#46,.T.);
#360=ADVANCED_FACE('',(#99),#31,.F.);
#361=ADVANCED_FACE('',(#100),#32,.T.);
#362=ADVANCED_FACE('',(#101,#43),#47,.T.);
#363=ADVANCED_FACE('',(#102),#33,.F.);
#364=CLOSED_SHELL('',(#342,#343,#344,#345,#346,#347,#348,#349,#350,#351,
#352,#353,#354,#355,#356,#357,#358,#359,#360,#361,#362,#363));
#365=DERIVED_UNIT_ELEMENT(#367,1.);
#366=DERIVED_UNIT_ELEMENT(#845,-3.);
#367=(
MASS_UNIT()
NAMED_UNIT(*)
SI_UNIT(.KILO.,.GRAM.)
);
#368=DERIVED_UNIT((#365,#366));
#369=MEASURE_REPRESENTATION_ITEM('density measure',
POSITIVE_RATIO_MEASURE(7850.),#368);
#370=PROPERTY_DEFINITION_REPRESENTATION(#375,#372);
#371=PROPERTY_DEFINITION_REPRESENTATION(#376,#373);
#372=REPRESENTATION('material name',(#374),#842);
#373=REPRESENTATION('density',(#369),#842);
#374=DESCRIPTIVE_REPRESENTATION_ITEM('Steel','Steel');
#375=PROPERTY_DEFINITION('material property','material name',#852);
#376=PROPERTY_DEFINITION('material property','density of part',#852);
#377=AXIS2_PLACEMENT_3D('',#535,#425,#426);
#378=AXIS2_PLACEMENT_3D('',#536,#427,#428);
#379=AXIS2_PLACEMENT_3D('',#539,#429,#430);
#380=AXIS2_PLACEMENT_3D('',#541,#431,#432);
#381=AXIS2_PLACEMENT_3D('',#542,#433,#434);
#382=AXIS2_PLACEMENT_3D('',#543,#435,#436);
#383=AXIS2_PLACEMENT_3D('',#544,#437,#438);
#384=AXIS2_PLACEMENT_3D('',#546,#439,#440);
#385=AXIS2_PLACEMENT_3D('',#548,#442,#443);
#386=AXIS2_PLACEMENT_3D('',#550,#444,#445);
#387=AXIS2_PLACEMENT_3D('',#551,#446,#447);
#388=AXIS2_PLACEMENT_3D('',#553,#448,#449);
#389=AXIS2_PLACEMENT_3D('',#555,#450,#451);
#390=AXIS2_PLACEMENT_3D('',#556,#452,#453);
#391=AXIS2_PLACEMENT_3D('',#557,#454,#455);
#392=AXIS2_PLACEMENT_3D('',#559,#456,#457);
#393=AXIS2_PLACEMENT_3D('',#707,#459,#460);
#394=AXIS2_PLACEMENT_3D('',#709,#461,#462);
#395=AXIS2_PLACEMENT_3D('',#710,#463,#464);
#396=AXIS2_PLACEMENT_3D('',#711,#465,#466);
#397=AXIS2_PLACEMENT_3D('',#713,#467,#468);
#398=AXIS2_PLACEMENT_3D('',#715,#470,#471);
#399=AXIS2_PLACEMENT_3D('',#717,#472,#473);
#400=AXIS2_PLACEMENT_3D('',#719,#474,#475);
#401=AXIS2_PLACEMENT_3D('',#720,#476,#477);
#402=AXIS2_PLACEMENT_3D('',#721,#478,#479);
#403=AXIS2_PLACEMENT_3D('',#724,#481,#482);
#404=AXIS2_PLACEMENT_3D('',#725,#483,#484);
#405=AXIS2_PLACEMENT_3D('',#727,#485,#486);
#406=AXIS2_PLACEMENT_3D('',#729,#488,#489);
#407=AXIS2_PLACEMENT_3D('',#769,#491,#492);
#408=AXIS2_PLACEMENT_3D('',#809,#494,#495);
#409=AXIS2_PLACEMENT_3D('',#811,#497,#498);
#410=AXIS2_PLACEMENT_3D('',#813,#499,#500);
#411=AXIS2_PLACEMENT_3D('',#815,#501,#502);
#412=AXIS2_PLACEMENT_3D('',#816,#503,#504);
#413=AXIS2_PLACEMENT_3D('',#819,#506,#507);
#414=AXIS2_PLACEMENT_3D('',#820,#508,#509);
#415=AXIS2_PLACEMENT_3D('',#823,#511,#512);
#416=AXIS2_PLACEMENT_3D('',#824,#513,#514);
#417=AXIS2_PLACEMENT_3D('',#827,#516,#517);
#418=AXIS2_PLACEMENT_3D('',#828,#518,#519);
#419=AXIS2_PLACEMENT_3D('',#830,#520,#521);
#420=AXIS2_PLACEMENT_3D('',#831,#522,#523);
#421=AXIS2_PLACEMENT_3D('',#833,#525,#526);
#422=AXIS2_PLACEMENT_3D('',#835,#528,#529);
#423=AXIS2_PLACEMENT_3D('',#837,#530,#531);
#424=AXIS2_PLACEMENT_3D('',#838,#532,#533);
#425=DIRECTION('axis',(0.,0.,1.));
#426=DIRECTION('refdir',(1.,0.,0.));
#427=DIRECTION('center_axis',(0.,0.,1.));
#428=DIRECTION('ref_axis',(1.,0.,0.));
#429=DIRECTION('center_axis',(0.,0.,-1.));
#430=DIRECTION('ref_axis',(-1.,-6.12323399573677E-17,0.));
#431=DIRECTION('center_axis',(1.22464679914735E-16,-1.,0.));
#432=DIRECTION('ref_axis',(-1.,-1.22464679914735E-16,0.));
#433=DIRECTION('center_axis',(0.,0.,1.));
#434=DIRECTION('ref_axis',(-1.,0.,0.));
#435=DIRECTION('center_axis',(0.,0.,-1.));
#436=DIRECTION('ref_axis',(-1.,-6.12323399573677E-17,0.));
#437=DIRECTION('center_axis',(0.,0.,1.));
#438=DIRECTION('ref_axis',(-1.,0.,0.));
#439=DIRECTION('center_axis',(0.,0.,1.));
#440=DIRECTION('ref_axis',(-1.,-6.12323399573677E-17,0.));
#441=DIRECTION('',(-0.707106781187525,-8.65956056236691E-17,-0.70710678118557));
#442=DIRECTION('center_axis',(0.,0.,-1.));
#443=DIRECTION('ref_axis',(-1.,0.,0.));
#444=DIRECTION('center_axis',(0.,0.,1.));
#445=DIRECTION('ref_axis',(1.,0.,0.));
#446=DIRECTION('center_axis',(0.,0.,-1.));
#447=DIRECTION('ref_axis',(-1.,0.,0.));
#448=DIRECTION('center_axis',(-1.22464679914735E-16,-1.,0.));
#449=DIRECTION('ref_axis',(1.,-1.22464679914735E-16,0.));
#450=DIRECTION('center_axis',(0.,0.,-1.));
#451=DIRECTION('ref_axis',(-1.,0.,0.));
#452=DIRECTION('center_axis',(0.,0.,-1.));
#453=DIRECTION('ref_axis',(-1.,0.,0.));
#454=DIRECTION('center_axis',(0.,0.,1.));
#455=DIRECTION('ref_axis',(1.,0.,0.));
#456=DIRECTION('center_axis',(0.,0.,1.));
#457=DIRECTION('ref_axis',(-1.,1.22464679914735E-16,0.));
#458=DIRECTION('',(0.,0.,-1.));
#459=DIRECTION('center_axis',(0.,0.,1.));
#460=DIRECTION('ref_axis',(1.,0.,0.));
#461=DIRECTION('center_axis',(0.,0.,-1.));
#462=DIRECTION('ref_axis',(-1.,0.,0.));
#463=DIRECTION('center_axis',(1.22464679914735E-16,-1.,0.));
#464=DIRECTION('ref_axis',(-1.,-1.22464679914735E-16,0.));
#465=DIRECTION('center_axis',(0.,0.,-1.));
#466=DIRECTION('ref_axis',(1.,0.,0.));
#467=DIRECTION('center_axis',(0.,0.,1.));
#468=DIRECTION('ref_axis',(1.,0.,0.));
#469=DIRECTION('',(-0.978147600733446,-1.19788532833188E-16,-0.20791169081945));
#470=DIRECTION('center_axis',(0.,0.,1.));
#471=DIRECTION('ref_axis',(1.,0.,0.));
#472=DIRECTION('center_axis',(0.,0.,-1.));
#473=DIRECTION('ref_axis',(-1.,1.22464679914735E-16,0.));
#474=DIRECTION('center_axis',(1.22464679914735E-16,-1.,0.));
#475=DIRECTION('ref_axis',(-1.,-1.22464679914735E-16,0.));
#476=DIRECTION('center_axis',(0.,0.,1.));
#477=DIRECTION('ref_axis',(-1.,0.,0.));
#478=DIRECTION('center_axis',(0.,0.,1.));
#479=DIRECTION('ref_axis',(1.,0.,0.));
#480=DIRECTION('',(0.978147600733795,1.19788532833231E-16,-0.207911690817807));
#481=DIRECTION('center_axis',(0.,0.,1.));
#482=DIRECTION('ref_axis',(1.,0.,0.));
#483=DIRECTION('center_axis',(0.,0.,1.));
#484=DIRECTION('ref_axis',(1.,0.,0.));
#485=DIRECTION('center_axis',(0.,0.,1.));
#486=DIRECTION('ref_axis',(1.,0.,0.));
#487=DIRECTION('',(0.,0.,-1.));
#488=DIRECTION('center_axis',(1.,0.,0.));
#489=DIRECTION('ref_axis',(0.,1.,0.));
#490=DIRECTION('',(1.,0.,0.));
#491=DIRECTION('center_axis',(-1.,0.,0.));
#492=DIRECTION('ref_axis',(0.,-1.,0.));
#493=DIRECTION('',(-1.,0.,0.));
#494=DIRECTION('center_axis',(0.,1.,0.));
#495=DIRECTION('ref_axis',(1.,0.,0.));
#496=DIRECTION('',(0.,1.,0.));
#497=DIRECTION('center_axis',(0.,0.,1.));
#498=DIRECTION('ref_axis',(1.,0.,0.));
#499=DIRECTION('center_axis',(0.,0.,1.));
#500=DIRECTION('ref_axis',(1.,0.,0.));
#501=DIRECTION('center_axis',(0.,0.,1.));
#502=DIRECTION('ref_axis',(1.,0.,0.));
#503=DIRECTION('center_axis',(0.,0.,1.));
#504=DIRECTION('ref_axis',(1.,0.,0.));
#505=DIRECTION('',(0.642787609686542,7.87187788734201E-17,-0.766044443118976));
#506=DIRECTION('center_axis',(0.,0.,1.));
#507=DIRECTION('ref_axis',(1.,0.,0.));
#508=DIRECTION('center_axis',(0.,0.,1.));
#509=DIRECTION('ref_axis',(1.,0.,0.));
#510=DIRECTION('',(0.,0.,-1.));
#511=DIRECTION('center_axis',(0.,0.,1.));
#512=DIRECTION('ref_axis',(1.,0.,0.));
#513=DIRECTION('center_axis',(0.,0.,-1.));
#514=DIRECTION('ref_axis',(1.,0.,0.));
#515=DIRECTION('',(-0.766044443118978,-9.38133875270273E-17,-0.642787609686539));
#516=DIRECTION('center_axis',(0.,0.,1.));
#517=DIRECTION('ref_axis',(1.,0.,0.));
#518=DIRECTION('center_axis',(0.,0.,-1.));
#519=DIRECTION('ref_axis',(-1.,0.,0.));
#520=DIRECTION('center_axis',(0.,0.,1.));
#521=DIRECTION('ref_axis',(1.,0.,0.));
#522=DIRECTION('center_axis',(0.,0.,1.));
#523=DIRECTION('ref_axis',(1.,0.,0.));
#524=DIRECTION('',(0.,0.,-1.));
#525=DIRECTION('center_axis',(0.,0.,1.));
#526=DIRECTION('ref_axis',(1.,0.,0.));
#527=DIRECTION('',(0.,0.,-1.));
#528=DIRECTION('center_axis',(0.,0.,1.));
#529=DIRECTION('ref_axis',(1.,0.,0.));
#530=DIRECTION('center_axis',(0.,0.,1.));
#531=DIRECTION('ref_axis',(1.,0.,0.));
#532=DIRECTION('center_axis',(0.,0.,1.));
#533=DIRECTION('ref_axis',(1.,0.,0.));
#534=DIRECTION('',(0.,0.,-1.));
#535=CARTESIAN_POINT('',(0.,0.,0.));
#536=CARTESIAN_POINT('Origin',(0.,0.,-4.9));
#537=CARTESIAN_POINT('',(8.44111652349896,0.,-5.78388347648441));
#538=CARTESIAN_POINT('',(-8.44111652349896,-1.03373863317328E-15,-5.78388347648441));
#539=CARTESIAN_POINT('Origin',(0.,5.16869316586641E-16,-5.78388347648441));
#540=CARTESIAN_POINT('',(-7.55723304701699,-9.25494126143996E-16,-6.15));
#541=CARTESIAN_POINT('Origin',(-7.55723304701699,-9.25494126143996E-16,
-4.9));
#542=CARTESIAN_POINT('Origin',(0.,0.,-6.15));
#543=CARTESIAN_POINT('Origin',(0.,5.16869316586641E-16,-5.78388347648441));
#544=CARTESIAN_POINT('Origin',(0.,0.,-4.5625));
#545=CARTESIAN_POINT('',(10.5154238072045,2.57553602143418E-15,-3.70957619278456));
#546=CARTESIAN_POINT('Origin',(0.,6.43884005358546E-16,-3.70957619278456));
#547=CARTESIAN_POINT('',(9.66249999998674,1.18331496967451E-15,-4.5625));
#548=CARTESIAN_POINT('Origin',(11.2499999999824,0.,-6.15));
#549=CARTESIAN_POINT('',(-6.55000000000165,-8.02143653441718E-16,-6.15));
#550=CARTESIAN_POINT('Origin',(0.,0.,-6.15));
#551=CARTESIAN_POINT('Origin',(0.,0.,-1.93615238556625));
#552=CARTESIAN_POINT('',(11.2499999999911,-1.37772764903969E-15,-1.93615238556625));
#553=CARTESIAN_POINT('Origin',(8.74199999999113,-1.07058623181353E-15,-1.93615238556625));
#554=CARTESIAN_POINT('',(-11.2499999999911,-1.37772764903969E-15,-1.93615238556625));
#555=CARTESIAN_POINT('Origin',(0.,0.,-1.93615238556625));
#556=CARTESIAN_POINT('Origin',(0.,0.,-1.93615238556625));
#557=CARTESIAN_POINT('Origin',(0.,0.,-1.14926932845015));
#558=CARTESIAN_POINT('',(-11.2499999999911,-1.37772764903969E-15,2.79874209994993));
#559=CARTESIAN_POINT('Origin',(0.,0.,2.79874209994993));
#560=CARTESIAN_POINT('',(-11.2499999999911,-1.37772764903969E-15,-1.14926932845015));
#561=CARTESIAN_POINT('',(-7.3375,-8.52781295232256,0.));
#562=CARTESIAN_POINT('Ctrl Pts',(-7.3375,-8.52781295232256,0.));
#563=CARTESIAN_POINT('Ctrl Pts',(-7.3375,-8.52781295232256,0.200212576541791));
#564=CARTESIAN_POINT('Ctrl Pts',(-7.29732518689929,-8.56277969945903,0.407927289068287));
#565=CARTESIAN_POINT('Ctrl Pts',(-7.14667698713694,-8.68891010750307,0.780969762518307));
#566=CARTESIAN_POINT('Ctrl Pts',(-7.03652611758336,-8.77912134757518,0.946748979049687));
#567=CARTESIAN_POINT('Ctrl Pts',(-6.76990733710463,-8.98695658174837,1.23557021573547));
#568=CARTESIAN_POINT('Ctrl Pts',(-6.58564773222777,-9.12426205055702,1.36768597299541));
#569=CARTESIAN_POINT('Ctrl Pts',(-6.18085565745724,-9.4031876174454,1.54377313953157));
#570=CARTESIAN_POINT('Ctrl Pts',(-5.96008318652915,-9.54461365882289,1.5875));
#571=CARTESIAN_POINT('Ctrl Pts',(-5.55576802525257,-9.78504001051378,1.5875));
#572=CARTESIAN_POINT('Ctrl Pts',(-5.3427999370781,-9.9029197759609,1.54966450237706));
#573=CARTESIAN_POINT('Ctrl Pts',(-4.94174677703121,-10.1090291267448,1.38347346059324));
#574=CARTESIAN_POINT('Ctrl Pts',(-4.75392403422221,-10.1975253533932,1.25481589744677));
#575=CARTESIAN_POINT('Ctrl Pts',(-4.47398780801456,-10.3231001682634,0.963062606830526));
#576=CARTESIAN_POINT('Ctrl Pts',(-4.3574979135318,-10.3721650138501,0.78981202099808));
#577=CARTESIAN_POINT('Ctrl Pts',(-4.20169930153694,-10.4362501836791,0.406977008088043));
#578=CARTESIAN_POINT('Ctrl Pts',(-4.1625,-10.4516072328518,0.197404501528533));
#579=CARTESIAN_POINT('Ctrl Pts',(-4.1625,-10.4516072328518,-0.197404501528533));
#580=CARTESIAN_POINT('Ctrl Pts',(-4.20169930153694,-10.4362501836791,-0.406977008088042));
#581=CARTESIAN_POINT('Ctrl Pts',(-4.3574979135318,-10.3721650138501,-0.789812020998079));
#582=CARTESIAN_POINT('Ctrl Pts',(-4.47398780801456,-10.3231001682634,-0.963062606830526));
#583=CARTESIAN_POINT('Ctrl Pts',(-4.75392403422221,-10.1975253533932,-1.25481589744677));
#584=CARTESIAN_POINT('Ctrl Pts',(-4.94174677703121,-10.1090291267448,-1.38347346059324));
#585=CARTESIAN_POINT('Ctrl Pts',(-5.3427999370781,-9.9029197759609,-1.54966450237706));
#586=CARTESIAN_POINT('Ctrl Pts',(-5.55576802525257,-9.78504001051378,-1.5875));
#587=CARTESIAN_POINT('Ctrl Pts',(-5.96008318652915,-9.54461365882289,-1.5875));
#588=CARTESIAN_POINT('Ctrl Pts',(-6.18085565745724,-9.4031876174454,-1.54377313953157));
#589=CARTESIAN_POINT('Ctrl Pts',(-6.58564773222777,-9.12426205055702,-1.36768597299541));
#590=CARTESIAN_POINT('Ctrl Pts',(-6.76990733710463,-8.98695658174837,-1.23557021573547));
#591=CARTESIAN_POINT('Ctrl Pts',(-7.03652611758336,-8.77912134757518,-0.946748979049688));
#592=CARTESIAN_POINT('Ctrl Pts',(-7.14667698713694,-8.68891010750307,-0.780969762518307));
#593=CARTESIAN_POINT('Ctrl Pts',(-7.29732518689929,-8.56277969945903,-0.407927289068287));
#594=CARTESIAN_POINT('Ctrl Pts',(-7.3375,-8.52781295232256,-0.20021257654179));
#595=CARTESIAN_POINT('Ctrl Pts',(-7.3375,-8.52781295232256,6.93889390390723E-16));
#596=CARTESIAN_POINT('',(-7.3375,8.52781295232256,-1.73472347597681E-17));
#597=CARTESIAN_POINT('Ctrl Pts',(-7.3375,8.52781295232256,-1.73472347597681E-17));
#598=CARTESIAN_POINT('Ctrl Pts',(-7.3375,8.52781295232256,-0.200212576541791));
#599=CARTESIAN_POINT('Ctrl Pts',(-7.29732518689929,8.56277969945903,-0.407927289068288));
#600=CARTESIAN_POINT('Ctrl Pts',(-7.14667698713694,8.68891010750307,-0.780969762518308));
#601=CARTESIAN_POINT('Ctrl Pts',(-7.03652611758336,8.77912134757518,-0.946748979049688));
#602=CARTESIAN_POINT('Ctrl Pts',(-6.76990733710463,8.98695658174837,-1.23557021573547));
#603=CARTESIAN_POINT('Ctrl Pts',(-6.58564773222777,9.12426205055702,-1.36768597299541));
#604=CARTESIAN_POINT('Ctrl Pts',(-6.18085565745724,9.4031876174454,-1.54377313953157));
#605=CARTESIAN_POINT('Ctrl Pts',(-5.96008318652915,9.54461365882289,-1.5875));
#606=CARTESIAN_POINT('Ctrl Pts',(-5.55576802525257,9.78504001051378,-1.5875));
#607=CARTESIAN_POINT('Ctrl Pts',(-5.3427999370781,9.9029197759609,-1.54966450237706));
#608=CARTESIAN_POINT('Ctrl Pts',(-4.9417467770312,10.1090291267448,-1.38347346059324));
#609=CARTESIAN_POINT('Ctrl Pts',(-4.75392403422221,10.1975253533932,-1.25481589744677));
#610=CARTESIAN_POINT('Ctrl Pts',(-4.47398780801456,10.3231001682634,-0.963062606830526));
#611=CARTESIAN_POINT('Ctrl Pts',(-4.3574979135318,10.3721650138501,-0.789812020998079));
#612=CARTESIAN_POINT('Ctrl Pts',(-4.20169930153694,10.4362501836791,-0.406977008088042));
#613=CARTESIAN_POINT('Ctrl Pts',(-4.1625,10.4516072328518,-0.197404501528533));
#614=CARTESIAN_POINT('Ctrl Pts',(-4.1625,10.4516072328518,0.197404501528533));
#615=CARTESIAN_POINT('Ctrl Pts',(-4.20169930153694,10.4362501836791,0.406977008088042));
#616=CARTESIAN_POINT('Ctrl Pts',(-4.3574979135318,10.3721650138501,0.789812020998079));
#617=CARTESIAN_POINT('Ctrl Pts',(-4.47398780801456,10.3231001682634,0.963062606830526));
#618=CARTESIAN_POINT('Ctrl Pts',(-4.75392403422221,10.1975253533932,1.25481589744677));
#619=CARTESIAN_POINT('Ctrl Pts',(-4.9417467770312,10.1090291267448,1.38347346059324));
#620=CARTESIAN_POINT('Ctrl Pts',(-5.3427999370781,9.9029197759609,1.54966450237706));
#621=CARTESIAN_POINT('Ctrl Pts',(-5.55576802525257,9.78504001051378,1.5875));
#622=CARTESIAN_POINT('Ctrl Pts',(-5.96008318652915,9.54461365882289,1.5875));
#623=CARTESIAN_POINT('Ctrl Pts',(-6.18085565745724,9.4031876174454,1.54377313953157));
#624=CARTESIAN_POINT('Ctrl Pts',(-6.58564773222777,9.12426205055702,1.36768597299541));
#625=CARTESIAN_POINT('Ctrl Pts',(-6.76990733710463,8.98695658174837,1.23557021573547));
#626=CARTESIAN_POINT('Ctrl Pts',(-7.03652611758336,8.77912134757518,0.946748979049687));
#627=CARTESIAN_POINT('Ctrl Pts',(-7.14667698713694,8.68891010750307,0.780969762518307));
#628=CARTESIAN_POINT('Ctrl Pts',(-7.29732518689929,8.56277969945903,0.407927289068287));
#629=CARTESIAN_POINT('Ctrl Pts',(-7.3375,8.52781295232256,0.20021257654179));
#630=CARTESIAN_POINT('Ctrl Pts',(-7.3375,8.52781295232256,-7.45931094670027E-16));
#631=CARTESIAN_POINT('',(10.1508620323498,4.85,3.46944695195361E-17));
#632=CARTESIAN_POINT('',(8.6856203002319,7.15,-1.39806129990045E-16));
#633=CARTESIAN_POINT('Ctrl Pts',(10.1508620323498,4.85,3.46944695195361E-17));
#634=CARTESIAN_POINT('Ctrl Pts',(10.1508620323498,4.85,0.142893104016434));
#635=CARTESIAN_POINT('Ctrl Pts',(10.1374509449444,4.87836631382836,0.294233263479456));
#636=CARTESIAN_POINT('Ctrl Pts',(10.0828834569154,4.99017343003292,0.569987296621506));
#637=CARTESIAN_POINT('Ctrl Pts',(10.0415645116452,5.07349727293572,0.694416390985963));
#638=CARTESIAN_POINT('Ctrl Pts',(9.93741124534412,5.27497383613738,0.906519481845249));
#639=CARTESIAN_POINT('Ctrl Pts',(9.86439011858035,5.41151030732272,1.00057467054037));
#640=CARTESIAN_POINT('Ctrl Pts',(9.69866868565456,5.70319752605053,1.12222013341723));
#641=CARTESIAN_POINT('Ctrl Pts',(9.60583911225784,5.85819569786272,1.15));
#642=CARTESIAN_POINT('Ctrl Pts',(9.42141130614464,6.15071151267269,1.15));
#643=CARTESIAN_POINT('Ctrl Pts',(9.3154258038491,6.31011228009136,1.11890672226404));
#644=CARTESIAN_POINT('Ctrl Pts',(9.10952086546692,6.60388556070382,0.991687494306679));
#645=CARTESIAN_POINT('Ctrl Pts',(9.00970726813298,6.73839055008169,0.895696248295283));
#646=CARTESIAN_POINT('Ctrl Pts',(8.86093380974521,6.93241193964259,0.685225792217087));
#647=CARTESIAN_POINT('Ctrl Pts',(8.79754179259991,7.01217917580609,0.564994316576454));
#648=CARTESIAN_POINT('Ctrl Pts',(8.70961558451503,7.12109505814734,0.294738806404603));
#649=CARTESIAN_POINT('Ctrl Pts',(8.6856203002319,7.15,0.144441618574353));
#650=CARTESIAN_POINT('Ctrl Pts',(8.6856203002319,7.15,1.38777878078145E-16));
#651=CARTESIAN_POINT('Ctrl Pts',(8.6856203002319,7.15,-1.38777878078145E-16));
#652=CARTESIAN_POINT('Ctrl Pts',(8.6856203002319,7.15,-0.144441618574353));
#653=CARTESIAN_POINT('Ctrl Pts',(8.70961558451503,7.12109505814734,-0.294738806404603));
#654=CARTESIAN_POINT('Ctrl Pts',(8.79754179259991,7.01217917580609,-0.564994316576454));
#655=CARTESIAN_POINT('Ctrl Pts',(8.86093380974521,6.93241193964259,-0.685225792217087));
#656=CARTESIAN_POINT('Ctrl Pts',(9.00970726813298,6.73839055008169,-0.895696248295284));
#657=CARTESIAN_POINT('Ctrl Pts',(9.10952086546692,6.60388556070382,-0.991687494306679));
#658=CARTESIAN_POINT('Ctrl Pts',(9.3154258038491,6.31011228009136,-1.11890672226404));
#659=CARTESIAN_POINT('Ctrl Pts',(9.42141130614464,6.15071151267269,-1.15));
#660=CARTESIAN_POINT('Ctrl Pts',(9.60583911225784,5.85819569786272,-1.15));
#661=CARTESIAN_POINT('Ctrl Pts',(9.69866868565456,5.70319752605053,-1.12222013341723));
#662=CARTESIAN_POINT('Ctrl Pts',(9.86439011858035,5.41151030732273,-1.00057467054037));
#663=CARTESIAN_POINT('Ctrl Pts',(9.93741124534412,5.27497383613738,-0.90651948184525));
#664=CARTESIAN_POINT('Ctrl Pts',(10.0415645116452,5.07349727293572,-0.694416390985963));
#665=CARTESIAN_POINT('Ctrl Pts',(10.0828834569154,4.99017343003292,-0.569987296621506));
#666=CARTESIAN_POINT('Ctrl Pts',(10.1374509449444,4.87836631382836,-0.294233263479456));
#667=CARTESIAN_POINT('Ctrl Pts',(10.1508620323498,4.85,-0.142893104016434));
#668=CARTESIAN_POINT('Ctrl Pts',(10.1508620323498,4.85,3.46944695195361E-17));
#669=CARTESIAN_POINT('',(10.1508620323498,-4.85,3.46944695195361E-17));
#670=CARTESIAN_POINT('',(8.6856203002319,-7.15,-1.83754866716687E-17));
#671=CARTESIAN_POINT('Ctrl Pts',(10.1508620323498,-4.85,1.04083408558608E-16));
#672=CARTESIAN_POINT('Ctrl Pts',(10.1508620323498,-4.85,-0.142893104016434));
#673=CARTESIAN_POINT('Ctrl Pts',(10.1374509449444,-4.87836631382836,-0.294233263479456));
#674=CARTESIAN_POINT('Ctrl Pts',(10.0828834569153,-4.99017343003292,-0.569987296621506));
#675=CARTESIAN_POINT('Ctrl Pts',(10.0415645116452,-5.07349727293572,-0.694416390985964));
#676=CARTESIAN_POINT('Ctrl Pts',(9.93741124534412,-5.27497383613738,-0.906519481845249));
#677=CARTESIAN_POINT('Ctrl Pts',(9.86439011858035,-5.41151030732272,-1.00057467054037));
#678=CARTESIAN_POINT('Ctrl Pts',(9.69866868565456,-5.70319752605053,-1.12222013341723));
#679=CARTESIAN_POINT('Ctrl Pts',(9.60583911225784,-5.85819569786272,-1.15));
#680=CARTESIAN_POINT('Ctrl Pts',(9.42141130614464,-6.15071151267269,-1.15));
#681=CARTESIAN_POINT('Ctrl Pts',(9.3154258038491,-6.31011228009136,-1.11890672226404));
#682=CARTESIAN_POINT('Ctrl Pts',(9.10952086546692,-6.60388556070382,-0.991687494306679));
#683=CARTESIAN_POINT('Ctrl Pts',(9.00970726813298,-6.73839055008169,-0.895696248295284));
#684=CARTESIAN_POINT('Ctrl Pts',(8.86093380974521,-6.93241193964259,-0.685225792217087));
#685=CARTESIAN_POINT('Ctrl Pts',(8.79754179259991,-7.01217917580609,-0.564994316576454));
#686=CARTESIAN_POINT('Ctrl Pts',(8.70961558451503,-7.12109505814734,-0.294738806404603));
#687=CARTESIAN_POINT('Ctrl Pts',(8.6856203002319,-7.15,-0.144441618574353));
#688=CARTESIAN_POINT('Ctrl Pts',(8.6856203002319,-7.15,-1.38777878078145E-16));
#689=CARTESIAN_POINT('Ctrl Pts',(8.6856203002319,-7.15,1.38777878078145E-16));
#690=CARTESIAN_POINT('Ctrl Pts',(8.6856203002319,-7.15,0.144441618574353));
#691=CARTESIAN_POINT('Ctrl Pts',(8.70961558451503,-7.12109505814734,0.294738806404603));
#692=CARTESIAN_POINT('Ctrl Pts',(8.79754179259991,-7.01217917580609,0.564994316576454));
#693=CARTESIAN_POINT('Ctrl Pts',(8.86093380974521,-6.93241193964259,0.685225792217087));
#694=CARTESIAN_POINT('Ctrl Pts',(9.00970726813298,-6.73839055008169,0.895696248295283));
#695=CARTESIAN_POINT('Ctrl Pts',(9.10952086546692,-6.60388556070382,0.991687494306679));
#696=CARTESIAN_POINT('Ctrl Pts',(9.3154258038491,-6.31011228009136,1.11890672226404));
#697=CARTESIAN_POINT('Ctrl Pts',(9.42141130614464,-6.15071151267269,1.15));
#698=CARTESIAN_POINT('Ctrl Pts',(9.60583911225784,-5.85819569786272,1.15));
#699=CARTESIAN_POINT('Ctrl Pts',(9.69866868565456,-5.70319752605053,1.12222013341723));
#700=CARTESIAN_POINT('Ctrl Pts',(9.86439011858035,-5.41151030732273,1.00057467054037));
#701=CARTESIAN_POINT('Ctrl Pts',(9.93741124534412,-5.27497383613738,0.906519481845249));
#702=CARTESIAN_POINT('Ctrl Pts',(10.0415645116452,-5.07349727293572,0.694416390985963));
#703=CARTESIAN_POINT('Ctrl Pts',(10.0828834569154,-4.99017343003292,0.569987296621506));
#704=CARTESIAN_POINT('Ctrl Pts',(10.1374509449444,-4.87836631382836,0.294233263479456));
#705=CARTESIAN_POINT('Ctrl Pts',(10.1508620323498,-4.85,0.142893104016434));
#706=CARTESIAN_POINT('Ctrl Pts',(10.1508620323498,-4.85,6.93889390390723E-17));
#707=CARTESIAN_POINT('Origin',(0.,0.,2.79874209994993));
#708=CARTESIAN_POINT('',(-10.2202851980564,-1.25162395541729E-15,4.07033398090341));
#709=CARTESIAN_POINT('Origin',(0.,-1.25162395541729E-15,4.07033398090341));
#710=CARTESIAN_POINT('Origin',(-9.94999999999113,-1.21852356515053E-15,
2.79874209994993));
#711=CARTESIAN_POINT('Origin',(0.,0.,4.13841270135606));
#712=CARTESIAN_POINT('',(-8.55000000000569,-1.04707301327168E-15,4.42536405961242));
#713=CARTESIAN_POINT('Origin',(0.,0.,4.42536405961242));
#714=CARTESIAN_POINT('',(-9.9000000000028,-1.21240033115622E-15,4.13841270135606));
#715=CARTESIAN_POINT('Origin',(0.,0.,6.62391361329644));
#716=CARTESIAN_POINT('',(-10.3500000000052,-1.26750943711815E-15,6.62391361329644));
#717=CARTESIAN_POINT('Origin',(0.,0.,6.62391361329644));
#718=CARTESIAN_POINT('',(-10.0331646763324,-1.22870830061887E-15,6.23265457300293));
#719=CARTESIAN_POINT('Origin',(-9.95000000000525,-1.21852356515226E-15,
6.62391361329644));
#720=CARTESIAN_POINT('Origin',(0.,-1.22870830061887E-15,6.23265457300293));
#721=CARTESIAN_POINT('Origin',(0.,0.,6.10869909451534));
#722=CARTESIAN_POINT('',(-8.55000000000567,-1.04707301327168E-15,5.91739818901242));
#723=CARTESIAN_POINT('',(-9.45000000000497,-1.15729122519486E-15,6.10869909451534));
#724=CARTESIAN_POINT('Origin',(0.,0.,5.91739818901242));
#725=CARTESIAN_POINT('Origin',(0.,0.,7.05000000001825));
#726=CARTESIAN_POINT('',(-10.3500000000052,-1.26750943711815E-15,7.80000000001825));
#727=CARTESIAN_POINT('Origin',(0.,0.,7.80000000001825));
#728=CARTESIAN_POINT('',(-10.3500000000052,-1.26750943711815E-15,7.05000000001825));
#729=CARTESIAN_POINT('Origin',(5.2,-6.,0.));
#730=CARTESIAN_POINT('',(-4.65562517846946,-6.,-1.15));
#731=CARTESIAN_POINT('',(-4.1625,-7.15,-2.09195069029118E-16));
#732=CARTESIAN_POINT('Ctrl Pts',(-4.65562517846946,-6.,-1.15));
#733=CARTESIAN_POINT('Ctrl Pts',(-4.65562517846946,-5.84669411574099,-1.15));
#734=CARTESIAN_POINT('Ctrl Pts',(-4.62034889073664,-5.69147571361877,-1.11819252517302));
#735=CARTESIAN_POINT('Ctrl Pts',(-4.51436964611206,-5.41190206943554,-0.999841610549105));
#736=CARTESIAN_POINT('Ctrl Pts',(-4.44615610025845,-5.28671144782921,-0.913057044558275));
#737=CARTESIAN_POINT('Ctrl Pts',(-4.32803719282339,-5.0886657910942,-0.715011387823257));
#738=CARTESIAN_POINT('Ctrl Pts',(-4.26872053100026,-5.00081269076235,-0.589557342155687));
#739=CARTESIAN_POINT('Ctrl Pts',(-4.18564902166989,-4.88134883057534,-0.307526922725508));
#740=CARTESIAN_POINT('Ctrl Pts',(-4.1625,-4.85,-0.150661614985333));
#741=CARTESIAN_POINT('Ctrl Pts',(-4.1625,-4.85,0.150661614985333));
#742=CARTESIAN_POINT('Ctrl Pts',(-4.18564902166989,-4.88134883057534,0.307526922725508));
#743=CARTESIAN_POINT('Ctrl Pts',(-4.26872053100026,-5.00081269076235,0.589557342155687));
#744=CARTESIAN_POINT('Ctrl Pts',(-4.32803719282339,-5.0886657910942,0.715011387823258));
#745=CARTESIAN_POINT('Ctrl Pts',(-4.44615610025845,-5.28671144782921,0.913057044558275));
#746=CARTESIAN_POINT('Ctrl Pts',(-4.51436964611206,-5.41190206943554,0.999841610549105));
#747=CARTESIAN_POINT('Ctrl Pts',(-4.62034889073664,-5.69147571361877,1.11819252517302));
#748=CARTESIAN_POINT('Ctrl Pts',(-4.65562517846946,-5.84669411574099,1.15));
#749=CARTESIAN_POINT('Ctrl Pts',(-4.65562517846946,-6.15330588425901,1.15));
#750=CARTESIAN_POINT('Ctrl Pts',(-4.62034889073664,-6.30852428638123,1.11819252517302));
#751=CARTESIAN_POINT('Ctrl Pts',(-4.51436964611206,-6.58809793056446,0.999841610549105));
#752=CARTESIAN_POINT('Ctrl Pts',(-4.44615610025845,-6.71328855217079,0.913057044558275));
#753=CARTESIAN_POINT('Ctrl Pts',(-4.32803719282339,-6.9113342089058,0.715011387823257));
#754=CARTESIAN_POINT('Ctrl Pts',(-4.26872053100026,-6.99918730923765,0.589557342155687));
#755=CARTESIAN_POINT('Ctrl Pts',(-4.18564902166989,-7.11865116942466,0.307526922725508));
#756=CARTESIAN_POINT('Ctrl Pts',(-4.1625,-7.15,0.150661614985333));
#757=CARTESIAN_POINT('Ctrl Pts',(-4.1625,-7.15,-1.38777878078145E-16));
#758=CARTESIAN_POINT('Ctrl Pts',(-4.1625,-7.15,-3.12250225675825E-16));
#759=CARTESIAN_POINT('Ctrl Pts',(-4.1625,-7.15,-0.150661614985333));
#760=CARTESIAN_POINT('Ctrl Pts',(-4.18564902166989,-7.11865116942466,-0.307526922725508));
#761=CARTESIAN_POINT('Ctrl Pts',(-4.26872053100026,-6.99918730923765,-0.589557342155687));
#762=CARTESIAN_POINT('Ctrl Pts',(-4.32803719282339,-6.9113342089058,-0.715011387823258));
#763=CARTESIAN_POINT('Ctrl Pts',(-4.44615610025845,-6.71328855217079,-0.913057044558275));
#764=CARTESIAN_POINT('Ctrl Pts',(-4.51436964611206,-6.58809793056446,-0.999841610549106));
#765=CARTESIAN_POINT('Ctrl Pts',(-4.62034889073664,-6.30852428638123,-1.11819252517302));
#766=CARTESIAN_POINT('Ctrl Pts',(-4.65562517846946,-6.15330588425901,-1.15));
#767=CARTESIAN_POINT('Ctrl Pts',(-4.65562517846946,-6.,-1.15));
#768=CARTESIAN_POINT('',(5.2,-7.15,-1.40834381901946E-16));
#769=CARTESIAN_POINT('Origin',(5.2,6.,0.));
#770=CARTESIAN_POINT('',(-4.1625,7.15,-1.22458895230277E-16));
#771=CARTESIAN_POINT('',(5.2,7.15,-1.40834381901946E-16));
#772=CARTESIAN_POINT('',(-4.65562517846946,6.,1.15));
#773=CARTESIAN_POINT('Ctrl Pts',(-4.65562517846946,6.,1.15));
#774=CARTESIAN_POINT('Ctrl Pts',(-4.65562517846946,5.84669411574099,1.15));
#775=CARTESIAN_POINT('Ctrl Pts',(-4.62034889073664,5.69147571361877,1.11819252517302));
#776=CARTESIAN_POINT('Ctrl Pts',(-4.51436964611206,5.41190206943554,0.999841610549105));
#777=CARTESIAN_POINT('Ctrl Pts',(-4.44615610025845,5.28671144782921,0.913057044558275));
#778=CARTESIAN_POINT('Ctrl Pts',(-4.32803719282339,5.0886657910942,0.715011387823258));
#779=CARTESIAN_POINT('Ctrl Pts',(-4.26872053100026,5.00081269076235,0.589557342155687));
#780=CARTESIAN_POINT('Ctrl Pts',(-4.18564902166989,4.88134883057534,0.307526922725508));
#781=CARTESIAN_POINT('Ctrl Pts',(-4.1625,4.85,0.150661614985333));
#782=CARTESIAN_POINT('Ctrl Pts',(-4.1625,4.85,-0.150661614985333));
#783=CARTESIAN_POINT('Ctrl Pts',(-4.18564902166989,4.88134883057534,-0.307526922725508));
#784=CARTESIAN_POINT('Ctrl Pts',(-4.26872053100026,5.00081269076235,-0.589557342155687));
#785=CARTESIAN_POINT('Ctrl Pts',(-4.32803719282339,5.0886657910942,-0.715011387823258));
#786=CARTESIAN_POINT('Ctrl Pts',(-4.44615610025845,5.28671144782921,-0.913057044558275));
#787=CARTESIAN_POINT('Ctrl Pts',(-4.51436964611206,5.41190206943554,-0.999841610549105));
#788=CARTESIAN_POINT('Ctrl Pts',(-4.62034889073664,5.69147571361876,-1.11819252517302));
#789=CARTESIAN_POINT('Ctrl Pts',(-4.65562517846946,5.84669411574098,-1.15));
#790=CARTESIAN_POINT('Ctrl Pts',(-4.65562517846946,6.15330588425901,-1.15));
#791=CARTESIAN_POINT('Ctrl Pts',(-4.62034889073664,6.30852428638123,-1.11819252517302));
#792=CARTESIAN_POINT('Ctrl Pts',(-4.51436964611206,6.58809793056446,-0.999841610549105));
#793=CARTESIAN_POINT('Ctrl Pts',(-4.44615610025845,6.71328855217079,-0.913057044558275));
#794=CARTESIAN_POINT('Ctrl Pts',(-4.32803719282339,6.9113342089058,-0.715011387823258));
#795=CARTESIAN_POINT('Ctrl Pts',(-4.26872053100026,6.99918730923765,-0.589557342155687));
#796=CARTESIAN_POINT('Ctrl Pts',(-4.18564902166989,7.11865116942466,-0.307526922725508));
#797=CARTESIAN_POINT('Ctrl Pts',(-4.1625,7.15,-0.150661614985333));
#798=CARTESIAN_POINT('Ctrl Pts',(-4.1625,7.15,-2.08166817117217E-16));
#799=CARTESIAN_POINT('Ctrl Pts',(-4.1625,7.15,-1.73472347597681E-16));
#800=CARTESIAN_POINT('Ctrl Pts',(-4.1625,7.15,0.150661614985333));
#801=CARTESIAN_POINT('Ctrl Pts',(-4.18564902166989,7.11865116942466,0.307526922725508));
#802=CARTESIAN_POINT('Ctrl Pts',(-4.26872053100026,6.99918730923765,0.589557342155687));
#803=CARTESIAN_POINT('Ctrl Pts',(-4.32803719282339,6.9113342089058,0.715011387823257));
#804=CARTESIAN_POINT('Ctrl Pts',(-4.44615610025845,6.71328855217079,0.913057044558275));
#805=CARTESIAN_POINT('Ctrl Pts',(-4.51436964611206,6.58809793056446,0.999841610549105));
#806=CARTESIAN_POINT('Ctrl Pts',(-4.62034889073664,6.30852428638123,1.11819252517302));
#807=CARTESIAN_POINT('Ctrl Pts',(-4.65562517846946,6.15330588425901,1.15));
#808=CARTESIAN_POINT('Ctrl Pts',(-4.65562517846946,6.,1.15));
#809=CARTESIAN_POINT('Origin',(-5.75,0.,0.));
#810=CARTESIAN_POINT('',(-7.3375,0.,1.94412679364642E-16));
#811=CARTESIAN_POINT('Origin',(4.55000000000001,0.,3.8476309574));
#812=CARTESIAN_POINT('',(-6.54999999999948,-8.02143653441452E-16,3.8476309574));
#813=CARTESIAN_POINT('Origin',(0.,0.,3.8476309574));
#814=CARTESIAN_POINT('',(-4.55000000000001,-5.57214293612047E-16,3.8476309574));
#815=CARTESIAN_POINT('Origin',(0.,0.,3.8476309574));
#816=CARTESIAN_POINT('Origin',(0.,0.,3.3113418407326));
#817=CARTESIAN_POINT('',(-3.65,-4.46996081688784E-16,2.7750527240652));
#818=CARTESIAN_POINT('',(-4.10000000000001,-5.02105187650416E-16,3.3113418407326));
#819=CARTESIAN_POINT('Origin',(0.,0.,2.7750527240652));
#820=CARTESIAN_POINT('Origin',(0.,0.,0.690121196063066));
#821=CARTESIAN_POINT('',(-3.65,-4.46996081688784E-16,-1.39481033193907));
#822=CARTESIAN_POINT('',(-3.65,-4.46996081688784E-16,0.690121196063066));
#823=CARTESIAN_POINT('Origin',(0.,0.,-1.39481033193907));
#824=CARTESIAN_POINT('Origin',(0.,0.,-1.77240516596953));
#825=CARTESIAN_POINT('',(-4.55000000000165,-5.57214293612247E-16,-2.15));
#826=CARTESIAN_POINT('',(-4.10000000000082,-5.02105187650516E-16,-1.77240516596953));
#827=CARTESIAN_POINT('Origin',(0.,0.,-2.15));
#828=CARTESIAN_POINT('Origin',(6.55000000000165,0.,-2.15));
#829=CARTESIAN_POINT('',(-6.55000000000165,-8.02143653441718E-16,-2.15));
#830=CARTESIAN_POINT('Origin',(0.,0.,-2.15));
#831=CARTESIAN_POINT('Origin',(0.,0.,-4.15));
#832=CARTESIAN_POINT('',(-6.55000000000165,-8.02143653441718E-16,-4.15));
#833=CARTESIAN_POINT('Origin',(0.,0.,5.17138112431242));
#834=CARTESIAN_POINT('',(-8.55000000000568,-1.04707301327168E-15,5.17138112431242));
#835=CARTESIAN_POINT('Origin',(6.54999999999894,0.,7.80000000001155));
#836=CARTESIAN_POINT('',(-6.54999999999948,-8.02143653441452E-16,7.80000000001155));
#837=CARTESIAN_POINT('Origin',(0.,0.,7.80000000001155));
#838=CARTESIAN_POINT('Origin',(0.,0.,5.82381547870578));
#839=CARTESIAN_POINT('',(-6.54999999999948,-8.02143653441452E-16,5.82381547870578));
#840=UNCERTAINTY_MEASURE_WITH_UNIT(LENGTH_MEASURE(0.01),#844,
'DISTANCE_ACCURACY_VALUE',
'Maximum model space distance between geometric entities at asserted c
onnectivities');
#841=UNCERTAINTY_MEASURE_WITH_UNIT(LENGTH_MEASURE(0.01),#844,
'DISTANCE_ACCURACY_VALUE',
'Maximum model space distance between geometric entities at asserted c
onnectivities');
#842=(
GEOMETRIC_REPRESENTATION_CONTEXT(3)
GLOBAL_UNCERTAINTY_ASSIGNED_CONTEXT((#840))
GLOBAL_UNIT_ASSIGNED_CONTEXT((#844,#846,#847))
REPRESENTATION_CONTEXT('','3D')
);
#843=(
GEOMETRIC_REPRESENTATION_CONTEXT(3)
GLOBAL_UNCERTAINTY_ASSIGNED_CONTEXT((#841))
GLOBAL_UNIT_ASSIGNED_CONTEXT((#844,#846,#847))
REPRESENTATION_CONTEXT('','3D')
);
#844=(
LENGTH_UNIT()
NAMED_UNIT(*)
SI_UNIT(.MILLI.,.METRE.)
);
#845=(
LENGTH_UNIT()
NAMED_UNIT(*)
SI_UNIT($,.METRE.)
);
#846=(
NAMED_UNIT(*)
PLANE_ANGLE_UNIT()
SI_UNIT($,.RADIAN.)
);
#847=(
NAMED_UNIT(*)
SI_UNIT($,.STERADIAN.)
SOLID_ANGLE_UNIT()
);
#848=SHAPE_DEFINITION_REPRESENTATION(#849,#850);
#849=PRODUCT_DEFINITION_SHAPE('',$,#852);
#850=SHAPE_REPRESENTATION('',(#377),#842);
#851=PRODUCT_DEFINITION_CONTEXT('part definition',#856,'design');
#852=PRODUCT_DEFINITION('Cutterhead_Round_08','Cutterhead_Round_08',#853,
#851);
#853=PRODUCT_DEFINITION_FORMATION('',$,#858);
#854=PRODUCT_RELATED_PRODUCT_CATEGORY('Cutterhead_Round_08',
'Cutterhead_Round_08',(#858));
#855=APPLICATION_PROTOCOL_DEFINITION('international standard',
'automotive_design',2009,#856);
#856=APPLICATION_CONTEXT(
'Core Data for Automotive Mechanical Design Process');
#857=PRODUCT_CONTEXT('part definition',#856,'mechanical');
#858=PRODUCT('Cutterhead_Round_08','Cutterhead_Round_08',$,(#857));
#859=PRESENTATION_STYLE_ASSIGNMENT((#861));
#860=PRESENTATION_STYLE_ASSIGNMENT((#862));
#861=SURFACE_STYLE_USAGE(.BOTH.,#863);
#862=SURFACE_STYLE_USAGE(.BOTH.,#864);
#863=SURFACE_SIDE_STYLE('',(#865));
#864=SURFACE_SIDE_STYLE('',(#866));
#865=SURFACE_STYLE_FILL_AREA(#867);
#866=SURFACE_STYLE_FILL_AREA(#868);
#867=FILL_AREA_STYLE('Steel - Satin',(#869));
#868=FILL_AREA_STYLE('Paint - Enamel Glossy (Red)',(#870));
#869=FILL_AREA_STYLE_COLOUR('Steel - Satin',#871);
#870=FILL_AREA_STYLE_COLOUR('Paint - Enamel Glossy (Red)',#872);
#871=COLOUR_RGB('Steel - Satin',0.627450980392157,0.627450980392157,0.627450980392157);
#872=COLOUR_RGB('Paint - Enamel Glossy (Red)',0.768627450980392,0.207843137254902,
0.152941176470588);
ENDSEC;
END-ISO-10303-21;
