ISO-10303-21;
HEADER;
/* Generated by software containing ST-Developer
 * from STEP Tools, Inc. (www.steptools.com) 
 */

FILE_DESCRIPTION(
/* description */ (''),
/* implementation_level */ '2;1');

FILE_NAME(
/* name */ 'DoublePulley_08_UCF.step',
/* time_stamp */ '2026-01-03T01:02:45-08:00',
/* author */ (''),
/* organization */ (''),
/* preprocessor_version */ 'ST-DEVELOPER v20.1',
/* originating_system */ 'Autodesk Translation Framework v14.21.0.0',
/* authorisation */ '');

FILE_SCHEMA (('AUTOMOTIVE_DESIGN { 1 0 10303 214 3 1 1 }'));
ENDSEC;

DATA;
#10=MECHANICAL_DESIGN_GEOMETRIC_PRESENTATION_REPRESENTATION('',(#13),#815);
#11=SHAPE_REPRESENTATION_RELATIONSHIP('SRR','None',#822,#12);
#12=ADVANCED_BREP_SHAPE_REPRESENTATION('',(#14),#814);
#13=STYLED_ITEM('',(#831),#14);
#14=MANIFOLD_SOLID_BREP('Body1',#433);
#15=CONICAL_SURFACE('',#457,14.5166233843434,0.65449846949788);
#16=CONICAL_SURFACE('',#465,15.6858672552,1.30899693899575);
#17=CONICAL_SURFACE('',#468,14.5166233843434,0.654498469497877);
#18=CONICAL_SURFACE('',#471,15.6858672552,1.30899693899576);
#19=CONICAL_SURFACE('',#474,10.473223102235,0.6544959007101);
#20=CONICAL_SURFACE('',#482,11.8841444412414,1.3089918014314);
#21=CONICAL_SURFACE('',#485,10.4732234346687,0.654498469503471);
#22=CONICAL_SURFACE('',#488,13.6158709890496,1.30899693899574);
#23=FACE_BOUND('',#99,.T.);
#24=FACE_BOUND('',#117,.T.);
#25=FACE_BOUND('',#120,.T.);
#26=FACE_BOUND('',#123,.T.);
#27=PLANE('',#455);
#28=PLANE('',#508);
#29=PLANE('',#513);
#30=PLANE('',#517);
#31=LINE('',#692,#47);
#32=LINE('',#705,#48);
#33=LINE('',#711,#49);
#34=LINE('',#720,#50);
#35=LINE('',#723,#51);
#36=LINE('',#729,#52);
#37=LINE('',#739,#53);
#38=LINE('',#745,#54);
#39=LINE('',#754,#55);
#40=LINE('',#757,#56);
#41=LINE('',#763,#57);
#42=LINE('',#777,#58);
#43=LINE('',#791,#59);
#44=LINE('',#800,#60);
#45=LINE('',#807,#61);
#46=LINE('',#811,#62);
#47=VECTOR('',#533,13.5365469043961);
#48=VECTOR('',#548,14.5166233843434);
#49=VECTOR('',#555,14.3717345104);
#50=VECTOR('',#566,15.6858672552);
#51=VECTOR('',#569,14.5166233843434);
#52=VECTOR('',#576,15.6858672552);
#53=VECTOR('',#587,10.473223102235);
#54=VECTOR('',#594,10.2317419780936);
#55=VECTOR('',#605,11.8841444412414);
#56=VECTOR('',#608,10.4732234346687);
#57=VECTOR('',#615,13.6158709890496);
#58=VECTOR('',#634,17.);
#59=VECTOR('',#653,17.);
#60=VECTOR('',#664,4.5);
#61=VECTOR('',#673,6.59999999999998);
#62=VECTOR('',#680,6.60000000000002);
#63=CYLINDRICAL_SURFACE('',#452,13.5365469043961);
#64=CYLINDRICAL_SURFACE('',#462,14.3717345104);
#65=CYLINDRICAL_SURFACE('',#479,10.2317419780936);
#66=CYLINDRICAL_SURFACE('',#497,17.);
#67=CYLINDRICAL_SURFACE('',#506,17.);
#68=CYLINDRICAL_SURFACE('',#511,4.5);
#69=CYLINDRICAL_SURFACE('',#515,6.59999999999998);
#70=CYLINDRICAL_SURFACE('',#518,6.60000000000002);
#71=FACE_OUTER_BOUND('',#96,.T.);
#72=FACE_OUTER_BOUND('',#97,.T.);
#73=FACE_OUTER_BOUND('',#98,.T.);
#74=FACE_OUTER_BOUND('',#100,.T.);
#75=FACE_OUTER_BOUND('',#101,.T.);
#76=FACE_OUTER_BOUND('',#102,.T.);
#77=FACE_OUTER_BOUND('',#103,.T.);
#78=FACE_OUTER_BOUND('',#104,.T.);
#79=FACE_OUTER_BOUND('',#105,.T.);
#80=FACE_OUTER_BOUND('',#106,.T.);
#81=FACE_OUTER_BOUND('',#107,.T.);
#82=FACE_OUTER_BOUND('',#108,.T.);
#83=FACE_OUTER_BOUND('',#109,.T.);
#84=FACE_OUTER_BOUND('',#110,.T.);
#85=FACE_OUTER_BOUND('',#111,.T.);
#86=FACE_OUTER_BOUND('',#112,.T.);
#87=FACE_OUTER_BOUND('',#113,.T.);
#88=FACE_OUTER_BOUND('',#114,.T.);
#89=FACE_OUTER_BOUND('',#115,.T.);
#90=FACE_OUTER_BOUND('',#116,.T.);
#91=FACE_OUTER_BOUND('',#118,.T.);
#92=FACE_OUTER_BOUND('',#119,.T.);
#93=FACE_OUTER_BOUND('',#121,.T.);
#94=FACE_OUTER_BOUND('',#122,.T.);
#95=FACE_OUTER_BOUND('',#124,.T.);
#96=EDGE_LOOP('',(#277,#278,#279,#280,#281));
#97=EDGE_LOOP('',(#282,#283,#284,#285,#286,#287));
#98=EDGE_LOOP('',(#288));
#99=EDGE_LOOP('',(#289));
#100=EDGE_LOOP('',(#290,#291,#292,#293,#294,#295));
#101=EDGE_LOOP('',(#296,#297,#298,#299,#300,#301));
#102=EDGE_LOOP('',(#302,#303,#304,#305,#306,#307));
#103=EDGE_LOOP('',(#308,#309,#310,#311,#312,#313));
#104=EDGE_LOOP('',(#314,#315,#316,#317,#318,#319));
#105=EDGE_LOOP('',(#320,#321,#322,#323,#324,#325));
#106=EDGE_LOOP('',(#326,#327,#328,#329,#330,#331));
#107=EDGE_LOOP('',(#332,#333,#334,#335,#336,#337));
#108=EDGE_LOOP('',(#338,#339,#340,#341,#342,#343));
#109=EDGE_LOOP('',(#344,#345,#346,#347,#348,#349));
#110=EDGE_LOOP('',(#350,#351,#352,#353,#354,#355));
#111=EDGE_LOOP('',(#356,#357,#358,#359,#360,#361));
#112=EDGE_LOOP('',(#362,#363,#364,#365,#366,#367));
#113=EDGE_LOOP('',(#368,#369,#370,#371,#372,#373));
#114=EDGE_LOOP('',(#374,#375,#376,#377,#378,#379));
#115=EDGE_LOOP('',(#380,#381,#382,#383,#384));
#116=EDGE_LOOP('',(#385));
#117=EDGE_LOOP('',(#386));
#118=EDGE_LOOP('',(#387,#388,#389,#390));
#119=EDGE_LOOP('',(#391));
#120=EDGE_LOOP('',(#392));
#121=EDGE_LOOP('',(#393,#394,#395,#396));
#122=EDGE_LOOP('',(#397));
#123=EDGE_LOOP('',(#398));
#124=EDGE_LOOP('',(#399,#400,#401,#402));
#125=CIRCLE('',#448,12.2865469043961);
#126=CIRCLE('',#449,1.25);
#127=CIRCLE('',#450,13.5365469043961);
#128=CIRCLE('',#451,13.5365469043961);
#129=CIRCLE('',#453,13.5365469043961);
#130=CIRCLE('',#454,13.5365469043961);
#131=CIRCLE('',#456,6.60000000000003);
#132=CIRCLE('',#458,14.6615122582867);
#133=CIRCLE('',#459,14.6615122582867);
#134=CIRCLE('',#460,14.3717345104);
#135=CIRCLE('',#461,14.3717345104);
#136=CIRCLE('',#463,14.3717345104);
#137=CIRCLE('',#464,14.3717345104);
#138=CIRCLE('',#466,16.703527618041);
#139=CIRCLE('',#467,16.703527618041);
#140=CIRCLE('',#469,14.6615122582867);
#141=CIRCLE('',#470,14.6615122582867);
#142=CIRCLE('',#472,16.703527618041);
#143=CIRCLE('',#473,16.703527618041);
#144=CIRCLE('',#475,10.7147042263764);
#145=CIRCLE('',#476,10.7147042263764);
#146=CIRCLE('',#477,10.2317419780936);
#147=CIRCLE('',#478,10.2317419780936);
#148=CIRCLE('',#480,10.2317419780936);
#149=CIRCLE('',#481,10.2317419780936);
#150=CIRCLE('',#483,13.2400765074382);
#151=CIRCLE('',#484,13.2400765074382);
#152=CIRCLE('',#486,10.7147048912438);
#153=CIRCLE('',#487,10.7147048912438);
#154=CIRCLE('',#489,16.703527618041);
#155=CIRCLE('',#490,16.703527618041);
#156=CIRCLE('',#492,0.4);
#157=CIRCLE('',#494,0.4);
#158=CIRCLE('',#495,17.);
#159=CIRCLE('',#496,17.);
#160=CIRCLE('',#498,17.);
#161=CIRCLE('',#499,17.);
#162=CIRCLE('',#501,0.4);
#163=CIRCLE('',#503,0.4);
#164=CIRCLE('',#504,17.);
#165=CIRCLE('',#505,17.);
#166=CIRCLE('',#507,17.);
#167=CIRCLE('',#509,6.60000000000001);
#168=CIRCLE('',#510,4.50000000000001);
#169=CIRCLE('',#512,4.49999999999999);
#170=CIRCLE('',#514,6.59999999999999);
#171=CIRCLE('',#516,6.59999999999997);
#172=VERTEX_POINT('',#683);
#173=VERTEX_POINT('',#685);
#174=VERTEX_POINT('',#687);
#175=VERTEX_POINT('',#691);
#176=VERTEX_POINT('',#693);
#177=VERTEX_POINT('',#697);
#178=VERTEX_POINT('',#700);
#179=VERTEX_POINT('',#701);
#180=VERTEX_POINT('',#704);
#181=VERTEX_POINT('',#706);
#182=VERTEX_POINT('',#710);
#183=VERTEX_POINT('',#712);
#184=VERTEX_POINT('',#716);
#185=VERTEX_POINT('',#717);
#186=VERTEX_POINT('',#722);
#187=VERTEX_POINT('',#724);
#188=VERTEX_POINT('',#728);
#189=VERTEX_POINT('',#730);
#190=VERTEX_POINT('',#734);
#191=VERTEX_POINT('',#735);
#192=VERTEX_POINT('',#738);
#193=VERTEX_POINT('',#740);
#194=VERTEX_POINT('',#744);
#195=VERTEX_POINT('',#746);
#196=VERTEX_POINT('',#750);
#197=VERTEX_POINT('',#751);
#198=VERTEX_POINT('',#756);
#199=VERTEX_POINT('',#758);
#200=VERTEX_POINT('',#762);
#201=VERTEX_POINT('',#764);
#202=VERTEX_POINT('',#770);
#203=VERTEX_POINT('',#772);
#204=VERTEX_POINT('',#776);
#205=VERTEX_POINT('',#778);
#206=VERTEX_POINT('',#784);
#207=VERTEX_POINT('',#786);
#208=VERTEX_POINT('',#790);
#209=VERTEX_POINT('',#794);
#210=VERTEX_POINT('',#796);
#211=VERTEX_POINT('',#799);
#212=VERTEX_POINT('',#803);
#213=VERTEX_POINT('',#806);
#214=EDGE_CURVE('',#172,#172,#125,.T.);
#215=EDGE_CURVE('',#172,#173,#126,.T.);
#216=EDGE_CURVE('',#173,#174,#127,.T.);
#217=EDGE_CURVE('',#174,#173,#128,.T.);
#218=EDGE_CURVE('',#174,#175,#31,.T.);
#219=EDGE_CURVE('',#176,#175,#129,.T.);
#220=EDGE_CURVE('',#175,#176,#130,.T.);
#221=EDGE_CURVE('',#177,#177,#131,.T.);
#222=EDGE_CURVE('',#178,#179,#132,.T.);
#223=EDGE_CURVE('',#179,#178,#133,.T.);
#224=EDGE_CURVE('',#178,#180,#32,.T.);
#225=EDGE_CURVE('',#180,#181,#134,.T.);
#226=EDGE_CURVE('',#181,#180,#135,.T.);
#227=EDGE_CURVE('',#181,#182,#33,.T.);
#228=EDGE_CURVE('',#183,#182,#136,.T.);
#229=EDGE_CURVE('',#182,#183,#137,.T.);
#230=EDGE_CURVE('',#184,#185,#138,.T.);
#231=EDGE_CURVE('',#185,#184,#139,.T.);
#232=EDGE_CURVE('',#185,#179,#34,.T.);
#233=EDGE_CURVE('',#183,#186,#35,.T.);
#234=EDGE_CURVE('',#186,#187,#140,.T.);
#235=EDGE_CURVE('',#187,#186,#141,.T.);
#236=EDGE_CURVE('',#187,#188,#36,.T.);
#237=EDGE_CURVE('',#189,#188,#142,.T.);
#238=EDGE_CURVE('',#188,#189,#143,.T.);
#239=EDGE_CURVE('',#190,#191,#144,.T.);
#240=EDGE_CURVE('',#191,#190,#145,.T.);
#241=EDGE_CURVE('',#190,#192,#37,.T.);
#242=EDGE_CURVE('',#192,#193,#146,.T.);
#243=EDGE_CURVE('',#193,#192,#147,.T.);
#244=EDGE_CURVE('',#193,#194,#38,.T.);
#245=EDGE_CURVE('',#195,#194,#148,.T.);
#246=EDGE_CURVE('',#194,#195,#149,.T.);
#247=EDGE_CURVE('',#196,#197,#150,.T.);
#248=EDGE_CURVE('',#197,#196,#151,.T.);
#249=EDGE_CURVE('',#197,#191,#39,.T.);
#250=EDGE_CURVE('',#195,#198,#40,.T.);
#251=EDGE_CURVE('',#198,#199,#152,.T.);
#252=EDGE_CURVE('',#199,#198,#153,.T.);
#253=EDGE_CURVE('',#199,#200,#41,.T.);
#254=EDGE_CURVE('',#201,#200,#154,.T.);
#255=EDGE_CURVE('',#200,#201,#155,.T.);
#256=EDGE_CURVE('',#176,#196,#156,.T.);
#257=EDGE_CURVE('',#201,#202,#157,.T.);
#258=EDGE_CURVE('',#202,#203,#158,.T.);
#259=EDGE_CURVE('',#203,#202,#159,.T.);
#260=EDGE_CURVE('',#203,#204,#42,.T.);
#261=EDGE_CURVE('',#205,#204,#160,.T.);
#262=EDGE_CURVE('',#204,#205,#161,.T.);
#263=EDGE_CURVE('',#205,#184,#162,.T.);
#264=EDGE_CURVE('',#189,#206,#163,.T.);
#265=EDGE_CURVE('',#206,#207,#164,.T.);
#266=EDGE_CURVE('',#207,#206,#165,.T.);
#267=EDGE_CURVE('',#207,#208,#43,.T.);
#268=EDGE_CURVE('',#208,#208,#166,.T.);
#269=EDGE_CURVE('',#209,#209,#167,.T.);
#270=EDGE_CURVE('',#210,#210,#168,.T.);
#271=EDGE_CURVE('',#210,#211,#44,.T.);
#272=EDGE_CURVE('',#211,#211,#169,.T.);
#273=EDGE_CURVE('',#212,#212,#170,.T.);
#274=EDGE_CURVE('',#212,#213,#45,.T.);
#275=EDGE_CURVE('',#213,#213,#171,.T.);
#276=EDGE_CURVE('',#177,#209,#46,.T.);
#277=ORIENTED_EDGE('',*,*,#214,.T.);
#278=ORIENTED_EDGE('',*,*,#215,.T.);
#279=ORIENTED_EDGE('',*,*,#216,.T.);
#280=ORIENTED_EDGE('',*,*,#217,.T.);
#281=ORIENTED_EDGE('',*,*,#215,.F.);
#282=ORIENTED_EDGE('',*,*,#216,.F.);
#283=ORIENTED_EDGE('',*,*,#217,.F.);
#284=ORIENTED_EDGE('',*,*,#218,.T.);
#285=ORIENTED_EDGE('',*,*,#219,.F.);
#286=ORIENTED_EDGE('',*,*,#220,.F.);
#287=ORIENTED_EDGE('',*,*,#218,.F.);
#288=ORIENTED_EDGE('',*,*,#214,.F.);
#289=ORIENTED_EDGE('',*,*,#221,.F.);
#290=ORIENTED_EDGE('',*,*,#222,.T.);
#291=ORIENTED_EDGE('',*,*,#223,.T.);
#292=ORIENTED_EDGE('',*,*,#224,.T.);
#293=ORIENTED_EDGE('',*,*,#225,.T.);
#294=ORIENTED_EDGE('',*,*,#226,.T.);
#295=ORIENTED_EDGE('',*,*,#224,.F.);
#296=ORIENTED_EDGE('',*,*,#225,.F.);
#297=ORIENTED_EDGE('',*,*,#226,.F.);
#298=ORIENTED_EDGE('',*,*,#227,.T.);
#299=ORIENTED_EDGE('',*,*,#228,.F.);
#300=ORIENTED_EDGE('',*,*,#229,.F.);
#301=ORIENTED_EDGE('',*,*,#227,.F.);
#302=ORIENTED_EDGE('',*,*,#230,.F.);
#303=ORIENTED_EDGE('',*,*,#231,.F.);
#304=ORIENTED_EDGE('',*,*,#232,.T.);
#305=ORIENTED_EDGE('',*,*,#222,.F.);
#306=ORIENTED_EDGE('',*,*,#223,.F.);
#307=ORIENTED_EDGE('',*,*,#232,.F.);
#308=ORIENTED_EDGE('',*,*,#228,.T.);
#309=ORIENTED_EDGE('',*,*,#229,.T.);
#310=ORIENTED_EDGE('',*,*,#233,.T.);
#311=ORIENTED_EDGE('',*,*,#234,.T.);
#312=ORIENTED_EDGE('',*,*,#235,.T.);
#313=ORIENTED_EDGE('',*,*,#233,.F.);
#314=ORIENTED_EDGE('',*,*,#234,.F.);
#315=ORIENTED_EDGE('',*,*,#235,.F.);
#316=ORIENTED_EDGE('',*,*,#236,.T.);
#317=ORIENTED_EDGE('',*,*,#237,.F.);
#318=ORIENTED_EDGE('',*,*,#238,.F.);
#319=ORIENTED_EDGE('',*,*,#236,.F.);
#320=ORIENTED_EDGE('',*,*,#239,.T.);
#321=ORIENTED_EDGE('',*,*,#240,.T.);
#322=ORIENTED_EDGE('',*,*,#241,.T.);
#323=ORIENTED_EDGE('',*,*,#242,.T.);
#324=ORIENTED_EDGE('',*,*,#243,.T.);
#325=ORIENTED_EDGE('',*,*,#241,.F.);
#326=ORIENTED_EDGE('',*,*,#242,.F.);
#327=ORIENTED_EDGE('',*,*,#243,.F.);
#328=ORIENTED_EDGE('',*,*,#244,.T.);
#329=ORIENTED_EDGE('',*,*,#245,.F.);
#330=ORIENTED_EDGE('',*,*,#246,.F.);
#331=ORIENTED_EDGE('',*,*,#244,.F.);
#332=ORIENTED_EDGE('',*,*,#247,.F.);
#333=ORIENTED_EDGE('',*,*,#248,.F.);
#334=ORIENTED_EDGE('',*,*,#249,.T.);
#335=ORIENTED_EDGE('',*,*,#239,.F.);
#336=ORIENTED_EDGE('',*,*,#240,.F.);
#337=ORIENTED_EDGE('',*,*,#249,.F.);
#338=ORIENTED_EDGE('',*,*,#245,.T.);
#339=ORIENTED_EDGE('',*,*,#246,.T.);
#340=ORIENTED_EDGE('',*,*,#250,.T.);
#341=ORIENTED_EDGE('',*,*,#251,.T.);
#342=ORIENTED_EDGE('',*,*,#252,.T.);
#343=ORIENTED_EDGE('',*,*,#250,.F.);
#344=ORIENTED_EDGE('',*,*,#251,.F.);
#345=ORIENTED_EDGE('',*,*,#252,.F.);
#346=ORIENTED_EDGE('',*,*,#253,.T.);
#347=ORIENTED_EDGE('',*,*,#254,.F.);
#348=ORIENTED_EDGE('',*,*,#255,.F.);
#349=ORIENTED_EDGE('',*,*,#253,.F.);
#350=ORIENTED_EDGE('',*,*,#220,.T.);
#351=ORIENTED_EDGE('',*,*,#256,.T.);
#352=ORIENTED_EDGE('',*,*,#247,.T.);
#353=ORIENTED_EDGE('',*,*,#248,.T.);
#354=ORIENTED_EDGE('',*,*,#256,.F.);
#355=ORIENTED_EDGE('',*,*,#219,.T.);
#356=ORIENTED_EDGE('',*,*,#255,.T.);
#357=ORIENTED_EDGE('',*,*,#257,.T.);
#358=ORIENTED_EDGE('',*,*,#258,.T.);
#359=ORIENTED_EDGE('',*,*,#259,.T.);
#360=ORIENTED_EDGE('',*,*,#257,.F.);
#361=ORIENTED_EDGE('',*,*,#254,.T.);
#362=ORIENTED_EDGE('',*,*,#258,.F.);
#363=ORIENTED_EDGE('',*,*,#259,.F.);
#364=ORIENTED_EDGE('',*,*,#260,.T.);
#365=ORIENTED_EDGE('',*,*,#261,.F.);
#366=ORIENTED_EDGE('',*,*,#262,.F.);
#367=ORIENTED_EDGE('',*,*,#260,.F.);
#368=ORIENTED_EDGE('',*,*,#262,.T.);
#369=ORIENTED_EDGE('',*,*,#263,.T.);
#370=ORIENTED_EDGE('',*,*,#230,.T.);
#371=ORIENTED_EDGE('',*,*,#231,.T.);
#372=ORIENTED_EDGE('',*,*,#263,.F.);
#373=ORIENTED_EDGE('',*,*,#261,.T.);
#374=ORIENTED_EDGE('',*,*,#238,.T.);
#375=ORIENTED_EDGE('',*,*,#264,.T.);
#376=ORIENTED_EDGE('',*,*,#265,.T.);
#377=ORIENTED_EDGE('',*,*,#266,.T.);
#378=ORIENTED_EDGE('',*,*,#264,.F.);
#379=ORIENTED_EDGE('',*,*,#237,.T.);
#380=ORIENTED_EDGE('',*,*,#265,.F.);
#381=ORIENTED_EDGE('',*,*,#266,.F.);
#382=ORIENTED_EDGE('',*,*,#267,.T.);
#383=ORIENTED_EDGE('',*,*,#268,.T.);
#384=ORIENTED_EDGE('',*,*,#267,.F.);
#385=ORIENTED_EDGE('',*,*,#269,.T.);
#386=ORIENTED_EDGE('',*,*,#270,.F.);
#387=ORIENTED_EDGE('',*,*,#270,.T.);
#388=ORIENTED_EDGE('',*,*,#271,.T.);
#389=ORIENTED_EDGE('',*,*,#272,.F.);
#390=ORIENTED_EDGE('',*,*,#271,.F.);
#391=ORIENTED_EDGE('',*,*,#273,.F.);
#392=ORIENTED_EDGE('',*,*,#272,.T.);
#393=ORIENTED_EDGE('',*,*,#273,.T.);
#394=ORIENTED_EDGE('',*,*,#274,.T.);
#395=ORIENTED_EDGE('',*,*,#275,.F.);
#396=ORIENTED_EDGE('',*,*,#274,.F.);
#397=ORIENTED_EDGE('',*,*,#268,.F.);
#398=ORIENTED_EDGE('',*,*,#275,.T.);
#399=ORIENTED_EDGE('',*,*,#221,.T.);
#400=ORIENTED_EDGE('',*,*,#276,.T.);
#401=ORIENTED_EDGE('',*,*,#269,.F.);
#402=ORIENTED_EDGE('',*,*,#276,.F.);
#403=TOROIDAL_SURFACE('',#447,12.2865469043961,1.25);
#404=TOROIDAL_SURFACE('',#491,13.1365469043961,0.4);
#405=TOROIDAL_SURFACE('',#493,16.6,0.4);
#406=TOROIDAL_SURFACE('',#500,16.6,0.4);
#407=TOROIDAL_SURFACE('',#502,16.6,0.4);
#408=ADVANCED_FACE('',(#71),#403,.T.);
#409=ADVANCED_FACE('',(#72),#63,.T.);
#410=ADVANCED_FACE('',(#73,#23),#27,.T.);
#411=ADVANCED_FACE('',(#74),#15,.T.);
#412=ADVANCED_FACE('',(#75),#64,.T.);
#413=ADVANCED_FACE('',(#76),#16,.T.);
#414=ADVANCED_FACE('',(#77),#17,.T.);
#415=ADVANCED_FACE('',(#78),#18,.T.);
#416=ADVANCED_FACE('',(#79),#19,.T.);
#417=ADVANCED_FACE('',(#80),#65,.T.);
#418=ADVANCED_FACE('',(#81),#20,.T.);
#419=ADVANCED_FACE('',(#82),#21,.T.);
#420=ADVANCED_FACE('',(#83),#22,.T.);
#421=ADVANCED_FACE('',(#84),#404,.T.);
#422=ADVANCED_FACE('',(#85),#405,.T.);
#423=ADVANCED_FACE('',(#86),#66,.T.);
#424=ADVANCED_FACE('',(#87),#406,.T.);
#425=ADVANCED_FACE('',(#88),#407,.T.);
#426=ADVANCED_FACE('',(#89),#67,.T.);
#427=ADVANCED_FACE('',(#90,#24),#28,.T.);
#428=ADVANCED_FACE('',(#91),#68,.F.);
#429=ADVANCED_FACE('',(#92,#25),#29,.T.);
#430=ADVANCED_FACE('',(#93),#69,.F.);
#431=ADVANCED_FACE('',(#94,#26),#30,.T.);
#432=ADVANCED_FACE('',(#95),#70,.F.);
#433=CLOSED_SHELL('',(#408,#409,#410,#411,#412,#413,#414,#415,#416,#417,
#418,#419,#420,#421,#422,#423,#424,#425,#426,#427,#428,#429,#430,#431,#432));
#434=DERIVED_UNIT_ELEMENT(#436,1.);
#435=DERIVED_UNIT_ELEMENT(#817,-3.);
#436=(
MASS_UNIT()
NAMED_UNIT(*)
SI_UNIT(.KILO.,.GRAM.)
);
#437=DERIVED_UNIT((#434,#435));
#438=MEASURE_REPRESENTATION_ITEM('density measure',
POSITIVE_RATIO_MEASURE(7850.),#437);
#439=PROPERTY_DEFINITION_REPRESENTATION(#444,#441);
#440=PROPERTY_DEFINITION_REPRESENTATION(#445,#442);
#441=REPRESENTATION('material name',(#443),#814);
#442=REPRESENTATION('density',(#438),#814);
#443=DESCRIPTIVE_REPRESENTATION_ITEM('Steel','Steel');
#444=PROPERTY_DEFINITION('material property','material name',#824);
#445=PROPERTY_DEFINITION('material property','density of part',#824);
#446=AXIS2_PLACEMENT_3D('',#681,#519,#520);
#447=AXIS2_PLACEMENT_3D('',#682,#521,#522);
#448=AXIS2_PLACEMENT_3D('',#684,#523,#524);
#449=AXIS2_PLACEMENT_3D('',#686,#525,#526);
#450=AXIS2_PLACEMENT_3D('',#688,#527,#528);
#451=AXIS2_PLACEMENT_3D('',#689,#529,#530);
#452=AXIS2_PLACEMENT_3D('',#690,#531,#532);
#453=AXIS2_PLACEMENT_3D('',#694,#534,#535);
#454=AXIS2_PLACEMENT_3D('',#695,#536,#537);
#455=AXIS2_PLACEMENT_3D('',#696,#538,#539);
#456=AXIS2_PLACEMENT_3D('',#698,#540,#541);
#457=AXIS2_PLACEMENT_3D('',#699,#542,#543);
#458=AXIS2_PLACEMENT_3D('',#702,#544,#545);
#459=AXIS2_PLACEMENT_3D('',#703,#546,#547);
#460=AXIS2_PLACEMENT_3D('',#707,#549,#550);
#461=AXIS2_PLACEMENT_3D('',#708,#551,#552);
#462=AXIS2_PLACEMENT_3D('',#709,#553,#554);
#463=AXIS2_PLACEMENT_3D('',#713,#556,#557);
#464=AXIS2_PLACEMENT_3D('',#714,#558,#559);
#465=AXIS2_PLACEMENT_3D('',#715,#560,#561);
#466=AXIS2_PLACEMENT_3D('',#718,#562,#563);
#467=AXIS2_PLACEMENT_3D('',#719,#564,#565);
#468=AXIS2_PLACEMENT_3D('',#721,#567,#568);
#469=AXIS2_PLACEMENT_3D('',#725,#570,#571);
#470=AXIS2_PLACEMENT_3D('',#726,#572,#573);
#471=AXIS2_PLACEMENT_3D('',#727,#574,#575);
#472=AXIS2_PLACEMENT_3D('',#731,#577,#578);
#473=AXIS2_PLACEMENT_3D('',#732,#579,#580);
#474=AXIS2_PLACEMENT_3D('',#733,#581,#582);
#475=AXIS2_PLACEMENT_3D('',#736,#583,#584);
#476=AXIS2_PLACEMENT_3D('',#737,#585,#586);
#477=AXIS2_PLACEMENT_3D('',#741,#588,#589);
#478=AXIS2_PLACEMENT_3D('',#742,#590,#591);
#479=AXIS2_PLACEMENT_3D('',#743,#592,#593);
#480=AXIS2_PLACEMENT_3D('',#747,#595,#596);
#481=AXIS2_PLACEMENT_3D('',#748,#597,#598);
#482=AXIS2_PLACEMENT_3D('',#749,#599,#600);
#483=AXIS2_PLACEMENT_3D('',#752,#601,#602);
#484=AXIS2_PLACEMENT_3D('',#753,#603,#604);
#485=AXIS2_PLACEMENT_3D('',#755,#606,#607);
#486=AXIS2_PLACEMENT_3D('',#759,#609,#610);
#487=AXIS2_PLACEMENT_3D('',#760,#611,#612);
#488=AXIS2_PLACEMENT_3D('',#761,#613,#614);
#489=AXIS2_PLACEMENT_3D('',#765,#616,#617);
#490=AXIS2_PLACEMENT_3D('',#766,#618,#619);
#491=AXIS2_PLACEMENT_3D('',#767,#620,#621);
#492=AXIS2_PLACEMENT_3D('',#768,#622,#623);
#493=AXIS2_PLACEMENT_3D('',#769,#624,#625);
#494=AXIS2_PLACEMENT_3D('',#771,#626,#627);
#495=AXIS2_PLACEMENT_3D('',#773,#628,#629);
#496=AXIS2_PLACEMENT_3D('',#774,#630,#631);
#497=AXIS2_PLACEMENT_3D('',#775,#632,#633);
#498=AXIS2_PLACEMENT_3D('',#779,#635,#636);
#499=AXIS2_PLACEMENT_3D('',#780,#637,#638);
#500=AXIS2_PLACEMENT_3D('',#781,#639,#640);
#501=AXIS2_PLACEMENT_3D('',#782,#641,#642);
#502=AXIS2_PLACEMENT_3D('',#783,#643,#644);
#503=AXIS2_PLACEMENT_3D('',#785,#645,#646);
#504=AXIS2_PLACEMENT_3D('',#787,#647,#648);
#505=AXIS2_PLACEMENT_3D('',#788,#649,#650);
#506=AXIS2_PLACEMENT_3D('',#789,#651,#652);
#507=AXIS2_PLACEMENT_3D('',#792,#654,#655);
#508=AXIS2_PLACEMENT_3D('',#793,#656,#657);
#509=AXIS2_PLACEMENT_3D('',#795,#658,#659);
#510=AXIS2_PLACEMENT_3D('',#797,#660,#661);
#511=AXIS2_PLACEMENT_3D('',#798,#662,#663);
#512=AXIS2_PLACEMENT_3D('',#801,#665,#666);
#513=AXIS2_PLACEMENT_3D('',#802,#667,#668);
#514=AXIS2_PLACEMENT_3D('',#804,#669,#670);
#515=AXIS2_PLACEMENT_3D('',#805,#671,#672);
#516=AXIS2_PLACEMENT_3D('',#808,#674,#675);
#517=AXIS2_PLACEMENT_3D('',#809,#676,#677);
#518=AXIS2_PLACEMENT_3D('',#810,#678,#679);
#519=DIRECTION('axis',(0.,0.,1.));
#520=DIRECTION('refdir',(1.,0.,0.));
#521=DIRECTION('center_axis',(4.60494250767098E-15,1.,0.));
#522=DIRECTION('ref_axis',(0.,0.,1.));
#523=DIRECTION('center_axis',(-4.60494250767098E-15,-1.,0.));
#524=DIRECTION('ref_axis',(1.,-4.60494250767098E-15,0.));
#525=DIRECTION('center_axis',(-1.,4.60494250767098E-15,1.22464679914735E-16));
#526=DIRECTION('ref_axis',(-1.22464679914735E-16,0.,-1.));
#527=DIRECTION('center_axis',(4.60494250767098E-15,1.,0.));
#528=DIRECTION('ref_axis',(1.,-4.60318777729379E-15,0.));
#529=DIRECTION('center_axis',(4.60494250767098E-15,1.,0.));
#530=DIRECTION('ref_axis',(1.,-4.60318777729379E-15,0.));
#531=DIRECTION('center_axis',(4.60494250767098E-15,1.,0.));
#532=DIRECTION('ref_axis',(-1.,4.60490231804751E-15,0.));
#533=DIRECTION('',(-4.60494250767098E-15,-1.,0.));
#534=DIRECTION('center_axis',(-4.60494250767098E-15,-1.,0.));
#535=DIRECTION('ref_axis',(1.,-4.60575079944247E-15,0.));
#536=DIRECTION('center_axis',(-4.60494250767098E-15,-1.,0.));
#537=DIRECTION('ref_axis',(1.,-4.60575079944247E-15,0.));
#538=DIRECTION('center_axis',(4.60494250767098E-15,1.,0.));
#539=DIRECTION('ref_axis',(0.,0.,1.));
#540=DIRECTION('center_axis',(4.60494250767098E-15,1.,0.));
#541=DIRECTION('ref_axis',(1.,-4.60494250767098E-15,0.));
#542=DIRECTION('center_axis',(2.00173917426769E-15,1.,-2.37725113968601E-15));
#543=DIRECTION('ref_axis',(1.,-4.61209313344378E-15,-3.09217467147624E-17));
#544=DIRECTION('center_axis',(-4.61914182582748E-15,-1.,-3.78618182444876E-17));
#545=DIRECTION('ref_axis',(1.,-4.61914182582748E-15,-6.12323399573676E-17));
#546=DIRECTION('center_axis',(-4.61914182582748E-15,-1.,-3.78618182444876E-17));
#547=DIRECTION('ref_axis',(1.,-4.61914182582748E-15,-6.12323399573676E-17));
#548=DIRECTION('',(0.608761429008724,-0.793353340291232,1.79262439211552E-15));
#549=DIRECTION('center_axis',(4.60494250767098E-15,1.,0.));
#550=DIRECTION('ref_axis',(1.,-4.60490231804751E-15,0.));
#551=DIRECTION('center_axis',(4.60494250767098E-15,1.,0.));
#552=DIRECTION('ref_axis',(1.,-4.60490231804751E-15,0.));
#553=DIRECTION('center_axis',(4.60494250767098E-15,1.,0.));
#554=DIRECTION('ref_axis',(-1.,4.60490231804751E-15,0.));
#555=DIRECTION('',(-4.60494250767098E-15,-1.,0.));
#556=DIRECTION('center_axis',(-4.60494250767098E-15,-1.,0.));
#557=DIRECTION('ref_axis',(1.,-4.60490231804751E-15,0.));
#558=DIRECTION('center_axis',(-4.60494250767098E-15,-1.,0.));
#559=DIRECTION('ref_axis',(1.,-4.60490231804751E-15,0.));
#560=DIRECTION('center_axis',(4.60494250767098E-15,1.,0.));
#561=DIRECTION('ref_axis',(-1.,4.60490231804751E-15,0.));
#562=DIRECTION('center_axis',(4.6194134542041E-15,1.,-5.42314119151815E-31));
#563=DIRECTION('ref_axis',(1.,-4.6194134542041E-15,-6.12323399573677E-17));
#564=DIRECTION('center_axis',(4.6194134542041E-15,1.,-5.42314119151815E-31));
#565=DIRECTION('ref_axis',(1.,-4.6194134542041E-15,-6.12323399573677E-17));
#566=DIRECTION('',(-0.96592582628907,-0.258819045102513,1.18291797137867E-16));
#567=DIRECTION('center_axis',(-4.10706674305453E-15,-1.,-2.37725113968604E-15));
#568=DIRECTION('ref_axis',(1.,-4.62165306170009E-15,-3.09217467147624E-17));
#569=DIRECTION('',(-0.608761429008727,-0.793353340291231,-1.79262439211554E-15));
#570=DIRECTION('center_axis',(4.63807273494973E-15,1.,-3.43479138888659E-31));
#571=DIRECTION('ref_axis',(1.,-4.63807273494973E-15,-6.12323399573677E-17));
#572=DIRECTION('center_axis',(4.63807273494973E-15,1.,-3.43479138888659E-31));
#573=DIRECTION('ref_axis',(1.,-4.63807273494973E-15,-6.12323399573677E-17));
#574=DIRECTION('center_axis',(-4.60494250767098E-15,-1.,0.));
#575=DIRECTION('ref_axis',(-1.,4.60490231804751E-15,0.));
#576=DIRECTION('',(0.96592582628907,-0.258819045102514,-1.18291797137867E-16));
#577=DIRECTION('center_axis',(-4.6027968590451E-15,-1.,4.16091567070156E-31));
#578=DIRECTION('ref_axis',(1.,-4.6027968590451E-15,-6.12323399573677E-17));
#579=DIRECTION('center_axis',(-4.6027968590451E-15,-1.,4.16091567070156E-31));
#580=DIRECTION('ref_axis',(1.,-4.6027968590451E-15,-6.12323399573677E-17));
#581=DIRECTION('center_axis',(4.75572593981959E-15,1.,-1.04237988434981E-15));
#582=DIRECTION('ref_axis',(1.,-4.58149246413049E-15,-3.13220870656386E-17));
#583=DIRECTION('center_axis',(-4.55913780272657E-15,-1.,-2.07233536487571E-16));
#584=DIRECTION('ref_axis',(1.,-4.55913780272657E-15,-6.12323399573677E-17));
#585=DIRECTION('center_axis',(-4.55913780272657E-15,-1.,-2.07233536487571E-16));
#586=DIRECTION('ref_axis',(1.,-4.55913780272657E-15,-6.12323399573677E-17));
#587=DIRECTION('',(0.608759391050347,-0.793354904067537,7.33358054531693E-16));
#588=DIRECTION('center_axis',(4.60494250767098E-15,1.,0.));
#589=DIRECTION('ref_axis',(1.,-4.60490231804751E-15,0.));
#590=DIRECTION('center_axis',(4.60494250767098E-15,1.,0.));
#591=DIRECTION('ref_axis',(1.,-4.60490231804751E-15,0.));
#592=DIRECTION('center_axis',(4.60494250767098E-15,1.,0.));
#593=DIRECTION('ref_axis',(-1.,4.60490231804751E-15,0.));
#594=DIRECTION('',(-4.60494250767098E-15,-1.,0.));
#595=DIRECTION('center_axis',(-4.60494250767098E-15,-1.,0.));
#596=DIRECTION('ref_axis',(1.,-4.60490231804751E-15,0.));
#597=DIRECTION('center_axis',(-4.60494250767098E-15,-1.,0.));
#598=DIRECTION('ref_axis',(1.,-4.60490231804751E-15,0.));
#599=DIRECTION('center_axis',(4.60494250767098E-15,1.,0.));
#600=DIRECTION('ref_axis',(-1.,4.60490231804751E-15,0.));
#601=DIRECTION('center_axis',(4.69578022030919E-15,1.,-7.91050198730487E-31));
#602=DIRECTION('ref_axis',(1.,-4.69578022030919E-15,-6.12323399573677E-17));
#603=DIRECTION('center_axis',(4.69578022030919E-15,1.,-7.91050198730487E-31));
#604=DIRECTION('ref_axis',(1.,-4.69578022030919E-15,-6.12323399573677E-17));
#605=DIRECTION('',(-0.965924496576823,-0.258824007605188,1.18291634295082E-16));
#606=DIRECTION('center_axis',(-3.55418736019813E-15,-1.,-1.04238405829024E-15));
#607=DIRECTION('ref_axis',(1.,-4.63449524715455E-15,-3.13220880150287E-17));
#608=DIRECTION('',(-0.608761429013164,-0.793353340287826,-7.33359421899104E-16));
#609=DIRECTION('center_axis',(4.66275428163778E-15,1.,-5.7331557091545E-31));
#610=DIRECTION('ref_axis',(1.,-4.66275428163778E-15,-6.12323399573677E-17));
#611=DIRECTION('center_axis',(4.66275428163778E-15,1.,-5.7331557091545E-31));
#612=DIRECTION('ref_axis',(1.,-4.66275428163778E-15,-6.12323399573677E-17));
#613=DIRECTION('center_axis',(-4.60494250767098E-15,-1.,0.));
#614=DIRECTION('ref_axis',(-1.,4.60490231804751E-15,0.));
#615=DIRECTION('',(0.965925826289066,-0.258819045102529,-1.18291797137867E-16));
#616=DIRECTION('center_axis',(-4.51971388325005E-15,-1.,-6.64663806360295E-17));
#617=DIRECTION('ref_axis',(1.,-4.51971388325005E-15,-6.12323399573677E-17));
#618=DIRECTION('center_axis',(-4.51971388325005E-15,-1.,-6.64663806360295E-17));
#619=DIRECTION('ref_axis',(1.,-4.51971388325005E-15,-6.12323399573677E-17));
#620=DIRECTION('center_axis',(4.60494250767098E-15,1.,0.));
#621=DIRECTION('ref_axis',(0.,0.,1.));
#622=DIRECTION('center_axis',(-1.,4.60494250767098E-15,1.22464679914735E-16));
#623=DIRECTION('ref_axis',(-1.22464679914735E-16,0.,-1.));
#624=DIRECTION('center_axis',(4.60494250767098E-15,1.,0.));
#625=DIRECTION('ref_axis',(0.,0.,1.));
#626=DIRECTION('center_axis',(-1.,4.60494250767098E-15,1.22464679914735E-16));
#627=DIRECTION('ref_axis',(-1.22464679914735E-16,0.,-1.));
#628=DIRECTION('center_axis',(4.60494250767098E-15,1.,0.));
#629=DIRECTION('ref_axis',(1.,-4.60416019035727E-15,0.));
#630=DIRECTION('center_axis',(4.60494250767098E-15,1.,0.));
#631=DIRECTION('ref_axis',(1.,-4.60416019035727E-15,0.));
#632=DIRECTION('center_axis',(4.60494250767098E-15,1.,0.));
#633=DIRECTION('ref_axis',(-1.,4.60490231804751E-15,0.));
#634=DIRECTION('',(-4.60494250767098E-15,-1.,0.));
#635=DIRECTION('center_axis',(-4.60494250767098E-15,-1.,0.));
#636=DIRECTION('ref_axis',(1.,-4.60416019035727E-15,0.));
#637=DIRECTION('center_axis',(-4.60494250767098E-15,-1.,0.));
#638=DIRECTION('ref_axis',(1.,-4.60416019035727E-15,0.));
#639=DIRECTION('center_axis',(4.60494250767098E-15,1.,0.));
#640=DIRECTION('ref_axis',(0.,0.,1.));
#641=DIRECTION('center_axis',(-1.,4.60494250767098E-15,1.22464679914735E-16));
#642=DIRECTION('ref_axis',(-1.22464679914735E-16,0.,-1.));
#643=DIRECTION('center_axis',(4.60494250767098E-15,1.,0.));
#644=DIRECTION('ref_axis',(0.,0.,1.));
#645=DIRECTION('center_axis',(-1.,4.60494250767098E-15,1.22464679914735E-16));
#646=DIRECTION('ref_axis',(-1.22464679914735E-16,0.,-1.));
#647=DIRECTION('center_axis',(4.60494250767098E-15,1.,0.));
#648=DIRECTION('ref_axis',(1.,-4.60416019035727E-15,0.));
#649=DIRECTION('center_axis',(4.60494250767098E-15,1.,0.));
#650=DIRECTION('ref_axis',(1.,-4.60416019035727E-15,0.));
#651=DIRECTION('center_axis',(4.60494250767098E-15,1.,0.));
#652=DIRECTION('ref_axis',(-1.,4.60490231804751E-15,0.));
#653=DIRECTION('',(-4.60494250767098E-15,-1.,0.));
#654=DIRECTION('center_axis',(4.60494250767098E-15,1.,0.));
#655=DIRECTION('ref_axis',(1.,-4.60494250767098E-15,0.));
#656=DIRECTION('center_axis',(4.60494250767098E-15,1.,0.));
#657=DIRECTION('ref_axis',(0.,0.,1.));
#658=DIRECTION('center_axis',(4.60494250767098E-15,1.,0.));
#659=DIRECTION('ref_axis',(1.,-4.60494250767098E-15,0.));
#660=DIRECTION('center_axis',(4.60494250767098E-15,1.,0.));
#661=DIRECTION('ref_axis',(1.,-4.60494250767098E-15,0.));
#662=DIRECTION('center_axis',(4.60494250767098E-15,1.,0.));
#663=DIRECTION('ref_axis',(-1.,4.60490231804751E-15,0.));
#664=DIRECTION('',(-4.60494250767098E-15,-1.,0.));
#665=DIRECTION('center_axis',(4.60494250767098E-15,1.,0.));
#666=DIRECTION('ref_axis',(1.,-4.60494250767098E-15,0.));
#667=DIRECTION('center_axis',(-4.60494250767098E-15,-1.,0.));
#668=DIRECTION('ref_axis',(0.,0.,-1.));
#669=DIRECTION('center_axis',(4.60494250767098E-15,1.,0.));
#670=DIRECTION('ref_axis',(1.,-4.60494250767098E-15,0.));
#671=DIRECTION('center_axis',(4.60494250767098E-15,1.,0.));
#672=DIRECTION('ref_axis',(-1.,4.60490231804751E-15,0.));
#673=DIRECTION('',(-4.60494250767098E-15,-1.,0.));
#674=DIRECTION('center_axis',(4.60494250767098E-15,1.,0.));
#675=DIRECTION('ref_axis',(1.,-4.60494250767098E-15,0.));
#676=DIRECTION('center_axis',(-4.60494250767098E-15,-1.,0.));
#677=DIRECTION('ref_axis',(0.,0.,-1.));
#678=DIRECTION('center_axis',(4.60494250767098E-15,1.,0.));
#679=DIRECTION('ref_axis',(-1.,4.60490231804751E-15,0.));
#680=DIRECTION('',(-4.60494250767098E-15,-1.,0.));
#681=CARTESIAN_POINT('',(0.,0.,0.));
#682=CARTESIAN_POINT('Origin',(5.59500514682022E-14,12.15,0.));
#683=CARTESIAN_POINT('',(6.02015615688867E-14,13.4,-12.2865469043961));
#684=CARTESIAN_POINT('Origin',(6.1706229602791E-14,13.4,0.));
#685=CARTESIAN_POINT('',(5.42923025844046E-14,12.15,-13.5365469043961));
#686=CARTESIAN_POINT('Origin',(5.4445383434298E-14,12.15,-12.2865469043961));
#687=CARTESIAN_POINT('',(13.5365469043962,12.1499999999999,-1.65774888379767E-15));
#688=CARTESIAN_POINT('Origin',(5.59500514682022E-14,12.15,0.));
#689=CARTESIAN_POINT('Origin',(5.59500514682022E-14,12.15,0.));
#690=CARTESIAN_POINT('Origin',(5.6416415770608E-14,12.2512747285398,0.));
#691=CARTESIAN_POINT('',(13.5365469043962,11.4094786197718,-1.65774888379767E-15));
#692=CARTESIAN_POINT('',(13.5365469043962,12.2512747285397,-1.65774888379767E-15));
#693=CARTESIAN_POINT('',(5.08822442027532E-14,11.4094786197719,-13.5365469043961));
#694=CARTESIAN_POINT('Origin',(5.25399930865508E-14,11.4094786197719,0.));
#695=CARTESIAN_POINT('Origin',(5.25399930865508E-14,11.4094786197719,0.));
#696=CARTESIAN_POINT('Origin',(-6.59999999999997,13.4,0.));
#697=CARTESIAN_POINT('',(6.60000000000009,13.3999999999999,-8.08266887437256E-16));
#698=CARTESIAN_POINT('Origin',(6.1706229602791E-14,13.4,0.));
#699=CARTESIAN_POINT('Origin',(1.6275371259993E-14,3.64106946443235,-4.48879351444263E-16));
#700=CARTESIAN_POINT('',(-14.6615122582867,3.82989232119779,-1.79551740577705E-15));
#701=CARTESIAN_POINT('',(14.6615122582867,3.82989232119765,-1.79551740577705E-15));
#702=CARTESIAN_POINT('Origin',(1.66533453693773E-14,3.82989232119772,-8.97758702888526E-16));
#703=CARTESIAN_POINT('Origin',(1.66533453693773E-14,3.82989232119772,-8.97758702888526E-16));
#704=CARTESIAN_POINT('',(-14.3717345104,3.45224660766703,1.76002986663569E-15));
#705=CARTESIAN_POINT('',(-14.5166233843433,3.64106946443241,1.77777363620637E-15));
#706=CARTESIAN_POINT('',(14.3717345104,3.4522466076669,-1.76002986663569E-15));
#707=CARTESIAN_POINT('Origin',(1.58973971506086E-14,3.45224660766697,0.));
#708=CARTESIAN_POINT('Origin',(1.58973971506086E-14,3.45224660766697,0.));
#709=CARTESIAN_POINT('Origin',(1.42753217737797E-14,3.09999999999992,0.));
#710=CARTESIAN_POINT('',(14.3717345104,2.74775339233281,-1.76002986663569E-15));
#711=CARTESIAN_POINT('',(14.3717345104,3.09999999999986,-1.76002986663569E-15));
#712=CARTESIAN_POINT('',(-14.3717345104,2.74775339233294,-1.76002986663569E-15));
#713=CARTESIAN_POINT('Origin',(1.26532463969508E-14,2.74775339233288,0.));
#714=CARTESIAN_POINT('Origin',(1.26532463969508E-14,2.74775339233288,0.));
#715=CARTESIAN_POINT('Origin',(1.89003759781988E-14,4.10436741538342,0.));
#716=CARTESIAN_POINT('',(1.8110465397294E-14,4.37704868777582,-16.703527618041));
#717=CARTESIAN_POINT('',(16.703527618041,4.37704868777575,-2.04559216319033E-15));
#718=CARTESIAN_POINT('Origin',(2.1094237467878E-14,4.37704868777582,-1.02279608159517E-15));
#719=CARTESIAN_POINT('Origin',(2.1094237467878E-14,4.37704868777582,-1.02279608159517E-15));
#720=CARTESIAN_POINT('',(15.6858672552,4.10436741538335,-1.9209647125931E-15));
#721=CARTESIAN_POINT('Origin',(1.18777383216012E-14,2.5589305355675,-4.48879351444263E-16));
#722=CARTESIAN_POINT('',(-14.6615122582867,2.37010767880219,1.79551740577705E-15));
#723=CARTESIAN_POINT('',(-14.5166233843433,2.55893053556757,1.77777363620637E-15));
#724=CARTESIAN_POINT('',(14.6615122582867,2.37010767880206,-1.79551740577705E-15));
#725=CARTESIAN_POINT('Origin',(1.11022302462516E-14,2.37010767880213,-8.97758702888525E-16));
#726=CARTESIAN_POINT('Origin',(1.11022302462516E-14,2.37010767880213,-8.97758702888525E-16));
#727=CARTESIAN_POINT('Origin',(9.65026756936066E-15,2.09563258461644,0.));
#728=CARTESIAN_POINT('',(16.703527618041,1.82295131222397,-2.04559216319033E-15));
#729=CARTESIAN_POINT('',(15.6858672552,2.09563258461637,-1.92096471259309E-15));
#730=CARTESIAN_POINT('',(6.34899382388477E-15,1.82295131222405,-16.703527618041));
#731=CARTESIAN_POINT('Origin',(8.88178419700125E-15,1.82295131222405,-1.02279608159517E-15));
#732=CARTESIAN_POINT('Origin',(8.88178419700125E-15,1.82295131222405,-1.02279608159517E-15));
#733=CARTESIAN_POINT('Origin',(4.62429345622228E-14,10.0317174501496,-3.28043205866063E-16));
#734=CARTESIAN_POINT('',(-10.7147042263764,10.3464234520509,-1.31217282346425E-15));
#735=CARTESIAN_POINT('',(10.7147042263765,10.3464234520508,-1.31217282346425E-15));
#736=CARTESIAN_POINT('Origin',(4.77395900588817E-14,10.3464234520508,-6.56086411732126E-16));
#737=CARTESIAN_POINT('Origin',(4.77395900588817E-14,10.3464234520508,-6.56086411732126E-16));
#738=CARTESIAN_POINT('',(-10.2317419780936,9.7170114482483,1.2530270063174E-15));
#739=CARTESIAN_POINT('',(-10.473223102235,10.0317174501496,1.28259991489082E-15));
#740=CARTESIAN_POINT('',(10.2317419780937,9.71701144824821,-1.2530270063174E-15));
#741=CARTESIAN_POINT('Origin',(4.47462790655639E-14,9.71701144824826,0.));
#742=CARTESIAN_POINT('Origin',(4.47462790655639E-14,9.71701144824826,0.));
#743=CARTESIAN_POINT('Origin',(4.23654506361296E-14,9.19999556249762,0.));
#744=CARTESIAN_POINT('',(10.2317419780937,8.68297967674693,-1.2530270063174E-15));
#745=CARTESIAN_POINT('',(10.2317419780937,9.19999556249757,-1.2530270063174E-15));
#746=CARTESIAN_POINT('',(-10.2317419780936,8.68297967674703,-1.2530270063174E-15));
#747=CARTESIAN_POINT('Origin',(3.99846222066954E-14,8.68297967674698,0.));
#748=CARTESIAN_POINT('Origin',(3.99846222066954E-14,8.68297967674698,0.));
#749=CARTESIAN_POINT('Origin',(4.90876761289123E-14,10.6597804526639,0.));
#750=CARTESIAN_POINT('',(4.91393406456259E-14,11.0231088211412,-13.2400765074382));
#751=CARTESIAN_POINT('',(13.2400765074383,11.0231088211411,-1.62144173153003E-15));
#752=CARTESIAN_POINT('Origin',(5.21804821573824E-14,11.0231088211412,-8.10720865765013E-16));
#753=CARTESIAN_POINT('Origin',(5.21804821573824E-14,11.0231088211412,-8.10720865765013E-16));
#754=CARTESIAN_POINT('',(11.8841444412414,10.6597804526639,-1.4553879450571E-15));
#755=CARTESIAN_POINT('Origin',(3.88661025219753E-14,8.36827491547135,-3.28043226221754E-16));
#756=CARTESIAN_POINT('',(-10.7147048912437,8.05357015419576,1.31217290488702E-15));
#757=CARTESIAN_POINT('',(-10.4732234346686,8.3682749154714,1.28259995560221E-15));
#758=CARTESIAN_POINT('',(10.7147048912438,8.05357015419567,-1.31217290488701E-15));
#759=CARTESIAN_POINT('Origin',(3.77475828372553E-14,8.05357015419571,-6.56086452443508E-16));
#760=CARTESIAN_POINT('Origin',(3.77475828372553E-14,8.05357015419571,-6.56086452443508E-16));
#761=CARTESIAN_POINT('Origin',(3.350650588866E-14,7.27620504118007,0.));
#762=CARTESIAN_POINT('',(16.703527618041,6.44886994093713,-2.04559216319033E-15));
#763=CARTESIAN_POINT('',(13.6158709890496,7.27620504118001,-1.66746328243429E-15));
#764=CARTESIAN_POINT('',(2.76510831542731E-14,6.44886994093721,-16.703527618041));
#765=CARTESIAN_POINT('Origin',(3.10862446895044E-14,6.44886994093721,-1.02279608159517E-15));
#766=CARTESIAN_POINT('Origin',(3.10862446895044E-14,6.44886994093721,-1.02279608159517E-15));
#767=CARTESIAN_POINT('Origin',(5.25399930865508E-14,11.4094786197719,0.));
#768=CARTESIAN_POINT('Origin',(5.09312300747191E-14,11.4094786197719,-13.1365469043961));
#769=CARTESIAN_POINT('Origin',(2.79174621587691E-14,6.06249961042158,0.));
#770=CARTESIAN_POINT('',(2.58355626002186E-14,6.06249961042158,-17.));
#771=CARTESIAN_POINT('Origin',(2.58845484721845E-14,6.06249961042158,-16.6));
#772=CARTESIAN_POINT('',(17.,6.0624996104215,-2.0818995585505E-15));
#773=CARTESIAN_POINT('Origin',(2.79174621587691E-14,6.06249961042158,0.));
#774=CARTESIAN_POINT('Origin',(2.79174621587691E-14,6.06249961042158,0.));
#775=CARTESIAN_POINT('Origin',(2.49263664389739E-14,5.41295931435651,0.));
#776=CARTESIAN_POINT('',(17.,4.76341901829137,-2.0818995585505E-15));
#777=CARTESIAN_POINT('',(17.,5.41295931435644,-2.0818995585505E-15));
#778=CARTESIAN_POINT('',(1.98533711606282E-14,4.76341901829145,-17.));
#779=CARTESIAN_POINT('Origin',(2.19352707191787E-14,4.76341901829145,0.));
#780=CARTESIAN_POINT('Origin',(2.19352707191787E-14,4.76341901829145,0.));
#781=CARTESIAN_POINT('Origin',(2.19352707191787E-14,4.76341901829145,0.));
#782=CARTESIAN_POINT('Origin',(1.99023570325941E-14,4.76341901829145,-16.6));
#783=CARTESIAN_POINT('Origin',(6.6153728283808E-15,1.43658098170842,0.));
#784=CARTESIAN_POINT('',(4.5334732698303E-15,1.43658098170842,-17.));
#785=CARTESIAN_POINT('Origin',(4.5824591417962E-15,1.43658098170842,-16.6));
#786=CARTESIAN_POINT('',(17.,1.43658098170834,-2.0818995585505E-15));
#787=CARTESIAN_POINT('Origin',(6.6153728283808E-15,1.43658098170842,0.));
#788=CARTESIAN_POINT('Origin',(6.6153728283808E-15,1.43658098170842,0.));
#789=CARTESIAN_POINT('Origin',(4.01438574703569E-15,0.871755888449957,0.));
#790=CARTESIAN_POINT('',(17.,-1.69309011255336E-13,-2.0818995585505E-15));
#791=CARTESIAN_POINT('',(17.,0.871755888449878,-2.0818995585505E-15));
#792=CARTESIAN_POINT('Origin',(-4.10207670714926E-28,-9.10382880192628E-14,
0.));
#793=CARTESIAN_POINT('Origin',(-4.49999999999996,9.45,0.));
#794=CARTESIAN_POINT('',(6.60000000000007,9.44999999999994,-8.08266887437256E-16));
#795=CARTESIAN_POINT('Origin',(4.35167066974906E-14,9.44999999999997,0.));
#796=CARTESIAN_POINT('',(4.50000000000004,9.44999999999996,-5.51091059616309E-16));
#797=CARTESIAN_POINT('Origin',(4.35167066974906E-14,9.44999999999998,0.));
#798=CARTESIAN_POINT('Origin',(3.08531148013955E-14,6.69999999999998,0.));
#799=CARTESIAN_POINT('',(4.50000000000002,3.94999999999996,-5.51091059616309E-16));
#800=CARTESIAN_POINT('',(4.50000000000003,6.69999999999996,-5.51091059616309E-16));
#801=CARTESIAN_POINT('Origin',(1.81895229053003E-14,3.94999999999998,0.));
#802=CARTESIAN_POINT('Origin',(-6.59999999999997,3.95,0.));
#803=CARTESIAN_POINT('',(6.6,3.94999999999994,-8.08266887437251E-16));
#804=CARTESIAN_POINT('Origin',(1.81895229053002E-14,3.94999999999997,0.));
#805=CARTESIAN_POINT('Origin',(9.09476145265003E-15,1.97499999999997,0.));
#806=CARTESIAN_POINT('',(6.59999999999998,-6.55031584528842E-14,-8.08266887437251E-16));
#807=CARTESIAN_POINT('',(6.59999999999999,1.97499999999994,-8.08266887437251E-16));
#808=CARTESIAN_POINT('Origin',(-1.57772181044202E-28,-3.5527136788005E-14,
0.));
#809=CARTESIAN_POINT('Origin',(-17.,-1.25263331597271E-14,0.));
#810=CARTESIAN_POINT('Origin',(5.26114681501408E-14,11.425,0.));
#811=CARTESIAN_POINT('',(6.60000000000008,11.4249999999999,-8.08266887437256E-16));
#812=UNCERTAINTY_MEASURE_WITH_UNIT(LENGTH_MEASURE(0.01),#816,
'DISTANCE_ACCURACY_VALUE',
'Maximum model space distance between geometric entities at asserted c
onnectivities');
#813=UNCERTAINTY_MEASURE_WITH_UNIT(LENGTH_MEASURE(0.01),#816,
'DISTANCE_ACCURACY_VALUE',
'Maximum model space distance between geometric entities at asserted c
onnectivities');
#814=(
GEOMETRIC_REPRESENTATION_CONTEXT(3)
GLOBAL_UNCERTAINTY_ASSIGNED_CONTEXT((#812))
GLOBAL_UNIT_ASSIGNED_CONTEXT((#816,#818,#819))
REPRESENTATION_CONTEXT('','3D')
);
#815=(
GEOMETRIC_REPRESENTATION_CONTEXT(3)
GLOBAL_UNCERTAINTY_ASSIGNED_CONTEXT((#813))
GLOBAL_UNIT_ASSIGNED_CONTEXT((#816,#818,#819))
REPRESENTATION_CONTEXT('','3D')
);
#816=(
LENGTH_UNIT()
NAMED_UNIT(*)
SI_UNIT(.MILLI.,.METRE.)
);
#817=(
LENGTH_UNIT()
NAMED_UNIT(*)
SI_UNIT($,.METRE.)
);
#818=(
NAMED_UNIT(*)
PLANE_ANGLE_UNIT()
SI_UNIT($,.RADIAN.)
);
#819=(
NAMED_UNIT(*)
SI_UNIT($,.STERADIAN.)
SOLID_ANGLE_UNIT()
);
#820=SHAPE_DEFINITION_REPRESENTATION(#821,#822);
#821=PRODUCT_DEFINITION_SHAPE('',$,#824);
#822=SHAPE_REPRESENTATION('',(#446),#814);
#823=PRODUCT_DEFINITION_CONTEXT('part definition',#828,'design');
#824=PRODUCT_DEFINITION('DoublePulley_08_UCF','DoublePulley_08_UCF',#825,
#823);
#825=PRODUCT_DEFINITION_FORMATION('',$,#830);
#826=PRODUCT_RELATED_PRODUCT_CATEGORY('DoublePulley_08_UCF',
'DoublePulley_08_UCF',(#830));
#827=APPLICATION_PROTOCOL_DEFINITION('international standard',
'automotive_design',2009,#828);
#828=APPLICATION_CONTEXT(
'Core Data for Automotive Mechanical Design Process');
#829=PRODUCT_CONTEXT('part definition',#828,'mechanical');
#830=PRODUCT('DoublePulley_08_UCF','DoublePulley_08_UCF',$,(#829));
#831=PRESENTATION_STYLE_ASSIGNMENT((#832));
#832=SURFACE_STYLE_USAGE(.BOTH.,#833);
#833=SURFACE_SIDE_STYLE('',(#834));
#834=SURFACE_STYLE_FILL_AREA(#835);
#835=FILL_AREA_STYLE('Paint - Metallic (Yellow)',(#836));
#836=FILL_AREA_STYLE_COLOUR('Paint - Metallic (Yellow)',#837);
#837=COLOUR_RGB('Paint - Metallic (Yellow)',0.909803921568627,0.67843137254902,
0.137254901960784);
ENDSEC;
END-ISO-10303-21;
