ISO-10303-21;
HEADER;
/* Generated by software containing ST-Developer
 * from STEP Tools, Inc. (www.steptools.com) 
 */

FILE_DESCRIPTION(
/* description */ (''),
/* implementation_level */ '2;1');

FILE_NAME(
/* name */ 'Pulley_12mm_Bore.step',
/* time_stamp */ '2026-03-03T14:15:45-08:00',
/* author */ (''),
/* organization */ (''),
/* preprocessor_version */ 'ST-DEVELOPER v20.1',
/* originating_system */ 'Autodesk Translation Framework v14.24.0.0',
/* authorisation */ '');

FILE_SCHEMA (('AUTOMOTIVE_DESIGN { 1 0 10303 214 3 1 1 }'));
ENDSEC;

DATA;
#10=MECHANICAL_DESIGN_GEOMETRIC_PRESENTATION_REPRESENTATION('',(#13),#910);
#11=SHAPE_REPRESENTATION_RELATIONSHIP('SRR','None',#917,#12);
#12=ADVANCED_BREP_SHAPE_REPRESENTATION('',(#14),#909);
#13=STYLED_ITEM('',(#926),#14);
#14=MANIFOLD_SOLID_BREP('Body1',#485);
#15=PLANE('',#506);
#16=PLANE('',#525);
#17=PLANE('',#527);
#18=PLANE('',#530);
#19=PLANE('',#531);
#20=PLANE('',#534);
#21=PLANE('',#535);
#22=PLANE('',#538);
#23=PLANE('',#540);
#24=PLANE('',#541);
#25=PLANE('',#543);
#26=PLANE('',#544);
#27=PLANE('',#549);
#28=FACE_BOUND('',#75,.T.);
#29=FACE_BOUND('',#77,.T.);
#30=FACE_BOUND('',#85,.T.);
#31=FACE_BOUND('',#91,.T.);
#32=FACE_BOUND('',#98,.T.);
#33=FACE_BOUND('',#101,.T.);
#34=FACE_BOUND('',#103,.T.);
#35=B_SPLINE_CURVE_WITH_KNOTS('',3,(#715,#716,#717,#718,#719,#720,#721,
#722,#723,#724),.UNSPECIFIED.,.F.,.F.,(4,2,2,2,4),(0.718095370972714,0.77793655320425,
0.837777735435785,0.897619115033035,0.957460494630286),.UNSPECIFIED.);
#36=B_SPLINE_CURVE_WITH_KNOTS('',3,(#726,#727,#728,#729,#730,#731,#732,
#733,#734,#735),.UNSPECIFIED.,.F.,.F.,(4,2,2,2,4),(0.,0.0598413795972505,
0.119682759194501,0.179523941426036,0.239365123657572),.UNSPECIFIED.);
#37=B_SPLINE_CURVE_WITH_KNOTS('',3,(#737,#738,#739,#740,#741,#742,#743,
#744,#745,#746,#747,#748,#749,#750,#751,#752,#753,#754),.UNSPECIFIED.,.F.,
 .F.,(4,2,2,2,2,2,2,2,4),(0.239365123657572,0.299206305889107,0.359047488120642,
0.418888867717893,0.478730247315143,0.538571626912393,0.598413006509644,
0.658254188741179,0.718095370972714),.UNSPECIFIED.);
#38=B_SPLINE_CURVE_WITH_KNOTS('',3,(#757,#758,#759,#760,#761,#762,#763,
#764,#765,#766,#767,#768,#769,#770,#771,#772,#773,#774,#775,#776,#777,#778,
#779,#780,#781,#782),.UNSPECIFIED.,.F.,.F.,(4,2,2,2,2,2,2,2,2,2,2,2,4),
(0.,0.0598413795972505,0.119682759194501,0.179523941426036,0.239365123657572,
0.299206305889107,0.359047488120642,0.418888867717893,0.478730247315143,
0.538571626912394,0.598413006509644,0.658254188741179,0.718095370972715),
 .UNSPECIFIED.);
#39=B_SPLINE_CURVE_WITH_KNOTS('',3,(#783,#784,#785,#786,#787,#788,#789,
#790,#791,#792),.UNSPECIFIED.,.F.,.F.,(4,2,2,2,4),(0.718095370972715,0.77793655320425,
0.837777735435785,0.897619115033036,0.957460494630286),.UNSPECIFIED.);
#40=CYLINDRICAL_SURFACE('',#503,16.);
#41=CYLINDRICAL_SURFACE('',#518,16.);
#42=CYLINDRICAL_SURFACE('',#537,1.5875);
#43=CYLINDRICAL_SURFACE('',#546,1.5875);
#44=CYLINDRICAL_SURFACE('',#547,6.);
#45=CYLINDRICAL_SURFACE('',#551,8.);
#46=CYLINDRICAL_SURFACE('',#552,12.5);
#47=FACE_OUTER_BOUND('',#73,.T.);
#48=FACE_OUTER_BOUND('',#74,.T.);
#49=FACE_OUTER_BOUND('',#76,.T.);
#50=FACE_OUTER_BOUND('',#78,.T.);
#51=FACE_OUTER_BOUND('',#79,.T.);
#52=FACE_OUTER_BOUND('',#80,.T.);
#53=FACE_OUTER_BOUND('',#81,.T.);
#54=FACE_OUTER_BOUND('',#82,.T.);
#55=FACE_OUTER_BOUND('',#83,.T.);
#56=FACE_OUTER_BOUND('',#84,.T.);
#57=FACE_OUTER_BOUND('',#86,.T.);
#58=FACE_OUTER_BOUND('',#87,.T.);
#59=FACE_OUTER_BOUND('',#88,.T.);
#60=FACE_OUTER_BOUND('',#89,.T.);
#61=FACE_OUTER_BOUND('',#90,.T.);
#62=FACE_OUTER_BOUND('',#92,.T.);
#63=FACE_OUTER_BOUND('',#93,.T.);
#64=FACE_OUTER_BOUND('',#94,.T.);
#65=FACE_OUTER_BOUND('',#95,.T.);
#66=FACE_OUTER_BOUND('',#96,.T.);
#67=FACE_OUTER_BOUND('',#97,.T.);
#68=FACE_OUTER_BOUND('',#99,.T.);
#69=FACE_OUTER_BOUND('',#100,.T.);
#70=FACE_OUTER_BOUND('',#102,.T.);
#71=FACE_OUTER_BOUND('',#104,.T.);
#72=FACE_OUTER_BOUND('',#105,.T.);
#73=EDGE_LOOP('',(#317,#318,#319,#320,#321));
#74=EDGE_LOOP('',(#322,#323,#324,#325,#326,#327,#328,#329,#330,#331,#332));
#75=EDGE_LOOP('',(#333,#334));
#76=EDGE_LOOP('',(#335));
#77=EDGE_LOOP('',(#336));
#78=EDGE_LOOP('',(#337,#338,#339,#340,#341,#342));
#79=EDGE_LOOP('',(#343,#344,#345,#346,#347));
#80=EDGE_LOOP('',(#348,#349,#350,#351,#352,#353));
#81=EDGE_LOOP('',(#354,#355,#356,#357,#358,#359));
#82=EDGE_LOOP('',(#360,#361,#362,#363,#364));
#83=EDGE_LOOP('',(#365,#366,#367,#368,#369));
#84=EDGE_LOOP('',(#370));
#85=EDGE_LOOP('',(#371));
#86=EDGE_LOOP('',(#372,#373,#374,#375,#376));
#87=EDGE_LOOP('',(#377,#378,#379,#380));
#88=EDGE_LOOP('',(#381,#382,#383,#384,#385));
#89=EDGE_LOOP('',(#386,#387,#388,#389));
#90=EDGE_LOOP('',(#390,#391,#392,#393));
#91=EDGE_LOOP('',(#394));
#92=EDGE_LOOP('',(#395,#396,#397,#398,#399,#400));
#93=EDGE_LOOP('',(#401,#402,#403,#404));
#94=EDGE_LOOP('',(#405,#406,#407,#408));
#95=EDGE_LOOP('',(#409,#410,#411,#412));
#96=EDGE_LOOP('',(#413,#414,#415,#416));
#97=EDGE_LOOP('',(#417,#418,#419,#420));
#98=EDGE_LOOP('',(#421));
#99=EDGE_LOOP('',(#422,#423,#424,#425,#426));
#100=EDGE_LOOP('',(#427,#428,#429,#430,#431,#432,#433,#434,#435,#436,#437,
#438));
#101=EDGE_LOOP('',(#439,#440,#441,#442));
#102=EDGE_LOOP('',(#443));
#103=EDGE_LOOP('',(#444));
#104=EDGE_LOOP('',(#445,#446,#447,#448));
#105=EDGE_LOOP('',(#449,#450,#451,#452));
#106=LINE('',#705,#141);
#107=LINE('',#713,#142);
#108=LINE('',#736,#143);
#109=LINE('',#801,#144);
#110=LINE('',#805,#145);
#111=LINE('',#812,#146);
#112=LINE('',#821,#147);
#113=LINE('',#824,#148);
#114=LINE('',#829,#149);
#115=LINE('',#838,#150);
#116=LINE('',#840,#151);
#117=LINE('',#842,#152);
#118=LINE('',#846,#153);
#119=LINE('',#848,#154);
#120=LINE('',#849,#155);
#121=LINE('',#854,#156);
#122=LINE('',#856,#157);
#123=LINE('',#859,#158);
#124=LINE('',#860,#159);
#125=LINE('',#865,#160);
#126=LINE('',#871,#161);
#127=LINE('',#873,#162);
#128=LINE('',#874,#163);
#129=LINE('',#877,#164);
#130=LINE('',#879,#165);
#131=LINE('',#880,#166);
#132=LINE('',#885,#167);
#133=LINE('',#886,#168);
#134=LINE('',#888,#169);
#135=LINE('',#889,#170);
#136=LINE('',#894,#171);
#137=LINE('',#896,#172);
#138=LINE('',#898,#173);
#139=LINE('',#904,#174);
#140=LINE('',#906,#175);
#141=VECTOR('',#561,14.6132);
#142=VECTOR('',#570,16.);
#143=VECTOR('',#571,16.);
#144=VECTOR('',#582,15.6433538063893);
#145=VECTOR('',#587,14.25);
#146=VECTOR('',#594,15.6433538063893);
#147=VECTOR('',#605,16.);
#148=VECTOR('',#608,14.25);
#149=VECTOR('',#615,15.625);
#150=VECTOR('',#624,10.);
#151=VECTOR('',#625,10.);
#152=VECTOR('',#626,10.);
#153=VECTOR('',#631,10.);
#154=VECTOR('',#632,10.);
#155=VECTOR('',#633,10.);
#156=VECTOR('',#638,10.);
#157=VECTOR('',#639,10.);
#158=VECTOR('',#644,10.);
#159=VECTOR('',#645,10.);
#160=VECTOR('',#652,1.5875);
#161=VECTOR('',#657,10.);
#162=VECTOR('',#658,10.);
#163=VECTOR('',#659,10.);
#164=VECTOR('',#662,10.);
#165=VECTOR('',#663,10.);
#166=VECTOR('',#664,10.);
#167=VECTOR('',#669,10.);
#168=VECTOR('',#670,10.);
#169=VECTOR('',#673,10.);
#170=VECTOR('',#674,10.);
#171=VECTOR('',#681,1.5875);
#172=VECTOR('',#684,6.);
#173=VECTOR('',#685,6.);
#174=VECTOR('',#694,8.);
#175=VECTOR('',#697,12.5);
#176=CIRCLE('',#500,16.);
#177=CIRCLE('',#501,16.);
#178=CIRCLE('',#502,13.2264);
#179=CIRCLE('',#504,16.);
#180=CIRCLE('',#505,16.);
#181=CIRCLE('',#507,8.);
#182=CIRCLE('',#509,15.2867076127786);
#183=CIRCLE('',#510,15.2867076127786);
#184=CIRCLE('',#512,12.5);
#185=CIRCLE('',#514,16.);
#186=CIRCLE('',#515,16.);
#187=CIRCLE('',#516,15.2867076127786);
#188=CIRCLE('',#517,15.2867076127786);
#189=CIRCLE('',#519,16.);
#190=CIRCLE('',#520,16.);
#191=CIRCLE('',#522,12.5);
#192=CIRCLE('',#524,15.25);
#193=CIRCLE('',#526,6.);
#194=CIRCLE('',#528,6.);
#195=CIRCLE('',#529,6.);
#196=CIRCLE('',#532,6.);
#197=CIRCLE('',#533,6.);
#198=CIRCLE('',#536,1.5875);
#199=CIRCLE('',#539,6.);
#200=CIRCLE('',#542,6.);
#201=CIRCLE('',#545,1.5875);
#202=CIRCLE('',#548,6.);
#203=CIRCLE('',#550,8.);
#204=VERTEX_POINT('',#700);
#205=VERTEX_POINT('',#701);
#206=VERTEX_POINT('',#704);
#207=VERTEX_POINT('',#708);
#208=VERTEX_POINT('',#709);
#209=VERTEX_POINT('',#712);
#210=VERTEX_POINT('',#714);
#211=VERTEX_POINT('',#725);
#212=VERTEX_POINT('',#755);
#213=VERTEX_POINT('',#756);
#214=VERTEX_POINT('',#794);
#215=VERTEX_POINT('',#797);
#216=VERTEX_POINT('',#798);
#217=VERTEX_POINT('',#803);
#218=VERTEX_POINT('',#807);
#219=VERTEX_POINT('',#808);
#220=VERTEX_POINT('',#811);
#221=VERTEX_POINT('',#813);
#222=VERTEX_POINT('',#817);
#223=VERTEX_POINT('',#818);
#224=VERTEX_POINT('',#823);
#225=VERTEX_POINT('',#827);
#226=VERTEX_POINT('',#831);
#227=VERTEX_POINT('',#834);
#228=VERTEX_POINT('',#835);
#229=VERTEX_POINT('',#837);
#230=VERTEX_POINT('',#839);
#231=VERTEX_POINT('',#841);
#232=VERTEX_POINT('',#845);
#233=VERTEX_POINT('',#847);
#234=VERTEX_POINT('',#851);
#235=VERTEX_POINT('',#853);
#236=VERTEX_POINT('',#855);
#237=VERTEX_POINT('',#862);
#238=VERTEX_POINT('',#867);
#239=VERTEX_POINT('',#868);
#240=VERTEX_POINT('',#870);
#241=VERTEX_POINT('',#872);
#242=VERTEX_POINT('',#876);
#243=VERTEX_POINT('',#878);
#244=VERTEX_POINT('',#882);
#245=VERTEX_POINT('',#884);
#246=VERTEX_POINT('',#891);
#247=VERTEX_POINT('',#897);
#248=VERTEX_POINT('',#901);
#249=EDGE_CURVE('',#204,#205,#176,.T.);
#250=EDGE_CURVE('',#205,#204,#177,.T.);
#251=EDGE_CURVE('',#204,#206,#106,.T.);
#252=EDGE_CURVE('',#206,#206,#178,.T.);
#253=EDGE_CURVE('',#207,#208,#179,.T.);
#254=EDGE_CURVE('',#208,#207,#180,.T.);
#255=EDGE_CURVE('',#208,#209,#107,.T.);
#256=EDGE_CURVE('',#209,#210,#35,.T.);
#257=EDGE_CURVE('',#210,#211,#36,.T.);
#258=EDGE_CURVE('',#211,#205,#108,.T.);
#259=EDGE_CURVE('',#211,#209,#37,.T.);
#260=EDGE_CURVE('',#212,#213,#38,.T.);
#261=EDGE_CURVE('',#213,#212,#39,.T.);
#262=EDGE_CURVE('',#214,#214,#181,.T.);
#263=EDGE_CURVE('',#215,#216,#182,.T.);
#264=EDGE_CURVE('',#216,#215,#183,.T.);
#265=EDGE_CURVE('',#215,#207,#109,.T.);
#266=EDGE_CURVE('',#217,#217,#184,.T.);
#267=EDGE_CURVE('',#217,#216,#110,.T.);
#268=EDGE_CURVE('',#218,#219,#185,.T.);
#269=EDGE_CURVE('',#219,#218,#186,.T.);
#270=EDGE_CURVE('',#218,#220,#111,.T.);
#271=EDGE_CURVE('',#220,#221,#187,.T.);
#272=EDGE_CURVE('',#221,#220,#188,.T.);
#273=EDGE_CURVE('',#222,#223,#189,.T.);
#274=EDGE_CURVE('',#223,#222,#190,.T.);
#275=EDGE_CURVE('',#223,#219,#112,.T.);
#276=EDGE_CURVE('',#221,#224,#113,.T.);
#277=EDGE_CURVE('',#224,#224,#191,.T.);
#278=EDGE_CURVE('',#225,#225,#192,.T.);
#279=EDGE_CURVE('',#225,#222,#114,.T.);
#280=EDGE_CURVE('',#226,#226,#193,.T.);
#281=EDGE_CURVE('',#227,#228,#194,.T.);
#282=EDGE_CURVE('',#227,#229,#115,.T.);
#283=EDGE_CURVE('',#229,#230,#116,.T.);
#284=EDGE_CURVE('',#231,#230,#117,.T.);
#285=EDGE_CURVE('',#228,#231,#195,.T.);
#286=EDGE_CURVE('',#231,#232,#118,.T.);
#287=EDGE_CURVE('',#230,#233,#119,.T.);
#288=EDGE_CURVE('',#232,#233,#120,.T.);
#289=EDGE_CURVE('',#232,#234,#196,.T.);
#290=EDGE_CURVE('',#233,#235,#121,.T.);
#291=EDGE_CURVE('',#236,#235,#122,.T.);
#292=EDGE_CURVE('',#234,#236,#197,.T.);
#293=EDGE_CURVE('',#236,#227,#123,.T.);
#294=EDGE_CURVE('',#235,#229,#124,.T.);
#295=EDGE_CURVE('',#237,#237,#198,.T.);
#296=EDGE_CURVE('',#237,#209,#125,.T.);
#297=EDGE_CURVE('',#238,#239,#199,.T.);
#298=EDGE_CURVE('',#238,#240,#126,.T.);
#299=EDGE_CURVE('',#240,#241,#127,.T.);
#300=EDGE_CURVE('',#239,#241,#128,.T.);
#301=EDGE_CURVE('',#239,#242,#129,.T.);
#302=EDGE_CURVE('',#241,#243,#130,.T.);
#303=EDGE_CURVE('',#242,#243,#131,.T.);
#304=EDGE_CURVE('',#242,#244,#200,.T.);
#305=EDGE_CURVE('',#243,#245,#132,.T.);
#306=EDGE_CURVE('',#244,#245,#133,.T.);
#307=EDGE_CURVE('',#244,#238,#134,.T.);
#308=EDGE_CURVE('',#245,#240,#135,.T.);
#309=EDGE_CURVE('',#246,#246,#201,.T.);
#310=EDGE_CURVE('',#246,#213,#136,.T.);
#311=EDGE_CURVE('',#226,#234,#137,.T.);
#312=EDGE_CURVE('',#228,#247,#138,.T.);
#313=EDGE_CURVE('',#247,#247,#202,.T.);
#314=EDGE_CURVE('',#248,#248,#203,.T.);
#315=EDGE_CURVE('',#214,#248,#139,.T.);
#316=EDGE_CURVE('',#224,#217,#140,.T.);
#317=ORIENTED_EDGE('',*,*,#249,.T.);
#318=ORIENTED_EDGE('',*,*,#250,.T.);
#319=ORIENTED_EDGE('',*,*,#251,.T.);
#320=ORIENTED_EDGE('',*,*,#252,.T.);
#321=ORIENTED_EDGE('',*,*,#251,.F.);
#322=ORIENTED_EDGE('',*,*,#253,.F.);
#323=ORIENTED_EDGE('',*,*,#254,.F.);
#324=ORIENTED_EDGE('',*,*,#255,.T.);
#325=ORIENTED_EDGE('',*,*,#256,.T.);
#326=ORIENTED_EDGE('',*,*,#257,.T.);
#327=ORIENTED_EDGE('',*,*,#258,.T.);
#328=ORIENTED_EDGE('',*,*,#249,.F.);
#329=ORIENTED_EDGE('',*,*,#250,.F.);
#330=ORIENTED_EDGE('',*,*,#258,.F.);
#331=ORIENTED_EDGE('',*,*,#259,.T.);
#332=ORIENTED_EDGE('',*,*,#255,.F.);
#333=ORIENTED_EDGE('',*,*,#260,.T.);
#334=ORIENTED_EDGE('',*,*,#261,.T.);
#335=ORIENTED_EDGE('',*,*,#252,.F.);
#336=ORIENTED_EDGE('',*,*,#262,.T.);
#337=ORIENTED_EDGE('',*,*,#263,.T.);
#338=ORIENTED_EDGE('',*,*,#264,.T.);
#339=ORIENTED_EDGE('',*,*,#265,.T.);
#340=ORIENTED_EDGE('',*,*,#253,.T.);
#341=ORIENTED_EDGE('',*,*,#254,.T.);
#342=ORIENTED_EDGE('',*,*,#265,.F.);
#343=ORIENTED_EDGE('',*,*,#266,.F.);
#344=ORIENTED_EDGE('',*,*,#267,.T.);
#345=ORIENTED_EDGE('',*,*,#263,.F.);
#346=ORIENTED_EDGE('',*,*,#264,.F.);
#347=ORIENTED_EDGE('',*,*,#267,.F.);
#348=ORIENTED_EDGE('',*,*,#268,.T.);
#349=ORIENTED_EDGE('',*,*,#269,.T.);
#350=ORIENTED_EDGE('',*,*,#270,.T.);
#351=ORIENTED_EDGE('',*,*,#271,.T.);
#352=ORIENTED_EDGE('',*,*,#272,.T.);
#353=ORIENTED_EDGE('',*,*,#270,.F.);
#354=ORIENTED_EDGE('',*,*,#273,.F.);
#355=ORIENTED_EDGE('',*,*,#274,.F.);
#356=ORIENTED_EDGE('',*,*,#275,.T.);
#357=ORIENTED_EDGE('',*,*,#268,.F.);
#358=ORIENTED_EDGE('',*,*,#269,.F.);
#359=ORIENTED_EDGE('',*,*,#275,.F.);
#360=ORIENTED_EDGE('',*,*,#271,.F.);
#361=ORIENTED_EDGE('',*,*,#272,.F.);
#362=ORIENTED_EDGE('',*,*,#276,.T.);
#363=ORIENTED_EDGE('',*,*,#277,.T.);
#364=ORIENTED_EDGE('',*,*,#276,.F.);
#365=ORIENTED_EDGE('',*,*,#278,.T.);
#366=ORIENTED_EDGE('',*,*,#279,.T.);
#367=ORIENTED_EDGE('',*,*,#273,.T.);
#368=ORIENTED_EDGE('',*,*,#274,.T.);
#369=ORIENTED_EDGE('',*,*,#279,.F.);
#370=ORIENTED_EDGE('',*,*,#278,.F.);
#371=ORIENTED_EDGE('',*,*,#280,.F.);
#372=ORIENTED_EDGE('',*,*,#281,.F.);
#373=ORIENTED_EDGE('',*,*,#282,.T.);
#374=ORIENTED_EDGE('',*,*,#283,.T.);
#375=ORIENTED_EDGE('',*,*,#284,.F.);
#376=ORIENTED_EDGE('',*,*,#285,.F.);
#377=ORIENTED_EDGE('',*,*,#286,.F.);
#378=ORIENTED_EDGE('',*,*,#284,.T.);
#379=ORIENTED_EDGE('',*,*,#287,.T.);
#380=ORIENTED_EDGE('',*,*,#288,.F.);
#381=ORIENTED_EDGE('',*,*,#289,.F.);
#382=ORIENTED_EDGE('',*,*,#288,.T.);
#383=ORIENTED_EDGE('',*,*,#290,.T.);
#384=ORIENTED_EDGE('',*,*,#291,.F.);
#385=ORIENTED_EDGE('',*,*,#292,.F.);
#386=ORIENTED_EDGE('',*,*,#293,.F.);
#387=ORIENTED_EDGE('',*,*,#291,.T.);
#388=ORIENTED_EDGE('',*,*,#294,.T.);
#389=ORIENTED_EDGE('',*,*,#282,.F.);
#390=ORIENTED_EDGE('',*,*,#294,.F.);
#391=ORIENTED_EDGE('',*,*,#290,.F.);
#392=ORIENTED_EDGE('',*,*,#287,.F.);
#393=ORIENTED_EDGE('',*,*,#283,.F.);
#394=ORIENTED_EDGE('',*,*,#295,.F.);
#395=ORIENTED_EDGE('',*,*,#295,.T.);
#396=ORIENTED_EDGE('',*,*,#296,.T.);
#397=ORIENTED_EDGE('',*,*,#259,.F.);
#398=ORIENTED_EDGE('',*,*,#257,.F.);
#399=ORIENTED_EDGE('',*,*,#256,.F.);
#400=ORIENTED_EDGE('',*,*,#296,.F.);
#401=ORIENTED_EDGE('',*,*,#297,.F.);
#402=ORIENTED_EDGE('',*,*,#298,.T.);
#403=ORIENTED_EDGE('',*,*,#299,.T.);
#404=ORIENTED_EDGE('',*,*,#300,.F.);
#405=ORIENTED_EDGE('',*,*,#301,.F.);
#406=ORIENTED_EDGE('',*,*,#300,.T.);
#407=ORIENTED_EDGE('',*,*,#302,.T.);
#408=ORIENTED_EDGE('',*,*,#303,.F.);
#409=ORIENTED_EDGE('',*,*,#304,.F.);
#410=ORIENTED_EDGE('',*,*,#303,.T.);
#411=ORIENTED_EDGE('',*,*,#305,.T.);
#412=ORIENTED_EDGE('',*,*,#306,.F.);
#413=ORIENTED_EDGE('',*,*,#307,.F.);
#414=ORIENTED_EDGE('',*,*,#306,.T.);
#415=ORIENTED_EDGE('',*,*,#308,.T.);
#416=ORIENTED_EDGE('',*,*,#298,.F.);
#417=ORIENTED_EDGE('',*,*,#308,.F.);
#418=ORIENTED_EDGE('',*,*,#305,.F.);
#419=ORIENTED_EDGE('',*,*,#302,.F.);
#420=ORIENTED_EDGE('',*,*,#299,.F.);
#421=ORIENTED_EDGE('',*,*,#309,.F.);
#422=ORIENTED_EDGE('',*,*,#309,.T.);
#423=ORIENTED_EDGE('',*,*,#310,.T.);
#424=ORIENTED_EDGE('',*,*,#260,.F.);
#425=ORIENTED_EDGE('',*,*,#261,.F.);
#426=ORIENTED_EDGE('',*,*,#310,.F.);
#427=ORIENTED_EDGE('',*,*,#280,.T.);
#428=ORIENTED_EDGE('',*,*,#311,.T.);
#429=ORIENTED_EDGE('',*,*,#292,.T.);
#430=ORIENTED_EDGE('',*,*,#293,.T.);
#431=ORIENTED_EDGE('',*,*,#281,.T.);
#432=ORIENTED_EDGE('',*,*,#312,.T.);
#433=ORIENTED_EDGE('',*,*,#313,.F.);
#434=ORIENTED_EDGE('',*,*,#312,.F.);
#435=ORIENTED_EDGE('',*,*,#285,.T.);
#436=ORIENTED_EDGE('',*,*,#286,.T.);
#437=ORIENTED_EDGE('',*,*,#289,.T.);
#438=ORIENTED_EDGE('',*,*,#311,.F.);
#439=ORIENTED_EDGE('',*,*,#304,.T.);
#440=ORIENTED_EDGE('',*,*,#307,.T.);
#441=ORIENTED_EDGE('',*,*,#297,.T.);
#442=ORIENTED_EDGE('',*,*,#301,.T.);
#443=ORIENTED_EDGE('',*,*,#314,.F.);
#444=ORIENTED_EDGE('',*,*,#313,.T.);
#445=ORIENTED_EDGE('',*,*,#262,.F.);
#446=ORIENTED_EDGE('',*,*,#315,.T.);
#447=ORIENTED_EDGE('',*,*,#314,.T.);
#448=ORIENTED_EDGE('',*,*,#315,.F.);
#449=ORIENTED_EDGE('',*,*,#277,.F.);
#450=ORIENTED_EDGE('',*,*,#316,.T.);
#451=ORIENTED_EDGE('',*,*,#266,.T.);
#452=ORIENTED_EDGE('',*,*,#316,.F.);
#453=CONICAL_SURFACE('',#499,14.6132,0.785398163397448);
#454=CONICAL_SURFACE('',#508,15.6433538063893,0.628318530717959);
#455=CONICAL_SURFACE('',#511,14.25,1.25663706143592);
#456=CONICAL_SURFACE('',#513,15.6433538063893,0.628318530717958);
#457=CONICAL_SURFACE('',#521,14.25,1.25663706143592);
#458=CONICAL_SURFACE('',#523,15.625,0.785398163397448);
#459=ADVANCED_FACE('',(#47),#453,.T.);
#460=ADVANCED_FACE('',(#48,#28),#40,.T.);
#461=ADVANCED_FACE('',(#49,#29),#15,.T.);
#462=ADVANCED_FACE('',(#50),#454,.T.);
#463=ADVANCED_FACE('',(#51),#455,.T.);
#464=ADVANCED_FACE('',(#52),#456,.T.);
#465=ADVANCED_FACE('',(#53),#41,.T.);
#466=ADVANCED_FACE('',(#54),#457,.T.);
#467=ADVANCED_FACE('',(#55),#458,.T.);
#468=ADVANCED_FACE('',(#56,#30),#16,.T.);
#469=ADVANCED_FACE('',(#57),#17,.F.);
#470=ADVANCED_FACE('',(#58),#18,.F.);
#471=ADVANCED_FACE('',(#59),#19,.F.);
#472=ADVANCED_FACE('',(#60),#20,.F.);
#473=ADVANCED_FACE('',(#61,#31),#21,.T.);
#474=ADVANCED_FACE('',(#62),#42,.F.);
#475=ADVANCED_FACE('',(#63),#22,.F.);
#476=ADVANCED_FACE('',(#64),#23,.F.);
#477=ADVANCED_FACE('',(#65),#24,.F.);
#478=ADVANCED_FACE('',(#66),#25,.F.);
#479=ADVANCED_FACE('',(#67,#32),#26,.T.);
#480=ADVANCED_FACE('',(#68),#43,.F.);
#481=ADVANCED_FACE('',(#69,#33),#44,.F.);
#482=ADVANCED_FACE('',(#70,#34),#27,.T.);
#483=ADVANCED_FACE('',(#71),#45,.T.);
#484=ADVANCED_FACE('',(#72),#46,.T.);
#485=CLOSED_SHELL('',(#459,#460,#461,#462,#463,#464,#465,#466,#467,#468,
#469,#470,#471,#472,#473,#474,#475,#476,#477,#478,#479,#480,#481,#482,#483,
#484));
#486=DERIVED_UNIT_ELEMENT(#488,1.);
#487=DERIVED_UNIT_ELEMENT(#912,-3.);
#488=(
MASS_UNIT()
NAMED_UNIT(*)
SI_UNIT(.KILO.,.GRAM.)
);
#489=DERIVED_UNIT((#486,#487));
#490=MEASURE_REPRESENTATION_ITEM('density measure',
POSITIVE_RATIO_MEASURE(7850.),#489);
#491=PROPERTY_DEFINITION_REPRESENTATION(#496,#493);
#492=PROPERTY_DEFINITION_REPRESENTATION(#497,#494);
#493=REPRESENTATION('material name',(#495),#909);
#494=REPRESENTATION('density',(#490),#909);
#495=DESCRIPTIVE_REPRESENTATION_ITEM('Steel','Steel');
#496=PROPERTY_DEFINITION('material property','material name',#919);
#497=PROPERTY_DEFINITION('material property','density of part',#919);
#498=AXIS2_PLACEMENT_3D('',#698,#553,#554);
#499=AXIS2_PLACEMENT_3D('',#699,#555,#556);
#500=AXIS2_PLACEMENT_3D('',#702,#557,#558);
#501=AXIS2_PLACEMENT_3D('',#703,#559,#560);
#502=AXIS2_PLACEMENT_3D('',#706,#562,#563);
#503=AXIS2_PLACEMENT_3D('',#707,#564,#565);
#504=AXIS2_PLACEMENT_3D('',#710,#566,#567);
#505=AXIS2_PLACEMENT_3D('',#711,#568,#569);
#506=AXIS2_PLACEMENT_3D('',#793,#572,#573);
#507=AXIS2_PLACEMENT_3D('',#795,#574,#575);
#508=AXIS2_PLACEMENT_3D('',#796,#576,#577);
#509=AXIS2_PLACEMENT_3D('',#799,#578,#579);
#510=AXIS2_PLACEMENT_3D('',#800,#580,#581);
#511=AXIS2_PLACEMENT_3D('',#802,#583,#584);
#512=AXIS2_PLACEMENT_3D('',#804,#585,#586);
#513=AXIS2_PLACEMENT_3D('',#806,#588,#589);
#514=AXIS2_PLACEMENT_3D('',#809,#590,#591);
#515=AXIS2_PLACEMENT_3D('',#810,#592,#593);
#516=AXIS2_PLACEMENT_3D('',#814,#595,#596);
#517=AXIS2_PLACEMENT_3D('',#815,#597,#598);
#518=AXIS2_PLACEMENT_3D('',#816,#599,#600);
#519=AXIS2_PLACEMENT_3D('',#819,#601,#602);
#520=AXIS2_PLACEMENT_3D('',#820,#603,#604);
#521=AXIS2_PLACEMENT_3D('',#822,#606,#607);
#522=AXIS2_PLACEMENT_3D('',#825,#609,#610);
#523=AXIS2_PLACEMENT_3D('',#826,#611,#612);
#524=AXIS2_PLACEMENT_3D('',#828,#613,#614);
#525=AXIS2_PLACEMENT_3D('',#830,#616,#617);
#526=AXIS2_PLACEMENT_3D('',#832,#618,#619);
#527=AXIS2_PLACEMENT_3D('',#833,#620,#621);
#528=AXIS2_PLACEMENT_3D('',#836,#622,#623);
#529=AXIS2_PLACEMENT_3D('',#843,#627,#628);
#530=AXIS2_PLACEMENT_3D('',#844,#629,#630);
#531=AXIS2_PLACEMENT_3D('',#850,#634,#635);
#532=AXIS2_PLACEMENT_3D('',#852,#636,#637);
#533=AXIS2_PLACEMENT_3D('',#857,#640,#641);
#534=AXIS2_PLACEMENT_3D('',#858,#642,#643);
#535=AXIS2_PLACEMENT_3D('',#861,#646,#647);
#536=AXIS2_PLACEMENT_3D('',#863,#648,#649);
#537=AXIS2_PLACEMENT_3D('',#864,#650,#651);
#538=AXIS2_PLACEMENT_3D('',#866,#653,#654);
#539=AXIS2_PLACEMENT_3D('',#869,#655,#656);
#540=AXIS2_PLACEMENT_3D('',#875,#660,#661);
#541=AXIS2_PLACEMENT_3D('',#881,#665,#666);
#542=AXIS2_PLACEMENT_3D('',#883,#667,#668);
#543=AXIS2_PLACEMENT_3D('',#887,#671,#672);
#544=AXIS2_PLACEMENT_3D('',#890,#675,#676);
#545=AXIS2_PLACEMENT_3D('',#892,#677,#678);
#546=AXIS2_PLACEMENT_3D('',#893,#679,#680);
#547=AXIS2_PLACEMENT_3D('',#895,#682,#683);
#548=AXIS2_PLACEMENT_3D('',#899,#686,#687);
#549=AXIS2_PLACEMENT_3D('',#900,#688,#689);
#550=AXIS2_PLACEMENT_3D('',#902,#690,#691);
#551=AXIS2_PLACEMENT_3D('',#903,#692,#693);
#552=AXIS2_PLACEMENT_3D('',#905,#695,#696);
#553=DIRECTION('axis',(0.,0.,1.));
#554=DIRECTION('refdir',(1.,0.,0.));
#555=DIRECTION('center_axis',(-1.,0.,0.));
#556=DIRECTION('ref_axis',(0.,0.,-1.));
#557=DIRECTION('center_axis',(1.,0.,0.));
#558=DIRECTION('ref_axis',(0.,0.,-1.));
#559=DIRECTION('center_axis',(1.,0.,0.));
#560=DIRECTION('ref_axis',(0.,0.,-1.));
#561=DIRECTION('',(0.707106781186548,-8.65956056235493E-17,-0.707106781186547));
#562=DIRECTION('center_axis',(-1.,0.,0.));
#563=DIRECTION('ref_axis',(0.,0.,-1.));
#564=DIRECTION('center_axis',(-1.,0.,0.));
#565=DIRECTION('ref_axis',(0.,0.,1.));
#566=DIRECTION('center_axis',(-1.,0.,0.));
#567=DIRECTION('ref_axis',(0.,0.,-1.));
#568=DIRECTION('center_axis',(-1.,0.,0.));
#569=DIRECTION('ref_axis',(0.,0.,-1.));
#570=DIRECTION('',(1.,0.,0.));
#571=DIRECTION('',(1.,0.,0.));
#572=DIRECTION('center_axis',(1.,0.,0.));
#573=DIRECTION('ref_axis',(0.,0.,-1.));
#574=DIRECTION('center_axis',(-1.,0.,0.));
#575=DIRECTION('ref_axis',(0.,0.,1.));
#576=DIRECTION('center_axis',(1.,9.53428800794141E-16,0.));
#577=DIRECTION('ref_axis',(0.,-2.99181648948012E-17,-1.));
#578=DIRECTION('center_axis',(1.,0.,0.));
#579=DIRECTION('ref_axis',(0.,-6.12323399573677E-17,-1.));
#580=DIRECTION('center_axis',(1.,0.,0.));
#581=DIRECTION('ref_axis',(0.,-6.12323399573677E-17,-1.));
#582=DIRECTION('',(0.809016994374947,8.60908491650404E-16,0.587785252292473));
#583=DIRECTION('center_axis',(1.,0.,0.));
#584=DIRECTION('ref_axis',(0.,0.,1.));
#585=DIRECTION('center_axis',(-1.,0.,0.));
#586=DIRECTION('ref_axis',(0.,0.,1.));
#587=DIRECTION('',(0.309016994374947,-1.16470831848909E-16,-0.951056516295154));
#588=DIRECTION('center_axis',(-1.,9.53428800794139E-16,0.));
#589=DIRECTION('ref_axis',(0.,-2.99181648948012E-17,-1.));
#590=DIRECTION('center_axis',(1.,0.,0.));
#591=DIRECTION('ref_axis',(0.,0.,-1.));
#592=DIRECTION('center_axis',(1.,0.,0.));
#593=DIRECTION('ref_axis',(0.,0.,-1.));
#594=DIRECTION('',(0.809016994374948,-8.60908491650403E-16,-0.587785252292472));
#595=DIRECTION('center_axis',(-1.,0.,0.));
#596=DIRECTION('ref_axis',(0.,-6.12323399573677E-17,-1.));
#597=DIRECTION('center_axis',(-1.,0.,0.));
#598=DIRECTION('ref_axis',(0.,-6.12323399573677E-17,-1.));
#599=DIRECTION('center_axis',(-1.,0.,0.));
#600=DIRECTION('ref_axis',(0.,0.,1.));
#601=DIRECTION('center_axis',(-1.,0.,0.));
#602=DIRECTION('ref_axis',(0.,0.,-1.));
#603=DIRECTION('center_axis',(-1.,0.,0.));
#604=DIRECTION('ref_axis',(0.,0.,-1.));
#605=DIRECTION('',(1.,0.,0.));
#606=DIRECTION('center_axis',(-1.,0.,0.));
#607=DIRECTION('ref_axis',(0.,0.,1.));
#608=DIRECTION('',(0.309016994374948,1.16470831848909E-16,0.951056516295153));
#609=DIRECTION('center_axis',(-1.,0.,0.));
#610=DIRECTION('ref_axis',(0.,0.,1.));
#611=DIRECTION('center_axis',(1.,0.,0.));
#612=DIRECTION('ref_axis',(0.,0.,-1.));
#613=DIRECTION('center_axis',(1.,0.,0.));
#614=DIRECTION('ref_axis',(0.,0.,-1.));
#615=DIRECTION('',(0.707106781186548,8.65956056235493E-17,0.707106781186547));
#616=DIRECTION('center_axis',(-1.,0.,0.));
#617=DIRECTION('ref_axis',(0.,0.,1.));
#618=DIRECTION('center_axis',(-1.,0.,0.));
#619=DIRECTION('ref_axis',(0.,0.,1.));
#620=DIRECTION('center_axis',(1.,0.,0.));
#621=DIRECTION('ref_axis',(0.,-1.,6.12323399573677E-17));
#622=DIRECTION('center_axis',(-1.,0.,0.));
#623=DIRECTION('ref_axis',(0.,0.,1.));
#624=DIRECTION('',(0.,-6.12323399573677E-17,-1.));
#625=DIRECTION('',(0.,-1.,6.12323399573677E-17));
#626=DIRECTION('',(0.,-6.12323399573677E-17,-1.));
#627=DIRECTION('center_axis',(-1.,0.,0.));
#628=DIRECTION('ref_axis',(0.,0.,1.));
#629=DIRECTION('center_axis',(0.,-1.,6.12323399573677E-17));
#630=DIRECTION('ref_axis',(-1.,0.,0.));
#631=DIRECTION('',(-1.,0.,0.));
#632=DIRECTION('',(-1.,0.,0.));
#633=DIRECTION('',(0.,-6.12323399573677E-17,-1.));
#634=DIRECTION('center_axis',(-1.,-5.04646829375071E-17,3.09007062147021E-33));
#635=DIRECTION('ref_axis',(-5.04646829375071E-17,1.,-6.12323399573677E-17));
#636=DIRECTION('center_axis',(1.,5.04646829375071E-17,-3.09007062147021E-33));
#637=DIRECTION('ref_axis',(0.,0.,1.));
#638=DIRECTION('',(-5.04646829375071E-17,1.,-6.12323399573677E-17));
#639=DIRECTION('',(0.,-6.12323399573677E-17,-1.));
#640=DIRECTION('center_axis',(1.,5.04646829375071E-17,-3.09007062147021E-33));
#641=DIRECTION('ref_axis',(0.,0.,1.));
#642=DIRECTION('center_axis',(2.01858731750028E-16,1.,-6.12323399573677E-17));
#643=DIRECTION('ref_axis',(1.,-2.01858731750028E-16,1.23602824858808E-32));
#644=DIRECTION('',(1.,0.,0.));
#645=DIRECTION('',(1.,-2.01858731750028E-16,1.23602824858808E-32));
#646=DIRECTION('center_axis',(0.,6.12323399573677E-17,1.));
#647=DIRECTION('ref_axis',(1.,0.,0.));
#648=DIRECTION('center_axis',(0.,6.12323399573677E-17,1.));
#649=DIRECTION('ref_axis',(1.,0.,0.));
#650=DIRECTION('center_axis',(0.,-6.12323399573677E-17,-1.));
#651=DIRECTION('ref_axis',(1.,0.,0.));
#652=DIRECTION('',(0.,-6.12323399573677E-17,-1.));
#653=DIRECTION('center_axis',(1.,0.,0.));
#654=DIRECTION('ref_axis',(0.,0.,1.));
#655=DIRECTION('center_axis',(-1.,0.,0.));
#656=DIRECTION('ref_axis',(0.,0.,1.));
#657=DIRECTION('',(0.,-1.,0.));
#658=DIRECTION('',(0.,0.,1.));
#659=DIRECTION('',(0.,-1.,0.));
#660=DIRECTION('center_axis',(0.,0.,1.));
#661=DIRECTION('ref_axis',(-1.,0.,0.));
#662=DIRECTION('',(-1.,0.,0.));
#663=DIRECTION('',(-1.,0.,0.));
#664=DIRECTION('',(0.,-1.,0.));
#665=DIRECTION('center_axis',(-1.,0.,5.04646829375071E-17));
#666=DIRECTION('ref_axis',(-5.04646829375071E-17,0.,-1.));
#667=DIRECTION('center_axis',(1.,0.,-5.04646829375071E-17));
#668=DIRECTION('ref_axis',(0.,0.,1.));
#669=DIRECTION('',(-5.04646829375071E-17,0.,-1.));
#670=DIRECTION('',(0.,-1.,0.));
#671=DIRECTION('center_axis',(2.01858731750028E-16,0.,-1.));
#672=DIRECTION('ref_axis',(1.,0.,2.01858731750028E-16));
#673=DIRECTION('',(1.,0.,0.));
#674=DIRECTION('',(1.,0.,2.01858731750028E-16));
#675=DIRECTION('center_axis',(0.,1.,0.));
#676=DIRECTION('ref_axis',(1.,0.,0.));
#677=DIRECTION('center_axis',(0.,1.,0.));
#678=DIRECTION('ref_axis',(1.,0.,0.));
#679=DIRECTION('center_axis',(0.,-1.,0.));
#680=DIRECTION('ref_axis',(1.,0.,0.));
#681=DIRECTION('',(0.,-1.,0.));
#682=DIRECTION('center_axis',(-1.,0.,0.));
#683=DIRECTION('ref_axis',(0.,0.,1.));
#684=DIRECTION('',(1.,0.,0.));
#685=DIRECTION('',(1.,0.,0.));
#686=DIRECTION('center_axis',(-1.,0.,0.));
#687=DIRECTION('ref_axis',(0.,0.,1.));
#688=DIRECTION('center_axis',(1.,0.,0.));
#689=DIRECTION('ref_axis',(0.,0.,-1.));
#690=DIRECTION('center_axis',(-1.,0.,0.));
#691=DIRECTION('ref_axis',(0.,0.,1.));
#692=DIRECTION('center_axis',(-1.,0.,0.));
#693=DIRECTION('ref_axis',(0.,0.,1.));
#694=DIRECTION('',(1.,0.,0.));
#695=DIRECTION('center_axis',(-1.,0.,0.));
#696=DIRECTION('ref_axis',(0.,0.,1.));
#697=DIRECTION('',(1.,0.,0.));
#698=CARTESIAN_POINT('',(0.,0.,0.));
#699=CARTESIAN_POINT('Origin',(6.1132,0.,0.));
#700=CARTESIAN_POINT('',(4.7264,-1.95943487863577E-15,16.));
#701=CARTESIAN_POINT('',(4.7264,-1.95943487863577E-15,-16.));
#702=CARTESIAN_POINT('Origin',(4.7264,0.,0.));
#703=CARTESIAN_POINT('Origin',(4.7264,0.,0.));
#704=CARTESIAN_POINT('',(7.5,1.61976684242426E-15,13.2264));
#705=CARTESIAN_POINT('',(6.1132,1.78960086053001E-15,14.6132));
#706=CARTESIAN_POINT('Origin',(7.5,0.,0.));
#707=CARTESIAN_POINT('Origin',(2.82817049935212,0.,0.));
#708=CARTESIAN_POINT('',(-1.09365900129575,1.95943487863577E-15,16.));
#709=CARTESIAN_POINT('',(-1.09365900129575,-1.95943487863577E-15,-16.));
#710=CARTESIAN_POINT('Origin',(-1.09365900129575,0.,0.));
#711=CARTESIAN_POINT('Origin',(-1.09365900129575,0.,0.));
#712=CARTESIAN_POINT('',(0.4125,-1.36135660403278E-15,-16.));
#713=CARTESIAN_POINT('',(2.82817049935212,-1.95943487863577E-15,-16.));
#714=CARTESIAN_POINT('',(2.,-1.5875,-15.9210503343844));
#715=CARTESIAN_POINT('Ctrl Pts',(0.4125,-7.63278329429795E-16,-16.));
#716=CARTESIAN_POINT('Ctrl Pts',(0.4125,-0.199470607438452,-16.));
#717=CARTESIAN_POINT('Ctrl Pts',(0.452391100853966,-0.412147661322475,-15.9958878198809));
#718=CARTESIAN_POINT('Ctrl Pts',(0.614442255805539,-0.803236410645995,-15.9810232497895));
#719=CARTESIAN_POINT('Ctrl Pts',(0.736595066071654,-0.981659096338944,-15.9704817949415));
#720=CARTESIAN_POINT('Ctrl Pts',(1.0183413682823,-1.26340539854959,-15.9506661388937));
#721=CARTESIAN_POINT('Ctrl Pts',(1.19676385020665,-1.38555784634399,-15.9401019503932));
#722=CARTESIAN_POINT('Ctrl Pts',(1.58785191731621,-1.54760873048829,-15.9251853358146));
#723=CARTESIAN_POINT('Ctrl Pts',(1.80052873467583,-1.5875,-15.9210503343844));
#724=CARTESIAN_POINT('Ctrl Pts',(2.,-1.5875,-15.9210503343844));
#725=CARTESIAN_POINT('',(3.5875,-1.41339830831208E-15,-16.));
#726=CARTESIAN_POINT('Ctrl Pts',(2.,-1.5875,-15.9210503343844));
#727=CARTESIAN_POINT('Ctrl Pts',(2.19947126532417,-1.5875,-15.9210503343844));
#728=CARTESIAN_POINT('Ctrl Pts',(2.41214808268379,-1.54760873048829,-15.9251853358146));
#729=CARTESIAN_POINT('Ctrl Pts',(2.80323614979335,-1.38555784634399,-15.9401019503932));
#730=CARTESIAN_POINT('Ctrl Pts',(2.9816586317177,-1.26340539854959,-15.9506661388937));
#731=CARTESIAN_POINT('Ctrl Pts',(3.26340493392835,-0.981659096338944,-15.9704817949415));
#732=CARTESIAN_POINT('Ctrl Pts',(3.38555774419446,-0.803236410645995,-15.9810232497895));
#733=CARTESIAN_POINT('Ctrl Pts',(3.54760889914603,-0.412147661322475,-15.9958878198809));
#734=CARTESIAN_POINT('Ctrl Pts',(3.5875,-0.199470607438452,-16.));
#735=CARTESIAN_POINT('Ctrl Pts',(3.5875,-1.07552855510562E-15,-16.));
#736=CARTESIAN_POINT('',(2.82817049935212,-1.95943487863577E-15,-16.));
#737=CARTESIAN_POINT('Ctrl Pts',(3.5875,-8.67361737988404E-16,-16.));
#738=CARTESIAN_POINT('Ctrl Pts',(3.5875,0.19947060743845,-16.));
#739=CARTESIAN_POINT('Ctrl Pts',(3.54760889914603,0.412147661322473,-15.9958878198809));
#740=CARTESIAN_POINT('Ctrl Pts',(3.38555774419446,0.803236410645993,-15.9810232497895));
#741=CARTESIAN_POINT('Ctrl Pts',(3.26340493392835,0.981659096338942,-15.9704817949415));
#742=CARTESIAN_POINT('Ctrl Pts',(2.9816586317177,1.26340539854959,-15.9506661388937));
#743=CARTESIAN_POINT('Ctrl Pts',(2.80323614979335,1.38555784634399,-15.9401019503932));
#744=CARTESIAN_POINT('Ctrl Pts',(2.41214808268379,1.54760873048828,-15.9251853358146));
#745=CARTESIAN_POINT('Ctrl Pts',(2.19947126532417,1.5875,-15.9210503343844));
#746=CARTESIAN_POINT('Ctrl Pts',(1.80052873467583,1.5875,-15.9210503343844));
#747=CARTESIAN_POINT('Ctrl Pts',(1.58785191731621,1.54760873048828,-15.9251853358146));
#748=CARTESIAN_POINT('Ctrl Pts',(1.19676385020665,1.38555784634399,-15.9401019503932));
#749=CARTESIAN_POINT('Ctrl Pts',(1.0183413682823,1.26340539854959,-15.9506661388937));
#750=CARTESIAN_POINT('Ctrl Pts',(0.736595066071654,0.981659096338942,-15.9704817949415));
#751=CARTESIAN_POINT('Ctrl Pts',(0.614442255805539,0.803236410645993,-15.9810232497895));
#752=CARTESIAN_POINT('Ctrl Pts',(0.452391100853966,0.412147661322473,-15.9958878198809));
#753=CARTESIAN_POINT('Ctrl Pts',(0.4125,0.19947060743845,-16.));
#754=CARTESIAN_POINT('Ctrl Pts',(0.4125,-8.67361737988404E-16,-16.));
#755=CARTESIAN_POINT('',(2.,-15.9210503343844,1.5875));
#756=CARTESIAN_POINT('',(0.4125,-16.,-1.94412679364642E-16));
#757=CARTESIAN_POINT('Ctrl Pts',(2.,-15.9210503343844,1.5875));
#758=CARTESIAN_POINT('Ctrl Pts',(2.19947126532417,-15.9210503343844,1.5875));
#759=CARTESIAN_POINT('Ctrl Pts',(2.41214808268379,-15.9251853358146,1.54760873048828));
#760=CARTESIAN_POINT('Ctrl Pts',(2.80323614979335,-15.9401019503932,1.38555784634399));
#761=CARTESIAN_POINT('Ctrl Pts',(2.9816586317177,-15.9506661388937,1.26340539854959));
#762=CARTESIAN_POINT('Ctrl Pts',(3.26340493392835,-15.9704817949415,0.981659096338943));
#763=CARTESIAN_POINT('Ctrl Pts',(3.38555774419446,-15.9810232497895,0.803236410645994));
#764=CARTESIAN_POINT('Ctrl Pts',(3.54760889914603,-15.9958878198809,0.412147661322474));
#765=CARTESIAN_POINT('Ctrl Pts',(3.5875,-16.,0.199470607438451));
#766=CARTESIAN_POINT('Ctrl Pts',(3.5875,-16.,-0.199470607438451));
#767=CARTESIAN_POINT('Ctrl Pts',(3.54760889914603,-15.9958878198809,-0.412147661322475));
#768=CARTESIAN_POINT('Ctrl Pts',(3.38555774419446,-15.9810232497895,-0.803236410645995));
#769=CARTESIAN_POINT('Ctrl Pts',(3.26340493392835,-15.9704817949415,-0.981659096338943));
#770=CARTESIAN_POINT('Ctrl Pts',(2.9816586317177,-15.9506661388937,-1.26340539854959));
#771=CARTESIAN_POINT('Ctrl Pts',(2.80323614979335,-15.9401019503932,-1.38555784634399));
#772=CARTESIAN_POINT('Ctrl Pts',(2.41214808268379,-15.9251853358146,-1.54760873048828));
#773=CARTESIAN_POINT('Ctrl Pts',(2.19947126532417,-15.9210503343844,-1.5875));
#774=CARTESIAN_POINT('Ctrl Pts',(1.80052873467583,-15.9210503343844,-1.5875));
#775=CARTESIAN_POINT('Ctrl Pts',(1.58785191731621,-15.9251853358146,-1.54760873048828));
#776=CARTESIAN_POINT('Ctrl Pts',(1.19676385020665,-15.9401019503932,-1.38555784634399));
#777=CARTESIAN_POINT('Ctrl Pts',(1.0183413682823,-15.9506661388937,-1.26340539854959));
#778=CARTESIAN_POINT('Ctrl Pts',(0.736595066071655,-15.9704817949415,-0.981659096338943));
#779=CARTESIAN_POINT('Ctrl Pts',(0.614442255805539,-15.9810232497895,-0.803236410645995));
#780=CARTESIAN_POINT('Ctrl Pts',(0.452391100853966,-15.9958878198809,-0.412147661322475));
#781=CARTESIAN_POINT('Ctrl Pts',(0.4125,-16.,-0.199470607438451));
#782=CARTESIAN_POINT('Ctrl Pts',(0.4125,-16.,-1.73472347597681E-16));
#783=CARTESIAN_POINT('Ctrl Pts',(0.4125,-16.,-2.08166817117217E-16));
#784=CARTESIAN_POINT('Ctrl Pts',(0.4125,-16.,0.199470607438451));
#785=CARTESIAN_POINT('Ctrl Pts',(0.452391100853966,-15.9958878198809,0.412147661322474));
#786=CARTESIAN_POINT('Ctrl Pts',(0.614442255805539,-15.9810232497895,0.803236410645994));
#787=CARTESIAN_POINT('Ctrl Pts',(0.736595066071654,-15.9704817949415,0.981659096338943));
#788=CARTESIAN_POINT('Ctrl Pts',(1.0183413682823,-15.9506661388937,1.26340539854959));
#789=CARTESIAN_POINT('Ctrl Pts',(1.19676385020665,-15.9401019503932,1.38555784634399));
#790=CARTESIAN_POINT('Ctrl Pts',(1.58785191731621,-15.9251853358146,1.54760873048828));
#791=CARTESIAN_POINT('Ctrl Pts',(1.80052873467583,-15.9210503343844,1.5875));
#792=CARTESIAN_POINT('Ctrl Pts',(2.,-15.9210503343844,1.5875));
#793=CARTESIAN_POINT('Origin',(7.5,0.,16.));
#794=CARTESIAN_POINT('',(7.5,-9.79717439317883E-16,-8.));
#795=CARTESIAN_POINT('Origin',(7.5,0.,0.));
#796=CARTESIAN_POINT('Origin',(-1.58454037418636,-4.68020438687271E-16,
0.));
#797=CARTESIAN_POINT('',(-2.07542174707696,-1.87208175474908E-15,15.2867076127786));
#798=CARTESIAN_POINT('',(-2.07542174707696,-1.87208175474908E-15,-15.2867076127786));
#799=CARTESIAN_POINT('Origin',(-2.07542174707696,-9.36040877374542E-16,
0.));
#800=CARTESIAN_POINT('Origin',(-2.07542174707696,-9.36040877374542E-16,
0.));
#801=CARTESIAN_POINT('',(-1.58454037418636,1.91575831669242E-15,15.6433538063893));
#802=CARTESIAN_POINT('Origin',(-2.41226846970334,0.,0.));
#803=CARTESIAN_POINT('',(-2.98087793811092,-1.53080849893419E-15,-12.5));
#804=CARTESIAN_POINT('Origin',(-2.98087793811092,0.,0.));
#805=CARTESIAN_POINT('',(-2.41226846970334,-1.74512168878498E-15,-14.25));
#806=CARTESIAN_POINT('Origin',(-6.0241186271094,-4.68020438687271E-16,0.));
#807=CARTESIAN_POINT('',(-6.515,-1.95943487863577E-15,16.));
#808=CARTESIAN_POINT('',(-6.515,-1.95943487863577E-15,-16.));
#809=CARTESIAN_POINT('Origin',(-6.515,0.,0.));
#810=CARTESIAN_POINT('Origin',(-6.515,0.,0.));
#811=CARTESIAN_POINT('',(-5.53323725421879,1.87208175474908E-15,15.2867076127786));
#812=CARTESIAN_POINT('',(-6.0241186271094,1.91575831669242E-15,15.6433538063893));
#813=CARTESIAN_POINT('',(-5.53323725421879,-1.87208175474908E-15,-15.2867076127786));
#814=CARTESIAN_POINT('Origin',(-5.53323725421879,-9.36040877374542E-16,
0.));
#815=CARTESIAN_POINT('Origin',(-5.53323725421879,-9.36040877374542E-16,
0.));
#816=CARTESIAN_POINT('Origin',(-7.015,0.,0.));
#817=CARTESIAN_POINT('',(-7.515,1.95943487863577E-15,16.));
#818=CARTESIAN_POINT('',(-7.515,-1.95943487863577E-15,-16.));
#819=CARTESIAN_POINT('Origin',(-7.515,0.,0.));
#820=CARTESIAN_POINT('Origin',(-7.515,0.,0.));
#821=CARTESIAN_POINT('',(-7.015,-1.95943487863577E-15,-16.));
#822=CARTESIAN_POINT('Origin',(-5.19639053159242,0.,0.));
#823=CARTESIAN_POINT('',(-4.62778106318483,-1.53080849893419E-15,-12.5));
#824=CARTESIAN_POINT('',(-5.19639053159242,-1.74512168878498E-15,-14.25));
#825=CARTESIAN_POINT('Origin',(-4.62778106318483,0.,0.));
#826=CARTESIAN_POINT('Origin',(-7.89,0.,0.));
#827=CARTESIAN_POINT('',(-8.265,-1.86758636869971E-15,15.25));
#828=CARTESIAN_POINT('Origin',(-8.265,0.,0.));
#829=CARTESIAN_POINT('',(-7.89,1.91351062366774E-15,15.625));
#830=CARTESIAN_POINT('Origin',(-8.265,0.,6.));
#831=CARTESIAN_POINT('',(-8.265,-7.34788079488412E-16,-6.));
#832=CARTESIAN_POINT('Origin',(-8.265,0.,0.));
#833=CARTESIAN_POINT('Origin',(4.74999999999754,2.74999999999967,-1.68388934882741E-16));
#834=CARTESIAN_POINT('',(4.74999999999754,2.74999999999967,-5.33268225192556));
#835=CARTESIAN_POINT('',(4.74999999999754,-7.34788079488412E-16,-6.));
#836=CARTESIAN_POINT('Origin',(4.74999999999754,0.,0.));
#837=CARTESIAN_POINT('',(4.74999999999754,2.74999999999967,-8.4));
#838=CARTESIAN_POINT('',(4.74999999999754,2.74999999999967,-1.68388934882741E-16));
#839=CARTESIAN_POINT('',(4.74999999999754,-2.75000000000033,-8.4));
#840=CARTESIAN_POINT('',(4.74999999999754,2.74999999999967,-8.4));
#841=CARTESIAN_POINT('',(4.74999999999754,-2.75000000000033,-5.33268225192522));
#842=CARTESIAN_POINT('',(4.74999999999754,-2.75000000000033,1.68388934882781E-16));
#843=CARTESIAN_POINT('Origin',(4.74999999999754,0.,0.));
#844=CARTESIAN_POINT('Origin',(4.74999999999754,-2.75000000000033,1.68388934882781E-16));
#845=CARTESIAN_POINT('',(-0.750000000002464,-2.75000000000033,-5.33268225192522));
#846=CARTESIAN_POINT('',(-0.132500000000001,-2.75000000000033,-5.33268225192522));
#847=CARTESIAN_POINT('',(-0.750000000002464,-2.75000000000033,-8.4));
#848=CARTESIAN_POINT('',(4.74999999999754,-2.75000000000033,-8.4));
#849=CARTESIAN_POINT('',(-0.750000000002464,-2.75000000000033,1.68388934882781E-16));
#850=CARTESIAN_POINT('Origin',(-0.750000000002464,-2.75000000000033,1.68388934882781E-16));
#851=CARTESIAN_POINT('',(-0.750000000002464,-7.34788079488412E-16,-6.));
#852=CARTESIAN_POINT('Origin',(-0.750000000002464,0.,0.));
#853=CARTESIAN_POINT('',(-0.750000000002465,2.74999999999967,-8.4));
#854=CARTESIAN_POINT('',(-0.750000000002464,-2.75000000000033,-8.4));
#855=CARTESIAN_POINT('',(-0.750000000002465,2.74999999999967,-5.33268225192556));
#856=CARTESIAN_POINT('',(-0.750000000002465,2.74999999999967,-1.68388934882741E-16));
#857=CARTESIAN_POINT('Origin',(-0.750000000002464,0.,0.));
#858=CARTESIAN_POINT('Origin',(-0.750000000002465,2.74999999999967,-1.68388934882741E-16));
#859=CARTESIAN_POINT('',(-0.132500000000001,2.74999999999967,-5.33268225192556));
#860=CARTESIAN_POINT('',(-0.750000000002465,2.74999999999967,-8.4));
#861=CARTESIAN_POINT('Origin',(1.99999999999754,-3.31360812993939E-13,-8.4));
#862=CARTESIAN_POINT('',(0.4125,-7.08764335006531E-16,-8.4));
#863=CARTESIAN_POINT('Origin',(2.,-5.14351655641888E-16,-8.4));
#864=CARTESIAN_POINT('Origin',(2.,0.,0.));
#865=CARTESIAN_POINT('',(0.4125,1.94412679364642E-16,-1.19043432748785E-32));
#866=CARTESIAN_POINT('Origin',(4.74999999999754,0.,-2.74999999999967));
#867=CARTESIAN_POINT('',(4.74999999999754,-5.33268225192556,-2.74999999999967));
#868=CARTESIAN_POINT('',(4.74999999999754,-5.33268225192522,2.75000000000033));
#869=CARTESIAN_POINT('Origin',(4.74999999999754,0.,0.));
#870=CARTESIAN_POINT('',(4.74999999999754,-8.4,-2.74999999999967));
#871=CARTESIAN_POINT('',(4.74999999999754,0.,-2.74999999999967));
#872=CARTESIAN_POINT('',(4.74999999999754,-8.4,2.75000000000033));
#873=CARTESIAN_POINT('',(4.74999999999754,-8.4,-2.74999999999967));
#874=CARTESIAN_POINT('',(4.74999999999754,0.,2.75000000000033));
#875=CARTESIAN_POINT('Origin',(4.74999999999754,0.,2.75000000000033));
#876=CARTESIAN_POINT('',(-0.750000000002464,-5.33268225192522,2.75000000000033));
#877=CARTESIAN_POINT('',(-0.132500000000001,-5.33268225192522,2.75000000000033));
#878=CARTESIAN_POINT('',(-0.750000000002464,-8.4,2.75000000000033));
#879=CARTESIAN_POINT('',(4.74999999999754,-8.4,2.75000000000033));
#880=CARTESIAN_POINT('',(-0.750000000002464,0.,2.75000000000033));
#881=CARTESIAN_POINT('Origin',(-0.750000000002464,0.,2.75000000000033));
#882=CARTESIAN_POINT('',(-0.750000000002465,-5.33268225192556,-2.74999999999967));
#883=CARTESIAN_POINT('Origin',(-0.750000000002464,0.,0.));
#884=CARTESIAN_POINT('',(-0.750000000002465,-8.4,-2.74999999999967));
#885=CARTESIAN_POINT('',(-0.750000000002464,-8.4,2.75000000000033));
#886=CARTESIAN_POINT('',(-0.750000000002465,0.,-2.74999999999967));
#887=CARTESIAN_POINT('Origin',(-0.750000000002465,0.,-2.74999999999967));
#888=CARTESIAN_POINT('',(-0.132500000000001,-5.33268225192556,-2.74999999999967));
#889=CARTESIAN_POINT('',(-0.750000000002465,-8.4,-2.74999999999967));
#890=CARTESIAN_POINT('Origin',(1.99999999999754,-8.4,3.30846461338297E-13));
#891=CARTESIAN_POINT('',(0.4125,-8.4,1.94412679364642E-16));
#892=CARTESIAN_POINT('Origin',(2.,-8.4,0.));
#893=CARTESIAN_POINT('Origin',(2.,0.,0.));
#894=CARTESIAN_POINT('',(0.4125,0.,-1.94412679364642E-16));
#895=CARTESIAN_POINT('Origin',(-0.132500000000001,0.,0.));
#896=CARTESIAN_POINT('',(-0.132500000000001,-7.34788079488412E-16,-6.));
#897=CARTESIAN_POINT('',(8.,-7.34788079488412E-16,-6.));
#898=CARTESIAN_POINT('',(-0.132500000000001,-7.34788079488412E-16,-6.));
#899=CARTESIAN_POINT('Origin',(8.,0.,0.));
#900=CARTESIAN_POINT('Origin',(8.,0.,8.));
#901=CARTESIAN_POINT('',(8.,-9.79717439317883E-16,-8.));
#902=CARTESIAN_POINT('Origin',(8.,0.,0.));
#903=CARTESIAN_POINT('Origin',(7.75,0.,0.));
#904=CARTESIAN_POINT('',(7.75,-9.79717439317883E-16,-8.));
#905=CARTESIAN_POINT('Origin',(-3.80432950064787,0.,0.));
#906=CARTESIAN_POINT('',(-3.80432950064787,-1.53080849893419E-15,-12.5));
#907=UNCERTAINTY_MEASURE_WITH_UNIT(LENGTH_MEASURE(0.01),#911,
'DISTANCE_ACCURACY_VALUE',
'Maximum model space distance between geometric entities at asserted c
onnectivities');
#908=UNCERTAINTY_MEASURE_WITH_UNIT(LENGTH_MEASURE(0.01),#911,
'DISTANCE_ACCURACY_VALUE',
'Maximum model space distance between geometric entities at asserted c
onnectivities');
#909=(
GEOMETRIC_REPRESENTATION_CONTEXT(3)
GLOBAL_UNCERTAINTY_ASSIGNED_CONTEXT((#907))
GLOBAL_UNIT_ASSIGNED_CONTEXT((#911,#913,#914))
REPRESENTATION_CONTEXT('','3D')
);
#910=(
GEOMETRIC_REPRESENTATION_CONTEXT(3)
GLOBAL_UNCERTAINTY_ASSIGNED_CONTEXT((#908))
GLOBAL_UNIT_ASSIGNED_CONTEXT((#911,#913,#914))
REPRESENTATION_CONTEXT('','3D')
);
#911=(
LENGTH_UNIT()
NAMED_UNIT(*)
SI_UNIT(.MILLI.,.METRE.)
);
#912=(
LENGTH_UNIT()
NAMED_UNIT(*)
SI_UNIT($,.METRE.)
);
#913=(
NAMED_UNIT(*)
PLANE_ANGLE_UNIT()
SI_UNIT($,.RADIAN.)
);
#914=(
NAMED_UNIT(*)
SI_UNIT($,.STERADIAN.)
SOLID_ANGLE_UNIT()
);
#915=SHAPE_DEFINITION_REPRESENTATION(#916,#917);
#916=PRODUCT_DEFINITION_SHAPE('',$,#919);
#917=SHAPE_REPRESENTATION('',(#498),#909);
#918=PRODUCT_DEFINITION_CONTEXT('part definition',#923,'design');
#919=PRODUCT_DEFINITION('Pulley_12mm_Bore','Pulley_12mm_Bore',#920,#918);
#920=PRODUCT_DEFINITION_FORMATION('',$,#925);
#921=PRODUCT_RELATED_PRODUCT_CATEGORY('Pulley_12mm_Bore',
'Pulley_12mm_Bore',(#925));
#922=APPLICATION_PROTOCOL_DEFINITION('international standard',
'automotive_design',2009,#923);
#923=APPLICATION_CONTEXT(
'Core Data for Automotive Mechanical Design Process');
#924=PRODUCT_CONTEXT('part definition',#923,'mechanical');
#925=PRODUCT('Pulley_12mm_Bore','Pulley_12mm_Bore',$,(#924));
#926=PRESENTATION_STYLE_ASSIGNMENT((#927));
#927=SURFACE_STYLE_USAGE(.BOTH.,#928);
#928=SURFACE_SIDE_STYLE('',(#929));
#929=SURFACE_STYLE_FILL_AREA(#930);
#930=FILL_AREA_STYLE('Paint - Enamel Glossy (Blue)',(#931));
#931=FILL_AREA_STYLE_COLOUR('Paint - Enamel Glossy (Blue)',#932);
#932=COLOUR_RGB('Paint - Enamel Glossy (Blue)',0.188235294117647,0.231372549019608,
0.588235294117647);
ENDSEC;
END-ISO-10303-21;
