ISO-10303-21;
HEADER;
/* Generated by software containing ST-Developer
 * from STEP Tools, Inc. (www.steptools.com) 
 */

FILE_DESCRIPTION(
/* description */ (''),
/* implementation_level */ '2;1');

FILE_NAME(
/* name */ 'Pulley_20mm_Bore.step',
/* time_stamp */ '2026-03-03T17:18:06-08:00',
/* author */ (''),
/* organization */ (''),
/* preprocessor_version */ 'ST-DEVELOPER v20.1',
/* originating_system */ 'Autodesk Translation Framework v14.24.0.0',
/* authorisation */ '');

FILE_SCHEMA (('AUTOMOTIVE_DESIGN { 1 0 10303 214 3 1 1 }'));
ENDSEC;

DATA;
#10=MECHANICAL_DESIGN_GEOMETRIC_PRESENTATION_REPRESENTATION('',(#13),#785);
#11=SHAPE_REPRESENTATION_RELATIONSHIP('SRR','None',#792,#12);
#12=ADVANCED_BREP_SHAPE_REPRESENTATION('',(#14),#784);
#13=STYLED_ITEM('',(#802),#14);
#14=MANIFOLD_SOLID_BREP('Body1',#418);
#15=B_SPLINE_CURVE_WITH_KNOTS('',3,(#613,#614,#615,#616,#617,#618,#619,
#620,#621,#622),.UNSPECIFIED.,.F.,.F.,(4,2,2,2,4),(0.718095370972714,0.77793655320425,
0.837777735435785,0.897619115033035,0.957460494630286),.UNSPECIFIED.);
#16=B_SPLINE_CURVE_WITH_KNOTS('',3,(#624,#625,#626,#627,#628,#629,#630,
#631,#632,#633),.UNSPECIFIED.,.F.,.F.,(4,2,2,2,4),(0.,0.0598413795972505,
0.119682759194501,0.179523941426036,0.239365123657572),.UNSPECIFIED.);
#17=B_SPLINE_CURVE_WITH_KNOTS('',3,(#635,#636,#637,#638,#639,#640,#641,
#642,#643,#644,#645,#646,#647,#648,#649,#650,#651,#652),.UNSPECIFIED.,.F.,
 .F.,(4,2,2,2,2,2,2,2,4),(0.239365123657572,0.299206305889107,0.359047488120642,
0.418888867717893,0.478730247315143,0.538571626912393,0.598413006509644,
0.658254188741179,0.718095370972714),.UNSPECIFIED.);
#18=B_SPLINE_CURVE_WITH_KNOTS('',3,(#655,#656,#657,#658,#659,#660,#661,
#662,#663,#664,#665,#666,#667,#668,#669,#670,#671,#672,#673,#674,#675,#676,
#677,#678,#679,#680),.UNSPECIFIED.,.F.,.F.,(4,2,2,2,2,2,2,2,2,2,2,2,4),
(0.,0.0598413795972505,0.119682759194501,0.179523941426036,0.239365123657572,
0.299206305889107,0.359047488120642,0.418888867717893,0.478730247315143,
0.538571626912394,0.598413006509644,0.658254188741179,0.718095370972715),
 .UNSPECIFIED.);
#19=B_SPLINE_CURVE_WITH_KNOTS('',3,(#681,#682,#683,#684,#685,#686,#687,
#688,#689,#690),.UNSPECIFIED.,.F.,.F.,(4,2,2,2,4),(0.718095370972715,0.77793655320425,
0.837777735435785,0.897619115033036,0.957460494630286),.UNSPECIFIED.);
#20=CYLINDRICAL_SURFACE('',#438,16.);
#21=CYLINDRICAL_SURFACE('',#450,1.5875);
#22=CYLINDRICAL_SURFACE('',#459,1.5875);
#23=CYLINDRICAL_SURFACE('',#460,10.);
#24=CYLINDRICAL_SURFACE('',#465,12.);
#25=CYLINDRICAL_SURFACE('',#468,12.5);
#26=CYLINDRICAL_SURFACE('',#472,16.);
#27=FACE_BOUND('',#72,.T.);
#28=FACE_BOUND('',#74,.T.);
#29=FACE_BOUND('',#80,.T.);
#30=FACE_BOUND('',#87,.T.);
#31=FACE_BOUND('',#90,.T.);
#32=FACE_BOUND('',#92,.T.);
#33=FACE_BOUND('',#99,.T.);
#34=PLANE('',#436);
#35=PLANE('',#440);
#36=PLANE('',#443);
#37=PLANE('',#444);
#38=PLANE('',#447);
#39=PLANE('',#448);
#40=PLANE('',#451);
#41=PLANE('',#453);
#42=PLANE('',#454);
#43=PLANE('',#456);
#44=PLANE('',#457);
#45=PLANE('',#463);
#46=PLANE('',#474);
#47=FACE_OUTER_BOUND('',#70,.T.);
#48=FACE_OUTER_BOUND('',#71,.T.);
#49=FACE_OUTER_BOUND('',#73,.T.);
#50=FACE_OUTER_BOUND('',#75,.T.);
#51=FACE_OUTER_BOUND('',#76,.T.);
#52=FACE_OUTER_BOUND('',#77,.T.);
#53=FACE_OUTER_BOUND('',#78,.T.);
#54=FACE_OUTER_BOUND('',#79,.T.);
#55=FACE_OUTER_BOUND('',#81,.T.);
#56=FACE_OUTER_BOUND('',#82,.T.);
#57=FACE_OUTER_BOUND('',#83,.T.);
#58=FACE_OUTER_BOUND('',#84,.T.);
#59=FACE_OUTER_BOUND('',#85,.T.);
#60=FACE_OUTER_BOUND('',#86,.T.);
#61=FACE_OUTER_BOUND('',#88,.T.);
#62=FACE_OUTER_BOUND('',#89,.T.);
#63=FACE_OUTER_BOUND('',#91,.T.);
#64=FACE_OUTER_BOUND('',#93,.T.);
#65=FACE_OUTER_BOUND('',#94,.T.);
#66=FACE_OUTER_BOUND('',#95,.T.);
#67=FACE_OUTER_BOUND('',#96,.T.);
#68=FACE_OUTER_BOUND('',#97,.T.);
#69=FACE_OUTER_BOUND('',#98,.T.);
#70=EDGE_LOOP('',(#278,#279,#280,#281,#282));
#71=EDGE_LOOP('',(#283));
#72=EDGE_LOOP('',(#284));
#73=EDGE_LOOP('',(#285,#286,#287,#288,#289,#290,#291,#292,#293,#294));
#74=EDGE_LOOP('',(#295,#296));
#75=EDGE_LOOP('',(#297,#298,#299,#300,#301));
#76=EDGE_LOOP('',(#302,#303,#304,#305));
#77=EDGE_LOOP('',(#306,#307,#308,#309,#310));
#78=EDGE_LOOP('',(#311,#312,#313,#314));
#79=EDGE_LOOP('',(#315,#316,#317,#318));
#80=EDGE_LOOP('',(#319));
#81=EDGE_LOOP('',(#320,#321,#322,#323,#324,#325));
#82=EDGE_LOOP('',(#326,#327,#328,#329));
#83=EDGE_LOOP('',(#330,#331,#332,#333));
#84=EDGE_LOOP('',(#334,#335,#336,#337));
#85=EDGE_LOOP('',(#338,#339,#340,#341));
#86=EDGE_LOOP('',(#342,#343,#344,#345));
#87=EDGE_LOOP('',(#346));
#88=EDGE_LOOP('',(#347,#348,#349,#350,#351));
#89=EDGE_LOOP('',(#352,#353,#354,#355,#356,#357,#358,#359,#360,#361,#362,
#363));
#90=EDGE_LOOP('',(#364,#365,#366,#367));
#91=EDGE_LOOP('',(#368));
#92=EDGE_LOOP('',(#369));
#93=EDGE_LOOP('',(#370,#371,#372,#373));
#94=EDGE_LOOP('',(#374,#375,#376,#377));
#95=EDGE_LOOP('',(#378,#379,#380,#381));
#96=EDGE_LOOP('',(#382,#383,#384,#385));
#97=EDGE_LOOP('',(#386,#387,#388,#389));
#98=EDGE_LOOP('',(#390));
#99=EDGE_LOOP('',(#391));
#100=LINE('',#602,#132);
#101=LINE('',#611,#133);
#102=LINE('',#634,#134);
#103=LINE('',#696,#135);
#104=LINE('',#698,#136);
#105=LINE('',#700,#137);
#106=LINE('',#704,#138);
#107=LINE('',#706,#139);
#108=LINE('',#707,#140);
#109=LINE('',#712,#141);
#110=LINE('',#714,#142);
#111=LINE('',#717,#143);
#112=LINE('',#718,#144);
#113=LINE('',#723,#145);
#114=LINE('',#729,#146);
#115=LINE('',#731,#147);
#116=LINE('',#732,#148);
#117=LINE('',#735,#149);
#118=LINE('',#737,#150);
#119=LINE('',#738,#151);
#120=LINE('',#743,#152);
#121=LINE('',#744,#153);
#122=LINE('',#746,#154);
#123=LINE('',#747,#155);
#124=LINE('',#752,#156);
#125=LINE('',#756,#157);
#126=LINE('',#758,#158);
#127=LINE('',#764,#159);
#128=LINE('',#768,#160);
#129=LINE('',#772,#161);
#130=LINE('',#776,#162);
#131=LINE('',#780,#163);
#132=VECTOR('',#483,14.6536);
#133=VECTOR('',#494,16.);
#134=VECTOR('',#495,16.);
#135=VECTOR('',#500,10.);
#136=VECTOR('',#501,10.);
#137=VECTOR('',#502,10.);
#138=VECTOR('',#507,10.);
#139=VECTOR('',#508,10.);
#140=VECTOR('',#509,10.);
#141=VECTOR('',#514,10.);
#142=VECTOR('',#515,10.);
#143=VECTOR('',#520,10.);
#144=VECTOR('',#521,10.);
#145=VECTOR('',#528,1.5875);
#146=VECTOR('',#533,10.);
#147=VECTOR('',#534,10.);
#148=VECTOR('',#535,10.);
#149=VECTOR('',#538,10.);
#150=VECTOR('',#539,10.);
#151=VECTOR('',#540,10.);
#152=VECTOR('',#545,10.);
#153=VECTOR('',#546,10.);
#154=VECTOR('',#549,10.);
#155=VECTOR('',#550,10.);
#156=VECTOR('',#557,1.5875);
#157=VECTOR('',#562,10.);
#158=VECTOR('',#563,10.);
#159=VECTOR('',#572,12.);
#160=VECTOR('',#577,14.25);
#161=VECTOR('',#582,12.5);
#162=VECTOR('',#587,14.25);
#163=VECTOR('',#592,16.);
#164=CIRCLE('',#433,16.);
#165=CIRCLE('',#434,16.);
#166=CIRCLE('',#435,13.3072);
#167=CIRCLE('',#437,12.);
#168=CIRCLE('',#439,16.);
#169=CIRCLE('',#441,10.);
#170=CIRCLE('',#442,10.);
#171=CIRCLE('',#445,10.);
#172=CIRCLE('',#446,10.);
#173=CIRCLE('',#449,1.5875);
#174=CIRCLE('',#452,10.);
#175=CIRCLE('',#455,10.);
#176=CIRCLE('',#458,1.5875);
#177=CIRCLE('',#461,10.);
#178=CIRCLE('',#462,10.);
#179=CIRCLE('',#464,12.);
#180=CIRCLE('',#467,12.5);
#181=CIRCLE('',#469,12.5);
#182=CIRCLE('',#471,16.);
#183=CIRCLE('',#473,16.);
#184=VERTEX_POINT('',#597);
#185=VERTEX_POINT('',#598);
#186=VERTEX_POINT('',#601);
#187=VERTEX_POINT('',#605);
#188=VERTEX_POINT('',#608);
#189=VERTEX_POINT('',#610);
#190=VERTEX_POINT('',#612);
#191=VERTEX_POINT('',#623);
#192=VERTEX_POINT('',#653);
#193=VERTEX_POINT('',#654);
#194=VERTEX_POINT('',#692);
#195=VERTEX_POINT('',#693);
#196=VERTEX_POINT('',#695);
#197=VERTEX_POINT('',#697);
#198=VERTEX_POINT('',#699);
#199=VERTEX_POINT('',#703);
#200=VERTEX_POINT('',#705);
#201=VERTEX_POINT('',#709);
#202=VERTEX_POINT('',#711);
#203=VERTEX_POINT('',#713);
#204=VERTEX_POINT('',#720);
#205=VERTEX_POINT('',#725);
#206=VERTEX_POINT('',#726);
#207=VERTEX_POINT('',#728);
#208=VERTEX_POINT('',#730);
#209=VERTEX_POINT('',#734);
#210=VERTEX_POINT('',#736);
#211=VERTEX_POINT('',#740);
#212=VERTEX_POINT('',#742);
#213=VERTEX_POINT('',#749);
#214=VERTEX_POINT('',#754);
#215=VERTEX_POINT('',#757);
#216=VERTEX_POINT('',#761);
#217=VERTEX_POINT('',#766);
#218=VERTEX_POINT('',#770);
#219=VERTEX_POINT('',#774);
#220=VERTEX_POINT('',#778);
#221=EDGE_CURVE('',#184,#185,#164,.T.);
#222=EDGE_CURVE('',#185,#184,#165,.T.);
#223=EDGE_CURVE('',#184,#186,#100,.T.);
#224=EDGE_CURVE('',#186,#186,#166,.T.);
#225=EDGE_CURVE('',#187,#187,#167,.T.);
#226=EDGE_CURVE('',#188,#188,#168,.T.);
#227=EDGE_CURVE('',#188,#189,#101,.T.);
#228=EDGE_CURVE('',#189,#190,#15,.T.);
#229=EDGE_CURVE('',#190,#191,#16,.T.);
#230=EDGE_CURVE('',#191,#185,#102,.T.);
#231=EDGE_CURVE('',#191,#189,#17,.T.);
#232=EDGE_CURVE('',#192,#193,#18,.T.);
#233=EDGE_CURVE('',#193,#192,#19,.T.);
#234=EDGE_CURVE('',#194,#195,#169,.T.);
#235=EDGE_CURVE('',#194,#196,#103,.T.);
#236=EDGE_CURVE('',#196,#197,#104,.T.);
#237=EDGE_CURVE('',#198,#197,#105,.T.);
#238=EDGE_CURVE('',#195,#198,#170,.T.);
#239=EDGE_CURVE('',#198,#199,#106,.T.);
#240=EDGE_CURVE('',#197,#200,#107,.T.);
#241=EDGE_CURVE('',#199,#200,#108,.T.);
#242=EDGE_CURVE('',#199,#201,#171,.T.);
#243=EDGE_CURVE('',#200,#202,#109,.T.);
#244=EDGE_CURVE('',#203,#202,#110,.T.);
#245=EDGE_CURVE('',#201,#203,#172,.T.);
#246=EDGE_CURVE('',#203,#194,#111,.T.);
#247=EDGE_CURVE('',#202,#196,#112,.T.);
#248=EDGE_CURVE('',#204,#204,#173,.T.);
#249=EDGE_CURVE('',#204,#189,#113,.T.);
#250=EDGE_CURVE('',#205,#206,#174,.T.);
#251=EDGE_CURVE('',#205,#207,#114,.T.);
#252=EDGE_CURVE('',#207,#208,#115,.T.);
#253=EDGE_CURVE('',#206,#208,#116,.T.);
#254=EDGE_CURVE('',#206,#209,#117,.T.);
#255=EDGE_CURVE('',#208,#210,#118,.T.);
#256=EDGE_CURVE('',#209,#210,#119,.T.);
#257=EDGE_CURVE('',#209,#211,#175,.T.);
#258=EDGE_CURVE('',#210,#212,#120,.T.);
#259=EDGE_CURVE('',#211,#212,#121,.T.);
#260=EDGE_CURVE('',#211,#205,#122,.T.);
#261=EDGE_CURVE('',#212,#207,#123,.T.);
#262=EDGE_CURVE('',#213,#213,#176,.T.);
#263=EDGE_CURVE('',#213,#193,#124,.T.);
#264=EDGE_CURVE('',#214,#214,#177,.T.);
#265=EDGE_CURVE('',#214,#195,#125,.T.);
#266=EDGE_CURVE('',#201,#215,#126,.T.);
#267=EDGE_CURVE('',#215,#215,#178,.T.);
#268=EDGE_CURVE('',#216,#216,#179,.T.);
#269=EDGE_CURVE('',#187,#216,#127,.T.);
#270=EDGE_CURVE('',#217,#217,#180,.T.);
#271=EDGE_CURVE('',#217,#188,#128,.T.);
#272=EDGE_CURVE('',#218,#218,#181,.T.);
#273=EDGE_CURVE('',#218,#217,#129,.T.);
#274=EDGE_CURVE('',#219,#219,#182,.T.);
#275=EDGE_CURVE('',#219,#218,#130,.T.);
#276=EDGE_CURVE('',#220,#220,#183,.T.);
#277=EDGE_CURVE('',#220,#219,#131,.T.);
#278=ORIENTED_EDGE('',*,*,#221,.T.);
#279=ORIENTED_EDGE('',*,*,#222,.T.);
#280=ORIENTED_EDGE('',*,*,#223,.T.);
#281=ORIENTED_EDGE('',*,*,#224,.T.);
#282=ORIENTED_EDGE('',*,*,#223,.F.);
#283=ORIENTED_EDGE('',*,*,#224,.F.);
#284=ORIENTED_EDGE('',*,*,#225,.T.);
#285=ORIENTED_EDGE('',*,*,#226,.F.);
#286=ORIENTED_EDGE('',*,*,#227,.T.);
#287=ORIENTED_EDGE('',*,*,#228,.T.);
#288=ORIENTED_EDGE('',*,*,#229,.T.);
#289=ORIENTED_EDGE('',*,*,#230,.T.);
#290=ORIENTED_EDGE('',*,*,#221,.F.);
#291=ORIENTED_EDGE('',*,*,#222,.F.);
#292=ORIENTED_EDGE('',*,*,#230,.F.);
#293=ORIENTED_EDGE('',*,*,#231,.T.);
#294=ORIENTED_EDGE('',*,*,#227,.F.);
#295=ORIENTED_EDGE('',*,*,#232,.T.);
#296=ORIENTED_EDGE('',*,*,#233,.T.);
#297=ORIENTED_EDGE('',*,*,#234,.F.);
#298=ORIENTED_EDGE('',*,*,#235,.T.);
#299=ORIENTED_EDGE('',*,*,#236,.T.);
#300=ORIENTED_EDGE('',*,*,#237,.F.);
#301=ORIENTED_EDGE('',*,*,#238,.F.);
#302=ORIENTED_EDGE('',*,*,#239,.F.);
#303=ORIENTED_EDGE('',*,*,#237,.T.);
#304=ORIENTED_EDGE('',*,*,#240,.T.);
#305=ORIENTED_EDGE('',*,*,#241,.F.);
#306=ORIENTED_EDGE('',*,*,#242,.F.);
#307=ORIENTED_EDGE('',*,*,#241,.T.);
#308=ORIENTED_EDGE('',*,*,#243,.T.);
#309=ORIENTED_EDGE('',*,*,#244,.F.);
#310=ORIENTED_EDGE('',*,*,#245,.F.);
#311=ORIENTED_EDGE('',*,*,#246,.F.);
#312=ORIENTED_EDGE('',*,*,#244,.T.);
#313=ORIENTED_EDGE('',*,*,#247,.T.);
#314=ORIENTED_EDGE('',*,*,#235,.F.);
#315=ORIENTED_EDGE('',*,*,#247,.F.);
#316=ORIENTED_EDGE('',*,*,#243,.F.);
#317=ORIENTED_EDGE('',*,*,#240,.F.);
#318=ORIENTED_EDGE('',*,*,#236,.F.);
#319=ORIENTED_EDGE('',*,*,#248,.F.);
#320=ORIENTED_EDGE('',*,*,#248,.T.);
#321=ORIENTED_EDGE('',*,*,#249,.T.);
#322=ORIENTED_EDGE('',*,*,#231,.F.);
#323=ORIENTED_EDGE('',*,*,#229,.F.);
#324=ORIENTED_EDGE('',*,*,#228,.F.);
#325=ORIENTED_EDGE('',*,*,#249,.F.);
#326=ORIENTED_EDGE('',*,*,#250,.F.);
#327=ORIENTED_EDGE('',*,*,#251,.T.);
#328=ORIENTED_EDGE('',*,*,#252,.T.);
#329=ORIENTED_EDGE('',*,*,#253,.F.);
#330=ORIENTED_EDGE('',*,*,#254,.F.);
#331=ORIENTED_EDGE('',*,*,#253,.T.);
#332=ORIENTED_EDGE('',*,*,#255,.T.);
#333=ORIENTED_EDGE('',*,*,#256,.F.);
#334=ORIENTED_EDGE('',*,*,#257,.F.);
#335=ORIENTED_EDGE('',*,*,#256,.T.);
#336=ORIENTED_EDGE('',*,*,#258,.T.);
#337=ORIENTED_EDGE('',*,*,#259,.F.);
#338=ORIENTED_EDGE('',*,*,#260,.F.);
#339=ORIENTED_EDGE('',*,*,#259,.T.);
#340=ORIENTED_EDGE('',*,*,#261,.T.);
#341=ORIENTED_EDGE('',*,*,#251,.F.);
#342=ORIENTED_EDGE('',*,*,#261,.F.);
#343=ORIENTED_EDGE('',*,*,#258,.F.);
#344=ORIENTED_EDGE('',*,*,#255,.F.);
#345=ORIENTED_EDGE('',*,*,#252,.F.);
#346=ORIENTED_EDGE('',*,*,#262,.F.);
#347=ORIENTED_EDGE('',*,*,#262,.T.);
#348=ORIENTED_EDGE('',*,*,#263,.T.);
#349=ORIENTED_EDGE('',*,*,#232,.F.);
#350=ORIENTED_EDGE('',*,*,#233,.F.);
#351=ORIENTED_EDGE('',*,*,#263,.F.);
#352=ORIENTED_EDGE('',*,*,#264,.T.);
#353=ORIENTED_EDGE('',*,*,#265,.T.);
#354=ORIENTED_EDGE('',*,*,#238,.T.);
#355=ORIENTED_EDGE('',*,*,#239,.T.);
#356=ORIENTED_EDGE('',*,*,#242,.T.);
#357=ORIENTED_EDGE('',*,*,#266,.T.);
#358=ORIENTED_EDGE('',*,*,#267,.F.);
#359=ORIENTED_EDGE('',*,*,#266,.F.);
#360=ORIENTED_EDGE('',*,*,#245,.T.);
#361=ORIENTED_EDGE('',*,*,#246,.T.);
#362=ORIENTED_EDGE('',*,*,#234,.T.);
#363=ORIENTED_EDGE('',*,*,#265,.F.);
#364=ORIENTED_EDGE('',*,*,#257,.T.);
#365=ORIENTED_EDGE('',*,*,#260,.T.);
#366=ORIENTED_EDGE('',*,*,#250,.T.);
#367=ORIENTED_EDGE('',*,*,#254,.T.);
#368=ORIENTED_EDGE('',*,*,#268,.F.);
#369=ORIENTED_EDGE('',*,*,#267,.T.);
#370=ORIENTED_EDGE('',*,*,#225,.F.);
#371=ORIENTED_EDGE('',*,*,#269,.T.);
#372=ORIENTED_EDGE('',*,*,#268,.T.);
#373=ORIENTED_EDGE('',*,*,#269,.F.);
#374=ORIENTED_EDGE('',*,*,#270,.F.);
#375=ORIENTED_EDGE('',*,*,#271,.T.);
#376=ORIENTED_EDGE('',*,*,#226,.T.);
#377=ORIENTED_EDGE('',*,*,#271,.F.);
#378=ORIENTED_EDGE('',*,*,#272,.F.);
#379=ORIENTED_EDGE('',*,*,#273,.T.);
#380=ORIENTED_EDGE('',*,*,#270,.T.);
#381=ORIENTED_EDGE('',*,*,#273,.F.);
#382=ORIENTED_EDGE('',*,*,#274,.F.);
#383=ORIENTED_EDGE('',*,*,#275,.T.);
#384=ORIENTED_EDGE('',*,*,#272,.T.);
#385=ORIENTED_EDGE('',*,*,#275,.F.);
#386=ORIENTED_EDGE('',*,*,#276,.F.);
#387=ORIENTED_EDGE('',*,*,#277,.T.);
#388=ORIENTED_EDGE('',*,*,#274,.T.);
#389=ORIENTED_EDGE('',*,*,#277,.F.);
#390=ORIENTED_EDGE('',*,*,#276,.T.);
#391=ORIENTED_EDGE('',*,*,#264,.F.);
#392=CONICAL_SURFACE('',#432,14.6536,0.785398163397448);
#393=CONICAL_SURFACE('',#466,14.25,1.25663706143592);
#394=CONICAL_SURFACE('',#470,14.25,1.25663706143592);
#395=ADVANCED_FACE('',(#47),#392,.T.);
#396=ADVANCED_FACE('',(#48,#27),#34,.T.);
#397=ADVANCED_FACE('',(#49,#28),#20,.T.);
#398=ADVANCED_FACE('',(#50),#35,.F.);
#399=ADVANCED_FACE('',(#51),#36,.F.);
#400=ADVANCED_FACE('',(#52),#37,.F.);
#401=ADVANCED_FACE('',(#53),#38,.F.);
#402=ADVANCED_FACE('',(#54,#29),#39,.F.);
#403=ADVANCED_FACE('',(#55),#21,.F.);
#404=ADVANCED_FACE('',(#56),#40,.F.);
#405=ADVANCED_FACE('',(#57),#41,.F.);
#406=ADVANCED_FACE('',(#58),#42,.F.);
#407=ADVANCED_FACE('',(#59),#43,.F.);
#408=ADVANCED_FACE('',(#60,#30),#44,.F.);
#409=ADVANCED_FACE('',(#61),#22,.F.);
#410=ADVANCED_FACE('',(#62,#31),#23,.F.);
#411=ADVANCED_FACE('',(#63,#32),#45,.T.);
#412=ADVANCED_FACE('',(#64),#24,.T.);
#413=ADVANCED_FACE('',(#65),#393,.T.);
#414=ADVANCED_FACE('',(#66),#25,.T.);
#415=ADVANCED_FACE('',(#67),#394,.T.);
#416=ADVANCED_FACE('',(#68),#26,.T.);
#417=ADVANCED_FACE('',(#69,#33),#46,.T.);
#418=CLOSED_SHELL('',(#395,#396,#397,#398,#399,#400,#401,#402,#403,#404,
#405,#406,#407,#408,#409,#410,#411,#412,#413,#414,#415,#416,#417));
#419=DERIVED_UNIT_ELEMENT(#421,1.);
#420=DERIVED_UNIT_ELEMENT(#787,-3.);
#421=(
MASS_UNIT()
NAMED_UNIT(*)
SI_UNIT(.KILO.,.GRAM.)
);
#422=DERIVED_UNIT((#419,#420));
#423=MEASURE_REPRESENTATION_ITEM('density measure',
POSITIVE_RATIO_MEASURE(7850.),#422);
#424=PROPERTY_DEFINITION_REPRESENTATION(#429,#426);
#425=PROPERTY_DEFINITION_REPRESENTATION(#430,#427);
#426=REPRESENTATION('material name',(#428),#784);
#427=REPRESENTATION('density',(#423),#784);
#428=DESCRIPTIVE_REPRESENTATION_ITEM('Steel','Steel');
#429=PROPERTY_DEFINITION('material property','material name',#794);
#430=PROPERTY_DEFINITION('material property','density of part',#794);
#431=AXIS2_PLACEMENT_3D('',#595,#475,#476);
#432=AXIS2_PLACEMENT_3D('',#596,#477,#478);
#433=AXIS2_PLACEMENT_3D('',#599,#479,#480);
#434=AXIS2_PLACEMENT_3D('',#600,#481,#482);
#435=AXIS2_PLACEMENT_3D('',#603,#484,#485);
#436=AXIS2_PLACEMENT_3D('',#604,#486,#487);
#437=AXIS2_PLACEMENT_3D('',#606,#488,#489);
#438=AXIS2_PLACEMENT_3D('',#607,#490,#491);
#439=AXIS2_PLACEMENT_3D('',#609,#492,#493);
#440=AXIS2_PLACEMENT_3D('',#691,#496,#497);
#441=AXIS2_PLACEMENT_3D('',#694,#498,#499);
#442=AXIS2_PLACEMENT_3D('',#701,#503,#504);
#443=AXIS2_PLACEMENT_3D('',#702,#505,#506);
#444=AXIS2_PLACEMENT_3D('',#708,#510,#511);
#445=AXIS2_PLACEMENT_3D('',#710,#512,#513);
#446=AXIS2_PLACEMENT_3D('',#715,#516,#517);
#447=AXIS2_PLACEMENT_3D('',#716,#518,#519);
#448=AXIS2_PLACEMENT_3D('',#719,#522,#523);
#449=AXIS2_PLACEMENT_3D('',#721,#524,#525);
#450=AXIS2_PLACEMENT_3D('',#722,#526,#527);
#451=AXIS2_PLACEMENT_3D('',#724,#529,#530);
#452=AXIS2_PLACEMENT_3D('',#727,#531,#532);
#453=AXIS2_PLACEMENT_3D('',#733,#536,#537);
#454=AXIS2_PLACEMENT_3D('',#739,#541,#542);
#455=AXIS2_PLACEMENT_3D('',#741,#543,#544);
#456=AXIS2_PLACEMENT_3D('',#745,#547,#548);
#457=AXIS2_PLACEMENT_3D('',#748,#551,#552);
#458=AXIS2_PLACEMENT_3D('',#750,#553,#554);
#459=AXIS2_PLACEMENT_3D('',#751,#555,#556);
#460=AXIS2_PLACEMENT_3D('',#753,#558,#559);
#461=AXIS2_PLACEMENT_3D('',#755,#560,#561);
#462=AXIS2_PLACEMENT_3D('',#759,#564,#565);
#463=AXIS2_PLACEMENT_3D('',#760,#566,#567);
#464=AXIS2_PLACEMENT_3D('',#762,#568,#569);
#465=AXIS2_PLACEMENT_3D('',#763,#570,#571);
#466=AXIS2_PLACEMENT_3D('',#765,#573,#574);
#467=AXIS2_PLACEMENT_3D('',#767,#575,#576);
#468=AXIS2_PLACEMENT_3D('',#769,#578,#579);
#469=AXIS2_PLACEMENT_3D('',#771,#580,#581);
#470=AXIS2_PLACEMENT_3D('',#773,#583,#584);
#471=AXIS2_PLACEMENT_3D('',#775,#585,#586);
#472=AXIS2_PLACEMENT_3D('',#777,#588,#589);
#473=AXIS2_PLACEMENT_3D('',#779,#590,#591);
#474=AXIS2_PLACEMENT_3D('',#781,#593,#594);
#475=DIRECTION('axis',(0.,0.,1.));
#476=DIRECTION('refdir',(1.,0.,0.));
#477=DIRECTION('center_axis',(-1.,0.,0.));
#478=DIRECTION('ref_axis',(0.,0.,-1.));
#479=DIRECTION('center_axis',(1.,0.,0.));
#480=DIRECTION('ref_axis',(0.,0.,-1.));
#481=DIRECTION('center_axis',(1.,0.,0.));
#482=DIRECTION('ref_axis',(0.,0.,-1.));
#483=DIRECTION('',(0.707106781186547,-8.65956056235493E-17,-0.707106781186547));
#484=DIRECTION('center_axis',(-1.,0.,0.));
#485=DIRECTION('ref_axis',(0.,0.,-1.));
#486=DIRECTION('center_axis',(1.,0.,0.));
#487=DIRECTION('ref_axis',(0.,0.,-1.));
#488=DIRECTION('center_axis',(-1.,0.,0.));
#489=DIRECTION('ref_axis',(0.,0.,1.));
#490=DIRECTION('center_axis',(-1.,0.,0.));
#491=DIRECTION('ref_axis',(0.,0.,1.));
#492=DIRECTION('center_axis',(-1.,0.,0.));
#493=DIRECTION('ref_axis',(0.,0.,1.));
#494=DIRECTION('',(1.,0.,0.));
#495=DIRECTION('',(1.,0.,0.));
#496=DIRECTION('center_axis',(-1.,5.04646829375071E-17,3.09007062147021E-33));
#497=DIRECTION('ref_axis',(5.04646829375071E-17,1.,6.12323399573677E-17));
#498=DIRECTION('center_axis',(1.,-5.04646829375071E-17,-3.09007062147021E-33));
#499=DIRECTION('ref_axis',(0.,0.,1.));
#500=DIRECTION('',(0.,6.12323399573677E-17,-1.));
#501=DIRECTION('',(5.04646829375071E-17,1.,6.12323399573677E-17));
#502=DIRECTION('',(0.,6.12323399573677E-17,-1.));
#503=DIRECTION('center_axis',(1.,-5.04646829375071E-17,-3.09007062147021E-33));
#504=DIRECTION('ref_axis',(0.,0.,1.));
#505=DIRECTION('center_axis',(0.,1.,6.12323399573677E-17));
#506=DIRECTION('ref_axis',(1.,0.,0.));
#507=DIRECTION('',(1.,0.,0.));
#508=DIRECTION('',(1.,0.,0.));
#509=DIRECTION('',(0.,6.12323399573677E-17,-1.));
#510=DIRECTION('center_axis',(1.,0.,0.));
#511=DIRECTION('ref_axis',(0.,-1.,-6.12323399573677E-17));
#512=DIRECTION('center_axis',(-1.,0.,0.));
#513=DIRECTION('ref_axis',(0.,0.,1.));
#514=DIRECTION('',(0.,-1.,-6.12323399573677E-17));
#515=DIRECTION('',(0.,6.12323399573677E-17,-1.));
#516=DIRECTION('center_axis',(-1.,0.,0.));
#517=DIRECTION('ref_axis',(0.,0.,1.));
#518=DIRECTION('center_axis',(2.01858731750028E-16,-1.,-6.12323399573677E-17));
#519=DIRECTION('ref_axis',(-1.,-2.01858731750028E-16,-1.23602824858808E-32));
#520=DIRECTION('',(-1.,0.,0.));
#521=DIRECTION('',(-1.,-2.01858731750028E-16,-1.23602824858808E-32));
#522=DIRECTION('center_axis',(0.,6.12323399573677E-17,-1.));
#523=DIRECTION('ref_axis',(0.,1.,6.12323399573677E-17));
#524=DIRECTION('center_axis',(0.,-6.12323399573677E-17,1.));
#525=DIRECTION('ref_axis',(1.,0.,0.));
#526=DIRECTION('center_axis',(0.,6.12323399573677E-17,-1.));
#527=DIRECTION('ref_axis',(1.,0.,0.));
#528=DIRECTION('',(0.,6.12323399573677E-17,-1.));
#529=DIRECTION('center_axis',(-1.,0.,5.04646829375071E-17));
#530=DIRECTION('ref_axis',(5.04646829375071E-17,0.,1.));
#531=DIRECTION('center_axis',(1.,0.,-5.04646829375071E-17));
#532=DIRECTION('ref_axis',(0.,0.,1.));
#533=DIRECTION('',(0.,1.,0.));
#534=DIRECTION('',(5.04646829375071E-17,0.,1.));
#535=DIRECTION('',(0.,1.,0.));
#536=DIRECTION('center_axis',(0.,0.,1.));
#537=DIRECTION('ref_axis',(1.,0.,0.));
#538=DIRECTION('',(1.,0.,0.));
#539=DIRECTION('',(1.,0.,0.));
#540=DIRECTION('',(0.,1.,0.));
#541=DIRECTION('center_axis',(1.,0.,0.));
#542=DIRECTION('ref_axis',(0.,0.,-1.));
#543=DIRECTION('center_axis',(-1.,0.,0.));
#544=DIRECTION('ref_axis',(0.,0.,1.));
#545=DIRECTION('',(0.,0.,-1.));
#546=DIRECTION('',(0.,1.,0.));
#547=DIRECTION('center_axis',(2.01858731750028E-16,0.,-1.));
#548=DIRECTION('ref_axis',(-1.,0.,-2.01858731750028E-16));
#549=DIRECTION('',(-1.,0.,0.));
#550=DIRECTION('',(-1.,0.,-2.01858731750028E-16));
#551=DIRECTION('center_axis',(0.,1.,0.));
#552=DIRECTION('ref_axis',(0.,0.,1.));
#553=DIRECTION('center_axis',(0.,-1.,0.));
#554=DIRECTION('ref_axis',(1.,0.,0.));
#555=DIRECTION('center_axis',(0.,1.,0.));
#556=DIRECTION('ref_axis',(1.,0.,0.));
#557=DIRECTION('',(0.,1.,0.));
#558=DIRECTION('center_axis',(-1.,0.,0.));
#559=DIRECTION('ref_axis',(0.,0.,1.));
#560=DIRECTION('center_axis',(-1.,0.,0.));
#561=DIRECTION('ref_axis',(0.,0.,1.));
#562=DIRECTION('',(1.,0.,0.));
#563=DIRECTION('',(1.,0.,0.));
#564=DIRECTION('center_axis',(-1.,0.,0.));
#565=DIRECTION('ref_axis',(0.,0.,1.));
#566=DIRECTION('center_axis',(1.,0.,0.));
#567=DIRECTION('ref_axis',(0.,0.,-1.));
#568=DIRECTION('center_axis',(-1.,0.,0.));
#569=DIRECTION('ref_axis',(0.,0.,1.));
#570=DIRECTION('center_axis',(-1.,0.,0.));
#571=DIRECTION('ref_axis',(0.,0.,1.));
#572=DIRECTION('',(1.,0.,0.));
#573=DIRECTION('center_axis',(1.,0.,0.));
#574=DIRECTION('ref_axis',(0.,0.,1.));
#575=DIRECTION('center_axis',(-1.,0.,0.));
#576=DIRECTION('ref_axis',(0.,0.,1.));
#577=DIRECTION('',(0.309016994374947,-1.16470831848909E-16,-0.951056516295154));
#578=DIRECTION('center_axis',(-1.,0.,0.));
#579=DIRECTION('ref_axis',(0.,0.,1.));
#580=DIRECTION('center_axis',(-1.,0.,0.));
#581=DIRECTION('ref_axis',(0.,0.,1.));
#582=DIRECTION('',(1.,0.,0.));
#583=DIRECTION('center_axis',(-1.,0.,0.));
#584=DIRECTION('ref_axis',(0.,0.,1.));
#585=DIRECTION('center_axis',(-1.,0.,0.));
#586=DIRECTION('ref_axis',(0.,0.,1.));
#587=DIRECTION('',(0.309016994374948,1.16470831848909E-16,0.951056516295153));
#588=DIRECTION('center_axis',(-1.,0.,0.));
#589=DIRECTION('ref_axis',(0.,0.,1.));
#590=DIRECTION('center_axis',(-1.,0.,0.));
#591=DIRECTION('ref_axis',(0.,0.,1.));
#592=DIRECTION('',(1.,0.,0.));
#593=DIRECTION('center_axis',(-1.,0.,0.));
#594=DIRECTION('ref_axis',(0.,0.,1.));
#595=CARTESIAN_POINT('',(0.,0.,0.));
#596=CARTESIAN_POINT('Origin',(6.1536,0.,0.));
#597=CARTESIAN_POINT('',(4.8072,-1.95943487863577E-15,16.));
#598=CARTESIAN_POINT('',(4.8072,-1.95943487863577E-15,-16.));
#599=CARTESIAN_POINT('Origin',(4.8072,0.,0.));
#600=CARTESIAN_POINT('Origin',(4.8072,0.,0.));
#601=CARTESIAN_POINT('',(7.5,1.62966198856137E-15,13.3072));
#602=CARTESIAN_POINT('',(6.1536,1.79454843359857E-15,14.6536));
#603=CARTESIAN_POINT('Origin',(7.5,0.,0.));
#604=CARTESIAN_POINT('Origin',(7.5,0.,16.));
#605=CARTESIAN_POINT('',(7.5,-1.46957615897682E-15,-12.));
#606=CARTESIAN_POINT('Origin',(7.5,0.,0.));
#607=CARTESIAN_POINT('Origin',(2.82817049935213,0.,0.));
#608=CARTESIAN_POINT('',(-1.84365900129575,-1.95943487863577E-15,-16.));
#609=CARTESIAN_POINT('Origin',(-1.84365900129575,0.,0.));
#610=CARTESIAN_POINT('',(0.4125,-3.89911457485768E-16,-16.));
#611=CARTESIAN_POINT('',(2.82817049935213,-1.95943487863577E-15,-16.));
#612=CARTESIAN_POINT('',(2.,-1.5875,-15.9210503343844));
#613=CARTESIAN_POINT('Ctrl Pts',(0.4125,1.17961196366423E-15,-16.));
#614=CARTESIAN_POINT('Ctrl Pts',(0.4125,-0.19947060743845,-16.));
#615=CARTESIAN_POINT('Ctrl Pts',(0.452391100853966,-0.412147661322473,-15.9958878198809));
#616=CARTESIAN_POINT('Ctrl Pts',(0.614442255805539,-0.803236410645993,-15.9810232497895));
#617=CARTESIAN_POINT('Ctrl Pts',(0.736595066071654,-0.981659096338942,-15.9704817949415));
#618=CARTESIAN_POINT('Ctrl Pts',(1.0183413682823,-1.26340539854959,-15.9506661388937));
#619=CARTESIAN_POINT('Ctrl Pts',(1.19676385020665,-1.38555784634399,-15.9401019503932));
#620=CARTESIAN_POINT('Ctrl Pts',(1.58785191731621,-1.54760873048828,-15.9251853358146));
#621=CARTESIAN_POINT('Ctrl Pts',(1.80052873467583,-1.5875,-15.9210503343844));
#622=CARTESIAN_POINT('Ctrl Pts',(2.,-1.5875,-15.9210503343844));
#623=CARTESIAN_POINT('',(3.5875,-4.76647631284609E-16,-16.));
#624=CARTESIAN_POINT('Ctrl Pts',(2.,-1.5875,-15.9210503343844));
#625=CARTESIAN_POINT('Ctrl Pts',(2.19947126532417,-1.5875,-15.9210503343844));
#626=CARTESIAN_POINT('Ctrl Pts',(2.41214808268379,-1.54760873048828,-15.9251853358146));
#627=CARTESIAN_POINT('Ctrl Pts',(2.80323614979335,-1.38555784634399,-15.9401019503932));
#628=CARTESIAN_POINT('Ctrl Pts',(2.9816586317177,-1.26340539854959,-15.9506661388937));
#629=CARTESIAN_POINT('Ctrl Pts',(3.26340493392835,-0.981659096338942,-15.9704817949415));
#630=CARTESIAN_POINT('Ctrl Pts',(3.38555774419446,-0.803236410645994,-15.9810232497895));
#631=CARTESIAN_POINT('Ctrl Pts',(3.54760889914603,-0.412147661322474,-15.9958878198809));
#632=CARTESIAN_POINT('Ctrl Pts',(3.5875,-0.19947060743845,-16.));
#633=CARTESIAN_POINT('Ctrl Pts',(3.5875,9.0205620750794E-16,-16.));
#634=CARTESIAN_POINT('',(2.82817049935213,-1.95943487863577E-15,-16.));
#635=CARTESIAN_POINT('Ctrl Pts',(3.5875,1.00613961606655E-15,-16.));
#636=CARTESIAN_POINT('Ctrl Pts',(3.5875,0.199470607438452,-16.));
#637=CARTESIAN_POINT('Ctrl Pts',(3.54760889914603,0.412147661322475,-15.9958878198809));
#638=CARTESIAN_POINT('Ctrl Pts',(3.38555774419446,0.803236410645995,-15.9810232497895));
#639=CARTESIAN_POINT('Ctrl Pts',(3.26340493392835,0.981659096338944,-15.9704817949415));
#640=CARTESIAN_POINT('Ctrl Pts',(2.9816586317177,1.26340539854959,-15.9506661388937));
#641=CARTESIAN_POINT('Ctrl Pts',(2.80323614979335,1.38555784634399,-15.9401019503932));
#642=CARTESIAN_POINT('Ctrl Pts',(2.41214808268379,1.54760873048829,-15.9251853358146));
#643=CARTESIAN_POINT('Ctrl Pts',(2.19947126532417,1.5875,-15.9210503343844));
#644=CARTESIAN_POINT('Ctrl Pts',(1.80052873467583,1.5875,-15.9210503343844));
#645=CARTESIAN_POINT('Ctrl Pts',(1.58785191731621,1.54760873048829,-15.9251853358146));
#646=CARTESIAN_POINT('Ctrl Pts',(1.19676385020665,1.38555784634399,-15.9401019503932));
#647=CARTESIAN_POINT('Ctrl Pts',(1.0183413682823,1.26340539854959,-15.9506661388937));
#648=CARTESIAN_POINT('Ctrl Pts',(0.736595066071654,0.981659096338944,-15.9704817949415));
#649=CARTESIAN_POINT('Ctrl Pts',(0.614442255805539,0.803236410645995,-15.9810232497895));
#650=CARTESIAN_POINT('Ctrl Pts',(0.452391100853966,0.412147661322475,-15.9958878198809));
#651=CARTESIAN_POINT('Ctrl Pts',(0.4125,0.199470607438452,-16.));
#652=CARTESIAN_POINT('Ctrl Pts',(0.4125,1.17961196366423E-15,-16.));
#653=CARTESIAN_POINT('',(2.,15.9210503343844,-1.5875));
#654=CARTESIAN_POINT('',(0.4125,16.,1.94412679364642E-16));
#655=CARTESIAN_POINT('Ctrl Pts',(2.,15.9210503343844,-1.5875));
#656=CARTESIAN_POINT('Ctrl Pts',(2.19947126532417,15.9210503343844,-1.5875));
#657=CARTESIAN_POINT('Ctrl Pts',(2.41214808268379,15.9251853358146,-1.54760873048828));
#658=CARTESIAN_POINT('Ctrl Pts',(2.80323614979335,15.9401019503932,-1.38555784634399));
#659=CARTESIAN_POINT('Ctrl Pts',(2.9816586317177,15.9506661388937,-1.26340539854959));
#660=CARTESIAN_POINT('Ctrl Pts',(3.26340493392835,15.9704817949415,-0.981659096338943));
#661=CARTESIAN_POINT('Ctrl Pts',(3.38555774419446,15.9810232497895,-0.803236410645994));
#662=CARTESIAN_POINT('Ctrl Pts',(3.54760889914603,15.9958878198809,-0.412147661322474));
#663=CARTESIAN_POINT('Ctrl Pts',(3.5875,16.,-0.199470607438451));
#664=CARTESIAN_POINT('Ctrl Pts',(3.5875,16.,0.199470607438451));
#665=CARTESIAN_POINT('Ctrl Pts',(3.54760889914603,15.9958878198809,0.412147661322475));
#666=CARTESIAN_POINT('Ctrl Pts',(3.38555774419446,15.9810232497895,0.803236410645995));
#667=CARTESIAN_POINT('Ctrl Pts',(3.26340493392835,15.9704817949415,0.981659096338943));
#668=CARTESIAN_POINT('Ctrl Pts',(2.9816586317177,15.9506661388937,1.26340539854959));
#669=CARTESIAN_POINT('Ctrl Pts',(2.80323614979335,15.9401019503932,1.38555784634399));
#670=CARTESIAN_POINT('Ctrl Pts',(2.41214808268379,15.9251853358146,1.54760873048828));
#671=CARTESIAN_POINT('Ctrl Pts',(2.19947126532417,15.9210503343844,1.5875));
#672=CARTESIAN_POINT('Ctrl Pts',(1.80052873467583,15.9210503343844,1.5875));
#673=CARTESIAN_POINT('Ctrl Pts',(1.58785191731621,15.9251853358146,1.54760873048828));
#674=CARTESIAN_POINT('Ctrl Pts',(1.19676385020665,15.9401019503932,1.38555784634399));
#675=CARTESIAN_POINT('Ctrl Pts',(1.0183413682823,15.9506661388937,1.26340539854959));
#676=CARTESIAN_POINT('Ctrl Pts',(0.736595066071655,15.9704817949415,0.981659096338943));
#677=CARTESIAN_POINT('Ctrl Pts',(0.614442255805539,15.9810232497895,0.803236410645995));
#678=CARTESIAN_POINT('Ctrl Pts',(0.452391100853966,15.9958878198809,0.412147661322475));
#679=CARTESIAN_POINT('Ctrl Pts',(0.4125,16.,0.199470607438451));
#680=CARTESIAN_POINT('Ctrl Pts',(0.4125,16.,1.73472347597681E-16));
#681=CARTESIAN_POINT('Ctrl Pts',(0.4125,16.,2.08166817117217E-16));
#682=CARTESIAN_POINT('Ctrl Pts',(0.4125,16.,-0.199470607438451));
#683=CARTESIAN_POINT('Ctrl Pts',(0.452391100853966,15.9958878198809,-0.412147661322474));
#684=CARTESIAN_POINT('Ctrl Pts',(0.614442255805539,15.9810232497895,-0.803236410645994));
#685=CARTESIAN_POINT('Ctrl Pts',(0.736595066071654,15.9704817949415,-0.981659096338943));
#686=CARTESIAN_POINT('Ctrl Pts',(1.0183413682823,15.9506661388937,-1.26340539854959));
#687=CARTESIAN_POINT('Ctrl Pts',(1.19676385020665,15.9401019503932,-1.38555784634399));
#688=CARTESIAN_POINT('Ctrl Pts',(1.58785191731621,15.9251853358146,-1.54760873048828));
#689=CARTESIAN_POINT('Ctrl Pts',(1.80052873467583,15.9210503343844,-1.5875));
#690=CARTESIAN_POINT('Ctrl Pts',(2.,15.9210503343844,-1.5875));
#691=CARTESIAN_POINT('Origin',(-0.750000000002465,-2.74999999999967,-1.68388934882741E-16));
#692=CARTESIAN_POINT('',(-0.750000000002465,-2.74999999999967,-9.6144422615148));
#693=CARTESIAN_POINT('',(-0.750000000002465,-1.22464679914735E-15,-10.));
#694=CARTESIAN_POINT('Origin',(-0.750000000002465,0.,0.));
#695=CARTESIAN_POINT('',(-0.750000000002465,-2.74999999999967,-12.3482));
#696=CARTESIAN_POINT('',(-0.750000000002465,-2.74999999999967,-1.68388934882741E-16));
#697=CARTESIAN_POINT('',(-0.750000000002464,2.75000000000033,-12.3482));
#698=CARTESIAN_POINT('',(-0.750000000002464,2.75000000000033,-12.3482));
#699=CARTESIAN_POINT('',(-0.750000000002464,2.75000000000033,-9.61444226151461));
#700=CARTESIAN_POINT('',(-0.750000000002464,2.75000000000033,1.68388934882781E-16));
#701=CARTESIAN_POINT('Origin',(-0.750000000002465,0.,0.));
#702=CARTESIAN_POINT('Origin',(-0.750000000002464,2.75000000000033,1.68388934882781E-16));
#703=CARTESIAN_POINT('',(4.74999999999754,2.75000000000033,-9.61444226151461));
#704=CARTESIAN_POINT('',(-0.1325,2.75000000000033,-9.61444226151461));
#705=CARTESIAN_POINT('',(4.74999999999754,2.75000000000033,-12.3482));
#706=CARTESIAN_POINT('',(4.74999999999754,2.75000000000033,-12.3482));
#707=CARTESIAN_POINT('',(4.74999999999754,2.75000000000033,1.68388934882781E-16));
#708=CARTESIAN_POINT('Origin',(4.74999999999754,2.75000000000033,1.68388934882781E-16));
#709=CARTESIAN_POINT('',(4.74999999999754,-1.22464679914735E-15,-10.));
#710=CARTESIAN_POINT('Origin',(4.74999999999754,0.,0.));
#711=CARTESIAN_POINT('',(4.74999999999754,-2.74999999999967,-12.3482));
#712=CARTESIAN_POINT('',(4.74999999999754,-2.74999999999967,-12.3482));
#713=CARTESIAN_POINT('',(4.74999999999754,-2.74999999999967,-9.6144422615148));
#714=CARTESIAN_POINT('',(4.74999999999754,-2.74999999999967,-1.68388934882741E-16));
#715=CARTESIAN_POINT('Origin',(4.74999999999754,0.,0.));
#716=CARTESIAN_POINT('Origin',(4.74999999999754,-2.74999999999967,-1.68388934882741E-16));
#717=CARTESIAN_POINT('',(-0.1325,-2.74999999999967,-9.6144422615148));
#718=CARTESIAN_POINT('',(-0.750000000002465,-2.74999999999967,-12.3482));
#719=CARTESIAN_POINT('Origin',(1.99999999999754,3.31602570518558E-13,-12.3482));
#720=CARTESIAN_POINT('',(0.4125,5.61696500896925E-16,-12.3482));
#721=CARTESIAN_POINT('Origin',(2.,7.56109180261567E-16,-12.3482));
#722=CARTESIAN_POINT('Origin',(2.,0.,0.));
#723=CARTESIAN_POINT('',(0.4125,1.94412679364642E-16,1.19043432748785E-32));
#724=CARTESIAN_POINT('Origin',(-0.750000000002465,0.,-2.74999999999967));
#725=CARTESIAN_POINT('',(-0.750000000002465,9.6144422615148,-2.74999999999967));
#726=CARTESIAN_POINT('',(-0.750000000002464,9.61444226151461,2.75000000000033));
#727=CARTESIAN_POINT('Origin',(-0.750000000002465,0.,0.));
#728=CARTESIAN_POINT('',(-0.750000000002465,12.3482,-2.74999999999967));
#729=CARTESIAN_POINT('',(-0.750000000002465,0.,-2.74999999999967));
#730=CARTESIAN_POINT('',(-0.750000000002464,12.3482,2.75000000000033));
#731=CARTESIAN_POINT('',(-0.750000000002464,12.3482,2.75000000000033));
#732=CARTESIAN_POINT('',(-0.750000000002464,0.,2.75000000000033));
#733=CARTESIAN_POINT('Origin',(-0.750000000002464,0.,2.75000000000033));
#734=CARTESIAN_POINT('',(4.74999999999754,9.61444226151461,2.75000000000033));
#735=CARTESIAN_POINT('',(-0.1325,9.61444226151461,2.75000000000033));
#736=CARTESIAN_POINT('',(4.74999999999754,12.3482,2.75000000000033));
#737=CARTESIAN_POINT('',(4.74999999999754,12.3482,2.75000000000033));
#738=CARTESIAN_POINT('',(4.74999999999754,0.,2.75000000000033));
#739=CARTESIAN_POINT('Origin',(4.74999999999754,0.,2.75000000000033));
#740=CARTESIAN_POINT('',(4.74999999999754,9.6144422615148,-2.74999999999967));
#741=CARTESIAN_POINT('Origin',(4.74999999999754,0.,0.));
#742=CARTESIAN_POINT('',(4.74999999999754,12.3482,-2.74999999999967));
#743=CARTESIAN_POINT('',(4.74999999999754,12.3482,-2.74999999999967));
#744=CARTESIAN_POINT('',(4.74999999999754,0.,-2.74999999999967));
#745=CARTESIAN_POINT('Origin',(4.74999999999754,0.,-2.74999999999967));
#746=CARTESIAN_POINT('',(-0.1325,9.6144422615148,-2.74999999999967));
#747=CARTESIAN_POINT('',(-0.750000000002465,12.3482,-2.74999999999967));
#748=CARTESIAN_POINT('Origin',(1.99999999999754,12.3482,3.30846461338297E-13));
#749=CARTESIAN_POINT('',(0.4125,12.3482,-1.94412679364642E-16));
#750=CARTESIAN_POINT('Origin',(2.,12.3482,0.));
#751=CARTESIAN_POINT('Origin',(2.,0.,0.));
#752=CARTESIAN_POINT('',(0.4125,0.,1.94412679364642E-16));
#753=CARTESIAN_POINT('Origin',(-0.1325,0.,0.));
#754=CARTESIAN_POINT('',(-8.265,-1.22464679914735E-15,-10.));
#755=CARTESIAN_POINT('Origin',(-8.265,0.,0.));
#756=CARTESIAN_POINT('',(-0.1325,-1.22464679914735E-15,-10.));
#757=CARTESIAN_POINT('',(8.,-1.22464679914735E-15,-10.));
#758=CARTESIAN_POINT('',(-0.1325,-1.22464679914735E-15,-10.));
#759=CARTESIAN_POINT('Origin',(8.,0.,0.));
#760=CARTESIAN_POINT('Origin',(8.,0.,12.));
#761=CARTESIAN_POINT('',(8.,-1.46957615897682E-15,-12.));
#762=CARTESIAN_POINT('Origin',(8.,0.,0.));
#763=CARTESIAN_POINT('Origin',(7.75,0.,0.));
#764=CARTESIAN_POINT('',(7.75,-1.46957615897682E-15,-12.));
#765=CARTESIAN_POINT('Origin',(-2.41226846970333,0.,0.));
#766=CARTESIAN_POINT('',(-2.98087793811092,-1.53080849893419E-15,-12.5));
#767=CARTESIAN_POINT('Origin',(-2.98087793811092,0.,0.));
#768=CARTESIAN_POINT('',(-2.41226846970333,-1.74512168878498E-15,-14.25));
#769=CARTESIAN_POINT('Origin',(-3.80432950064787,0.,0.));
#770=CARTESIAN_POINT('',(-4.62778106318483,-1.53080849893419E-15,-12.5));
#771=CARTESIAN_POINT('Origin',(-4.62778106318483,0.,0.));
#772=CARTESIAN_POINT('',(-3.80432950064787,-1.53080849893419E-15,-12.5));
#773=CARTESIAN_POINT('Origin',(-5.19639053159241,0.,0.));
#774=CARTESIAN_POINT('',(-5.765,-1.95943487863577E-15,-16.));
#775=CARTESIAN_POINT('Origin',(-5.765,0.,0.));
#776=CARTESIAN_POINT('',(-5.19639053159241,-1.74512168878498E-15,-14.25));
#777=CARTESIAN_POINT('Origin',(-7.015,0.,0.));
#778=CARTESIAN_POINT('',(-8.265,-1.95943487863577E-15,-16.));
#779=CARTESIAN_POINT('Origin',(-8.265,0.,0.));
#780=CARTESIAN_POINT('',(-7.015,-1.95943487863577E-15,-16.));
#781=CARTESIAN_POINT('Origin',(-8.265,0.,10.));
#782=UNCERTAINTY_MEASURE_WITH_UNIT(LENGTH_MEASURE(0.01),#786,
'DISTANCE_ACCURACY_VALUE',
'Maximum model space distance between geometric entities at asserted c
onnectivities');
#783=UNCERTAINTY_MEASURE_WITH_UNIT(LENGTH_MEASURE(0.01),#786,
'DISTANCE_ACCURACY_VALUE',
'Maximum model space distance between geometric entities at asserted c
onnectivities');
#784=(
GEOMETRIC_REPRESENTATION_CONTEXT(3)
GLOBAL_UNCERTAINTY_ASSIGNED_CONTEXT((#782))
GLOBAL_UNIT_ASSIGNED_CONTEXT((#786,#788,#789))
REPRESENTATION_CONTEXT('','3D')
);
#785=(
GEOMETRIC_REPRESENTATION_CONTEXT(3)
GLOBAL_UNCERTAINTY_ASSIGNED_CONTEXT((#783))
GLOBAL_UNIT_ASSIGNED_CONTEXT((#786,#788,#789))
REPRESENTATION_CONTEXT('','3D')
);
#786=(
LENGTH_UNIT()
NAMED_UNIT(*)
SI_UNIT(.MILLI.,.METRE.)
);
#787=(
LENGTH_UNIT()
NAMED_UNIT(*)
SI_UNIT($,.METRE.)
);
#788=(
NAMED_UNIT(*)
PLANE_ANGLE_UNIT()
SI_UNIT($,.RADIAN.)
);
#789=(
NAMED_UNIT(*)
SI_UNIT($,.STERADIAN.)
SOLID_ANGLE_UNIT()
);
#790=SHAPE_DEFINITION_REPRESENTATION(#791,#792);
#791=PRODUCT_DEFINITION_SHAPE('',$,#794);
#792=SHAPE_REPRESENTATION('',(#431),#784);
#793=PRODUCT_DEFINITION_CONTEXT('part definition',#798,'design');
#794=PRODUCT_DEFINITION('Pulley_20mm_Bore','Pulley_20mm_Bore',#795,#793);
#795=PRODUCT_DEFINITION_FORMATION('',$,#800);
#796=PRODUCT_RELATED_PRODUCT_CATEGORY('Pulley_20mm_Bore',
'Pulley_20mm_Bore',(#800));
#797=APPLICATION_PROTOCOL_DEFINITION('international standard',
'automotive_design',2009,#798);
#798=APPLICATION_CONTEXT(
'Core Data for Automotive Mechanical Design Process');
#799=PRODUCT_CONTEXT('part definition',#798,'mechanical');
#800=PRODUCT('Pulley_20mm_Bore','Pulley_20mm_Bore',$,(#799));
#801=PRESENTATION_STYLE_ASSIGNMENT((#803));
#802=PRESENTATION_STYLE_ASSIGNMENT((#804));
#803=SURFACE_STYLE_USAGE(.BOTH.,#805);
#804=SURFACE_STYLE_USAGE(.BOTH.,#806);
#805=SURFACE_SIDE_STYLE('',(#807));
#806=SURFACE_SIDE_STYLE('',(#808));
#807=SURFACE_STYLE_FILL_AREA(#809);
#808=SURFACE_STYLE_FILL_AREA(#810);
#809=FILL_AREA_STYLE('Paint - Enamel Glossy (Blue)',(#811));
#810=FILL_AREA_STYLE('Paint - Enamel Glossy (Yellow)',(#812));
#811=FILL_AREA_STYLE_COLOUR('Paint - Enamel Glossy (Blue)',#813);
#812=FILL_AREA_STYLE_COLOUR('Paint - Enamel Glossy (Yellow)',#814);
#813=COLOUR_RGB('Paint - Enamel Glossy (Blue)',0.188235294117647,0.231372549019608,
0.588235294117647);
#814=COLOUR_RGB('Paint - Enamel Glossy (Yellow)',0.909803921568627,0.67843137254902,
0.137254901960784);
ENDSEC;
END-ISO-10303-21;
