ISO-10303-21;
HEADER;
/* Generated by software containing ST-Developer
 * from STEP Tools, Inc. (www.steptools.com) 
 */

FILE_DESCRIPTION(
/* description */ (''),
/* implementation_level */ '2;1');

FILE_NAME(
/* name */ 'Insert_Top_Lock.step',
/* time_stamp */ '2026-01-21T18:49:26-08:00',
/* author */ (''),
/* organization */ (''),
/* preprocessor_version */ 'ST-DEVELOPER v20.1',
/* originating_system */ 'Autodesk Translation Framework v14.21.0.0',
/* authorisation */ '');

FILE_SCHEMA (('AUTOMOTIVE_DESIGN { 1 0 10303 214 3 1 1 }'));
ENDSEC;

DATA;
#10=MECHANICAL_DESIGN_GEOMETRIC_PRESENTATION_REPRESENTATION('',(#13),#407);
#11=SHAPE_REPRESENTATION_RELATIONSHIP('SRR','None',#414,#12);
#12=ADVANCED_BREP_SHAPE_REPRESENTATION('',(#14),#406);
#13=STYLED_ITEM('',(#423),#14);
#14=MANIFOLD_SOLID_BREP('Body1',#231);
#15=ELLIPSE('',#251,0.770199351775409,0.5);
#16=ELLIPSE('',#259,0.770199351775409,0.5);
#17=ELLIPSE('',#262,2.27293474877314,1.475549637593);
#18=ELLIPSE('',#265,0.273882889491335,0.1778);
#19=ELLIPSE('',#268,0.273882889491336,0.1778);
#20=FACE_BOUND('',#45,.T.);
#21=FACE_BOUND('',#49,.T.);
#22=FACE_BOUND('',#58,.T.);
#23=PLANE('',#248);
#24=PLANE('',#253);
#25=PLANE('',#254);
#26=PLANE('',#260);
#27=PLANE('',#263);
#28=PLANE('',#266);
#29=PLANE('',#269);
#30=FACE_OUTER_BOUND('',#43,.T.);
#31=FACE_OUTER_BOUND('',#44,.T.);
#32=FACE_OUTER_BOUND('',#46,.T.);
#33=FACE_OUTER_BOUND('',#47,.T.);
#34=FACE_OUTER_BOUND('',#48,.T.);
#35=FACE_OUTER_BOUND('',#50,.T.);
#36=FACE_OUTER_BOUND('',#51,.T.);
#37=FACE_OUTER_BOUND('',#52,.T.);
#38=FACE_OUTER_BOUND('',#53,.T.);
#39=FACE_OUTER_BOUND('',#54,.T.);
#40=FACE_OUTER_BOUND('',#55,.T.);
#41=FACE_OUTER_BOUND('',#56,.T.);
#42=FACE_OUTER_BOUND('',#57,.T.);
#43=EDGE_LOOP('',(#152,#153,#154,#155));
#44=EDGE_LOOP('',(#156));
#45=EDGE_LOOP('',(#157));
#46=EDGE_LOOP('',(#158,#159,#160,#161));
#47=EDGE_LOOP('',(#162,#163,#164,#165));
#48=EDGE_LOOP('',(#166,#167,#168,#169,#170,#171,#172,#173));
#49=EDGE_LOOP('',(#174));
#50=EDGE_LOOP('',(#175,#176,#177,#178));
#51=EDGE_LOOP('',(#179,#180,#181,#182));
#52=EDGE_LOOP('',(#183,#184,#185,#186));
#53=EDGE_LOOP('',(#187,#188,#189,#190));
#54=EDGE_LOOP('',(#191,#192,#193,#194));
#55=EDGE_LOOP('',(#195,#196,#197,#198));
#56=EDGE_LOOP('',(#199,#200,#201,#202));
#57=EDGE_LOOP('',(#203,#204,#205,#206,#207,#208,#209,#210));
#58=EDGE_LOOP('',(#211));
#59=LINE('',#345,#77);
#60=LINE('',#355,#78);
#61=LINE('',#358,#79);
#62=LINE('',#361,#80);
#63=LINE('',#363,#81);
#64=LINE('',#364,#82);
#65=LINE('',#367,#83);
#66=LINE('',#371,#84);
#67=LINE('',#375,#85);
#68=LINE('',#381,#86);
#69=LINE('',#382,#87);
#70=LINE('',#385,#88);
#71=LINE('',#386,#89);
#72=LINE('',#390,#90);
#73=LINE('',#392,#91);
#74=LINE('',#396,#92);
#75=LINE('',#399,#93);
#76=LINE('',#400,#94);
#77=VECTOR('',#276,1.625);
#78=VECTOR('',#287,10.);
#79=VECTOR('',#290,10.);
#80=VECTOR('',#293,10.);
#81=VECTOR('',#294,10.);
#82=VECTOR('',#295,10.);
#83=VECTOR('',#298,10.);
#84=VECTOR('',#301,10.);
#85=VECTOR('',#304,10.);
#86=VECTOR('',#311,10.);
#87=VECTOR('',#312,10.);
#88=VECTOR('',#315,10.);
#89=VECTOR('',#316,10.);
#90=VECTOR('',#321,1.475549637593);
#91=VECTOR('',#324,10.);
#92=VECTOR('',#329,10.);
#93=VECTOR('',#332,10.);
#94=VECTOR('',#333,10.);
#95=CIRCLE('',#246,1.625);
#96=CIRCLE('',#247,1.625);
#97=CIRCLE('',#249,1.475549637593);
#98=CIRCLE('',#252,0.5);
#99=CIRCLE('',#255,0.5);
#100=CIRCLE('',#256,0.1778);
#101=CIRCLE('',#257,0.1778);
#102=VERTEX_POINT('',#342);
#103=VERTEX_POINT('',#344);
#104=VERTEX_POINT('',#348);
#105=VERTEX_POINT('',#351);
#106=VERTEX_POINT('',#352);
#107=VERTEX_POINT('',#354);
#108=VERTEX_POINT('',#356);
#109=VERTEX_POINT('',#360);
#110=VERTEX_POINT('',#362);
#111=VERTEX_POINT('',#366);
#112=VERTEX_POINT('',#368);
#113=VERTEX_POINT('',#370);
#114=VERTEX_POINT('',#372);
#115=VERTEX_POINT('',#374);
#116=VERTEX_POINT('',#378);
#117=VERTEX_POINT('',#379);
#118=VERTEX_POINT('',#384);
#119=VERTEX_POINT('',#388);
#120=VERTEX_POINT('',#394);
#121=VERTEX_POINT('',#398);
#122=EDGE_CURVE('',#102,#102,#95,.T.);
#123=EDGE_CURVE('',#102,#103,#59,.T.);
#124=EDGE_CURVE('',#103,#103,#96,.T.);
#125=EDGE_CURVE('',#104,#104,#97,.T.);
#126=EDGE_CURVE('',#105,#106,#15,.F.);
#127=EDGE_CURVE('',#106,#107,#60,.T.);
#128=EDGE_CURVE('',#107,#108,#98,.T.);
#129=EDGE_CURVE('',#108,#105,#61,.T.);
#130=EDGE_CURVE('',#108,#109,#62,.T.);
#131=EDGE_CURVE('',#109,#110,#63,.T.);
#132=EDGE_CURVE('',#105,#110,#64,.T.);
#133=EDGE_CURVE('',#107,#111,#65,.T.);
#134=EDGE_CURVE('',#112,#111,#99,.T.);
#135=EDGE_CURVE('',#113,#112,#66,.T.);
#136=EDGE_CURVE('',#114,#113,#100,.T.);
#137=EDGE_CURVE('',#115,#114,#67,.T.);
#138=EDGE_CURVE('',#109,#115,#101,.T.);
#139=EDGE_CURVE('',#116,#117,#16,.F.);
#140=EDGE_CURVE('',#117,#112,#68,.T.);
#141=EDGE_CURVE('',#111,#116,#69,.T.);
#142=EDGE_CURVE('',#118,#117,#70,.T.);
#143=EDGE_CURVE('',#113,#118,#71,.T.);
#144=EDGE_CURVE('',#119,#119,#17,.T.);
#145=EDGE_CURVE('',#119,#104,#72,.T.);
#146=EDGE_CURVE('',#116,#106,#73,.T.);
#147=EDGE_CURVE('',#120,#118,#18,.T.);
#148=EDGE_CURVE('',#114,#120,#74,.T.);
#149=EDGE_CURVE('',#121,#120,#75,.T.);
#150=EDGE_CURVE('',#115,#121,#76,.T.);
#151=EDGE_CURVE('',#110,#121,#19,.T.);
#152=ORIENTED_EDGE('',*,*,#122,.F.);
#153=ORIENTED_EDGE('',*,*,#123,.T.);
#154=ORIENTED_EDGE('',*,*,#124,.T.);
#155=ORIENTED_EDGE('',*,*,#123,.F.);
#156=ORIENTED_EDGE('',*,*,#124,.F.);
#157=ORIENTED_EDGE('',*,*,#125,.F.);
#158=ORIENTED_EDGE('',*,*,#126,.T.);
#159=ORIENTED_EDGE('',*,*,#127,.T.);
#160=ORIENTED_EDGE('',*,*,#128,.T.);
#161=ORIENTED_EDGE('',*,*,#129,.T.);
#162=ORIENTED_EDGE('',*,*,#129,.F.);
#163=ORIENTED_EDGE('',*,*,#130,.T.);
#164=ORIENTED_EDGE('',*,*,#131,.T.);
#165=ORIENTED_EDGE('',*,*,#132,.F.);
#166=ORIENTED_EDGE('',*,*,#128,.F.);
#167=ORIENTED_EDGE('',*,*,#133,.T.);
#168=ORIENTED_EDGE('',*,*,#134,.F.);
#169=ORIENTED_EDGE('',*,*,#135,.F.);
#170=ORIENTED_EDGE('',*,*,#136,.F.);
#171=ORIENTED_EDGE('',*,*,#137,.F.);
#172=ORIENTED_EDGE('',*,*,#138,.F.);
#173=ORIENTED_EDGE('',*,*,#130,.F.);
#174=ORIENTED_EDGE('',*,*,#122,.T.);
#175=ORIENTED_EDGE('',*,*,#139,.T.);
#176=ORIENTED_EDGE('',*,*,#140,.T.);
#177=ORIENTED_EDGE('',*,*,#134,.T.);
#178=ORIENTED_EDGE('',*,*,#141,.T.);
#179=ORIENTED_EDGE('',*,*,#140,.F.);
#180=ORIENTED_EDGE('',*,*,#142,.F.);
#181=ORIENTED_EDGE('',*,*,#143,.F.);
#182=ORIENTED_EDGE('',*,*,#135,.T.);
#183=ORIENTED_EDGE('',*,*,#144,.F.);
#184=ORIENTED_EDGE('',*,*,#145,.T.);
#185=ORIENTED_EDGE('',*,*,#125,.T.);
#186=ORIENTED_EDGE('',*,*,#145,.F.);
#187=ORIENTED_EDGE('',*,*,#127,.F.);
#188=ORIENTED_EDGE('',*,*,#146,.F.);
#189=ORIENTED_EDGE('',*,*,#141,.F.);
#190=ORIENTED_EDGE('',*,*,#133,.F.);
#191=ORIENTED_EDGE('',*,*,#136,.T.);
#192=ORIENTED_EDGE('',*,*,#143,.T.);
#193=ORIENTED_EDGE('',*,*,#147,.F.);
#194=ORIENTED_EDGE('',*,*,#148,.F.);
#195=ORIENTED_EDGE('',*,*,#137,.T.);
#196=ORIENTED_EDGE('',*,*,#148,.T.);
#197=ORIENTED_EDGE('',*,*,#149,.F.);
#198=ORIENTED_EDGE('',*,*,#150,.F.);
#199=ORIENTED_EDGE('',*,*,#138,.T.);
#200=ORIENTED_EDGE('',*,*,#150,.T.);
#201=ORIENTED_EDGE('',*,*,#151,.F.);
#202=ORIENTED_EDGE('',*,*,#131,.F.);
#203=ORIENTED_EDGE('',*,*,#126,.F.);
#204=ORIENTED_EDGE('',*,*,#132,.T.);
#205=ORIENTED_EDGE('',*,*,#151,.T.);
#206=ORIENTED_EDGE('',*,*,#149,.T.);
#207=ORIENTED_EDGE('',*,*,#147,.T.);
#208=ORIENTED_EDGE('',*,*,#142,.T.);
#209=ORIENTED_EDGE('',*,*,#139,.F.);
#210=ORIENTED_EDGE('',*,*,#146,.T.);
#211=ORIENTED_EDGE('',*,*,#144,.T.);
#212=CYLINDRICAL_SURFACE('',#245,1.625);
#213=CYLINDRICAL_SURFACE('',#250,0.5);
#214=CYLINDRICAL_SURFACE('',#258,0.5);
#215=CYLINDRICAL_SURFACE('',#261,1.475549637593);
#216=CYLINDRICAL_SURFACE('',#264,0.1778);
#217=CYLINDRICAL_SURFACE('',#267,0.1778);
#218=ADVANCED_FACE('',(#30),#212,.F.);
#219=ADVANCED_FACE('',(#31,#20),#23,.F.);
#220=ADVANCED_FACE('',(#32),#213,.T.);
#221=ADVANCED_FACE('',(#33),#24,.T.);
#222=ADVANCED_FACE('',(#34,#21),#25,.F.);
#223=ADVANCED_FACE('',(#35),#214,.T.);
#224=ADVANCED_FACE('',(#36),#26,.T.);
#225=ADVANCED_FACE('',(#37),#215,.F.);
#226=ADVANCED_FACE('',(#38),#27,.T.);
#227=ADVANCED_FACE('',(#39),#216,.T.);
#228=ADVANCED_FACE('',(#40),#28,.T.);
#229=ADVANCED_FACE('',(#41),#217,.T.);
#230=ADVANCED_FACE('',(#42,#22),#29,.T.);
#231=CLOSED_SHELL('',(#218,#219,#220,#221,#222,#223,#224,#225,#226,#227,
#228,#229,#230));
#232=DERIVED_UNIT_ELEMENT(#234,1.);
#233=DERIVED_UNIT_ELEMENT(#409,-3.);
#234=(
MASS_UNIT()
NAMED_UNIT(*)
SI_UNIT(.KILO.,.GRAM.)
);
#235=DERIVED_UNIT((#232,#233));
#236=MEASURE_REPRESENTATION_ITEM('density measure',
POSITIVE_RATIO_MEASURE(7850.),#235);
#237=PROPERTY_DEFINITION_REPRESENTATION(#242,#239);
#238=PROPERTY_DEFINITION_REPRESENTATION(#243,#240);
#239=REPRESENTATION('material name',(#241),#406);
#240=REPRESENTATION('density',(#236),#406);
#241=DESCRIPTIVE_REPRESENTATION_ITEM('Steel','Steel');
#242=PROPERTY_DEFINITION('material property','material name',#416);
#243=PROPERTY_DEFINITION('material property','density of part',#416);
#244=AXIS2_PLACEMENT_3D('',#340,#270,#271);
#245=AXIS2_PLACEMENT_3D('',#341,#272,#273);
#246=AXIS2_PLACEMENT_3D('',#343,#274,#275);
#247=AXIS2_PLACEMENT_3D('',#346,#277,#278);
#248=AXIS2_PLACEMENT_3D('',#347,#279,#280);
#249=AXIS2_PLACEMENT_3D('',#349,#281,#282);
#250=AXIS2_PLACEMENT_3D('',#350,#283,#284);
#251=AXIS2_PLACEMENT_3D('',#353,#285,#286);
#252=AXIS2_PLACEMENT_3D('',#357,#288,#289);
#253=AXIS2_PLACEMENT_3D('',#359,#291,#292);
#254=AXIS2_PLACEMENT_3D('',#365,#296,#297);
#255=AXIS2_PLACEMENT_3D('',#369,#299,#300);
#256=AXIS2_PLACEMENT_3D('',#373,#302,#303);
#257=AXIS2_PLACEMENT_3D('',#376,#305,#306);
#258=AXIS2_PLACEMENT_3D('',#377,#307,#308);
#259=AXIS2_PLACEMENT_3D('',#380,#309,#310);
#260=AXIS2_PLACEMENT_3D('',#383,#313,#314);
#261=AXIS2_PLACEMENT_3D('',#387,#317,#318);
#262=AXIS2_PLACEMENT_3D('',#389,#319,#320);
#263=AXIS2_PLACEMENT_3D('',#391,#322,#323);
#264=AXIS2_PLACEMENT_3D('',#393,#325,#326);
#265=AXIS2_PLACEMENT_3D('',#395,#327,#328);
#266=AXIS2_PLACEMENT_3D('',#397,#330,#331);
#267=AXIS2_PLACEMENT_3D('',#401,#334,#335);
#268=AXIS2_PLACEMENT_3D('',#402,#336,#337);
#269=AXIS2_PLACEMENT_3D('',#403,#338,#339);
#270=DIRECTION('axis',(0.,0.,1.));
#271=DIRECTION('refdir',(1.,0.,0.));
#272=DIRECTION('center_axis',(0.,0.,1.));
#273=DIRECTION('ref_axis',(-1.,0.,0.));
#274=DIRECTION('center_axis',(0.,0.,1.));
#275=DIRECTION('ref_axis',(-1.,0.,0.));
#276=DIRECTION('',(0.,0.,1.));
#277=DIRECTION('center_axis',(0.,0.,1.));
#278=DIRECTION('ref_axis',(-1.,0.,0.));
#279=DIRECTION('center_axis',(0.,0.,1.));
#280=DIRECTION('ref_axis',(-1.,0.,0.));
#281=DIRECTION('center_axis',(0.,0.,-1.));
#282=DIRECTION('ref_axis',(-1.,0.,0.));
#283=DIRECTION('center_axis',(0.,0.,1.));
#284=DIRECTION('ref_axis',(-0.499999999999995,0.866025403784442,0.));
#285=DIRECTION('center_axis',(0.,0.760632619404127,0.649182577013906));
#286=DIRECTION('ref_axis',(0.,0.649182577013906,-0.760632619404127));
#287=DIRECTION('',(0.,0.,-1.));
#288=DIRECTION('center_axis',(0.,0.,1.));
#289=DIRECTION('ref_axis',(-0.499999999999995,0.866025403784442,0.));
#290=DIRECTION('',(0.,0.,1.));
#291=DIRECTION('center_axis',(-0.866025403784433,0.50000000000001,0.));
#292=DIRECTION('ref_axis',(-0.50000000000001,-0.866025403784433,0.));
#293=DIRECTION('',(-0.50000000000001,-0.866025403784433,0.));
#294=DIRECTION('',(0.,0.,1.));
#295=DIRECTION('',(-0.350963956343104,-0.607887404011625,0.712247994305356));
#296=DIRECTION('center_axis',(0.,0.,1.));
#297=DIRECTION('ref_axis',(-1.,0.,0.));
#298=DIRECTION('',(1.,0.,0.));
#299=DIRECTION('center_axis',(0.,0.,1.));
#300=DIRECTION('ref_axis',(0.50000000000002,0.866025403784427,0.));
#301=DIRECTION('',(-0.49999999999996,0.866025403784461,0.));
#302=DIRECTION('center_axis',(0.,0.,1.));
#303=DIRECTION('ref_axis',(0.,-1.,0.));
#304=DIRECTION('',(1.,4.05111260580625E-18,0.));
#305=DIRECTION('center_axis',(0.,0.,1.));
#306=DIRECTION('ref_axis',(-0.866025403784336,0.500000000000178,0.));
#307=DIRECTION('center_axis',(0.,0.,1.));
#308=DIRECTION('ref_axis',(0.50000000000002,0.866025403784427,0.));
#309=DIRECTION('center_axis',(0.,0.760632619404127,0.649182577013906));
#310=DIRECTION('ref_axis',(0.,0.649182577013906,-0.760632619404127));
#311=DIRECTION('',(0.,0.,-1.));
#312=DIRECTION('',(0.,0.,1.));
#313=DIRECTION('center_axis',(0.866025403784462,0.49999999999996,0.));
#314=DIRECTION('ref_axis',(-0.49999999999996,0.866025403784462,0.));
#315=DIRECTION('',(-0.350963956343063,0.607887404011635,-0.712247994305368));
#316=DIRECTION('',(0.,0.,1.));
#317=DIRECTION('center_axis',(0.,0.,1.));
#318=DIRECTION('ref_axis',(-1.,0.,0.));
#319=DIRECTION('center_axis',(0.,-0.760632619404127,-0.649182577013906));
#320=DIRECTION('ref_axis',(0.,-0.649182577013906,0.760632619404127));
#321=DIRECTION('',(0.,0.,-1.));
#322=DIRECTION('center_axis',(0.,1.,0.));
#323=DIRECTION('ref_axis',(-1.,0.,0.));
#324=DIRECTION('',(-1.,0.,0.));
#325=DIRECTION('center_axis',(0.,0.,1.));
#326=DIRECTION('ref_axis',(0.,-1.,0.));
#327=DIRECTION('center_axis',(0.,0.760632619404127,0.649182577013906));
#328=DIRECTION('ref_axis',(0.,-0.649182577013906,0.760632619404127));
#329=DIRECTION('',(0.,0.,1.));
#330=DIRECTION('center_axis',(4.05111260580625E-18,-1.,0.));
#331=DIRECTION('ref_axis',(1.,4.05111260580625E-18,0.));
#332=DIRECTION('',(1.,4.05111260580625E-18,-4.7465974934652E-18));
#333=DIRECTION('',(0.,0.,1.));
#334=DIRECTION('center_axis',(0.,0.,1.));
#335=DIRECTION('ref_axis',(-0.866025403784336,0.500000000000178,0.));
#336=DIRECTION('center_axis',(0.,0.760632619404127,0.649182577013906));
#337=DIRECTION('ref_axis',(3.1669073581022E-17,0.649182577013906,-0.760632619404127));
#338=DIRECTION('center_axis',(0.,0.760632619404127,0.649182577013906));
#339=DIRECTION('ref_axis',(-1.,0.,0.));
#340=CARTESIAN_POINT('',(0.,0.,0.));
#341=CARTESIAN_POINT('Origin',(3.51952724098,2.032,0.));
#342=CARTESIAN_POINT('',(5.14452724098,2.032,0.));
#343=CARTESIAN_POINT('Origin',(3.51952724098,2.032,0.));
#344=CARTESIAN_POINT('',(5.14452724098,2.032,1.));
#345=CARTESIAN_POINT('',(5.14452724098,2.032,0.));
#346=CARTESIAN_POINT('Origin',(3.51952724098,2.032,1.));
#347=CARTESIAN_POINT('Origin',(3.51952724098,2.032,1.));
#348=CARTESIAN_POINT('',(4.995076878573,2.032,1.));
#349=CARTESIAN_POINT('Origin',(3.51952724098,2.032,1.));
#350=CARTESIAN_POINT('Origin',(2.62140116222859,3.5404,0.));
#351=CARTESIAN_POINT('',(2.18838846033637,3.7904,1.81291937520214));
#352=CARTESIAN_POINT('',(2.62140116222859,4.0404,1.52));
#353=CARTESIAN_POINT('Origin',(2.62140116222859,3.5404,2.10583875040429));
#354=CARTESIAN_POINT('',(2.62140116222859,4.0404,0.));
#355=CARTESIAN_POINT('',(2.62140116222859,4.0404,0.));
#356=CARTESIAN_POINT('',(2.18838846033637,3.7904,0.));
#357=CARTESIAN_POINT('Origin',(2.62140116222859,3.5404,0.));
#358=CARTESIAN_POINT('',(2.18838846033637,3.7904,0.));
#359=CARTESIAN_POINT('Origin',(2.33272602763378,4.0404,0.));
#360=CARTESIAN_POINT('',(0.153979316792845,0.266700000000032,0.));
#361=CARTESIAN_POINT('',(3.3655479241871,5.82929999999995,0.));
#362=CARTESIAN_POINT('',(0.153979316792845,0.266700000000032,5.9415593848013));
#363=CARTESIAN_POINT('',(0.153979316792845,0.266700000000032,0.));
#364=CARTESIAN_POINT('',(2.26384029726308,3.92108641508146,1.65979704298987));
#365=CARTESIAN_POINT('Origin',(3.51952724097985,2.0202,0.));
#366=CARTESIAN_POINT('',(4.41765331973138,4.0404,0.));
#367=CARTESIAN_POINT('',(2.33272602763378,4.0404,0.));
#368=CARTESIAN_POINT('',(4.85066602162362,3.79039999999998,0.));
#369=CARTESIAN_POINT('Origin',(4.41765331973138,3.5404,0.));
#370=CARTESIAN_POINT('',(6.8850751651669,0.266699999999945,0.));
#371=CARTESIAN_POINT('',(6.8850751651669,0.266699999999945,0.));
#372=CARTESIAN_POINT('',(6.731095848374,0.,0.));
#373=CARTESIAN_POINT('Origin',(6.731095848374,0.1778,0.));
#374=CARTESIAN_POINT('',(0.3079586335857,-2.60208521396521E-17,0.));
#375=CARTESIAN_POINT('',(0.3079586335857,-2.60208521396521E-17,0.));
#376=CARTESIAN_POINT('Origin',(0.3079586335857,0.1778,0.));
#377=CARTESIAN_POINT('Origin',(4.41765331973138,3.5404,0.));
#378=CARTESIAN_POINT('',(4.41765331973138,4.0404,1.52));
#379=CARTESIAN_POINT('',(4.85066602162362,3.79039999999998,1.81291937520217));
#380=CARTESIAN_POINT('Origin',(4.41765331973138,3.5404,2.10583875040429));
#381=CARTESIAN_POINT('',(4.85066602162362,3.79039999999998,0.));
#382=CARTESIAN_POINT('',(4.41765331973138,4.0404,0.));
#383=CARTESIAN_POINT('Origin',(6.8850751651669,0.266699999999945,0.));
#384=CARTESIAN_POINT('',(6.8850751651669,0.266699999999945,5.9415593848014));
#385=CARTESIAN_POINT('',(5.31195148128397,2.99143014707539,2.74905437569825));
#386=CARTESIAN_POINT('',(6.8850751651669,0.266699999999945,0.));
#387=CARTESIAN_POINT('Origin',(3.51952724098,2.032,0.));
#388=CARTESIAN_POINT('',(4.995076878573,2.032,3.87319709262395));
#389=CARTESIAN_POINT('Origin',(3.51952724098,2.032,3.87319709262395));
#390=CARTESIAN_POINT('',(4.995076878573,2.032,0.));
#391=CARTESIAN_POINT('Origin',(4.70632845432621,4.0404,0.));
#392=CARTESIAN_POINT('',(2.33272602763378,4.0404,1.52));
#393=CARTESIAN_POINT('Origin',(6.731095848374,0.1778,0.));
#394=CARTESIAN_POINT('',(6.731095848374,0.,6.25404577426699));
#395=CARTESIAN_POINT('Origin',(6.731095848374,0.1778,6.04572151462322));
#396=CARTESIAN_POINT('',(6.731095848374,0.,0.));
#397=CARTESIAN_POINT('Origin',(0.3079586335857,-2.60208521396521E-17,0.));
#398=CARTESIAN_POINT('',(0.3079586335857,-2.60208521396521E-17,6.25404577426699));
#399=CARTESIAN_POINT('',(1.91374293728278,5.55111512312578E-16,6.25404577426699));
#400=CARTESIAN_POINT('',(0.3079586335857,-2.60208521396521E-17,0.));
#401=CARTESIAN_POINT('Origin',(0.3079586335857,0.1778,0.));
#402=CARTESIAN_POINT('Origin',(0.3079586335857,0.1778,6.04572151462322));
#403=CARTESIAN_POINT('Origin',(3.51952724097985,2.72892135791651,3.05663001772022));
#404=UNCERTAINTY_MEASURE_WITH_UNIT(LENGTH_MEASURE(0.01),#408,
'DISTANCE_ACCURACY_VALUE',
'Maximum model space distance between geometric entities at asserted c
onnectivities');
#405=UNCERTAINTY_MEASURE_WITH_UNIT(LENGTH_MEASURE(0.01),#408,
'DISTANCE_ACCURACY_VALUE',
'Maximum model space distance between geometric entities at asserted c
onnectivities');
#406=(
GEOMETRIC_REPRESENTATION_CONTEXT(3)
GLOBAL_UNCERTAINTY_ASSIGNED_CONTEXT((#404))
GLOBAL_UNIT_ASSIGNED_CONTEXT((#408,#410,#411))
REPRESENTATION_CONTEXT('','3D')
);
#407=(
GEOMETRIC_REPRESENTATION_CONTEXT(3)
GLOBAL_UNCERTAINTY_ASSIGNED_CONTEXT((#405))
GLOBAL_UNIT_ASSIGNED_CONTEXT((#408,#410,#411))
REPRESENTATION_CONTEXT('','3D')
);
#408=(
LENGTH_UNIT()
NAMED_UNIT(*)
SI_UNIT(.MILLI.,.METRE.)
);
#409=(
LENGTH_UNIT()
NAMED_UNIT(*)
SI_UNIT($,.METRE.)
);
#410=(
NAMED_UNIT(*)
PLANE_ANGLE_UNIT()
SI_UNIT($,.RADIAN.)
);
#411=(
NAMED_UNIT(*)
SI_UNIT($,.STERADIAN.)
SOLID_ANGLE_UNIT()
);
#412=SHAPE_DEFINITION_REPRESENTATION(#413,#414);
#413=PRODUCT_DEFINITION_SHAPE('',$,#416);
#414=SHAPE_REPRESENTATION('',(#244),#406);
#415=PRODUCT_DEFINITION_CONTEXT('part definition',#420,'design');
#416=PRODUCT_DEFINITION('Insert_Top_Lock','Insert_Top_Lock',#417,#415);
#417=PRODUCT_DEFINITION_FORMATION('',$,#422);
#418=PRODUCT_RELATED_PRODUCT_CATEGORY('Insert_Top_Lock',
'Insert_Top_Lock',(#422));
#419=APPLICATION_PROTOCOL_DEFINITION('international standard',
'automotive_design',2009,#420);
#420=APPLICATION_CONTEXT(
'Core Data for Automotive Mechanical Design Process');
#421=PRODUCT_CONTEXT('part definition',#420,'mechanical');
#422=PRODUCT('Insert_Top_Lock','Insert_Top_Lock',$,(#421));
#423=PRESENTATION_STYLE_ASSIGNMENT((#424));
#424=SURFACE_STYLE_USAGE(.BOTH.,#425);
#425=SURFACE_SIDE_STYLE('',(#426));
#426=SURFACE_STYLE_FILL_AREA(#427);
#427=FILL_AREA_STYLE('Paint - Enamel Glossy (Red)',(#428));
#428=FILL_AREA_STYLE_COLOUR('Paint - Enamel Glossy (Red)',#429);
#429=COLOUR_RGB('Paint - Enamel Glossy (Red)',0.768627450980392,0.207843137254902,
0.152941176470588);
ENDSEC;
END-ISO-10303-21;
