ISO-10303-21;
HEADER;
/* Generated by software containing ST-Developer
 * from STEP Tools, Inc. (www.steptools.com) 
 */

FILE_DESCRIPTION(
/* description */ (''),
/* implementation_level */ '2;1');

FILE_NAME(
/* name */ 'IdlerAdjust.step',
/* time_stamp */ '2026-03-03T14:13:03-08:00',
/* author */ (''),
/* organization */ (''),
/* preprocessor_version */ 'ST-DEVELOPER v20.1',
/* originating_system */ 'Autodesk Translation Framework v14.24.0.0',
/* authorisation */ '');

FILE_SCHEMA (('AUTOMOTIVE_DESIGN { 1 0 10303 214 3 1 1 }'));
ENDSEC;

DATA;
#10=MECHANICAL_DESIGN_GEOMETRIC_PRESENTATION_REPRESENTATION('',(#13),#596);
#11=SHAPE_REPRESENTATION_RELATIONSHIP('SRR','None',#603,#12);
#12=ADVANCED_BREP_SHAPE_REPRESENTATION('',(#14),#595);
#13=STYLED_ITEM('',(#612),#14);
#14=MANIFOLD_SOLID_BREP('Body1',#336);
#15=FACE_BOUND('',#51,.T.);
#16=FACE_BOUND('',#57,.T.);
#17=FACE_BOUND('',#59,.T.);
#18=FACE_BOUND('',#61,.T.);
#19=FACE_BOUND('',#62,.T.);
#20=FACE_BOUND('',#73,.T.);
#21=PLANE('',#353);
#22=PLANE('',#355);
#23=PLANE('',#356);
#24=PLANE('',#357);
#25=PLANE('',#358);
#26=PLANE('',#359);
#27=PLANE('',#361);
#28=PLANE('',#363);
#29=PLANE('',#390);
#30=FACE_OUTER_BOUND('',#49,.T.);
#31=FACE_OUTER_BOUND('',#50,.T.);
#32=FACE_OUTER_BOUND('',#52,.T.);
#33=FACE_OUTER_BOUND('',#53,.T.);
#34=FACE_OUTER_BOUND('',#54,.T.);
#35=FACE_OUTER_BOUND('',#55,.T.);
#36=FACE_OUTER_BOUND('',#56,.T.);
#37=FACE_OUTER_BOUND('',#58,.T.);
#38=FACE_OUTER_BOUND('',#60,.T.);
#39=FACE_OUTER_BOUND('',#63,.T.);
#40=FACE_OUTER_BOUND('',#64,.T.);
#41=FACE_OUTER_BOUND('',#65,.T.);
#42=FACE_OUTER_BOUND('',#66,.T.);
#43=FACE_OUTER_BOUND('',#67,.T.);
#44=FACE_OUTER_BOUND('',#68,.T.);
#45=FACE_OUTER_BOUND('',#69,.T.);
#46=FACE_OUTER_BOUND('',#70,.T.);
#47=FACE_OUTER_BOUND('',#71,.T.);
#48=FACE_OUTER_BOUND('',#72,.T.);
#49=EDGE_LOOP('',(#217,#218,#219,#220));
#50=EDGE_LOOP('',(#221));
#51=EDGE_LOOP('',(#222));
#52=EDGE_LOOP('',(#223,#224,#225,#226));
#53=EDGE_LOOP('',(#227,#228,#229,#230));
#54=EDGE_LOOP('',(#231,#232,#233,#234));
#55=EDGE_LOOP('',(#235,#236,#237,#238));
#56=EDGE_LOOP('',(#239,#240,#241,#242));
#57=EDGE_LOOP('',(#243));
#58=EDGE_LOOP('',(#244));
#59=EDGE_LOOP('',(#245));
#60=EDGE_LOOP('',(#246,#247,#248,#249));
#61=EDGE_LOOP('',(#250,#251,#252,#253));
#62=EDGE_LOOP('',(#254,#255,#256,#257));
#63=EDGE_LOOP('',(#258,#259,#260,#261));
#64=EDGE_LOOP('',(#262,#263,#264,#265));
#65=EDGE_LOOP('',(#266,#267,#268,#269));
#66=EDGE_LOOP('',(#270,#271,#272,#273));
#67=EDGE_LOOP('',(#274,#275,#276,#277));
#68=EDGE_LOOP('',(#278,#279,#280,#281));
#69=EDGE_LOOP('',(#282,#283,#284,#285,#286,#287,#288,#289));
#70=EDGE_LOOP('',(#290,#291,#292,#293));
#71=EDGE_LOOP('',(#294,#295,#296,#297));
#72=EDGE_LOOP('',(#298,#299,#300,#301,#302));
#73=EDGE_LOOP('',(#303,#304,#305,#306));
#74=LINE('',#503,#97);
#75=LINE('',#511,#98);
#76=LINE('',#513,#99);
#77=LINE('',#515,#100);
#78=LINE('',#516,#101);
#79=LINE('',#519,#102);
#80=LINE('',#521,#103);
#81=LINE('',#522,#104);
#82=LINE('',#525,#105);
#83=LINE('',#527,#106);
#84=LINE('',#528,#107);
#85=LINE('',#530,#108);
#86=LINE('',#531,#109);
#87=LINE('',#556,#110);
#88=LINE('',#559,#111);
#89=LINE('',#562,#112);
#90=LINE('',#566,#113);
#91=LINE('',#570,#114);
#92=LINE('',#575,#115);
#93=LINE('',#578,#116);
#94=LINE('',#581,#117);
#95=LINE('',#584,#118);
#96=LINE('',#589,#119);
#97=VECTOR('',#397,2.05);
#98=VECTOR('',#406,10.);
#99=VECTOR('',#407,10.);
#100=VECTOR('',#408,10.);
#101=VECTOR('',#409,10.);
#102=VECTOR('',#412,10.);
#103=VECTOR('',#413,10.);
#104=VECTOR('',#414,10.);
#105=VECTOR('',#417,10.);
#106=VECTOR('',#418,10.);
#107=VECTOR('',#419,10.);
#108=VECTOR('',#422,10.);
#109=VECTOR('',#423,10.);
#110=VECTOR('',#452,1.6);
#111=VECTOR('',#455,10.);
#112=VECTOR('',#458,10.);
#113=VECTOR('',#463,10.);
#114=VECTOR('',#468,10.);
#115=VECTOR('',#475,10.);
#116=VECTOR('',#478,10.);
#117=VECTOR('',#481,6.);
#118=VECTOR('',#484,10.);
#119=VECTOR('',#491,10.);
#120=CIRCLE('',#351,2.05);
#121=CIRCLE('',#352,2.05);
#122=CIRCLE('',#354,1.6);
#123=CIRCLE('',#360,1.6);
#124=CIRCLE('',#362,6.);
#125=CIRCLE('',#364,6.);
#126=CIRCLE('',#365,44.8474926364331);
#127=CIRCLE('',#366,6.00000000000001);
#128=CIRCLE('',#367,32.8474926364331);
#129=CIRCLE('',#368,2.);
#130=CIRCLE('',#369,40.8474926364331);
#131=CIRCLE('',#370,2.00000000000001);
#132=CIRCLE('',#371,36.8474926364331);
#133=CIRCLE('',#374,40.8474926364331);
#134=CIRCLE('',#376,2.00000000000001);
#135=CIRCLE('',#378,36.8474926364331);
#136=CIRCLE('',#380,2.);
#137=CIRCLE('',#382,32.8474926364331);
#138=CIRCLE('',#384,6.);
#139=CIRCLE('',#385,6.);
#140=CIRCLE('',#387,44.8474926364331);
#141=CIRCLE('',#389,6.00000000000001);
#142=VERTEX_POINT('',#500);
#143=VERTEX_POINT('',#502);
#144=VERTEX_POINT('',#506);
#145=VERTEX_POINT('',#509);
#146=VERTEX_POINT('',#510);
#147=VERTEX_POINT('',#512);
#148=VERTEX_POINT('',#514);
#149=VERTEX_POINT('',#518);
#150=VERTEX_POINT('',#520);
#151=VERTEX_POINT('',#524);
#152=VERTEX_POINT('',#526);
#153=VERTEX_POINT('',#533);
#154=VERTEX_POINT('',#536);
#155=VERTEX_POINT('',#539);
#156=VERTEX_POINT('',#540);
#157=VERTEX_POINT('',#542);
#158=VERTEX_POINT('',#544);
#159=VERTEX_POINT('',#547);
#160=VERTEX_POINT('',#548);
#161=VERTEX_POINT('',#550);
#162=VERTEX_POINT('',#552);
#163=VERTEX_POINT('',#558);
#164=VERTEX_POINT('',#560);
#165=VERTEX_POINT('',#564);
#166=VERTEX_POINT('',#568);
#167=VERTEX_POINT('',#574);
#168=VERTEX_POINT('',#576);
#169=VERTEX_POINT('',#580);
#170=VERTEX_POINT('',#582);
#171=VERTEX_POINT('',#587);
#172=EDGE_CURVE('',#142,#142,#120,.T.);
#173=EDGE_CURVE('',#142,#143,#74,.T.);
#174=EDGE_CURVE('',#143,#143,#121,.T.);
#175=EDGE_CURVE('',#144,#144,#122,.T.);
#176=EDGE_CURVE('',#145,#146,#75,.T.);
#177=EDGE_CURVE('',#145,#147,#76,.T.);
#178=EDGE_CURVE('',#147,#148,#77,.T.);
#179=EDGE_CURVE('',#146,#148,#78,.T.);
#180=EDGE_CURVE('',#149,#145,#79,.T.);
#181=EDGE_CURVE('',#149,#150,#80,.T.);
#182=EDGE_CURVE('',#150,#147,#81,.T.);
#183=EDGE_CURVE('',#151,#149,#82,.T.);
#184=EDGE_CURVE('',#151,#152,#83,.T.);
#185=EDGE_CURVE('',#152,#150,#84,.T.);
#186=EDGE_CURVE('',#146,#151,#85,.T.);
#187=EDGE_CURVE('',#148,#152,#86,.T.);
#188=EDGE_CURVE('',#153,#153,#123,.T.);
#189=EDGE_CURVE('',#154,#154,#124,.T.);
#190=EDGE_CURVE('',#155,#156,#125,.T.);
#191=EDGE_CURVE('',#157,#155,#126,.T.);
#192=EDGE_CURVE('',#158,#157,#127,.T.);
#193=EDGE_CURVE('',#158,#156,#128,.T.);
#194=EDGE_CURVE('',#159,#160,#129,.T.);
#195=EDGE_CURVE('',#161,#159,#130,.T.);
#196=EDGE_CURVE('',#162,#161,#131,.T.);
#197=EDGE_CURVE('',#160,#162,#132,.T.);
#198=EDGE_CURVE('',#144,#153,#87,.T.);
#199=EDGE_CURVE('',#159,#163,#88,.T.);
#200=EDGE_CURVE('',#164,#163,#133,.T.);
#201=EDGE_CURVE('',#161,#164,#89,.T.);
#202=EDGE_CURVE('',#165,#164,#134,.T.);
#203=EDGE_CURVE('',#162,#165,#90,.T.);
#204=EDGE_CURVE('',#166,#165,#135,.T.);
#205=EDGE_CURVE('',#160,#166,#91,.T.);
#206=EDGE_CURVE('',#163,#166,#136,.T.);
#207=EDGE_CURVE('',#158,#167,#92,.T.);
#208=EDGE_CURVE('',#168,#167,#137,.T.);
#209=EDGE_CURVE('',#156,#168,#93,.T.);
#210=EDGE_CURVE('',#154,#169,#94,.T.);
#211=EDGE_CURVE('',#170,#169,#138,.T.);
#212=EDGE_CURVE('',#155,#170,#95,.T.);
#213=EDGE_CURVE('',#169,#168,#139,.T.);
#214=EDGE_CURVE('',#171,#170,#140,.T.);
#215=EDGE_CURVE('',#157,#171,#96,.T.);
#216=EDGE_CURVE('',#167,#171,#141,.T.);
#217=ORIENTED_EDGE('',*,*,#172,.F.);
#218=ORIENTED_EDGE('',*,*,#173,.T.);
#219=ORIENTED_EDGE('',*,*,#174,.T.);
#220=ORIENTED_EDGE('',*,*,#173,.F.);
#221=ORIENTED_EDGE('',*,*,#174,.F.);
#222=ORIENTED_EDGE('',*,*,#175,.F.);
#223=ORIENTED_EDGE('',*,*,#176,.F.);
#224=ORIENTED_EDGE('',*,*,#177,.T.);
#225=ORIENTED_EDGE('',*,*,#178,.T.);
#226=ORIENTED_EDGE('',*,*,#179,.F.);
#227=ORIENTED_EDGE('',*,*,#180,.F.);
#228=ORIENTED_EDGE('',*,*,#181,.T.);
#229=ORIENTED_EDGE('',*,*,#182,.T.);
#230=ORIENTED_EDGE('',*,*,#177,.F.);
#231=ORIENTED_EDGE('',*,*,#183,.F.);
#232=ORIENTED_EDGE('',*,*,#184,.T.);
#233=ORIENTED_EDGE('',*,*,#185,.T.);
#234=ORIENTED_EDGE('',*,*,#181,.F.);
#235=ORIENTED_EDGE('',*,*,#186,.F.);
#236=ORIENTED_EDGE('',*,*,#179,.T.);
#237=ORIENTED_EDGE('',*,*,#187,.T.);
#238=ORIENTED_EDGE('',*,*,#184,.F.);
#239=ORIENTED_EDGE('',*,*,#187,.F.);
#240=ORIENTED_EDGE('',*,*,#178,.F.);
#241=ORIENTED_EDGE('',*,*,#182,.F.);
#242=ORIENTED_EDGE('',*,*,#185,.F.);
#243=ORIENTED_EDGE('',*,*,#188,.F.);
#244=ORIENTED_EDGE('',*,*,#189,.T.);
#245=ORIENTED_EDGE('',*,*,#172,.T.);
#246=ORIENTED_EDGE('',*,*,#190,.F.);
#247=ORIENTED_EDGE('',*,*,#191,.F.);
#248=ORIENTED_EDGE('',*,*,#192,.F.);
#249=ORIENTED_EDGE('',*,*,#193,.T.);
#250=ORIENTED_EDGE('',*,*,#176,.T.);
#251=ORIENTED_EDGE('',*,*,#186,.T.);
#252=ORIENTED_EDGE('',*,*,#183,.T.);
#253=ORIENTED_EDGE('',*,*,#180,.T.);
#254=ORIENTED_EDGE('',*,*,#194,.F.);
#255=ORIENTED_EDGE('',*,*,#195,.F.);
#256=ORIENTED_EDGE('',*,*,#196,.F.);
#257=ORIENTED_EDGE('',*,*,#197,.F.);
#258=ORIENTED_EDGE('',*,*,#175,.T.);
#259=ORIENTED_EDGE('',*,*,#198,.T.);
#260=ORIENTED_EDGE('',*,*,#188,.T.);
#261=ORIENTED_EDGE('',*,*,#198,.F.);
#262=ORIENTED_EDGE('',*,*,#195,.T.);
#263=ORIENTED_EDGE('',*,*,#199,.T.);
#264=ORIENTED_EDGE('',*,*,#200,.F.);
#265=ORIENTED_EDGE('',*,*,#201,.F.);
#266=ORIENTED_EDGE('',*,*,#196,.T.);
#267=ORIENTED_EDGE('',*,*,#201,.T.);
#268=ORIENTED_EDGE('',*,*,#202,.F.);
#269=ORIENTED_EDGE('',*,*,#203,.F.);
#270=ORIENTED_EDGE('',*,*,#197,.T.);
#271=ORIENTED_EDGE('',*,*,#203,.T.);
#272=ORIENTED_EDGE('',*,*,#204,.F.);
#273=ORIENTED_EDGE('',*,*,#205,.F.);
#274=ORIENTED_EDGE('',*,*,#194,.T.);
#275=ORIENTED_EDGE('',*,*,#205,.T.);
#276=ORIENTED_EDGE('',*,*,#206,.F.);
#277=ORIENTED_EDGE('',*,*,#199,.F.);
#278=ORIENTED_EDGE('',*,*,#193,.F.);
#279=ORIENTED_EDGE('',*,*,#207,.T.);
#280=ORIENTED_EDGE('',*,*,#208,.F.);
#281=ORIENTED_EDGE('',*,*,#209,.F.);
#282=ORIENTED_EDGE('',*,*,#189,.F.);
#283=ORIENTED_EDGE('',*,*,#210,.T.);
#284=ORIENTED_EDGE('',*,*,#211,.F.);
#285=ORIENTED_EDGE('',*,*,#212,.F.);
#286=ORIENTED_EDGE('',*,*,#190,.T.);
#287=ORIENTED_EDGE('',*,*,#209,.T.);
#288=ORIENTED_EDGE('',*,*,#213,.F.);
#289=ORIENTED_EDGE('',*,*,#210,.F.);
#290=ORIENTED_EDGE('',*,*,#191,.T.);
#291=ORIENTED_EDGE('',*,*,#212,.T.);
#292=ORIENTED_EDGE('',*,*,#214,.F.);
#293=ORIENTED_EDGE('',*,*,#215,.F.);
#294=ORIENTED_EDGE('',*,*,#192,.T.);
#295=ORIENTED_EDGE('',*,*,#215,.T.);
#296=ORIENTED_EDGE('',*,*,#216,.F.);
#297=ORIENTED_EDGE('',*,*,#207,.F.);
#298=ORIENTED_EDGE('',*,*,#211,.T.);
#299=ORIENTED_EDGE('',*,*,#213,.T.);
#300=ORIENTED_EDGE('',*,*,#208,.T.);
#301=ORIENTED_EDGE('',*,*,#216,.T.);
#302=ORIENTED_EDGE('',*,*,#214,.T.);
#303=ORIENTED_EDGE('',*,*,#206,.T.);
#304=ORIENTED_EDGE('',*,*,#204,.T.);
#305=ORIENTED_EDGE('',*,*,#202,.T.);
#306=ORIENTED_EDGE('',*,*,#200,.T.);
#307=CYLINDRICAL_SURFACE('',#350,2.05);
#308=CYLINDRICAL_SURFACE('',#372,1.6);
#309=CYLINDRICAL_SURFACE('',#373,40.8474926364331);
#310=CYLINDRICAL_SURFACE('',#375,2.00000000000001);
#311=CYLINDRICAL_SURFACE('',#377,36.8474926364331);
#312=CYLINDRICAL_SURFACE('',#379,2.);
#313=CYLINDRICAL_SURFACE('',#381,32.8474926364331);
#314=CYLINDRICAL_SURFACE('',#383,6.);
#315=CYLINDRICAL_SURFACE('',#386,44.8474926364331);
#316=CYLINDRICAL_SURFACE('',#388,6.00000000000001);
#317=ADVANCED_FACE('',(#30),#307,.F.);
#318=ADVANCED_FACE('',(#31,#15),#21,.T.);
#319=ADVANCED_FACE('',(#32),#22,.F.);
#320=ADVANCED_FACE('',(#33),#23,.F.);
#321=ADVANCED_FACE('',(#34),#24,.F.);
#322=ADVANCED_FACE('',(#35),#25,.F.);
#323=ADVANCED_FACE('',(#36,#16),#26,.F.);
#324=ADVANCED_FACE('',(#37,#17),#27,.T.);
#325=ADVANCED_FACE('',(#38,#18,#19),#28,.F.);
#326=ADVANCED_FACE('',(#39),#308,.F.);
#327=ADVANCED_FACE('',(#40),#309,.F.);
#328=ADVANCED_FACE('',(#41),#310,.F.);
#329=ADVANCED_FACE('',(#42),#311,.T.);
#330=ADVANCED_FACE('',(#43),#312,.F.);
#331=ADVANCED_FACE('',(#44),#313,.F.);
#332=ADVANCED_FACE('',(#45),#314,.T.);
#333=ADVANCED_FACE('',(#46),#315,.T.);
#334=ADVANCED_FACE('',(#47),#316,.T.);
#335=ADVANCED_FACE('',(#48,#20),#29,.T.);
#336=CLOSED_SHELL('',(#317,#318,#319,#320,#321,#322,#323,#324,#325,#326,
#327,#328,#329,#330,#331,#332,#333,#334,#335));
#337=DERIVED_UNIT_ELEMENT(#339,1.);
#338=DERIVED_UNIT_ELEMENT(#598,-3.);
#339=(
MASS_UNIT()
NAMED_UNIT(*)
SI_UNIT(.KILO.,.GRAM.)
);
#340=DERIVED_UNIT((#337,#338));
#341=MEASURE_REPRESENTATION_ITEM('density measure',
POSITIVE_RATIO_MEASURE(7850.),#340);
#342=PROPERTY_DEFINITION_REPRESENTATION(#347,#344);
#343=PROPERTY_DEFINITION_REPRESENTATION(#348,#345);
#344=REPRESENTATION('material name',(#346),#595);
#345=REPRESENTATION('density',(#341),#595);
#346=DESCRIPTIVE_REPRESENTATION_ITEM('Steel','Steel');
#347=PROPERTY_DEFINITION('material property','material name',#605);
#348=PROPERTY_DEFINITION('material property','density of part',#605);
#349=AXIS2_PLACEMENT_3D('',#498,#391,#392);
#350=AXIS2_PLACEMENT_3D('',#499,#393,#394);
#351=AXIS2_PLACEMENT_3D('',#501,#395,#396);
#352=AXIS2_PLACEMENT_3D('',#504,#398,#399);
#353=AXIS2_PLACEMENT_3D('',#505,#400,#401);
#354=AXIS2_PLACEMENT_3D('',#507,#402,#403);
#355=AXIS2_PLACEMENT_3D('',#508,#404,#405);
#356=AXIS2_PLACEMENT_3D('',#517,#410,#411);
#357=AXIS2_PLACEMENT_3D('',#523,#415,#416);
#358=AXIS2_PLACEMENT_3D('',#529,#420,#421);
#359=AXIS2_PLACEMENT_3D('',#532,#424,#425);
#360=AXIS2_PLACEMENT_3D('',#534,#426,#427);
#361=AXIS2_PLACEMENT_3D('',#535,#428,#429);
#362=AXIS2_PLACEMENT_3D('',#537,#430,#431);
#363=AXIS2_PLACEMENT_3D('',#538,#432,#433);
#364=AXIS2_PLACEMENT_3D('',#541,#434,#435);
#365=AXIS2_PLACEMENT_3D('',#543,#436,#437);
#366=AXIS2_PLACEMENT_3D('',#545,#438,#439);
#367=AXIS2_PLACEMENT_3D('',#546,#440,#441);
#368=AXIS2_PLACEMENT_3D('',#549,#442,#443);
#369=AXIS2_PLACEMENT_3D('',#551,#444,#445);
#370=AXIS2_PLACEMENT_3D('',#553,#446,#447);
#371=AXIS2_PLACEMENT_3D('',#554,#448,#449);
#372=AXIS2_PLACEMENT_3D('',#555,#450,#451);
#373=AXIS2_PLACEMENT_3D('',#557,#453,#454);
#374=AXIS2_PLACEMENT_3D('',#561,#456,#457);
#375=AXIS2_PLACEMENT_3D('',#563,#459,#460);
#376=AXIS2_PLACEMENT_3D('',#565,#461,#462);
#377=AXIS2_PLACEMENT_3D('',#567,#464,#465);
#378=AXIS2_PLACEMENT_3D('',#569,#466,#467);
#379=AXIS2_PLACEMENT_3D('',#571,#469,#470);
#380=AXIS2_PLACEMENT_3D('',#572,#471,#472);
#381=AXIS2_PLACEMENT_3D('',#573,#473,#474);
#382=AXIS2_PLACEMENT_3D('',#577,#476,#477);
#383=AXIS2_PLACEMENT_3D('',#579,#479,#480);
#384=AXIS2_PLACEMENT_3D('',#583,#482,#483);
#385=AXIS2_PLACEMENT_3D('',#585,#485,#486);
#386=AXIS2_PLACEMENT_3D('',#586,#487,#488);
#387=AXIS2_PLACEMENT_3D('',#588,#489,#490);
#388=AXIS2_PLACEMENT_3D('',#590,#492,#493);
#389=AXIS2_PLACEMENT_3D('',#591,#494,#495);
#390=AXIS2_PLACEMENT_3D('',#592,#496,#497);
#391=DIRECTION('axis',(0.,0.,1.));
#392=DIRECTION('refdir',(1.,0.,0.));
#393=DIRECTION('center_axis',(0.,0.,-1.));
#394=DIRECTION('ref_axis',(1.,0.,0.));
#395=DIRECTION('center_axis',(0.,0.,-1.));
#396=DIRECTION('ref_axis',(1.,0.,0.));
#397=DIRECTION('',(0.,0.,-1.));
#398=DIRECTION('center_axis',(0.,0.,-1.));
#399=DIRECTION('ref_axis',(1.,0.,0.));
#400=DIRECTION('center_axis',(0.,0.,1.));
#401=DIRECTION('ref_axis',(1.,0.,0.));
#402=DIRECTION('center_axis',(0.,0.,1.));
#403=DIRECTION('ref_axis',(1.,0.,0.));
#404=DIRECTION('center_axis',(-0.705927476947995,-0.708284121867657,0.));
#405=DIRECTION('ref_axis',(0.708284121867657,-0.705927476947995,0.));
#406=DIRECTION('',(0.708284121867657,-0.705927476947995,0.));
#407=DIRECTION('',(0.,0.,1.));
#408=DIRECTION('',(0.708284121867657,-0.705927476947995,0.));
#409=DIRECTION('',(0.,0.,1.));
#410=DIRECTION('center_axis',(-0.708284121867659,0.705927476947993,0.));
#411=DIRECTION('ref_axis',(-0.705927476947993,-0.708284121867659,0.));
#412=DIRECTION('',(-0.705927476947993,-0.708284121867659,0.));
#413=DIRECTION('',(0.,0.,1.));
#414=DIRECTION('',(-0.705927476947993,-0.708284121867659,0.));
#415=DIRECTION('center_axis',(0.705927476947996,0.708284121867656,0.));
#416=DIRECTION('ref_axis',(-0.708284121867656,0.705927476947996,0.));
#417=DIRECTION('',(-0.708284121867656,0.705927476947996,0.));
#418=DIRECTION('',(0.,0.,1.));
#419=DIRECTION('',(-0.708284121867656,0.705927476947996,0.));
#420=DIRECTION('center_axis',(0.708284121867658,-0.705927476947994,0.));
#421=DIRECTION('ref_axis',(0.705927476947994,0.708284121867658,0.));
#422=DIRECTION('',(0.705927476947994,0.708284121867658,0.));
#423=DIRECTION('',(0.705927476947994,0.708284121867658,0.));
#424=DIRECTION('center_axis',(0.,0.,1.));
#425=DIRECTION('ref_axis',(1.,0.,0.));
#426=DIRECTION('center_axis',(0.,0.,-1.));
#427=DIRECTION('ref_axis',(1.,0.,0.));
#428=DIRECTION('center_axis',(0.,0.,1.));
#429=DIRECTION('ref_axis',(1.,0.,0.));
#430=DIRECTION('center_axis',(0.,0.,1.));
#431=DIRECTION('ref_axis',(1.,0.,0.));
#432=DIRECTION('center_axis',(0.,0.,1.));
#433=DIRECTION('ref_axis',(1.,0.,0.));
#434=DIRECTION('center_axis',(0.,0.,1.));
#435=DIRECTION('ref_axis',(1.,0.,0.));
#436=DIRECTION('center_axis',(0.,0.,1.));
#437=DIRECTION('ref_axis',(0.157863795726598,-0.987460896440356,0.));
#438=DIRECTION('center_axis',(0.,0.,1.));
#439=DIRECTION('ref_axis',(-0.157863795726598,0.987460896440356,0.));
#440=DIRECTION('center_axis',(0.,0.,1.));
#441=DIRECTION('ref_axis',(0.157863795726598,-0.987460896440356,0.));
#442=DIRECTION('center_axis',(0.,0.,-1.));
#443=DIRECTION('ref_axis',(-0.157863795726599,0.987460896440356,0.));
#444=DIRECTION('center_axis',(0.,0.,-1.));
#445=DIRECTION('ref_axis',(0.157863795726598,-0.987460896440356,0.));
#446=DIRECTION('center_axis',(0.,0.,-1.));
#447=DIRECTION('ref_axis',(0.675876246491209,-0.737015128358268,0.));
#448=DIRECTION('center_axis',(0.,0.,1.));
#449=DIRECTION('ref_axis',(0.157863795726598,-0.987460896440356,0.));
#450=DIRECTION('center_axis',(0.,0.,1.));
#451=DIRECTION('ref_axis',(1.,0.,0.));
#452=DIRECTION('',(0.,0.,-1.));
#453=DIRECTION('center_axis',(0.,0.,1.));
#454=DIRECTION('ref_axis',(0.157863795726598,-0.987460896440356,0.));
#455=DIRECTION('',(0.,0.,1.));
#456=DIRECTION('center_axis',(0.,0.,-1.));
#457=DIRECTION('ref_axis',(0.157863795726598,-0.987460896440356,0.));
#458=DIRECTION('',(0.,0.,1.));
#459=DIRECTION('center_axis',(0.,0.,1.));
#460=DIRECTION('ref_axis',(0.675876246491209,-0.737015128358268,0.));
#461=DIRECTION('center_axis',(0.,0.,-1.));
#462=DIRECTION('ref_axis',(0.675876246491209,-0.737015128358268,0.));
#463=DIRECTION('',(0.,0.,1.));
#464=DIRECTION('center_axis',(0.,0.,1.));
#465=DIRECTION('ref_axis',(0.157863795726598,-0.987460896440356,0.));
#466=DIRECTION('center_axis',(0.,0.,1.));
#467=DIRECTION('ref_axis',(0.157863795726598,-0.987460896440356,0.));
#468=DIRECTION('',(0.,0.,1.));
#469=DIRECTION('center_axis',(0.,0.,1.));
#470=DIRECTION('ref_axis',(-0.157863795726599,0.987460896440356,0.));
#471=DIRECTION('center_axis',(0.,0.,-1.));
#472=DIRECTION('ref_axis',(-0.157863795726599,0.987460896440356,0.));
#473=DIRECTION('center_axis',(0.,0.,1.));
#474=DIRECTION('ref_axis',(0.157863795726598,-0.987460896440356,0.));
#475=DIRECTION('',(0.,0.,1.));
#476=DIRECTION('center_axis',(0.,0.,-1.));
#477=DIRECTION('ref_axis',(0.157863795726598,-0.987460896440356,0.));
#478=DIRECTION('',(0.,0.,1.));
#479=DIRECTION('center_axis',(0.,0.,1.));
#480=DIRECTION('ref_axis',(1.,0.,0.));
#481=DIRECTION('',(0.,0.,-1.));
#482=DIRECTION('center_axis',(0.,0.,-1.));
#483=DIRECTION('ref_axis',(1.,0.,0.));
#484=DIRECTION('',(0.,0.,1.));
#485=DIRECTION('center_axis',(0.,0.,-1.));
#486=DIRECTION('ref_axis',(1.,0.,0.));
#487=DIRECTION('center_axis',(0.,0.,1.));
#488=DIRECTION('ref_axis',(0.157863795726598,-0.987460896440356,0.));
#489=DIRECTION('center_axis',(0.,0.,1.));
#490=DIRECTION('ref_axis',(0.157863795726598,-0.987460896440356,0.));
#491=DIRECTION('',(0.,0.,1.));
#492=DIRECTION('center_axis',(0.,0.,1.));
#493=DIRECTION('ref_axis',(-0.157863795726598,0.987460896440356,0.));
#494=DIRECTION('center_axis',(0.,0.,1.));
#495=DIRECTION('ref_axis',(-0.157863795726598,0.987460896440356,0.));
#496=DIRECTION('center_axis',(0.,0.,1.));
#497=DIRECTION('ref_axis',(1.,0.,0.));
#498=CARTESIAN_POINT('',(0.,0.,0.));
#499=CARTESIAN_POINT('Origin',(33.6312916423397,-19.4438655263201,7.5));
#500=CARTESIAN_POINT('',(31.5812916423397,-19.4438655263201,7.5));
#501=CARTESIAN_POINT('Origin',(33.6312916423397,-19.4438655263201,7.5));
#502=CARTESIAN_POINT('',(31.5812916423397,-19.4438655263201,6.));
#503=CARTESIAN_POINT('',(31.5812916423397,-19.4438655263201,7.5));
#504=CARTESIAN_POINT('Origin',(33.6312916423397,-19.4438655263201,6.));
#505=CARTESIAN_POINT('Origin',(33.6312916423397,-19.4438655263201,6.));
#506=CARTESIAN_POINT('',(32.0312916423397,-19.4438655263201,6.));
#507=CARTESIAN_POINT('Origin',(33.6312916423397,-19.4438655263201,6.));
#508=CARTESIAN_POINT('Origin',(29.7422097455967,-19.4503462998492,0.));
#509=CARTESIAN_POINT('',(29.7422097455967,-19.4503462998492,0.));
#510=CARTESIAN_POINT('',(33.6377724158688,-23.3329474230631,0.));
#511=CARTESIAN_POINT('',(29.6318607719435,-19.340364485843,0.));
#512=CARTESIAN_POINT('',(29.7422097455967,-19.4503462998492,2.4));
#513=CARTESIAN_POINT('',(29.7422097455967,-19.4503462998492,0.));
#514=CARTESIAN_POINT('',(33.6377724158688,-23.3329474230631,2.4));
#515=CARTESIAN_POINT('',(33.6377724158688,-23.3329474230631,2.4));
#516=CARTESIAN_POINT('',(33.6377724158688,-23.3329474230631,0.));
#517=CARTESIAN_POINT('Origin',(33.6248108688106,-15.5547836295771,0.));
#518=CARTESIAN_POINT('',(33.6248108688106,-15.5547836295771,0.));
#519=CARTESIAN_POINT('',(26.8637304791555,-22.3384349861828,0.));
#520=CARTESIAN_POINT('',(33.6248108688106,-15.5547836295771,2.4));
#521=CARTESIAN_POINT('',(33.6248108688106,-15.5547836295771,0.));
#522=CARTESIAN_POINT('',(29.7422097455967,-19.4503462998492,2.4));
#523=CARTESIAN_POINT('Origin',(37.5203735390827,-19.4373847527911,0.));
#524=CARTESIAN_POINT('',(37.5203735390827,-19.4373847527911,0.));
#525=CARTESIAN_POINT('',(35.4622432302935,-17.3861023771779,0.));
#526=CARTESIAN_POINT('',(37.5203735390827,-19.4373847527911,2.4));
#527=CARTESIAN_POINT('',(37.5203735390827,-19.4373847527911,0.));
#528=CARTESIAN_POINT('',(33.6248108688106,-15.5547836295771,2.4));
#529=CARTESIAN_POINT('Origin',(33.6377724158688,-23.3329474230631,0.));
#530=CARTESIAN_POINT('',(28.8179925878206,-28.1688174445328,0.));
#531=CARTESIAN_POINT('',(37.5203735390827,-19.4373847527911,2.4));
#532=CARTESIAN_POINT('Origin',(33.6312916423397,-19.4438655263201,2.4));
#533=CARTESIAN_POINT('',(32.0312916423397,-19.4438655263201,2.4));
#534=CARTESIAN_POINT('Origin',(33.6312916423397,-19.4438655263201,2.4));
#535=CARTESIAN_POINT('Origin',(33.6312916423397,-19.4438655263201,7.5));
#536=CARTESIAN_POINT('',(27.6312916423397,-19.4438655263201,7.5));
#537=CARTESIAN_POINT('Origin',(33.6312916423397,-19.4438655263201,7.5));
#538=CARTESIAN_POINT('Origin',(19.881952142194,-28.9021227147762,0.));
#539=CARTESIAN_POINT('',(38.8256487593494,-22.4469729404781,0.));
#540=CARTESIAN_POINT('',(28.43693452533,-16.4407581121621,0.));
#541=CARTESIAN_POINT('Origin',(33.6312916423397,-19.4438655263201,0.));
#542=CARTESIAN_POINT('',(7.07979541640801,-44.2851452818745,0.));
#543=CARTESIAN_POINT('Origin',(0.,0.,0.));
#544=CARTESIAN_POINT('',(5.18542986768882,-32.4356145245902,0.));
#545=CARTESIAN_POINT('Origin',(6.13261264204842,-38.3603799032324,0.));
#546=CARTESIAN_POINT('Origin',(0.,0.,0.));
#547=CARTESIAN_POINT('',(6.44834023350161,-40.3353016961131,0.));
#548=CARTESIAN_POINT('',(5.81688505059522,-36.3854581103517,0.));
#549=CARTESIAN_POINT('Origin',(6.13261264204842,-38.3603799032324,0.));
#550=CARTESIAN_POINT('',(27.6078500016897,-30.1052200285542,0.));
#551=CARTESIAN_POINT('Origin',(0.,0.,0.));
#552=CARTESIAN_POINT('',(24.9043450157249,-27.1571595151211,0.));
#553=CARTESIAN_POINT('Origin',(26.2560975087073,-28.6311897718376,0.));
#554=CARTESIAN_POINT('Origin',(0.,0.,0.));
#555=CARTESIAN_POINT('Origin',(33.6312916423397,-19.4438655263201,0.));
#556=CARTESIAN_POINT('',(32.0312916423397,-19.4438655263201,0.));
#557=CARTESIAN_POINT('Origin',(0.,0.,0.));
#558=CARTESIAN_POINT('',(6.44834023350161,-40.3353016961131,3.));
#559=CARTESIAN_POINT('',(6.44834023350161,-40.3353016961131,0.));
#560=CARTESIAN_POINT('',(27.6078500016897,-30.1052200285542,3.));
#561=CARTESIAN_POINT('Origin',(0.,0.,3.));
#562=CARTESIAN_POINT('',(27.6078500016897,-30.1052200285542,0.));
#563=CARTESIAN_POINT('Origin',(26.2560975087073,-28.6311897718376,0.));
#564=CARTESIAN_POINT('',(24.9043450157249,-27.1571595151211,3.));
#565=CARTESIAN_POINT('Origin',(26.2560975087073,-28.6311897718376,3.));
#566=CARTESIAN_POINT('',(24.9043450157249,-27.1571595151211,0.));
#567=CARTESIAN_POINT('Origin',(0.,0.,0.));
#568=CARTESIAN_POINT('',(5.81688505059522,-36.3854581103517,3.));
#569=CARTESIAN_POINT('Origin',(0.,0.,3.));
#570=CARTESIAN_POINT('',(5.81688505059522,-36.3854581103517,0.));
#571=CARTESIAN_POINT('Origin',(6.13261264204842,-38.3603799032324,0.));
#572=CARTESIAN_POINT('Origin',(6.13261264204842,-38.3603799032324,3.));
#573=CARTESIAN_POINT('Origin',(0.,0.,0.));
#574=CARTESIAN_POINT('',(5.18542986768882,-32.4356145245902,3.));
#575=CARTESIAN_POINT('',(5.18542986768882,-32.4356145245902,0.));
#576=CARTESIAN_POINT('',(28.43693452533,-16.4407581121621,3.));
#577=CARTESIAN_POINT('Origin',(0.,0.,3.));
#578=CARTESIAN_POINT('',(28.43693452533,-16.4407581121621,0.));
#579=CARTESIAN_POINT('Origin',(33.6312916423397,-19.4438655263201,0.));
#580=CARTESIAN_POINT('',(27.6312916423397,-19.4438655263201,3.));
#581=CARTESIAN_POINT('',(27.6312916423397,-19.4438655263201,0.));
#582=CARTESIAN_POINT('',(38.8256487593494,-22.4469729404781,3.));
#583=CARTESIAN_POINT('Origin',(33.6312916423397,-19.4438655263201,3.));
#584=CARTESIAN_POINT('',(38.8256487593494,-22.4469729404781,0.));
#585=CARTESIAN_POINT('Origin',(33.6312916423397,-19.4438655263201,3.));
#586=CARTESIAN_POINT('Origin',(0.,0.,0.));
#587=CARTESIAN_POINT('',(7.07979541640801,-44.2851452818745,3.));
#588=CARTESIAN_POINT('Origin',(0.,0.,3.));
#589=CARTESIAN_POINT('',(7.07979541640801,-44.2851452818745,0.));
#590=CARTESIAN_POINT('Origin',(6.13261264204842,-38.3603799032324,0.));
#591=CARTESIAN_POINT('Origin',(6.13261264204842,-38.3603799032324,3.));
#592=CARTESIAN_POINT('Origin',(19.881952142194,-28.9021227147762,3.));
#593=UNCERTAINTY_MEASURE_WITH_UNIT(LENGTH_MEASURE(0.01),#597,
'DISTANCE_ACCURACY_VALUE',
'Maximum model space distance between geometric entities at asserted c
onnectivities');
#594=UNCERTAINTY_MEASURE_WITH_UNIT(LENGTH_MEASURE(0.01),#597,
'DISTANCE_ACCURACY_VALUE',
'Maximum model space distance between geometric entities at asserted c
onnectivities');
#595=(
GEOMETRIC_REPRESENTATION_CONTEXT(3)
GLOBAL_UNCERTAINTY_ASSIGNED_CONTEXT((#593))
GLOBAL_UNIT_ASSIGNED_CONTEXT((#597,#599,#600))
REPRESENTATION_CONTEXT('','3D')
);
#596=(
GEOMETRIC_REPRESENTATION_CONTEXT(3)
GLOBAL_UNCERTAINTY_ASSIGNED_CONTEXT((#594))
GLOBAL_UNIT_ASSIGNED_CONTEXT((#597,#599,#600))
REPRESENTATION_CONTEXT('','3D')
);
#597=(
LENGTH_UNIT()
NAMED_UNIT(*)
SI_UNIT(.MILLI.,.METRE.)
);
#598=(
LENGTH_UNIT()
NAMED_UNIT(*)
SI_UNIT($,.METRE.)
);
#599=(
NAMED_UNIT(*)
PLANE_ANGLE_UNIT()
SI_UNIT($,.RADIAN.)
);
#600=(
NAMED_UNIT(*)
SI_UNIT($,.STERADIAN.)
SOLID_ANGLE_UNIT()
);
#601=SHAPE_DEFINITION_REPRESENTATION(#602,#603);
#602=PRODUCT_DEFINITION_SHAPE('',$,#605);
#603=SHAPE_REPRESENTATION('',(#349),#595);
#604=PRODUCT_DEFINITION_CONTEXT('part definition',#609,'design');
#605=PRODUCT_DEFINITION('IdlerAdjust','IdlerAdjust',#606,#604);
#606=PRODUCT_DEFINITION_FORMATION('',$,#611);
#607=PRODUCT_RELATED_PRODUCT_CATEGORY('IdlerAdjust','IdlerAdjust',(#611));
#608=APPLICATION_PROTOCOL_DEFINITION('international standard',
'automotive_design',2009,#609);
#609=APPLICATION_CONTEXT(
'Core Data for Automotive Mechanical Design Process');
#610=PRODUCT_CONTEXT('part definition',#609,'mechanical');
#611=PRODUCT('IdlerAdjust','IdlerAdjust',$,(#610));
#612=PRESENTATION_STYLE_ASSIGNMENT((#613));
#613=SURFACE_STYLE_USAGE(.BOTH.,#614);
#614=SURFACE_SIDE_STYLE('',(#615));
#615=SURFACE_STYLE_FILL_AREA(#616);
#616=FILL_AREA_STYLE('Paint - Enamel Glossy (Blue)',(#617));
#617=FILL_AREA_STYLE_COLOUR('Paint - Enamel Glossy (Blue)',#618);
#618=COLOUR_RGB('Paint - Enamel Glossy (Blue)',0.188235294117647,0.231372549019608,
0.588235294117647);
ENDSEC;
END-ISO-10303-21;
