ISO-10303-21;
HEADER;
/* Generated by software containing ST-Developer
 * from STEP Tools, Inc. (www.steptools.com) 
 */

FILE_DESCRIPTION(
/* description */ (''),
/* implementation_level */ '2;1');

FILE_NAME(
/* name */ '3D_UCF_B_DoublePulley.step',
/* time_stamp */ '2025-09-15T10:07:41-07:00',
/* author */ (''),
/* organization */ (''),
/* preprocessor_version */ 'ST-DEVELOPER v20.1',
/* originating_system */ 'Autodesk Translation Framework v14.17.0.0',
/* authorisation */ '');

FILE_SCHEMA (('AUTOMOTIVE_DESIGN { 1 0 10303 214 3 1 1 }'));
ENDSEC;

DATA;
#10=MECHANICAL_DESIGN_GEOMETRIC_PRESENTATION_REPRESENTATION('',(#13),#528);
#11=SHAPE_REPRESENTATION_RELATIONSHIP('SRR','None',#535,#12);
#12=ADVANCED_BREP_SHAPE_REPRESENTATION('',(#14),#527);
#13=STYLED_ITEM('',(#544),#14);
#14=MANIFOLD_SOLID_BREP('Body1',#282);
#15=FACE_BOUND('',#84,.T.);
#16=FACE_BOUND('',#88,.T.);
#17=FACE_BOUND('',#91,.T.);
#18=FACE_BOUND('',#94,.T.);
#19=PLANE('',#326);
#20=PLANE('',#330);
#21=PLANE('',#334);
#22=PLANE('',#338);
#23=CYLINDRICAL_SURFACE('',#304,13.5365469044215);
#24=CYLINDRICAL_SURFACE('',#322,15.6323150176215);
#25=CYLINDRICAL_SURFACE('',#328,13.1335353544877);
#26=CYLINDRICAL_SURFACE('',#329,10.2317419781215);
#27=CYLINDRICAL_SURFACE('',#332,6.60000000000004);
#28=CYLINDRICAL_SURFACE('',#336,5.20000000000003);
#29=CYLINDRICAL_SURFACE('',#340,6.60000000000001);
#30=LINE('',#457,#41);
#31=LINE('',#462,#42);
#32=LINE('',#475,#43);
#33=LINE('',#480,#44);
#34=LINE('',#493,#45);
#35=LINE('',#498,#46);
#36=LINE('',#503,#47);
#37=LINE('',#505,#48);
#38=LINE('',#511,#49);
#39=LINE('',#518,#50);
#40=LINE('',#524,#51);
#41=VECTOR('',#357,11.8841444412715);
#42=VECTOR('',#364,13.5365469044215);
#43=VECTOR('',#379,14.3829251860546);
#44=VECTOR('',#386,12.9320284978715);
#45=VECTOR('',#401,15.6323150176215);
#46=VECTOR('',#408,14.3829251860546);
#47=VECTOR('',#415,13.1335353544877);
#48=VECTOR('',#418,10.2317419781215);
#49=VECTOR('',#425,6.60000000000004);
#50=VECTOR('',#434,5.20000000000003);
#51=VECTOR('',#443,6.60000000000001);
#52=CONICAL_SURFACE('',#302,11.8841444412715,1.30899693899472);
#53=CONICAL_SURFACE('',#312,14.3829251860546,1.30899693899576);
#54=CONICAL_SURFACE('',#314,12.9320284978715,1.30899693899589);
#55=CONICAL_SURFACE('',#324,14.3829251860546,1.30899693899574);
#56=FACE_OUTER_BOUND('',#74,.T.);
#57=FACE_OUTER_BOUND('',#75,.T.);
#58=FACE_OUTER_BOUND('',#76,.T.);
#59=FACE_OUTER_BOUND('',#77,.T.);
#60=FACE_OUTER_BOUND('',#78,.T.);
#61=FACE_OUTER_BOUND('',#79,.T.);
#62=FACE_OUTER_BOUND('',#80,.T.);
#63=FACE_OUTER_BOUND('',#81,.T.);
#64=FACE_OUTER_BOUND('',#82,.T.);
#65=FACE_OUTER_BOUND('',#83,.T.);
#66=FACE_OUTER_BOUND('',#85,.T.);
#67=FACE_OUTER_BOUND('',#86,.T.);
#68=FACE_OUTER_BOUND('',#87,.T.);
#69=FACE_OUTER_BOUND('',#89,.T.);
#70=FACE_OUTER_BOUND('',#90,.T.);
#71=FACE_OUTER_BOUND('',#92,.T.);
#72=FACE_OUTER_BOUND('',#93,.T.);
#73=FACE_OUTER_BOUND('',#95,.T.);
#74=EDGE_LOOP('',(#185,#186,#187,#188,#189,#190));
#75=EDGE_LOOP('',(#191,#192,#193,#194,#195));
#76=EDGE_LOOP('',(#196,#197,#198,#199,#200));
#77=EDGE_LOOP('',(#201,#202,#203,#204,#205,#206));
#78=EDGE_LOOP('',(#207,#208,#209,#210,#211));
#79=EDGE_LOOP('',(#212,#213,#214,#215,#216));
#80=EDGE_LOOP('',(#217,#218,#219,#220,#221,#222));
#81=EDGE_LOOP('',(#223,#224,#225,#226,#227));
#82=EDGE_LOOP('',(#228,#229,#230,#231,#232));
#83=EDGE_LOOP('',(#233));
#84=EDGE_LOOP('',(#234));
#85=EDGE_LOOP('',(#235,#236,#237,#238));
#86=EDGE_LOOP('',(#239,#240,#241,#242));
#87=EDGE_LOOP('',(#243));
#88=EDGE_LOOP('',(#244));
#89=EDGE_LOOP('',(#245,#246,#247,#248));
#90=EDGE_LOOP('',(#249));
#91=EDGE_LOOP('',(#250));
#92=EDGE_LOOP('',(#251,#252,#253,#254));
#93=EDGE_LOOP('',(#255));
#94=EDGE_LOOP('',(#256));
#95=EDGE_LOOP('',(#257,#258,#259,#260));
#96=CIRCLE('',#297,13.5365469044215);
#97=CIRCLE('',#298,1.);
#98=CIRCLE('',#299,12.7953659495251);
#99=CIRCLE('',#300,12.7953659495251);
#100=CIRCLE('',#301,13.5365469044215);
#101=CIRCLE('',#303,10.2317419781215);
#102=CIRCLE('',#305,13.5365469044216);
#103=CIRCLE('',#307,14.3599625122979);
#104=CIRCLE('',#308,14.3599625122979);
#105=CIRCLE('',#309,1.);
#106=CIRCLE('',#310,14.3599625122978);
#107=CIRCLE('',#311,14.3599625122978);
#108=CIRCLE('',#313,13.1335353544877);
#109=CIRCLE('',#315,10.2317419781215);
#110=CIRCLE('',#317,14.891134062724);
#111=CIRCLE('',#318,1.);
#112=CIRCLE('',#319,15.6323150176215);
#113=CIRCLE('',#320,15.6323150176215);
#114=CIRCLE('',#321,14.891134062724);
#115=CIRCLE('',#323,15.6323150176215);
#116=CIRCLE('',#325,13.1335353544877);
#117=CIRCLE('',#327,6.6);
#118=CIRCLE('',#331,6.60000000000005);
#119=CIRCLE('',#333,6.60000000000004);
#120=CIRCLE('',#335,5.20000000000004);
#121=CIRCLE('',#337,5.20000000000001);
#122=CIRCLE('',#339,6.60000000000002);
#123=VERTEX_POINT('',#446);
#124=VERTEX_POINT('',#447);
#125=VERTEX_POINT('',#449);
#126=VERTEX_POINT('',#451);
#127=VERTEX_POINT('',#456);
#128=VERTEX_POINT('',#460);
#129=VERTEX_POINT('',#464);
#130=VERTEX_POINT('',#465);
#131=VERTEX_POINT('',#468);
#132=VERTEX_POINT('',#470);
#133=VERTEX_POINT('',#474);
#134=VERTEX_POINT('',#478);
#135=VERTEX_POINT('',#482);
#136=VERTEX_POINT('',#483);
#137=VERTEX_POINT('',#485);
#138=VERTEX_POINT('',#487);
#139=VERTEX_POINT('',#492);
#140=VERTEX_POINT('',#496);
#141=VERTEX_POINT('',#500);
#142=VERTEX_POINT('',#507);
#143=VERTEX_POINT('',#510);
#144=VERTEX_POINT('',#514);
#145=VERTEX_POINT('',#517);
#146=VERTEX_POINT('',#521);
#147=EDGE_CURVE('',#123,#124,#96,.T.);
#148=EDGE_CURVE('',#124,#125,#97,.T.);
#149=EDGE_CURVE('',#125,#126,#98,.T.);
#150=EDGE_CURVE('',#126,#125,#99,.T.);
#151=EDGE_CURVE('',#124,#123,#100,.T.);
#152=EDGE_CURVE('',#126,#127,#30,.T.);
#153=EDGE_CURVE('',#127,#127,#101,.T.);
#154=EDGE_CURVE('',#128,#128,#102,.T.);
#155=EDGE_CURVE('',#128,#123,#31,.T.);
#156=EDGE_CURVE('',#129,#130,#103,.T.);
#157=EDGE_CURVE('',#130,#129,#104,.T.);
#158=EDGE_CURVE('',#129,#131,#105,.T.);
#159=EDGE_CURVE('',#131,#132,#106,.T.);
#160=EDGE_CURVE('',#132,#131,#107,.T.);
#161=EDGE_CURVE('',#130,#133,#32,.T.);
#162=EDGE_CURVE('',#133,#133,#108,.T.);
#163=EDGE_CURVE('',#134,#134,#109,.T.);
#164=EDGE_CURVE('',#134,#132,#33,.T.);
#165=EDGE_CURVE('',#135,#136,#110,.T.);
#166=EDGE_CURVE('',#136,#137,#111,.T.);
#167=EDGE_CURVE('',#137,#138,#112,.T.);
#168=EDGE_CURVE('',#138,#137,#113,.T.);
#169=EDGE_CURVE('',#136,#135,#114,.T.);
#170=EDGE_CURVE('',#138,#139,#34,.T.);
#171=EDGE_CURVE('',#139,#139,#115,.T.);
#172=EDGE_CURVE('',#140,#140,#116,.T.);
#173=EDGE_CURVE('',#140,#135,#35,.T.);
#174=EDGE_CURVE('',#141,#141,#117,.T.);
#175=EDGE_CURVE('',#133,#140,#36,.T.);
#176=EDGE_CURVE('',#127,#134,#37,.T.);
#177=EDGE_CURVE('',#142,#142,#118,.T.);
#178=EDGE_CURVE('',#142,#143,#38,.T.);
#179=EDGE_CURVE('',#143,#143,#119,.T.);
#180=EDGE_CURVE('',#144,#144,#120,.T.);
#181=EDGE_CURVE('',#144,#145,#39,.T.);
#182=EDGE_CURVE('',#145,#145,#121,.T.);
#183=EDGE_CURVE('',#146,#146,#122,.T.);
#184=EDGE_CURVE('',#146,#141,#40,.T.);
#185=ORIENTED_EDGE('',*,*,#147,.T.);
#186=ORIENTED_EDGE('',*,*,#148,.T.);
#187=ORIENTED_EDGE('',*,*,#149,.T.);
#188=ORIENTED_EDGE('',*,*,#150,.T.);
#189=ORIENTED_EDGE('',*,*,#148,.F.);
#190=ORIENTED_EDGE('',*,*,#151,.T.);
#191=ORIENTED_EDGE('',*,*,#149,.F.);
#192=ORIENTED_EDGE('',*,*,#150,.F.);
#193=ORIENTED_EDGE('',*,*,#152,.T.);
#194=ORIENTED_EDGE('',*,*,#153,.T.);
#195=ORIENTED_EDGE('',*,*,#152,.F.);
#196=ORIENTED_EDGE('',*,*,#154,.F.);
#197=ORIENTED_EDGE('',*,*,#155,.T.);
#198=ORIENTED_EDGE('',*,*,#151,.F.);
#199=ORIENTED_EDGE('',*,*,#147,.F.);
#200=ORIENTED_EDGE('',*,*,#155,.F.);
#201=ORIENTED_EDGE('',*,*,#156,.T.);
#202=ORIENTED_EDGE('',*,*,#157,.T.);
#203=ORIENTED_EDGE('',*,*,#158,.T.);
#204=ORIENTED_EDGE('',*,*,#159,.T.);
#205=ORIENTED_EDGE('',*,*,#160,.T.);
#206=ORIENTED_EDGE('',*,*,#158,.F.);
#207=ORIENTED_EDGE('',*,*,#156,.F.);
#208=ORIENTED_EDGE('',*,*,#157,.F.);
#209=ORIENTED_EDGE('',*,*,#161,.T.);
#210=ORIENTED_EDGE('',*,*,#162,.T.);
#211=ORIENTED_EDGE('',*,*,#161,.F.);
#212=ORIENTED_EDGE('',*,*,#163,.F.);
#213=ORIENTED_EDGE('',*,*,#164,.T.);
#214=ORIENTED_EDGE('',*,*,#159,.F.);
#215=ORIENTED_EDGE('',*,*,#160,.F.);
#216=ORIENTED_EDGE('',*,*,#164,.F.);
#217=ORIENTED_EDGE('',*,*,#165,.T.);
#218=ORIENTED_EDGE('',*,*,#166,.T.);
#219=ORIENTED_EDGE('',*,*,#167,.T.);
#220=ORIENTED_EDGE('',*,*,#168,.T.);
#221=ORIENTED_EDGE('',*,*,#166,.F.);
#222=ORIENTED_EDGE('',*,*,#169,.T.);
#223=ORIENTED_EDGE('',*,*,#167,.F.);
#224=ORIENTED_EDGE('',*,*,#168,.F.);
#225=ORIENTED_EDGE('',*,*,#170,.T.);
#226=ORIENTED_EDGE('',*,*,#171,.T.);
#227=ORIENTED_EDGE('',*,*,#170,.F.);
#228=ORIENTED_EDGE('',*,*,#172,.F.);
#229=ORIENTED_EDGE('',*,*,#173,.T.);
#230=ORIENTED_EDGE('',*,*,#169,.F.);
#231=ORIENTED_EDGE('',*,*,#165,.F.);
#232=ORIENTED_EDGE('',*,*,#173,.F.);
#233=ORIENTED_EDGE('',*,*,#171,.F.);
#234=ORIENTED_EDGE('',*,*,#174,.T.);
#235=ORIENTED_EDGE('',*,*,#162,.F.);
#236=ORIENTED_EDGE('',*,*,#175,.T.);
#237=ORIENTED_EDGE('',*,*,#172,.T.);
#238=ORIENTED_EDGE('',*,*,#175,.F.);
#239=ORIENTED_EDGE('',*,*,#153,.F.);
#240=ORIENTED_EDGE('',*,*,#176,.T.);
#241=ORIENTED_EDGE('',*,*,#163,.T.);
#242=ORIENTED_EDGE('',*,*,#176,.F.);
#243=ORIENTED_EDGE('',*,*,#154,.T.);
#244=ORIENTED_EDGE('',*,*,#177,.F.);
#245=ORIENTED_EDGE('',*,*,#177,.T.);
#246=ORIENTED_EDGE('',*,*,#178,.T.);
#247=ORIENTED_EDGE('',*,*,#179,.F.);
#248=ORIENTED_EDGE('',*,*,#178,.F.);
#249=ORIENTED_EDGE('',*,*,#179,.T.);
#250=ORIENTED_EDGE('',*,*,#180,.F.);
#251=ORIENTED_EDGE('',*,*,#180,.T.);
#252=ORIENTED_EDGE('',*,*,#181,.T.);
#253=ORIENTED_EDGE('',*,*,#182,.F.);
#254=ORIENTED_EDGE('',*,*,#181,.F.);
#255=ORIENTED_EDGE('',*,*,#183,.F.);
#256=ORIENTED_EDGE('',*,*,#182,.T.);
#257=ORIENTED_EDGE('',*,*,#183,.T.);
#258=ORIENTED_EDGE('',*,*,#184,.T.);
#259=ORIENTED_EDGE('',*,*,#174,.F.);
#260=ORIENTED_EDGE('',*,*,#184,.F.);
#261=TOROIDAL_SURFACE('',#296,12.5365469044215,1.);
#262=TOROIDAL_SURFACE('',#306,14.1011434671954,1.);
#263=TOROIDAL_SURFACE('',#316,14.6323150176215,1.);
#264=ADVANCED_FACE('',(#56),#261,.T.);
#265=ADVANCED_FACE('',(#57),#52,.T.);
#266=ADVANCED_FACE('',(#58),#23,.T.);
#267=ADVANCED_FACE('',(#59),#262,.T.);
#268=ADVANCED_FACE('',(#60),#53,.T.);
#269=ADVANCED_FACE('',(#61),#54,.T.);
#270=ADVANCED_FACE('',(#62),#263,.T.);
#271=ADVANCED_FACE('',(#63),#24,.T.);
#272=ADVANCED_FACE('',(#64),#55,.T.);
#273=ADVANCED_FACE('',(#65,#15),#19,.T.);
#274=ADVANCED_FACE('',(#66),#25,.T.);
#275=ADVANCED_FACE('',(#67),#26,.T.);
#276=ADVANCED_FACE('',(#68,#16),#20,.T.);
#277=ADVANCED_FACE('',(#69),#27,.F.);
#278=ADVANCED_FACE('',(#70,#17),#21,.T.);
#279=ADVANCED_FACE('',(#71),#28,.F.);
#280=ADVANCED_FACE('',(#72,#18),#22,.T.);
#281=ADVANCED_FACE('',(#73),#29,.F.);
#282=CLOSED_SHELL('',(#264,#265,#266,#267,#268,#269,#270,#271,#272,#273,
#274,#275,#276,#277,#278,#279,#280,#281));
#283=DERIVED_UNIT_ELEMENT(#285,1.);
#284=DERIVED_UNIT_ELEMENT(#530,-3.);
#285=(
MASS_UNIT()
NAMED_UNIT(*)
SI_UNIT(.KILO.,.GRAM.)
);
#286=DERIVED_UNIT((#283,#284));
#287=MEASURE_REPRESENTATION_ITEM('density measure',
POSITIVE_RATIO_MEASURE(7850.),#286);
#288=PROPERTY_DEFINITION_REPRESENTATION(#293,#290);
#289=PROPERTY_DEFINITION_REPRESENTATION(#294,#291);
#290=REPRESENTATION('material name',(#292),#527);
#291=REPRESENTATION('density',(#287),#527);
#292=DESCRIPTIVE_REPRESENTATION_ITEM('Steel','Steel');
#293=PROPERTY_DEFINITION('material property','material name',#537);
#294=PROPERTY_DEFINITION('material property','density of part',#537);
#295=AXIS2_PLACEMENT_3D('',#444,#341,#342);
#296=AXIS2_PLACEMENT_3D('',#445,#343,#344);
#297=AXIS2_PLACEMENT_3D('',#448,#345,#346);
#298=AXIS2_PLACEMENT_3D('',#450,#347,#348);
#299=AXIS2_PLACEMENT_3D('',#452,#349,#350);
#300=AXIS2_PLACEMENT_3D('',#453,#351,#352);
#301=AXIS2_PLACEMENT_3D('',#454,#353,#354);
#302=AXIS2_PLACEMENT_3D('',#455,#355,#356);
#303=AXIS2_PLACEMENT_3D('',#458,#358,#359);
#304=AXIS2_PLACEMENT_3D('',#459,#360,#361);
#305=AXIS2_PLACEMENT_3D('',#461,#362,#363);
#306=AXIS2_PLACEMENT_3D('',#463,#365,#366);
#307=AXIS2_PLACEMENT_3D('',#466,#367,#368);
#308=AXIS2_PLACEMENT_3D('',#467,#369,#370);
#309=AXIS2_PLACEMENT_3D('',#469,#371,#372);
#310=AXIS2_PLACEMENT_3D('',#471,#373,#374);
#311=AXIS2_PLACEMENT_3D('',#472,#375,#376);
#312=AXIS2_PLACEMENT_3D('',#473,#377,#378);
#313=AXIS2_PLACEMENT_3D('',#476,#380,#381);
#314=AXIS2_PLACEMENT_3D('',#477,#382,#383);
#315=AXIS2_PLACEMENT_3D('',#479,#384,#385);
#316=AXIS2_PLACEMENT_3D('',#481,#387,#388);
#317=AXIS2_PLACEMENT_3D('',#484,#389,#390);
#318=AXIS2_PLACEMENT_3D('',#486,#391,#392);
#319=AXIS2_PLACEMENT_3D('',#488,#393,#394);
#320=AXIS2_PLACEMENT_3D('',#489,#395,#396);
#321=AXIS2_PLACEMENT_3D('',#490,#397,#398);
#322=AXIS2_PLACEMENT_3D('',#491,#399,#400);
#323=AXIS2_PLACEMENT_3D('',#494,#402,#403);
#324=AXIS2_PLACEMENT_3D('',#495,#404,#405);
#325=AXIS2_PLACEMENT_3D('',#497,#406,#407);
#326=AXIS2_PLACEMENT_3D('',#499,#409,#410);
#327=AXIS2_PLACEMENT_3D('',#501,#411,#412);
#328=AXIS2_PLACEMENT_3D('',#502,#413,#414);
#329=AXIS2_PLACEMENT_3D('',#504,#416,#417);
#330=AXIS2_PLACEMENT_3D('',#506,#419,#420);
#331=AXIS2_PLACEMENT_3D('',#508,#421,#422);
#332=AXIS2_PLACEMENT_3D('',#509,#423,#424);
#333=AXIS2_PLACEMENT_3D('',#512,#426,#427);
#334=AXIS2_PLACEMENT_3D('',#513,#428,#429);
#335=AXIS2_PLACEMENT_3D('',#515,#430,#431);
#336=AXIS2_PLACEMENT_3D('',#516,#432,#433);
#337=AXIS2_PLACEMENT_3D('',#519,#435,#436);
#338=AXIS2_PLACEMENT_3D('',#520,#437,#438);
#339=AXIS2_PLACEMENT_3D('',#522,#439,#440);
#340=AXIS2_PLACEMENT_3D('',#523,#441,#442);
#341=DIRECTION('axis',(0.,0.,1.));
#342=DIRECTION('refdir',(1.,0.,0.));
#343=DIRECTION('center_axis',(3.8831298605966E-15,1.,-1.34904765458391E-30));
#344=DIRECTION('ref_axis',(0.,0.,1.));
#345=DIRECTION('center_axis',(-3.8831298605966E-15,-1.,1.34904765458391E-30));
#346=DIRECTION('ref_axis',(1.,-3.88554157592707E-15,-3.62607556056706E-33));
#347=DIRECTION('center_axis',(-1.,3.8831298605966E-15,1.22464679914735E-16));
#348=DIRECTION('ref_axis',(-1.22464679914735E-16,0.,-1.));
#349=DIRECTION('center_axis',(3.8177738156305E-15,1.,-7.14434131384084E-31));
#350=DIRECTION('ref_axis',(1.,-3.8177738156305E-15,-1.86323929721653E-16));
#351=DIRECTION('center_axis',(3.8177738156305E-15,1.,-7.14434131384084E-31));
#352=DIRECTION('ref_axis',(1.,-3.8177738156305E-15,-1.86323929721653E-16));
#353=DIRECTION('center_axis',(-3.8831298605966E-15,-1.,1.34904765458391E-30));
#354=DIRECTION('ref_axis',(1.,-3.88554157592707E-15,-3.62607556056706E-33));
#355=DIRECTION('center_axis',(3.8831298605966E-15,1.,-1.34904765458391E-30));
#356=DIRECTION('ref_axis',(-1.,3.86895902520887E-15,2.5018317952857E-16));
#357=DIRECTION('',(-0.965925826288804,-0.258819045103509,3.59950191547529E-16));
#358=DIRECTION('center_axis',(3.8831298605966E-15,1.,-1.34904765458391E-30));
#359=DIRECTION('ref_axis',(1.,-3.8831298605966E-15,5.23852723088261E-45));
#360=DIRECTION('center_axis',(3.8831298605966E-15,1.,-1.34904765458391E-30));
#361=DIRECTION('ref_axis',(-1.,3.86895902520887E-15,2.5018317952857E-16));
#362=DIRECTION('center_axis',(3.8831298605966E-15,1.,-1.34904765458391E-30));
#363=DIRECTION('ref_axis',(1.,-3.8831298605966E-15,5.23852723088261E-45));
#364=DIRECTION('',(-3.8831298605966E-15,-1.,1.34904765458391E-30));
#365=DIRECTION('center_axis',(-3.8831298605966E-15,-1.,1.34904765458391E-30));
#366=DIRECTION('ref_axis',(0.,0.,-1.));
#367=DIRECTION('center_axis',(3.8831298605966E-15,1.,-1.34904765458391E-30));
#368=DIRECTION('ref_axis',(1.03002650321871E-31,0.,-1.));
#369=DIRECTION('center_axis',(3.8831298605966E-15,1.,-1.34904765458391E-30));
#370=DIRECTION('ref_axis',(1.03002650321871E-31,0.,-1.));
#371=DIRECTION('center_axis',(-1.,3.8831298605966E-15,1.22464679914735E-16));
#372=DIRECTION('ref_axis',(1.22464679914735E-16,0.,1.));
#373=DIRECTION('center_axis',(-3.8831298605966E-15,-1.,1.34904765458391E-30));
#374=DIRECTION('ref_axis',(3.43342167739573E-32,0.,-1.));
#375=DIRECTION('center_axis',(-3.8831298605966E-15,-1.,1.34904765458391E-30));
#376=DIRECTION('ref_axis',(3.43342167739573E-32,0.,-1.));
#377=DIRECTION('center_axis',(3.8831298605966E-15,1.,-1.34904765458391E-30));
#378=DIRECTION('ref_axis',(-1.,3.86895902520887E-15,2.5018317952857E-16));
#379=DIRECTION('',(-0.965925826289072,-0.258819045102508,3.59950191547628E-16));
#380=DIRECTION('center_axis',(3.8831298605966E-15,1.,-1.34904765458391E-30));
#381=DIRECTION('ref_axis',(1.,-3.8831298605966E-15,5.23852723088261E-45));
#382=DIRECTION('center_axis',(-3.8831298605966E-15,-1.,1.34904765458391E-30));
#383=DIRECTION('ref_axis',(-1.,3.86895902520887E-15,2.5018317952857E-16));
#384=DIRECTION('center_axis',(3.8831298605966E-15,1.,-1.34904765458391E-30));
#385=DIRECTION('ref_axis',(1.,-3.8831298605966E-15,5.23852723088261E-45));
#386=DIRECTION('',(0.965925826289105,-0.258819045102384,-3.59950191547641E-16));
#387=DIRECTION('center_axis',(3.8831298605966E-15,1.,-1.34904765458391E-30));
#388=DIRECTION('ref_axis',(0.,0.,1.));
#389=DIRECTION('center_axis',(-3.85827172613889E-15,-1.,3.07771153373356E-31));
#390=DIRECTION('ref_axis',(1.,-3.85827172613889E-15,-1.86323929721653E-16));
#391=DIRECTION('center_axis',(-1.,3.8831298605966E-15,1.22464679914735E-16));
#392=DIRECTION('ref_axis',(-1.22464679914735E-16,0.,-1.));
#393=DIRECTION('center_axis',(3.8831298605966E-15,1.,-1.34904765458391E-30));
#394=DIRECTION('ref_axis',(1.,-3.87952345201502E-15,3.13994068379212E-33));
#395=DIRECTION('center_axis',(3.8831298605966E-15,1.,-1.34904765458391E-30));
#396=DIRECTION('ref_axis',(1.,-3.87952345201502E-15,3.13994068379212E-33));
#397=DIRECTION('center_axis',(-3.85827172613889E-15,-1.,3.07771153373356E-31));
#398=DIRECTION('ref_axis',(1.,-3.85827172613889E-15,-1.86323929721653E-16));
#399=DIRECTION('center_axis',(3.8831298605966E-15,1.,-1.34904765458391E-30));
#400=DIRECTION('ref_axis',(-1.,3.86895902520888E-15,2.5018317952857E-16));
#401=DIRECTION('',(-3.8831298605966E-15,-1.,1.34904765458391E-30));
#402=DIRECTION('center_axis',(3.8831298605966E-15,1.,-1.34904765458391E-30));
#403=DIRECTION('ref_axis',(1.,-3.8831298605966E-15,5.23852723088261E-45));
#404=DIRECTION('center_axis',(-3.8831298605966E-15,-1.,1.34904765458391E-30));
#405=DIRECTION('ref_axis',(-1.,3.86895902520887E-15,2.5018317952857E-16));
#406=DIRECTION('center_axis',(3.8831298605966E-15,1.,-1.34904765458391E-30));
#407=DIRECTION('ref_axis',(1.,-3.8831298605966E-15,5.23852723088261E-45));
#408=DIRECTION('',(0.965925826289066,-0.258819045102529,-3.59950191547626E-16));
#409=DIRECTION('center_axis',(-3.8831298605966E-15,-1.,1.34904765458391E-30));
#410=DIRECTION('ref_axis',(0.,-1.34904765458391E-30,-1.));
#411=DIRECTION('center_axis',(3.8831298605966E-15,1.,-1.34904765458391E-30));
#412=DIRECTION('ref_axis',(1.,-3.8831298605966E-15,5.23852723088261E-45));
#413=DIRECTION('center_axis',(3.8831298605966E-15,1.,-1.34904765458391E-30));
#414=DIRECTION('ref_axis',(-1.,3.86895902520887E-15,2.5018317952857E-16));
#415=DIRECTION('',(-3.8831298605966E-15,-1.,1.34904765458391E-30));
#416=DIRECTION('center_axis',(3.8831298605966E-15,1.,-1.34904765458391E-30));
#417=DIRECTION('ref_axis',(-1.,3.86895902520887E-15,2.5018317952857E-16));
#418=DIRECTION('',(-3.8831298605966E-15,-1.,1.34904765458391E-30));
#419=DIRECTION('center_axis',(3.8831298605966E-15,1.,-1.34904765458391E-30));
#420=DIRECTION('ref_axis',(0.,1.34904765458391E-30,1.));
#421=DIRECTION('center_axis',(3.8831298605966E-15,1.,-1.34904765458391E-30));
#422=DIRECTION('ref_axis',(1.,-3.8831298605966E-15,5.23852723088261E-45));
#423=DIRECTION('center_axis',(3.8831298605966E-15,1.,-1.34904765458391E-30));
#424=DIRECTION('ref_axis',(-1.,3.86895902520887E-15,2.5018317952857E-16));
#425=DIRECTION('',(-3.8831298605966E-15,-1.,1.34904765458391E-30));
#426=DIRECTION('center_axis',(3.8831298605966E-15,1.,-1.34904765458391E-30));
#427=DIRECTION('ref_axis',(1.,-3.8831298605966E-15,5.23852723088261E-45));
#428=DIRECTION('center_axis',(3.8831298605966E-15,1.,-1.34904765458391E-30));
#429=DIRECTION('ref_axis',(0.,1.34904765458391E-30,1.));
#430=DIRECTION('center_axis',(3.8831298605966E-15,1.,-1.34904765458391E-30));
#431=DIRECTION('ref_axis',(1.,-3.8831298605966E-15,5.23852723088261E-45));
#432=DIRECTION('center_axis',(3.8831298605966E-15,1.,-1.34904765458391E-30));
#433=DIRECTION('ref_axis',(-1.,3.86895902520887E-15,2.5018317952857E-16));
#434=DIRECTION('',(-3.8831298605966E-15,-1.,1.34904765458391E-30));
#435=DIRECTION('center_axis',(3.8831298605966E-15,1.,-1.34904765458391E-30));
#436=DIRECTION('ref_axis',(1.,-3.8831298605966E-15,5.23852723088261E-45));
#437=DIRECTION('center_axis',(-3.8831298605966E-15,-1.,1.34904765458391E-30));
#438=DIRECTION('ref_axis',(0.,-1.34904765458391E-30,-1.));
#439=DIRECTION('center_axis',(3.8831298605966E-15,1.,-1.34904765458391E-30));
#440=DIRECTION('ref_axis',(1.,-3.8831298605966E-15,5.23852723088261E-45));
#441=DIRECTION('center_axis',(3.8831298605966E-15,1.,-1.34904765458391E-30));
#442=DIRECTION('ref_axis',(-1.,3.86895902520887E-15,2.5018317952857E-16));
#443=DIRECTION('',(-3.8831298605966E-15,-1.,1.34904765458391E-30));
#444=CARTESIAN_POINT('',(0.,0.,0.));
#445=CARTESIAN_POINT('Origin',(4.57986027921077E-14,10.5969342014247,-6.35602999078195E-16));
#446=CARTESIAN_POINT('',(13.5365469044216,10.5969342014246,-5.67996822726479E-15));
#447=CARTESIAN_POINT('',(4.41408539083069E-14,10.5969342014247,-13.5365469044215));
#448=CARTESIAN_POINT('Origin',(4.57986027921077E-14,10.5969342014247,-6.35602999078195E-16));
#449=CARTESIAN_POINT('',(4.04808069775237E-14,9.63100837513587,-12.7953659495251));
#450=CARTESIAN_POINT('Origin',(4.42633185882216E-14,10.5969342014247,-12.5365469044215));
#451=CARTESIAN_POINT('',(12.7953659495251,9.63100837513582,-5.40376873096246E-15));
#452=CARTESIAN_POINT('Origin',(4.32986979603811E-14,9.63100837513587,-3.01968586502033E-15));
#453=CARTESIAN_POINT('Origin',(4.32986979603811E-14,9.63100837513587,-3.01968586502033E-15));
#454=CARTESIAN_POINT('Origin',(4.57986027921077E-14,10.5969342014247,-6.35602999078195E-16));
#455=CARTESIAN_POINT('Origin',(4.10996782418385E-14,9.38684730787246,-6.35602999078194E-16));
#456=CARTESIAN_POINT('',(10.2317419781216,8.94408740229836,-4.44843974560139E-15));
#457=CARTESIAN_POINT('',(11.8841444412716,9.38684730787242,-5.06420398643308E-15));
#458=CARTESIAN_POINT('Origin',(3.93803840314289E-14,8.9440874022984,-6.35602999078193E-16));
#459=CARTESIAN_POINT('Origin',(4.57313198476955E-14,10.5796072134465,-6.35602999078195E-16));
#460=CARTESIAN_POINT('',(13.5365469044216,11.3296072134465,-5.67996822726479E-15));
#461=CARTESIAN_POINT('Origin',(4.8643667243143E-14,11.3296072134465,-6.35602999078196E-16));
#462=CARTESIAN_POINT('',(13.5365469044216,10.5796072134465,-5.67996822726479E-15));
#463=CARTESIAN_POINT('Origin',(2.34358219668797E-14,4.83797644619983,-6.35602999078188E-16));
#464=CARTESIAN_POINT('',(2.14435947603514E-14,3.87205061991076,14.3599625122979));
#465=CARTESIAN_POINT('',(14.3599625122979,3.87205061991071,-5.9868122909721E-15));
#466=CARTESIAN_POINT('Origin',(1.96850065476952E-14,3.87205061991076,-6.35602999078186E-16));
#467=CARTESIAN_POINT('Origin',(1.96850065476952E-14,3.87205061991076,-6.35602999078186E-16));
#468=CARTESIAN_POINT('',(2.54280491734083E-14,5.80390227248894,14.3599625122978));
#469=CARTESIAN_POINT('Origin',(2.51627139880216E-14,4.83797644619983,14.1011434671954));
#470=CARTESIAN_POINT('',(14.3599625122978,5.80390227248889,-5.98681229097206E-15));
#471=CARTESIAN_POINT('Origin',(2.71866373860644E-14,5.80390227248894,-6.35602999078189E-16));
#472=CARTESIAN_POINT('Origin',(2.71866373860644E-14,5.80390227248894,-6.35602999078189E-16));
#473=CARTESIAN_POINT('Origin',(1.9708898785165E-14,3.87820344979994,-6.35602999078186E-16));
#474=CARTESIAN_POINT('',(13.1335353544877,3.54343045339989,-5.52978683585101E-15));
#475=CARTESIAN_POINT('',(14.3829251860546,3.87820344979988,-5.99536928219464E-15));
#476=CARTESIAN_POINT('Origin',(1.84089317663228E-14,3.54343045339995,-6.35602999078186E-16));
#477=CARTESIAN_POINT('Origin',(2.8672376325934E-14,6.18651603849916,-6.35602999078189E-16));
#478=CARTESIAN_POINT('',(10.2317419781215,6.91005563079836,-4.44843974560138E-15));
#479=CARTESIAN_POINT('Origin',(3.14819745221151E-14,6.9100556307984,-6.3560299907819E-16));
#480=CARTESIAN_POINT('',(12.9320284978715,6.18651603849911,-5.45469573706983E-15));
#481=CARTESIAN_POINT('Origin',(7.49439561481002E-15,0.732673012020972,-6.35602999078182E-16));
#482=CARTESIAN_POINT('',(14.891134062724,1.69859883830998,-6.18475223223558E-15));
#483=CARTESIAN_POINT('',(9.42157306743563E-15,1.69859883831004,-14.891134062724));
#484=CARTESIAN_POINT('Origin',(1.11022302462516E-14,1.69859883831004,-3.41017761565688E-15));
#485=CARTESIAN_POINT('',(5.57998915985069E-15,0.732673012020972,-15.6323150176215));
#486=CARTESIAN_POINT('Origin',(5.70245383976542E-15,0.732673012020972,-14.6323150176215));
#487=CARTESIAN_POINT('',(15.6323150176215,0.732673012020911,-6.46095172853826E-15));
#488=CARTESIAN_POINT('Origin',(7.49439561481002E-15,0.732673012020972,-6.35602999078182E-16));
#489=CARTESIAN_POINT('Origin',(7.49439561481002E-15,0.732673012020972,-6.35602999078182E-16));
#490=CARTESIAN_POINT('Origin',(1.11022302462516E-14,1.69859883831004,-3.41017761565688E-15));
#491=CARTESIAN_POINT('Origin',(7.5616785592253E-15,0.749999999999928,-6.35602999078182E-16));
#492=CARTESIAN_POINT('',(15.6323150176215,-1.32949207198862E-13,-6.46095172853826E-15));
#493=CARTESIAN_POINT('',(15.6323150176215,0.749999999999867,-6.46095172853826E-15));
#494=CARTESIAN_POINT('Origin',(4.64933116377785E-15,-7.24420523567915E-14,
-6.35602999078181E-16));
#495=CARTESIAN_POINT('Origin',(1.1773992973515E-14,1.83477299639994,-6.35602999078184E-16));
#496=CARTESIAN_POINT('',(13.1335353544877,2.1695459927999,-5.52978683585101E-15));
#497=CARTESIAN_POINT('Origin',(1.30739599923573E-14,2.16954599279995,-6.35602999078184E-16));
#498=CARTESIAN_POINT('',(14.3829251860546,1.83477299639988,-5.99536928219464E-15));
#499=CARTESIAN_POINT('Origin',(-15.6323150176215,-1.1518563880486E-14,2.03121197162076E-15));
#500=CARTESIAN_POINT('',(6.60000000000001,-5.60662627435704E-14,-3.095078871404E-15));
#501=CARTESIAN_POINT('Origin',(4.64933116377801E-15,-3.05311331771918E-14,
-6.35602999078181E-16));
#502=CARTESIAN_POINT('Origin',(1.57414458793401E-14,2.85648822309995,-6.35602999078185E-16));
#503=CARTESIAN_POINT('',(13.1335353544877,2.85648822309989,-5.52978683585101E-15));
#504=CARTESIAN_POINT('Origin',(3.5431179276772E-14,7.9270715165484,-6.35602999078192E-16));
#505=CARTESIAN_POINT('',(10.2317419781216,7.92707151654836,-4.44843974560139E-15));
#506=CARTESIAN_POINT('Origin',(-6.6,11.3296072134466,1.48206273574529E-15));
#507=CARTESIAN_POINT('',(6.60000000000009,11.3296072134465,-3.09507887140403E-15));
#508=CARTESIAN_POINT('Origin',(4.86436672431431E-14,11.3296072134466,-6.35602999078196E-16));
#509=CARTESIAN_POINT('Origin',(4.10715640149797E-14,9.37960721344655,-6.35602999078194E-16));
#510=CARTESIAN_POINT('',(6.60000000000008,7.42960721344653,-3.09507887140402E-15));
#511=CARTESIAN_POINT('',(6.60000000000009,9.37960721344653,-3.09507887140402E-15));
#512=CARTESIAN_POINT('Origin',(3.34994607868163E-14,7.42960721344655,-6.35602999078191E-16));
#513=CARTESIAN_POINT('Origin',(-5.20000000000001,7.42960721344658,1.01560598581038E-15));
#514=CARTESIAN_POINT('',(5.20000000000006,7.42960721344654,-2.57337186818339E-15));
#515=CARTESIAN_POINT('Origin',(3.34994607868164E-14,7.42960721344656,-6.35602999078191E-16));
#516=CARTESIAN_POINT('Origin',(2.66464992034606E-14,5.66480360672327,-6.35602999078189E-16));
#517=CARTESIAN_POINT('',(5.20000000000005,3.89999999999996,-2.57337186818338E-15));
#518=CARTESIAN_POINT('',(5.20000000000005,5.66480360672325,-2.57337186818339E-15));
#519=CARTESIAN_POINT('Origin',(1.97935376201048E-14,3.89999999999998,-6.35602999078186E-16));
#520=CARTESIAN_POINT('Origin',(-6.6,3.9,1.01560598581038E-15));
#521=CARTESIAN_POINT('',(6.60000000000003,3.89999999999995,-3.095078871404E-15));
#522=CARTESIAN_POINT('Origin',(1.97935376201048E-14,3.89999999999997,-6.35602999078186E-16));
#523=CARTESIAN_POINT('Origin',(1.22214343919414E-14,1.94999999999997,-6.35602999078184E-16));
#524=CARTESIAN_POINT('',(6.60000000000002,1.94999999999995,-3.095078871404E-15));
#525=UNCERTAINTY_MEASURE_WITH_UNIT(LENGTH_MEASURE(0.01),#529,
'DISTANCE_ACCURACY_VALUE',
'Maximum model space distance between geometric entities at asserted c
onnectivities');
#526=UNCERTAINTY_MEASURE_WITH_UNIT(LENGTH_MEASURE(0.01),#529,
'DISTANCE_ACCURACY_VALUE',
'Maximum model space distance between geometric entities at asserted c
onnectivities');
#527=(
GEOMETRIC_REPRESENTATION_CONTEXT(3)
GLOBAL_UNCERTAINTY_ASSIGNED_CONTEXT((#525))
GLOBAL_UNIT_ASSIGNED_CONTEXT((#529,#531,#532))
REPRESENTATION_CONTEXT('','3D')
);
#528=(
GEOMETRIC_REPRESENTATION_CONTEXT(3)
GLOBAL_UNCERTAINTY_ASSIGNED_CONTEXT((#526))
GLOBAL_UNIT_ASSIGNED_CONTEXT((#529,#531,#532))
REPRESENTATION_CONTEXT('','3D')
);
#529=(
LENGTH_UNIT()
NAMED_UNIT(*)
SI_UNIT(.MILLI.,.METRE.)
);
#530=(
LENGTH_UNIT()
NAMED_UNIT(*)
SI_UNIT($,.METRE.)
);
#531=(
NAMED_UNIT(*)
PLANE_ANGLE_UNIT()
SI_UNIT($,.RADIAN.)
);
#532=(
NAMED_UNIT(*)
SI_UNIT($,.STERADIAN.)
SOLID_ANGLE_UNIT()
);
#533=SHAPE_DEFINITION_REPRESENTATION(#534,#535);
#534=PRODUCT_DEFINITION_SHAPE('',$,#537);
#535=SHAPE_REPRESENTATION('',(#295),#527);
#536=PRODUCT_DEFINITION_CONTEXT('part definition',#541,'design');
#537=PRODUCT_DEFINITION('3D_UCF_B_DoublePulley','3D_UCF_B_DoublePulley',
#538,#536);
#538=PRODUCT_DEFINITION_FORMATION('',$,#543);
#539=PRODUCT_RELATED_PRODUCT_CATEGORY('3D_UCF_B_DoublePulley',
'3D_UCF_B_DoublePulley',(#543));
#540=APPLICATION_PROTOCOL_DEFINITION('international standard',
'automotive_design',2009,#541);
#541=APPLICATION_CONTEXT(
'Core Data for Automotive Mechanical Design Process');
#542=PRODUCT_CONTEXT('part definition',#541,'mechanical');
#543=PRODUCT('3D_UCF_B_DoublePulley','3D_UCF_B_DoublePulley',$,(#542));
#544=PRESENTATION_STYLE_ASSIGNMENT((#545));
#545=SURFACE_STYLE_USAGE(.BOTH.,#546);
#546=SURFACE_SIDE_STYLE('',(#547));
#547=SURFACE_STYLE_FILL_AREA(#548);
#548=FILL_AREA_STYLE('Paint - Enamel Glossy (Green)',(#549));
#549=FILL_AREA_STYLE_COLOUR('Paint - Enamel Glossy (Green)',#550);
#550=COLOUR_RGB('Paint - Enamel Glossy (Green)',0.266666666666667,0.588235294117647,
0.282352941176471);
ENDSEC;
END-ISO-10303-21;
