ISO-10303-21;
HEADER;
/* Generated by software containing ST-Developer
 * from STEP Tools, Inc. (www.steptools.com) 
 */

FILE_DESCRIPTION(
/* description */ (''),
/* implementation_level */ '2;1');

FILE_NAME(
/* name */ 'Spacer_DoublePulley.step',
/* time_stamp */ '2025-09-15T10:07:24-07:00',
/* author */ (''),
/* organization */ (''),
/* preprocessor_version */ 'ST-DEVELOPER v20.1',
/* originating_system */ 'Autodesk Translation Framework v14.17.0.0',
/* authorisation */ '');

FILE_SCHEMA (('AUTOMOTIVE_DESIGN { 1 0 10303 214 3 1 1 }'));
ENDSEC;

DATA;
#10=MECHANICAL_DESIGN_GEOMETRIC_PRESENTATION_REPRESENTATION('',(#13),#125);
#11=SHAPE_REPRESENTATION_RELATIONSHIP('SRR','None',#132,#12);
#12=ADVANCED_BREP_SHAPE_REPRESENTATION('',(#14),#124);
#13=STYLED_ITEM('',(#141),#14);
#14=MANIFOLD_SOLID_BREP('Body2',#65);
#15=LINE('',#116,#17);
#16=LINE('',#121,#18);
#17=VECTOR('',#99,4.70000000000002);
#18=VECTOR('',#106,2.60000000000002);
#19=CYLINDRICAL_SURFACE('',#82,4.70000000000002);
#20=CYLINDRICAL_SURFACE('',#86,2.60000000000002);
#21=FACE_BOUND('',#28,.T.);
#22=FACE_BOUND('',#31,.T.);
#23=FACE_OUTER_BOUND('',#27,.T.);
#24=FACE_OUTER_BOUND('',#29,.T.);
#25=FACE_OUTER_BOUND('',#30,.T.);
#26=FACE_OUTER_BOUND('',#32,.T.);
#27=EDGE_LOOP('',(#47));
#28=EDGE_LOOP('',(#48));
#29=EDGE_LOOP('',(#49,#50,#51,#52));
#30=EDGE_LOOP('',(#53));
#31=EDGE_LOOP('',(#54));
#32=EDGE_LOOP('',(#55,#56,#57,#58));
#33=CIRCLE('',#80,4.70000000000001);
#34=CIRCLE('',#81,2.60000000000001);
#35=CIRCLE('',#83,4.70000000000003);
#36=CIRCLE('',#85,2.60000000000003);
#37=VERTEX_POINT('',#109);
#38=VERTEX_POINT('',#111);
#39=VERTEX_POINT('',#114);
#40=VERTEX_POINT('',#118);
#41=EDGE_CURVE('',#37,#37,#33,.T.);
#42=EDGE_CURVE('',#38,#38,#34,.T.);
#43=EDGE_CURVE('',#39,#39,#35,.T.);
#44=EDGE_CURVE('',#39,#37,#15,.T.);
#45=EDGE_CURVE('',#40,#40,#36,.T.);
#46=EDGE_CURVE('',#40,#38,#16,.T.);
#47=ORIENTED_EDGE('',*,*,#41,.F.);
#48=ORIENTED_EDGE('',*,*,#42,.T.);
#49=ORIENTED_EDGE('',*,*,#43,.F.);
#50=ORIENTED_EDGE('',*,*,#44,.T.);
#51=ORIENTED_EDGE('',*,*,#41,.T.);
#52=ORIENTED_EDGE('',*,*,#44,.F.);
#53=ORIENTED_EDGE('',*,*,#43,.T.);
#54=ORIENTED_EDGE('',*,*,#45,.F.);
#55=ORIENTED_EDGE('',*,*,#45,.T.);
#56=ORIENTED_EDGE('',*,*,#46,.T.);
#57=ORIENTED_EDGE('',*,*,#42,.F.);
#58=ORIENTED_EDGE('',*,*,#46,.F.);
#59=PLANE('',#79);
#60=PLANE('',#84);
#61=ADVANCED_FACE('',(#23,#21),#59,.T.);
#62=ADVANCED_FACE('',(#24),#19,.T.);
#63=ADVANCED_FACE('',(#25,#22),#60,.T.);
#64=ADVANCED_FACE('',(#26),#20,.F.);
#65=CLOSED_SHELL('',(#61,#62,#63,#64));
#66=DERIVED_UNIT_ELEMENT(#68,1.);
#67=DERIVED_UNIT_ELEMENT(#127,-3.);
#68=(
MASS_UNIT()
NAMED_UNIT(*)
SI_UNIT(.KILO.,.GRAM.)
);
#69=DERIVED_UNIT((#66,#67));
#70=MEASURE_REPRESENTATION_ITEM('density measure',
POSITIVE_RATIO_MEASURE(7850.),#69);
#71=PROPERTY_DEFINITION_REPRESENTATION(#76,#73);
#72=PROPERTY_DEFINITION_REPRESENTATION(#77,#74);
#73=REPRESENTATION('material name',(#75),#124);
#74=REPRESENTATION('density',(#70),#124);
#75=DESCRIPTIVE_REPRESENTATION_ITEM('Steel','Steel');
#76=PROPERTY_DEFINITION('material property','material name',#134);
#77=PROPERTY_DEFINITION('material property','density of part',#134);
#78=AXIS2_PLACEMENT_3D('',#107,#87,#88);
#79=AXIS2_PLACEMENT_3D('',#108,#89,#90);
#80=AXIS2_PLACEMENT_3D('',#110,#91,#92);
#81=AXIS2_PLACEMENT_3D('',#112,#93,#94);
#82=AXIS2_PLACEMENT_3D('',#113,#95,#96);
#83=AXIS2_PLACEMENT_3D('',#115,#97,#98);
#84=AXIS2_PLACEMENT_3D('',#117,#100,#101);
#85=AXIS2_PLACEMENT_3D('',#119,#102,#103);
#86=AXIS2_PLACEMENT_3D('',#120,#104,#105);
#87=DIRECTION('axis',(0.,0.,1.));
#88=DIRECTION('refdir',(1.,0.,0.));
#89=DIRECTION('center_axis',(-3.8831298605966E-15,-1.,0.));
#90=DIRECTION('ref_axis',(0.,0.,-1.));
#91=DIRECTION('center_axis',(3.8831298605966E-15,1.,0.));
#92=DIRECTION('ref_axis',(1.,-3.8831298605966E-15,0.));
#93=DIRECTION('center_axis',(3.8831298605966E-15,1.,0.));
#94=DIRECTION('ref_axis',(1.,-3.8831298605966E-15,0.));
#95=DIRECTION('center_axis',(3.8831298605966E-15,1.,0.));
#96=DIRECTION('ref_axis',(-1.,3.84307970062551E-15,0.));
#97=DIRECTION('center_axis',(3.8831298605966E-15,1.,0.));
#98=DIRECTION('ref_axis',(1.,-3.8831298605966E-15,0.));
#99=DIRECTION('',(-3.8831298605966E-15,-1.,0.));
#100=DIRECTION('center_axis',(3.8831298605966E-15,1.,0.));
#101=DIRECTION('ref_axis',(0.,0.,1.));
#102=DIRECTION('center_axis',(3.8831298605966E-15,1.,0.));
#103=DIRECTION('ref_axis',(1.,-3.8831298605966E-15,0.));
#104=DIRECTION('center_axis',(3.8831298605966E-15,1.,0.));
#105=DIRECTION('ref_axis',(-1.,3.84307970062551E-15,0.));
#106=DIRECTION('',(-3.8831298605966E-15,-1.,0.));
#107=CARTESIAN_POINT('',(0.,0.,0.));
#108=CARTESIAN_POINT('Origin',(-4.69999999999999,3.9,1.01560598581038E-15));
#109=CARTESIAN_POINT('',(4.70000000000004,3.89999999999996,4.40021990211121E-16));
#110=CARTESIAN_POINT('Origin',(1.97935376201048E-14,3.89999999999998,1.01560598581038E-15));
#111=CARTESIAN_POINT('',(2.60000000000004,3.89999999999998,6.97197818032066E-16));
#112=CARTESIAN_POINT('Origin',(1.97935376201048E-14,3.89999999999999,1.01560598581038E-15));
#113=CARTESIAN_POINT('Origin',(2.66464992034606E-14,5.66480360672327,1.01560598581038E-15));
#114=CARTESIAN_POINT('',(4.70000000000005,7.42960721344654,4.40021990211121E-16));
#115=CARTESIAN_POINT('Origin',(3.34994607868164E-14,7.42960721344656,1.01560598581038E-15));
#116=CARTESIAN_POINT('',(4.70000000000005,5.66480360672325,4.40021990211121E-16));
#117=CARTESIAN_POINT('Origin',(-2.59999999999999,7.42960721344658,1.01560598581038E-15));
#118=CARTESIAN_POINT('',(2.60000000000005,7.42960721344656,6.97197818032066E-16));
#119=CARTESIAN_POINT('Origin',(3.34994607868164E-14,7.42960721344657,1.01560598581038E-15));
#120=CARTESIAN_POINT('Origin',(2.66464992034606E-14,5.66480360672328,1.01560598581038E-15));
#121=CARTESIAN_POINT('',(2.60000000000005,5.66480360672327,6.97197818032066E-16));
#122=UNCERTAINTY_MEASURE_WITH_UNIT(LENGTH_MEASURE(0.01),#126,
'DISTANCE_ACCURACY_VALUE',
'Maximum model space distance between geometric entities at asserted c
onnectivities');
#123=UNCERTAINTY_MEASURE_WITH_UNIT(LENGTH_MEASURE(0.01),#126,
'DISTANCE_ACCURACY_VALUE',
'Maximum model space distance between geometric entities at asserted c
onnectivities');
#124=(
GEOMETRIC_REPRESENTATION_CONTEXT(3)
GLOBAL_UNCERTAINTY_ASSIGNED_CONTEXT((#122))
GLOBAL_UNIT_ASSIGNED_CONTEXT((#126,#128,#129))
REPRESENTATION_CONTEXT('','3D')
);
#125=(
GEOMETRIC_REPRESENTATION_CONTEXT(3)
GLOBAL_UNCERTAINTY_ASSIGNED_CONTEXT((#123))
GLOBAL_UNIT_ASSIGNED_CONTEXT((#126,#128,#129))
REPRESENTATION_CONTEXT('','3D')
);
#126=(
LENGTH_UNIT()
NAMED_UNIT(*)
SI_UNIT(.MILLI.,.METRE.)
);
#127=(
LENGTH_UNIT()
NAMED_UNIT(*)
SI_UNIT($,.METRE.)
);
#128=(
NAMED_UNIT(*)
PLANE_ANGLE_UNIT()
SI_UNIT($,.RADIAN.)
);
#129=(
NAMED_UNIT(*)
SI_UNIT($,.STERADIAN.)
SOLID_ANGLE_UNIT()
);
#130=SHAPE_DEFINITION_REPRESENTATION(#131,#132);
#131=PRODUCT_DEFINITION_SHAPE('',$,#134);
#132=SHAPE_REPRESENTATION('',(#78),#124);
#133=PRODUCT_DEFINITION_CONTEXT('part definition',#138,'design');
#134=PRODUCT_DEFINITION('Spacer_DoublePulley','Spacer_DoublePulley',#135,
#133);
#135=PRODUCT_DEFINITION_FORMATION('',$,#140);
#136=PRODUCT_RELATED_PRODUCT_CATEGORY('Spacer_DoublePulley',
'Spacer_DoublePulley',(#140));
#137=APPLICATION_PROTOCOL_DEFINITION('international standard',
'automotive_design',2009,#138);
#138=APPLICATION_CONTEXT(
'Core Data for Automotive Mechanical Design Process');
#139=PRODUCT_CONTEXT('part definition',#138,'mechanical');
#140=PRODUCT('Spacer_DoublePulley','Spacer_DoublePulley',$,(#139));
#141=PRESENTATION_STYLE_ASSIGNMENT((#142));
#142=SURFACE_STYLE_USAGE(.BOTH.,#143);
#143=SURFACE_SIDE_STYLE('',(#144));
#144=SURFACE_STYLE_FILL_AREA(#145);
#145=FILL_AREA_STYLE('Paint - Enamel Glossy (Red)',(#146));
#146=FILL_AREA_STYLE_COLOUR('Paint - Enamel Glossy (Red)',#147);
#147=COLOUR_RGB('Paint - Enamel Glossy (Red)',0.768627450980392,0.207843137254902,
0.152941176470588);
ENDSEC;
END-ISO-10303-21;
