ISO-10303-21;
HEADER;
/* Generated by software containing ST-Developer
 * from STEP Tools, Inc. (www.steptools.com) 
 */

FILE_DESCRIPTION(
/* description */ (''),
/* implementation_level */ '2;1');

FILE_NAME(
/* name */ 'DoublePulley_08.step',
/* time_stamp */ '2026-03-03T14:33:17-08:00',
/* author */ (''),
/* organization */ (''),
/* preprocessor_version */ 'ST-DEVELOPER v20.1',
/* originating_system */ 'Autodesk Translation Framework v14.24.0.0',
/* authorisation */ '');

FILE_SCHEMA (('AUTOMOTIVE_DESIGN { 1 0 10303 214 3 1 1 }'));
ENDSEC;

DATA;
#10=MECHANICAL_DESIGN_GEOMETRIC_PRESENTATION_REPRESENTATION('',(#13),#665);
#11=SHAPE_REPRESENTATION_RELATIONSHIP('SRR','None',#672,#12);
#12=ADVANCED_BREP_SHAPE_REPRESENTATION('',(#14),#664);
#13=STYLED_ITEM('',(#681),#14);
#14=MANIFOLD_SOLID_BREP('Body2',#361);
#15=FACE_BOUND('',#56,.T.);
#16=FACE_BOUND('',#69,.T.);
#17=FACE_BOUND('',#74,.T.);
#18=FACE_BOUND('',#77,.T.);
#19=PLANE('',#382);
#20=PLANE('',#416);
#21=PLANE('',#422);
#22=PLANE('',#426);
#23=CYLINDRICAL_SURFACE('',#379,11.4000000000001);
#24=CYLINDRICAL_SURFACE('',#394,11.4000000000004);
#25=CYLINDRICAL_SURFACE('',#409,10.369302198);
#26=CYLINDRICAL_SURFACE('',#418,8.11983021520393);
#27=CYLINDRICAL_SURFACE('',#419,8.119830215204);
#28=CYLINDRICAL_SURFACE('',#420,6.54999999631657);
#29=CYLINDRICAL_SURFACE('',#424,5.);
#30=CYLINDRICAL_SURFACE('',#428,6.55000000089843);
#31=FACE_OUTER_BOUND('',#53,.T.);
#32=FACE_OUTER_BOUND('',#54,.T.);
#33=FACE_OUTER_BOUND('',#55,.T.);
#34=FACE_OUTER_BOUND('',#57,.T.);
#35=FACE_OUTER_BOUND('',#58,.T.);
#36=FACE_OUTER_BOUND('',#59,.T.);
#37=FACE_OUTER_BOUND('',#60,.T.);
#38=FACE_OUTER_BOUND('',#61,.T.);
#39=FACE_OUTER_BOUND('',#62,.T.);
#40=FACE_OUTER_BOUND('',#63,.T.);
#41=FACE_OUTER_BOUND('',#64,.T.);
#42=FACE_OUTER_BOUND('',#65,.T.);
#43=FACE_OUTER_BOUND('',#66,.T.);
#44=FACE_OUTER_BOUND('',#67,.T.);
#45=FACE_OUTER_BOUND('',#68,.T.);
#46=FACE_OUTER_BOUND('',#70,.T.);
#47=FACE_OUTER_BOUND('',#71,.T.);
#48=FACE_OUTER_BOUND('',#72,.T.);
#49=FACE_OUTER_BOUND('',#73,.T.);
#50=FACE_OUTER_BOUND('',#75,.T.);
#51=FACE_OUTER_BOUND('',#76,.T.);
#52=FACE_OUTER_BOUND('',#78,.T.);
#53=EDGE_LOOP('',(#229,#230,#231,#232,#233));
#54=EDGE_LOOP('',(#234,#235,#236,#237,#238,#239));
#55=EDGE_LOOP('',(#240));
#56=EDGE_LOOP('',(#241));
#57=EDGE_LOOP('',(#242,#243,#244,#245,#246,#247));
#58=EDGE_LOOP('',(#248,#249,#250,#251,#252));
#59=EDGE_LOOP('',(#253,#254,#255,#256,#257,#258));
#60=EDGE_LOOP('',(#259,#260,#261,#262,#263,#264));
#61=EDGE_LOOP('',(#265,#266,#267,#268,#269));
#62=EDGE_LOOP('',(#270,#271,#272,#273,#274,#275));
#63=EDGE_LOOP('',(#276,#277,#278,#279,#280));
#64=EDGE_LOOP('',(#281,#282,#283,#284,#285,#286));
#65=EDGE_LOOP('',(#287,#288,#289,#290,#291,#292));
#66=EDGE_LOOP('',(#293,#294,#295,#296,#297));
#67=EDGE_LOOP('',(#298,#299,#300,#301,#302));
#68=EDGE_LOOP('',(#303));
#69=EDGE_LOOP('',(#304));
#70=EDGE_LOOP('',(#305,#306,#307,#308));
#71=EDGE_LOOP('',(#309,#310,#311,#312));
#72=EDGE_LOOP('',(#313,#314,#315,#316));
#73=EDGE_LOOP('',(#317));
#74=EDGE_LOOP('',(#318));
#75=EDGE_LOOP('',(#319,#320,#321,#322));
#76=EDGE_LOOP('',(#323));
#77=EDGE_LOOP('',(#324));
#78=EDGE_LOOP('',(#325,#326,#327,#328));
#79=LINE('',#562,#97);
#80=LINE('',#568,#98);
#81=LINE('',#577,#99);
#82=LINE('',#583,#100);
#83=LINE('',#591,#101);
#84=LINE('',#597,#102);
#85=LINE('',#604,#103);
#86=LINE('',#607,#104);
#87=LINE('',#613,#105);
#88=LINE('',#621,#106);
#89=LINE('',#627,#107);
#90=LINE('',#634,#108);
#91=LINE('',#637,#109);
#92=LINE('',#643,#110);
#93=LINE('',#645,#111);
#94=LINE('',#648,#112);
#95=LINE('',#655,#113);
#96=LINE('',#661,#114);
#97=VECTOR('',#435,11.25);
#98=VECTOR('',#442,11.4000000000001);
#99=VECTOR('',#453,11.2590461068824);
#100=VECTOR('',#460,9.75991510760206);
#101=VECTOR('',#469,11.2590461068825);
#102=VECTOR('',#476,11.4000000000004);
#103=VECTOR('',#485,9.75991510760218);
#104=VECTOR('',#488,11.2590461068825);
#105=VECTOR('',#495,9.75991510760218);
#106=VECTOR('',#504,10.228348304882);
#107=VECTOR('',#511,10.369302198);
#108=VECTOR('',#520,9.24456620660192);
#109=VECTOR('',#523,10.219302198);
#110=VECTOR('',#532,8.11983021520393);
#111=VECTOR('',#535,8.119830215204);
#112=VECTOR('',#538,6.54999999631657);
#113=VECTOR('',#547,5.);
#114=VECTOR('',#556,6.55000000089842);
#115=CIRCLE('',#376,11.1);
#116=CIRCLE('',#377,11.4000000000001);
#117=CIRCLE('',#378,11.4000000000001);
#118=CIRCLE('',#380,11.4000000000001);
#119=CIRCLE('',#381,11.4000000000001);
#120=CIRCLE('',#383,6.54999999631646);
#121=CIRCLE('',#385,11.1180922137648);
#122=CIRCLE('',#386,11.1180922137648);
#123=CIRCLE('',#388,8.119830215204);
#124=CIRCLE('',#390,11.1180922137646);
#125=CIRCLE('',#391,11.1180922137646);
#126=CIRCLE('',#392,11.4000000000004);
#127=CIRCLE('',#393,11.4000000000004);
#128=CIRCLE('',#395,11.4000000000004);
#129=CIRCLE('',#396,11.4000000000004);
#130=CIRCLE('',#398,8.11983021520401);
#131=CIRCLE('',#400,11.1180922137646);
#132=CIRCLE('',#401,11.1180922137646);
#133=CIRCLE('',#403,8.11983021520393);
#134=CIRCLE('',#405,10.0873944117639);
#135=CIRCLE('',#406,10.0873944117639);
#136=CIRCLE('',#407,10.369302198);
#137=CIRCLE('',#408,10.369302198);
#138=CIRCLE('',#410,10.369302198);
#139=CIRCLE('',#411,10.369302198);
#140=CIRCLE('',#413,8.11983021520392);
#141=CIRCLE('',#415,10.069302198);
#142=CIRCLE('',#417,6.55000000179685);
#143=CIRCLE('',#421,6.54999999631668);
#144=CIRCLE('',#423,5.);
#145=CIRCLE('',#425,5.);
#146=CIRCLE('',#427,6.55);
#147=VERTEX_POINT('',#559);
#148=VERTEX_POINT('',#561);
#149=VERTEX_POINT('',#563);
#150=VERTEX_POINT('',#567);
#151=VERTEX_POINT('',#569);
#152=VERTEX_POINT('',#573);
#153=VERTEX_POINT('',#576);
#154=VERTEX_POINT('',#578);
#155=VERTEX_POINT('',#582);
#156=VERTEX_POINT('',#586);
#157=VERTEX_POINT('',#587);
#158=VERTEX_POINT('',#590);
#159=VERTEX_POINT('',#592);
#160=VERTEX_POINT('',#596);
#161=VERTEX_POINT('',#598);
#162=VERTEX_POINT('',#602);
#163=VERTEX_POINT('',#606);
#164=VERTEX_POINT('',#608);
#165=VERTEX_POINT('',#612);
#166=VERTEX_POINT('',#616);
#167=VERTEX_POINT('',#617);
#168=VERTEX_POINT('',#620);
#169=VERTEX_POINT('',#622);
#170=VERTEX_POINT('',#626);
#171=VERTEX_POINT('',#628);
#172=VERTEX_POINT('',#632);
#173=VERTEX_POINT('',#636);
#174=VERTEX_POINT('',#640);
#175=VERTEX_POINT('',#647);
#176=VERTEX_POINT('',#651);
#177=VERTEX_POINT('',#654);
#178=VERTEX_POINT('',#658);
#179=EDGE_CURVE('',#147,#147,#115,.T.);
#180=EDGE_CURVE('',#147,#148,#79,.T.);
#181=EDGE_CURVE('',#148,#149,#116,.T.);
#182=EDGE_CURVE('',#149,#148,#117,.T.);
#183=EDGE_CURVE('',#149,#150,#80,.T.);
#184=EDGE_CURVE('',#151,#150,#118,.T.);
#185=EDGE_CURVE('',#150,#151,#119,.T.);
#186=EDGE_CURVE('',#152,#152,#120,.T.);
#187=EDGE_CURVE('',#151,#153,#81,.T.);
#188=EDGE_CURVE('',#153,#154,#121,.T.);
#189=EDGE_CURVE('',#154,#153,#122,.T.);
#190=EDGE_CURVE('',#154,#155,#82,.T.);
#191=EDGE_CURVE('',#155,#155,#123,.T.);
#192=EDGE_CURVE('',#156,#157,#124,.T.);
#193=EDGE_CURVE('',#157,#156,#125,.T.);
#194=EDGE_CURVE('',#156,#158,#83,.T.);
#195=EDGE_CURVE('',#158,#159,#126,.T.);
#196=EDGE_CURVE('',#159,#158,#127,.T.);
#197=EDGE_CURVE('',#159,#160,#84,.T.);
#198=EDGE_CURVE('',#161,#160,#128,.T.);
#199=EDGE_CURVE('',#160,#161,#129,.T.);
#200=EDGE_CURVE('',#162,#162,#130,.T.);
#201=EDGE_CURVE('',#162,#157,#85,.T.);
#202=EDGE_CURVE('',#161,#163,#86,.T.);
#203=EDGE_CURVE('',#163,#164,#131,.T.);
#204=EDGE_CURVE('',#164,#163,#132,.T.);
#205=EDGE_CURVE('',#164,#165,#87,.T.);
#206=EDGE_CURVE('',#165,#165,#133,.T.);
#207=EDGE_CURVE('',#166,#167,#134,.T.);
#208=EDGE_CURVE('',#167,#166,#135,.T.);
#209=EDGE_CURVE('',#166,#168,#88,.T.);
#210=EDGE_CURVE('',#168,#169,#136,.T.);
#211=EDGE_CURVE('',#169,#168,#137,.T.);
#212=EDGE_CURVE('',#169,#170,#89,.T.);
#213=EDGE_CURVE('',#171,#170,#138,.T.);
#214=EDGE_CURVE('',#170,#171,#139,.T.);
#215=EDGE_CURVE('',#172,#172,#140,.T.);
#216=EDGE_CURVE('',#172,#167,#90,.T.);
#217=EDGE_CURVE('',#171,#173,#91,.T.);
#218=EDGE_CURVE('',#173,#173,#141,.T.);
#219=EDGE_CURVE('',#174,#174,#142,.T.);
#220=EDGE_CURVE('',#165,#172,#92,.T.);
#221=EDGE_CURVE('',#155,#162,#93,.T.);
#222=EDGE_CURVE('',#152,#175,#94,.T.);
#223=EDGE_CURVE('',#175,#175,#143,.T.);
#224=EDGE_CURVE('',#176,#176,#144,.T.);
#225=EDGE_CURVE('',#176,#177,#95,.T.);
#226=EDGE_CURVE('',#177,#177,#145,.T.);
#227=EDGE_CURVE('',#178,#178,#146,.T.);
#228=EDGE_CURVE('',#178,#174,#96,.T.);
#229=ORIENTED_EDGE('',*,*,#179,.T.);
#230=ORIENTED_EDGE('',*,*,#180,.T.);
#231=ORIENTED_EDGE('',*,*,#181,.T.);
#232=ORIENTED_EDGE('',*,*,#182,.T.);
#233=ORIENTED_EDGE('',*,*,#180,.F.);
#234=ORIENTED_EDGE('',*,*,#181,.F.);
#235=ORIENTED_EDGE('',*,*,#182,.F.);
#236=ORIENTED_EDGE('',*,*,#183,.T.);
#237=ORIENTED_EDGE('',*,*,#184,.F.);
#238=ORIENTED_EDGE('',*,*,#185,.F.);
#239=ORIENTED_EDGE('',*,*,#183,.F.);
#240=ORIENTED_EDGE('',*,*,#179,.F.);
#241=ORIENTED_EDGE('',*,*,#186,.F.);
#242=ORIENTED_EDGE('',*,*,#184,.T.);
#243=ORIENTED_EDGE('',*,*,#185,.T.);
#244=ORIENTED_EDGE('',*,*,#187,.T.);
#245=ORIENTED_EDGE('',*,*,#188,.T.);
#246=ORIENTED_EDGE('',*,*,#189,.T.);
#247=ORIENTED_EDGE('',*,*,#187,.F.);
#248=ORIENTED_EDGE('',*,*,#188,.F.);
#249=ORIENTED_EDGE('',*,*,#189,.F.);
#250=ORIENTED_EDGE('',*,*,#190,.T.);
#251=ORIENTED_EDGE('',*,*,#191,.T.);
#252=ORIENTED_EDGE('',*,*,#190,.F.);
#253=ORIENTED_EDGE('',*,*,#192,.T.);
#254=ORIENTED_EDGE('',*,*,#193,.T.);
#255=ORIENTED_EDGE('',*,*,#194,.T.);
#256=ORIENTED_EDGE('',*,*,#195,.T.);
#257=ORIENTED_EDGE('',*,*,#196,.T.);
#258=ORIENTED_EDGE('',*,*,#194,.F.);
#259=ORIENTED_EDGE('',*,*,#195,.F.);
#260=ORIENTED_EDGE('',*,*,#196,.F.);
#261=ORIENTED_EDGE('',*,*,#197,.T.);
#262=ORIENTED_EDGE('',*,*,#198,.F.);
#263=ORIENTED_EDGE('',*,*,#199,.F.);
#264=ORIENTED_EDGE('',*,*,#197,.F.);
#265=ORIENTED_EDGE('',*,*,#200,.F.);
#266=ORIENTED_EDGE('',*,*,#201,.T.);
#267=ORIENTED_EDGE('',*,*,#192,.F.);
#268=ORIENTED_EDGE('',*,*,#193,.F.);
#269=ORIENTED_EDGE('',*,*,#201,.F.);
#270=ORIENTED_EDGE('',*,*,#198,.T.);
#271=ORIENTED_EDGE('',*,*,#199,.T.);
#272=ORIENTED_EDGE('',*,*,#202,.T.);
#273=ORIENTED_EDGE('',*,*,#203,.T.);
#274=ORIENTED_EDGE('',*,*,#204,.T.);
#275=ORIENTED_EDGE('',*,*,#202,.F.);
#276=ORIENTED_EDGE('',*,*,#203,.F.);
#277=ORIENTED_EDGE('',*,*,#204,.F.);
#278=ORIENTED_EDGE('',*,*,#205,.T.);
#279=ORIENTED_EDGE('',*,*,#206,.T.);
#280=ORIENTED_EDGE('',*,*,#205,.F.);
#281=ORIENTED_EDGE('',*,*,#207,.T.);
#282=ORIENTED_EDGE('',*,*,#208,.T.);
#283=ORIENTED_EDGE('',*,*,#209,.T.);
#284=ORIENTED_EDGE('',*,*,#210,.T.);
#285=ORIENTED_EDGE('',*,*,#211,.T.);
#286=ORIENTED_EDGE('',*,*,#209,.F.);
#287=ORIENTED_EDGE('',*,*,#210,.F.);
#288=ORIENTED_EDGE('',*,*,#211,.F.);
#289=ORIENTED_EDGE('',*,*,#212,.T.);
#290=ORIENTED_EDGE('',*,*,#213,.F.);
#291=ORIENTED_EDGE('',*,*,#214,.F.);
#292=ORIENTED_EDGE('',*,*,#212,.F.);
#293=ORIENTED_EDGE('',*,*,#215,.F.);
#294=ORIENTED_EDGE('',*,*,#216,.T.);
#295=ORIENTED_EDGE('',*,*,#207,.F.);
#296=ORIENTED_EDGE('',*,*,#208,.F.);
#297=ORIENTED_EDGE('',*,*,#216,.F.);
#298=ORIENTED_EDGE('',*,*,#213,.T.);
#299=ORIENTED_EDGE('',*,*,#214,.T.);
#300=ORIENTED_EDGE('',*,*,#217,.T.);
#301=ORIENTED_EDGE('',*,*,#218,.T.);
#302=ORIENTED_EDGE('',*,*,#217,.F.);
#303=ORIENTED_EDGE('',*,*,#218,.F.);
#304=ORIENTED_EDGE('',*,*,#219,.T.);
#305=ORIENTED_EDGE('',*,*,#206,.F.);
#306=ORIENTED_EDGE('',*,*,#220,.T.);
#307=ORIENTED_EDGE('',*,*,#215,.T.);
#308=ORIENTED_EDGE('',*,*,#220,.F.);
#309=ORIENTED_EDGE('',*,*,#191,.F.);
#310=ORIENTED_EDGE('',*,*,#221,.T.);
#311=ORIENTED_EDGE('',*,*,#200,.T.);
#312=ORIENTED_EDGE('',*,*,#221,.F.);
#313=ORIENTED_EDGE('',*,*,#186,.T.);
#314=ORIENTED_EDGE('',*,*,#222,.T.);
#315=ORIENTED_EDGE('',*,*,#223,.F.);
#316=ORIENTED_EDGE('',*,*,#222,.F.);
#317=ORIENTED_EDGE('',*,*,#223,.T.);
#318=ORIENTED_EDGE('',*,*,#224,.F.);
#319=ORIENTED_EDGE('',*,*,#224,.T.);
#320=ORIENTED_EDGE('',*,*,#225,.T.);
#321=ORIENTED_EDGE('',*,*,#226,.F.);
#322=ORIENTED_EDGE('',*,*,#225,.F.);
#323=ORIENTED_EDGE('',*,*,#227,.F.);
#324=ORIENTED_EDGE('',*,*,#226,.T.);
#325=ORIENTED_EDGE('',*,*,#227,.T.);
#326=ORIENTED_EDGE('',*,*,#228,.T.);
#327=ORIENTED_EDGE('',*,*,#219,.F.);
#328=ORIENTED_EDGE('',*,*,#228,.F.);
#329=CONICAL_SURFACE('',#375,11.25,0.78539816339801);
#330=CONICAL_SURFACE('',#384,11.2590461068824,0.610865238195685);
#331=CONICAL_SURFACE('',#387,9.75991510760206,1.22173047639156);
#332=CONICAL_SURFACE('',#389,11.2590461068825,0.610865238197853);
#333=CONICAL_SURFACE('',#397,9.75991510760218,1.2217304763956);
#334=CONICAL_SURFACE('',#399,11.2590461068825,0.610865238197961);
#335=CONICAL_SURFACE('',#402,9.75991510760218,1.22173047639603);
#336=CONICAL_SURFACE('',#404,10.228348304882,0.610865238199052);
#337=CONICAL_SURFACE('',#412,9.24456620660192,1.22173047639796);
#338=CONICAL_SURFACE('',#414,10.219302198,0.785398163397379);
#339=ADVANCED_FACE('',(#31),#329,.T.);
#340=ADVANCED_FACE('',(#32),#23,.T.);
#341=ADVANCED_FACE('',(#33,#15),#19,.T.);
#342=ADVANCED_FACE('',(#34),#330,.T.);
#343=ADVANCED_FACE('',(#35),#331,.T.);
#344=ADVANCED_FACE('',(#36),#332,.T.);
#345=ADVANCED_FACE('',(#37),#24,.T.);
#346=ADVANCED_FACE('',(#38),#333,.T.);
#347=ADVANCED_FACE('',(#39),#334,.T.);
#348=ADVANCED_FACE('',(#40),#335,.T.);
#349=ADVANCED_FACE('',(#41),#336,.T.);
#350=ADVANCED_FACE('',(#42),#25,.T.);
#351=ADVANCED_FACE('',(#43),#337,.T.);
#352=ADVANCED_FACE('',(#44),#338,.T.);
#353=ADVANCED_FACE('',(#45,#16),#20,.T.);
#354=ADVANCED_FACE('',(#46),#26,.T.);
#355=ADVANCED_FACE('',(#47),#27,.T.);
#356=ADVANCED_FACE('',(#48),#28,.F.);
#357=ADVANCED_FACE('',(#49,#17),#21,.T.);
#358=ADVANCED_FACE('',(#50),#29,.F.);
#359=ADVANCED_FACE('',(#51,#18),#22,.T.);
#360=ADVANCED_FACE('',(#52),#30,.F.);
#361=CLOSED_SHELL('',(#339,#340,#341,#342,#343,#344,#345,#346,#347,#348,
#349,#350,#351,#352,#353,#354,#355,#356,#357,#358,#359,#360));
#362=DERIVED_UNIT_ELEMENT(#364,1.);
#363=DERIVED_UNIT_ELEMENT(#667,-3.);
#364=(
MASS_UNIT()
NAMED_UNIT(*)
SI_UNIT(.KILO.,.GRAM.)
);
#365=DERIVED_UNIT((#362,#363));
#366=MEASURE_REPRESENTATION_ITEM('density measure',
POSITIVE_RATIO_MEASURE(7850.),#365);
#367=PROPERTY_DEFINITION_REPRESENTATION(#372,#369);
#368=PROPERTY_DEFINITION_REPRESENTATION(#373,#370);
#369=REPRESENTATION('material name',(#371),#664);
#370=REPRESENTATION('density',(#366),#664);
#371=DESCRIPTIVE_REPRESENTATION_ITEM('Steel','Steel');
#372=PROPERTY_DEFINITION('material property','material name',#674);
#373=PROPERTY_DEFINITION('material property','density of part',#674);
#374=AXIS2_PLACEMENT_3D('',#557,#429,#430);
#375=AXIS2_PLACEMENT_3D('',#558,#431,#432);
#376=AXIS2_PLACEMENT_3D('',#560,#433,#434);
#377=AXIS2_PLACEMENT_3D('',#564,#436,#437);
#378=AXIS2_PLACEMENT_3D('',#565,#438,#439);
#379=AXIS2_PLACEMENT_3D('',#566,#440,#441);
#380=AXIS2_PLACEMENT_3D('',#570,#443,#444);
#381=AXIS2_PLACEMENT_3D('',#571,#445,#446);
#382=AXIS2_PLACEMENT_3D('',#572,#447,#448);
#383=AXIS2_PLACEMENT_3D('',#574,#449,#450);
#384=AXIS2_PLACEMENT_3D('',#575,#451,#452);
#385=AXIS2_PLACEMENT_3D('',#579,#454,#455);
#386=AXIS2_PLACEMENT_3D('',#580,#456,#457);
#387=AXIS2_PLACEMENT_3D('',#581,#458,#459);
#388=AXIS2_PLACEMENT_3D('',#584,#461,#462);
#389=AXIS2_PLACEMENT_3D('',#585,#463,#464);
#390=AXIS2_PLACEMENT_3D('',#588,#465,#466);
#391=AXIS2_PLACEMENT_3D('',#589,#467,#468);
#392=AXIS2_PLACEMENT_3D('',#593,#470,#471);
#393=AXIS2_PLACEMENT_3D('',#594,#472,#473);
#394=AXIS2_PLACEMENT_3D('',#595,#474,#475);
#395=AXIS2_PLACEMENT_3D('',#599,#477,#478);
#396=AXIS2_PLACEMENT_3D('',#600,#479,#480);
#397=AXIS2_PLACEMENT_3D('',#601,#481,#482);
#398=AXIS2_PLACEMENT_3D('',#603,#483,#484);
#399=AXIS2_PLACEMENT_3D('',#605,#486,#487);
#400=AXIS2_PLACEMENT_3D('',#609,#489,#490);
#401=AXIS2_PLACEMENT_3D('',#610,#491,#492);
#402=AXIS2_PLACEMENT_3D('',#611,#493,#494);
#403=AXIS2_PLACEMENT_3D('',#614,#496,#497);
#404=AXIS2_PLACEMENT_3D('',#615,#498,#499);
#405=AXIS2_PLACEMENT_3D('',#618,#500,#501);
#406=AXIS2_PLACEMENT_3D('',#619,#502,#503);
#407=AXIS2_PLACEMENT_3D('',#623,#505,#506);
#408=AXIS2_PLACEMENT_3D('',#624,#507,#508);
#409=AXIS2_PLACEMENT_3D('',#625,#509,#510);
#410=AXIS2_PLACEMENT_3D('',#629,#512,#513);
#411=AXIS2_PLACEMENT_3D('',#630,#514,#515);
#412=AXIS2_PLACEMENT_3D('',#631,#516,#517);
#413=AXIS2_PLACEMENT_3D('',#633,#518,#519);
#414=AXIS2_PLACEMENT_3D('',#635,#521,#522);
#415=AXIS2_PLACEMENT_3D('',#638,#524,#525);
#416=AXIS2_PLACEMENT_3D('',#639,#526,#527);
#417=AXIS2_PLACEMENT_3D('',#641,#528,#529);
#418=AXIS2_PLACEMENT_3D('',#642,#530,#531);
#419=AXIS2_PLACEMENT_3D('',#644,#533,#534);
#420=AXIS2_PLACEMENT_3D('',#646,#536,#537);
#421=AXIS2_PLACEMENT_3D('',#649,#539,#540);
#422=AXIS2_PLACEMENT_3D('',#650,#541,#542);
#423=AXIS2_PLACEMENT_3D('',#652,#543,#544);
#424=AXIS2_PLACEMENT_3D('',#653,#545,#546);
#425=AXIS2_PLACEMENT_3D('',#656,#548,#549);
#426=AXIS2_PLACEMENT_3D('',#657,#550,#551);
#427=AXIS2_PLACEMENT_3D('',#659,#552,#553);
#428=AXIS2_PLACEMENT_3D('',#660,#554,#555);
#429=DIRECTION('axis',(0.,0.,1.));
#430=DIRECTION('refdir',(1.,0.,0.));
#431=DIRECTION('center_axis',(1.06488672068207E-13,0.,1.));
#432=DIRECTION('ref_axis',(1.,0.,-1.06466955585289E-13));
#433=DIRECTION('center_axis',(1.06488672068207E-13,0.,1.));
#434=DIRECTION('ref_axis',(1.,0.,-1.06488672068207E-13));
#435=DIRECTION('',(-0.707106781186869,8.65956056235979E-17,0.707106781186226));
#436=DIRECTION('center_axis',(-1.06488672068207E-13,0.,-1.));
#437=DIRECTION('ref_axis',(1.,0.,-1.06445810588764E-13));
#438=DIRECTION('center_axis',(-1.06488672068207E-13,0.,-1.));
#439=DIRECTION('ref_axis',(1.,0.,-1.06445810588764E-13));
#440=DIRECTION('center_axis',(-1.06488672068207E-13,0.,-1.));
#441=DIRECTION('ref_axis',(-1.,0.,1.06445810588764E-13));
#442=DIRECTION('',(1.06488672068207E-13,0.,1.));
#443=DIRECTION('center_axis',(1.06488672068207E-13,0.,1.));
#444=DIRECTION('ref_axis',(1.,0.,-1.06445810588764E-13));
#445=DIRECTION('center_axis',(1.06488672068207E-13,0.,1.));
#446=DIRECTION('ref_axis',(1.,0.,-1.06445810588764E-13));
#447=DIRECTION('center_axis',(-1.06488672068207E-13,0.,-1.));
#448=DIRECTION('ref_axis',(-1.,0.,1.06488672068207E-13));
#449=DIRECTION('center_axis',(-1.06488672068207E-13,0.,-1.));
#450=DIRECTION('ref_axis',(1.,0.,-1.06488672068207E-13));
#451=DIRECTION('center_axis',(-1.07379589677841E-13,1.69095028241383E-15,
-1.));
#452=DIRECTION('ref_axis',(1.,-3.02328809939972E-17,-1.06446850035418E-13));
#453=DIRECTION('',(0.573576436349225,-1.47272910345784E-15,0.819152044290267));
#454=DIRECTION('center_axis',(-1.06447915838041E-13,9.95224816576315E-30,
-1.));
#455=DIRECTION('ref_axis',(1.,-6.12323399573677E-17,-1.06447915838041E-13));
#456=DIRECTION('center_axis',(-1.06447915838041E-13,9.95224816576315E-30,
-1.));
#457=DIRECTION('ref_axis',(1.,-6.12323399573677E-17,-1.06447915838041E-13));
#458=DIRECTION('center_axis',(-1.06488672068207E-13,0.,-1.));
#459=DIRECTION('ref_axis',(-1.,0.,1.06445810588764E-13));
#460=DIRECTION('',(-0.939692620784342,1.15079156022598E-16,0.342020143329972));
#461=DIRECTION('center_axis',(-1.06488672068207E-13,0.,-1.));
#462=DIRECTION('ref_axis',(1.,0.,-1.06488672068207E-13));
#463=DIRECTION('center_axis',(1.0674008002308E-13,1.69095028241858E-15,
1.));
#464=DIRECTION('ref_axis',(1.,-3.02328809939965E-17,-1.06446850035419E-13));
#465=DIRECTION('center_axis',(1.06447915838043E-13,-5.54896032168546E-30,
1.));
#466=DIRECTION('ref_axis',(1.,-6.12323399573676E-17,-1.06447915838043E-13));
#467=DIRECTION('center_axis',(1.06447915838043E-13,-5.54896032168546E-30,
1.));
#468=DIRECTION('ref_axis',(1.,-6.12323399573676E-17,-1.06447915838043E-13));
#469=DIRECTION('',(-0.573576436350826,1.47272910345989E-15,0.819152044289146));
#470=DIRECTION('center_axis',(-1.06488672068207E-13,0.,-1.));
#471=DIRECTION('ref_axis',(1.,0.,-1.06445810588764E-13));
#472=DIRECTION('center_axis',(-1.06488672068207E-13,0.,-1.));
#473=DIRECTION('ref_axis',(1.,0.,-1.06445810588764E-13));
#474=DIRECTION('center_axis',(-1.06488672068207E-13,0.,-1.));
#475=DIRECTION('ref_axis',(-1.,0.,1.06445810588764E-13));
#476=DIRECTION('',(1.06488672068207E-13,0.,1.));
#477=DIRECTION('center_axis',(1.06488672068207E-13,0.,1.));
#478=DIRECTION('ref_axis',(1.,0.,-1.06445810588764E-13));
#479=DIRECTION('center_axis',(1.06488672068207E-13,0.,1.));
#480=DIRECTION('ref_axis',(1.,0.,-1.06445810588764E-13));
#481=DIRECTION('center_axis',(1.06488672068207E-13,0.,1.));
#482=DIRECTION('ref_axis',(-1.,0.,1.06445810588764E-13));
#483=DIRECTION('center_axis',(-1.06488672068207E-13,0.,-1.));
#484=DIRECTION('ref_axis',(1.,0.,-1.06488672068207E-13));
#485=DIRECTION('',(0.939692620785797,-1.15079156022767E-16,0.342020143325975));
#486=DIRECTION('center_axis',(-1.06441806417347E-13,1.6909502824191E-15,
-1.));
#487=DIRECTION('ref_axis',(1.,-3.02328809939966E-17,-1.06446850035419E-13));
#488=DIRECTION('',(0.573576436351088,-1.47272910346023E-15,0.819152044288962));
#489=DIRECTION('center_axis',(-1.06447915838043E-13,6.33740336178281E-30,
-1.));
#490=DIRECTION('ref_axis',(1.,-6.12323399573677E-17,-1.06447915838043E-13));
#491=DIRECTION('center_axis',(-1.06447915838043E-13,6.33740336178281E-30,
-1.));
#492=DIRECTION('ref_axis',(1.,-6.12323399573677E-17,-1.06447915838043E-13));
#493=DIRECTION('center_axis',(-1.06488672068207E-13,0.,-1.));
#494=DIRECTION('ref_axis',(-1.,0.,1.06445810588764E-13));
#495=DIRECTION('',(-0.93969262078587,1.15079156022785E-16,0.342020143325774));
#496=DIRECTION('center_axis',(-1.06488672068207E-13,0.,-1.));
#497=DIRECTION('ref_axis',(1.,0.,-1.06488672068207E-13));
#498=DIRECTION('center_axis',(1.07270966982819E-13,1.53419148730845E-15,
1.));
#499=DIRECTION('ref_axis',(1.,-3.01942574447903E-17,-1.06450813629179E-13));
#500=DIRECTION('center_axis',(1.06455956487271E-13,-2.75151089395925E-17,
1.));
#501=DIRECTION('ref_axis',(1.,-6.12323399573677E-17,-1.06455956487271E-13));
#502=DIRECTION('center_axis',(1.06455956487271E-13,-2.75151089395925E-17,
1.));
#503=DIRECTION('ref_axis',(1.,-6.12323399573677E-17,-1.06455956487271E-13));
#504=DIRECTION('',(-0.573576436351808,1.34429766242652E-15,0.819152044288459));
#505=DIRECTION('center_axis',(-1.06488672068207E-13,0.,-1.));
#506=DIRECTION('ref_axis',(1.,0.,-1.06445810588764E-13));
#507=DIRECTION('center_axis',(-1.06488672068207E-13,0.,-1.));
#508=DIRECTION('ref_axis',(1.,0.,-1.06445810588764E-13));
#509=DIRECTION('center_axis',(-1.06488672068207E-13,0.,-1.));
#510=DIRECTION('ref_axis',(-1.,0.,1.06445810588764E-13));
#511=DIRECTION('',(1.06488672068207E-13,0.,1.));
#512=DIRECTION('center_axis',(1.06488672068207E-13,0.,1.));
#513=DIRECTION('ref_axis',(1.,0.,-1.06445810588764E-13));
#514=DIRECTION('center_axis',(1.06488672068207E-13,0.,1.));
#515=DIRECTION('ref_axis',(1.,0.,-1.06445810588764E-13));
#516=DIRECTION('center_axis',(1.06488672068207E-13,0.,1.));
#517=DIRECTION('ref_axis',(-1.,0.,1.06445810588764E-13));
#518=DIRECTION('center_axis',(-1.06488672068207E-13,0.,-1.));
#519=DIRECTION('ref_axis',(1.,0.,-1.06488672068207E-13));
#520=DIRECTION('',(0.939692620786603,-1.15079156022866E-16,0.34202014332376));
#521=DIRECTION('center_axis',(-1.06488672068207E-13,0.,-1.));
#522=DIRECTION('ref_axis',(1.,0.,-1.06466926765818E-13));
#523=DIRECTION('',(0.707106781186574,-8.65956056235434E-17,0.707106781186521));
#524=DIRECTION('center_axis',(-1.06488672068207E-13,0.,-1.));
#525=DIRECTION('ref_axis',(1.,0.,-1.06488672068207E-13));
#526=DIRECTION('center_axis',(1.06488672068207E-13,0.,1.));
#527=DIRECTION('ref_axis',(1.,0.,-1.06488672068207E-13));
#528=DIRECTION('center_axis',(-1.06488672068207E-13,0.,-1.));
#529=DIRECTION('ref_axis',(1.,0.,-1.06488672068207E-13));
#530=DIRECTION('center_axis',(-1.06488672068207E-13,0.,-1.));
#531=DIRECTION('ref_axis',(-1.,0.,1.06445810588764E-13));
#532=DIRECTION('',(1.06488672068207E-13,0.,1.));
#533=DIRECTION('center_axis',(-1.06488672068207E-13,0.,-1.));
#534=DIRECTION('ref_axis',(-1.,0.,1.06445810588764E-13));
#535=DIRECTION('',(1.06488672068207E-13,0.,1.));
#536=DIRECTION('center_axis',(-1.06488672068207E-13,0.,-1.));
#537=DIRECTION('ref_axis',(-1.,0.,1.06445810588764E-13));
#538=DIRECTION('',(1.06488672068207E-13,0.,1.));
#539=DIRECTION('center_axis',(-1.06488672068207E-13,0.,-1.));
#540=DIRECTION('ref_axis',(1.,0.,-1.06488672068207E-13));
#541=DIRECTION('center_axis',(-1.06488672068207E-13,0.,-1.));
#542=DIRECTION('ref_axis',(-1.,0.,1.06488672068207E-13));
#543=DIRECTION('center_axis',(-1.06488672068207E-13,0.,-1.));
#544=DIRECTION('ref_axis',(1.,0.,-1.06488672068207E-13));
#545=DIRECTION('center_axis',(-1.06488672068207E-13,0.,-1.));
#546=DIRECTION('ref_axis',(-1.,0.,1.06445810588764E-13));
#547=DIRECTION('',(1.06488672068207E-13,0.,1.));
#548=DIRECTION('center_axis',(-1.06488672068207E-13,0.,-1.));
#549=DIRECTION('ref_axis',(1.,0.,-1.06488672068207E-13));
#550=DIRECTION('center_axis',(1.06488672068207E-13,0.,1.));
#551=DIRECTION('ref_axis',(1.,0.,-1.06488672068207E-13));
#552=DIRECTION('center_axis',(-1.06488672068207E-13,0.,-1.));
#553=DIRECTION('ref_axis',(1.,0.,-1.06488672068207E-13));
#554=DIRECTION('center_axis',(-1.06488672068207E-13,0.,-1.));
#555=DIRECTION('ref_axis',(-1.,0.,1.06445810588764E-13));
#556=DIRECTION('',(1.06488672068207E-13,0.,1.));
#557=CARTESIAN_POINT('',(0.,0.,0.));
#558=CARTESIAN_POINT('Origin',(-1.28318849842194E-12,0.,-12.0500000000005));
#559=CARTESIAN_POINT('',(-11.1000000000013,-1.35935794705356E-15,-12.1999999999992));
#560=CARTESIAN_POINT('Origin',(-1.29916179923216E-12,0.,-12.2000000000004));
#561=CARTESIAN_POINT('',(-11.4000000000013,1.39609735102799E-15,-11.8999999999994));
#562=CARTESIAN_POINT('',(-11.2500000000013,1.37772764904078E-15,-12.0499999999993));
#563=CARTESIAN_POINT('',(11.3999999999988,-1.39609735102799E-15,-11.9000000000019));
#564=CARTESIAN_POINT('Origin',(-1.26721519761173E-12,0.,-11.9000000000006));
#565=CARTESIAN_POINT('Origin',(-1.26721519761173E-12,0.,-11.9000000000006));
#566=CARTESIAN_POINT('Origin',(-1.18202425984002E-12,0.,-11.0999999989006));
#567=CARTESIAN_POINT('',(11.399999999999,-1.39609735102799E-15,-10.2999999978019));
#568=CARTESIAN_POINT('',(11.3999999999989,-1.39609735102799E-15,-11.0999999989019));
#569=CARTESIAN_POINT('',(-11.4000000000012,-1.39609735102799E-15,-10.2999999977994));
#570=CARTESIAN_POINT('Origin',(-1.09683332206832E-12,0.,-10.2999999978006));
#571=CARTESIAN_POINT('Origin',(-1.09683332206832E-12,0.,-10.2999999978006));
#572=CARTESIAN_POINT('Origin',(-6.54999999631776,0.,-12.1999999999997));
#573=CARTESIAN_POINT('',(6.54999999631527,-8.02143652990427E-16,-12.2000000000011));
#574=CARTESIAN_POINT('Origin',(-1.29916179923216E-12,0.,-12.2000000000004));
#575=CARTESIAN_POINT('Origin',(-1.0752174862188E-12,-3.40393401055305E-16,
-10.0986969763012));
#576=CARTESIAN_POINT('',(-11.1180922137659,1.36157360422122E-15,-9.8973939548005));
#577=CARTESIAN_POINT('',(-11.2590461068835,1.3788354776246E-15,-10.0986969763));
#578=CARTESIAN_POINT('',(11.1180922137638,-1.36157360422122E-15,-9.89739395480286));
#579=CARTESIAN_POINT('Origin',(-1.05360165036927E-12,-6.80786802110609E-16,
-9.89739395480168));
#580=CARTESIAN_POINT('Origin',(-1.05360165036927E-12,-6.80786802110609E-16,
-9.89739395480168));
#581=CARTESIAN_POINT('Origin',(-1.00131915077964E-12,0.,-9.40305791528975));
#582=CARTESIAN_POINT('',(8.11983021520306,-9.94392408266954E-16,-8.80611583277972));
#583=CARTESIAN_POINT('',(9.75991510760106,-1.19524487964748E-15,-9.40305791529079));
#584=CARTESIAN_POINT('Origin',(-9.3775158111143E-13,0.,-8.80611583277886));
#585=CARTESIAN_POINT('Origin',(-6.08009354338782E-13,-3.40393401055299E-16,
-5.70914007424598));
#586=CARTESIAN_POINT('',(-11.1180922137653,-1.3615736042212E-15,-5.91044309574371));
#587=CARTESIAN_POINT('',(11.118092213764,-1.3615736042212E-15,-5.91044309574608));
#588=CARTESIAN_POINT('Origin',(-6.29496454962464E-13,-6.80786802110598E-16,
-5.91044309574489));
#589=CARTESIAN_POINT('Origin',(-6.29496454962464E-13,-6.80786802110598E-16,
-5.91044309574489));
#590=CARTESIAN_POINT('',(-11.400000000001,1.39609735102803E-15,-5.50783705274586));
#591=CARTESIAN_POINT('',(-11.2590461068831,1.37883547762461E-15,-5.70914007424478));
#592=CARTESIAN_POINT('',(11.3999999999998,-1.39609735102803E-15,-5.50783705274828));
#593=CARTESIAN_POINT('Origin',(-5.865222537151E-13,0.,-5.50783705274707));
#594=CARTESIAN_POINT('Origin',(-5.865222537151E-13,0.,-5.50783705274707));
#595=CARTESIAN_POINT('Origin',(-5.5616169195913E-13,0.,-5.22273103004707));
#596=CARTESIAN_POINT('',(11.3999999999999,-1.39609735102803E-15,-4.93762500734828));
#597=CARTESIAN_POINT('',(11.3999999999998,-1.39609735102803E-15,-5.22273103004829));
#598=CARTESIAN_POINT('',(-11.4000000000009,-1.39609735102803E-15,-4.93762500734586));
#599=CARTESIAN_POINT('Origin',(-5.25801130203159E-13,0.,-4.93762500734707));
#600=CARTESIAN_POINT('Origin',(-5.25801130203159E-13,0.,-4.93762500734707));
#601=CARTESIAN_POINT('Origin',(-6.82036425002982E-13,0.,-6.4047791352505));
#602=CARTESIAN_POINT('',(8.11983021520327,-9.94392408266956E-16,-7.00172121775479));
#603=CARTESIAN_POINT('Origin',(-7.45603994670402E-13,0.,-7.00172121775392));
#604=CARTESIAN_POINT('',(9.7599151076015,-1.19524487964749E-15,-6.40477913525153));
#605=CARTESIAN_POINT('Origin',(-5.04374072957551E-13,-3.403934010553E-16,
-4.73632198584822));
#606=CARTESIAN_POINT('',(-11.1180922137651,1.3615736042212E-15,-4.53501896434819));
#607=CARTESIAN_POINT('',(-11.259046106883,1.37883547762461E-15,-4.73632198584702));
#608=CARTESIAN_POINT('',(11.1180922137642,-1.3615736042212E-15,-4.53501896435055));
#609=CARTESIAN_POINT('Origin',(-4.82947015711943E-13,-6.80786802110599E-16,
-4.53501896434937));
#610=CARTESIAN_POINT('Origin',(-4.82947015711943E-13,-6.80786802110599E-16,
-4.53501896434937));
#611=CARTESIAN_POINT('Origin',(-4.30286958915359E-13,0.,-4.04068292484441));
#612=CARTESIAN_POINT('',(8.11983021520357,-9.94392408266946E-16,-3.44374084234262));
#613=CARTESIAN_POINT('',(9.75991510760174,-1.19524487964749E-15,-4.04068292484545));
#614=CARTESIAN_POINT('Origin',(-3.66719389248021E-13,0.,-3.44374084234176));
#615=CARTESIAN_POINT('Origin',(-1.49380376019558E-13,-3.0883738195259E-16,
-1.40130301929172));
#616=CARTESIAN_POINT('',(-10.0873944117641,-1.23534952781036E-15,-1.60260604078923));
#617=CARTESIAN_POINT('',(10.0873944117638,-1.23534952781036E-15,-1.60260604079137));
#618=CARTESIAN_POINT('Origin',(-1.70974345792274E-13,-6.17674763905181E-16,
-1.6026060407903));
#619=CARTESIAN_POINT('Origin',(-1.70974345792274E-13,-6.17674763905181E-16,
-1.6026060407903));
#620=CARTESIAN_POINT('',(-10.3693021980001,1.26987327461723E-15,-1.19999999779204));
#621=CARTESIAN_POINT('',(-10.2283483048821,1.25261140121379E-15,-1.40130301929063));
#622=CARTESIAN_POINT('',(10.3693021979998,-1.26987327461723E-15,-1.19999999779425));
#623=CARTESIAN_POINT('Origin',(-1.27786406246843E-13,0.,-1.19999999779314));
#624=CARTESIAN_POINT('Origin',(-1.27786406246843E-13,0.,-1.19999999779314));
#625=CARTESIAN_POINT('Origin',(-7.98665038717156E-14,0.,-0.749999998314944));
#626=CARTESIAN_POINT('',(10.3693021979999,-1.26987327461723E-15,-0.299999998837849));
#627=CARTESIAN_POINT('',(10.3693021979999,-1.26987327461723E-15,-0.749999998316048));
#628=CARTESIAN_POINT('',(-10.369302198,-1.26987327461723E-15,-0.299999998835642));
#629=CARTESIAN_POINT('Origin',(-3.19466014965886E-14,0.,-0.299999998836746));
#630=CARTESIAN_POINT('Origin',(-3.19466014965886E-14,0.,-0.299999998836746));
#631=CARTESIAN_POINT('Origin',(-2.03326320519297E-13,0.,-1.90937042006745));
#632=CARTESIAN_POINT('',(8.11983021520367,-9.94392408266945E-16,-2.31874084234262));
#633=CARTESIAN_POINT('Origin',(-2.46919633171288E-13,0.,-2.31874084234176));
#634=CARTESIAN_POINT('',(9.24456620660171,-1.13213284144208E-15,-1.90937042006843));
#635=CARTESIAN_POINT('Origin',(-1.59733006863576E-14,0.,-0.149999998836746));
#636=CARTESIAN_POINT('',(-10.069302198,1.23313387064281E-15,1.16432665526722E-9));
#637=CARTESIAN_POINT('',(-10.219302198,1.25150357263002E-15,-0.149999998835658));
#638=CARTESIAN_POINT('Origin',(1.23873415885835E-22,0.,1.16325438864751E-9));
#639=CARTESIAN_POINT('Origin',(-10.369302198,0.,1.16435862241245E-9));
#640=CARTESIAN_POINT('',(6.55000000089843,-8.02143653551542E-16,1.16296389185422E-9));
#641=CARTESIAN_POINT('Origin',(1.23916732238141E-22,0.,1.16366111191368E-9));
#642=CARTESIAN_POINT('Origin',(-3.06819511209655E-13,0.,-2.88124084234176));
#643=CARTESIAN_POINT('',(8.11983021520362,-9.94392408266945E-16,-2.88124084234262));
#644=CARTESIAN_POINT('Origin',(-8.41677787890916E-13,0.,-7.90391852526639));
#645=CARTESIAN_POINT('',(8.11983021520316,-9.94392408266955E-16,-7.90391852526725));
#646=CARTESIAN_POINT('Origin',(-1.08618445509573E-12,0.,-10.2000000000003));
#647=CARTESIAN_POINT('',(6.5499999963157,-8.02143652990427E-16,-8.20000000000085));
#648=CARTESIAN_POINT('',(6.54999999631549,-8.02143652990427E-16,-10.200000000001));
#649=CARTESIAN_POINT('Origin',(-8.7320711095931E-13,0.,-8.20000000000015));
#650=CARTESIAN_POINT('Origin',(-5.00000000000087,0.,-8.19999999999962));
#651=CARTESIAN_POINT('',(4.99999999999913,-6.12323399573677E-16,-8.20000000000068));
#652=CARTESIAN_POINT('Origin',(-8.7320711095931E-13,0.,-8.20000000000015));
#653=CARTESIAN_POINT('Origin',(-6.49580899554109E-13,0.,-6.09999999941823));
#654=CARTESIAN_POINT('',(4.99999999999957,-6.12323399573677E-16,-3.99999999883684));
#655=CARTESIAN_POINT('',(4.99999999999935,-6.12323399573677E-16,-6.09999999941876));
#656=CARTESIAN_POINT('Origin',(-4.25954688148907E-13,0.,-3.99999999883631));
#657=CARTESIAN_POINT('Origin',(-6.55000000000043,0.,-3.99999999883564));
#658=CARTESIAN_POINT('',(6.550000000898,-8.02143653551542E-16,-3.99999999883704));
#659=CARTESIAN_POINT('Origin',(-4.2595468814891E-13,0.,-3.99999999883634));
#660=CARTESIAN_POINT('Origin',(-2.12977344012497E-13,0.,-1.99999999883634));
#661=CARTESIAN_POINT('',(6.55000000089821,-8.02143653551542E-16,-1.99999999883704));
#662=UNCERTAINTY_MEASURE_WITH_UNIT(LENGTH_MEASURE(0.01),#666,
'DISTANCE_ACCURACY_VALUE',
'Maximum model space distance between geometric entities at asserted c
onnectivities');
#663=UNCERTAINTY_MEASURE_WITH_UNIT(LENGTH_MEASURE(0.01),#666,
'DISTANCE_ACCURACY_VALUE',
'Maximum model space distance between geometric entities at asserted c
onnectivities');
#664=(
GEOMETRIC_REPRESENTATION_CONTEXT(3)
GLOBAL_UNCERTAINTY_ASSIGNED_CONTEXT((#662))
GLOBAL_UNIT_ASSIGNED_CONTEXT((#666,#668,#669))
REPRESENTATION_CONTEXT('','3D')
);
#665=(
GEOMETRIC_REPRESENTATION_CONTEXT(3)
GLOBAL_UNCERTAINTY_ASSIGNED_CONTEXT((#663))
GLOBAL_UNIT_ASSIGNED_CONTEXT((#666,#668,#669))
REPRESENTATION_CONTEXT('','3D')
);
#666=(
LENGTH_UNIT()
NAMED_UNIT(*)
SI_UNIT(.MILLI.,.METRE.)
);
#667=(
LENGTH_UNIT()
NAMED_UNIT(*)
SI_UNIT($,.METRE.)
);
#668=(
NAMED_UNIT(*)
PLANE_ANGLE_UNIT()
SI_UNIT($,.RADIAN.)
);
#669=(
NAMED_UNIT(*)
SI_UNIT($,.STERADIAN.)
SOLID_ANGLE_UNIT()
);
#670=SHAPE_DEFINITION_REPRESENTATION(#671,#672);
#671=PRODUCT_DEFINITION_SHAPE('',$,#674);
#672=SHAPE_REPRESENTATION('',(#374),#664);
#673=PRODUCT_DEFINITION_CONTEXT('part definition',#678,'design');
#674=PRODUCT_DEFINITION('DoublePulley_08','DoublePulley_08',#675,#673);
#675=PRODUCT_DEFINITION_FORMATION('',$,#680);
#676=PRODUCT_RELATED_PRODUCT_CATEGORY('DoublePulley_08',
'DoublePulley_08',(#680));
#677=APPLICATION_PROTOCOL_DEFINITION('international standard',
'automotive_design',2009,#678);
#678=APPLICATION_CONTEXT(
'Core Data for Automotive Mechanical Design Process');
#679=PRODUCT_CONTEXT('part definition',#678,'mechanical');
#680=PRODUCT('DoublePulley_08','DoublePulley_08',$,(#679));
#681=PRESENTATION_STYLE_ASSIGNMENT((#682));
#682=SURFACE_STYLE_USAGE(.BOTH.,#683);
#683=SURFACE_SIDE_STYLE('',(#684));
#684=SURFACE_STYLE_FILL_AREA(#685);
#685=FILL_AREA_STYLE('Paint - Enamel Glossy (Green)',(#686));
#686=FILL_AREA_STYLE_COLOUR('Paint - Enamel Glossy (Green)',#687);
#687=COLOUR_RGB('Paint - Enamel Glossy (Green)',0.266666666666667,0.588235294117647,
0.282352941176471);
ENDSEC;
END-ISO-10303-21;
