ISO-10303-21;
HEADER;
/* Generated by software containing ST-Developer
 * from STEP Tools, Inc. (www.steptools.com) 
 */

FILE_DESCRIPTION(
/* description */ (''),
/* implementation_level */ '2;1');

FILE_NAME(
/* name */ 'Idler_5mm.step',
/* time_stamp */ '2026-03-03T14:34:19-08:00',
/* author */ (''),
/* organization */ (''),
/* preprocessor_version */ 'ST-DEVELOPER v20.1',
/* originating_system */ 'Autodesk Translation Framework v14.24.0.0',
/* authorisation */ '');

FILE_SCHEMA (('AUTOMOTIVE_DESIGN { 1 0 10303 214 3 1 1 }'));
ENDSEC;

DATA;
#10=MECHANICAL_DESIGN_GEOMETRIC_PRESENTATION_REPRESENTATION('',(#13),#400);
#11=SHAPE_REPRESENTATION_RELATIONSHIP('SRR','None',#407,#12);
#12=ADVANCED_BREP_SHAPE_REPRESENTATION('',(#14),#399);
#13=STYLED_ITEM('',(#416),#14);
#14=MANIFOLD_SOLID_BREP('Body1',#211);
#15=CONICAL_SURFACE('',#236,10.8033384175761,1.22173047640251);
#16=CONICAL_SURFACE('',#244,10.8033384175782,1.22173047639674);
#17=CONICAL_SURFACE('',#259,5.46590909091361,0.785398163405665);
#18=FACE_BOUND('',#60,.T.);
#19=FACE_BOUND('',#68,.T.);
#20=FACE_BOUND('',#72,.T.);
#21=PLANE('',#231);
#22=PLANE('',#249);
#23=PLANE('',#255);
#24=LINE('',#348,#31);
#25=LINE('',#359,#32);
#26=LINE('',#369,#33);
#27=LINE('',#374,#34);
#28=LINE('',#386,#35);
#29=LINE('',#393,#36);
#30=LINE('',#396,#37);
#31=VECTOR('',#272,11.4999999999806);
#32=VECTOR('',#287,10.8033384175761);
#33=VECTOR('',#300,11.4999999999842);
#34=VECTOR('',#307,10.8033384175782);
#35=VECTOR('',#324,6.49999999999599);
#36=VECTOR('',#333,5.09090909090364);
#37=VECTOR('',#338,5.46590909091361);
#38=CYLINDRICAL_SURFACE('',#229,11.4999999999806);
#39=CYLINDRICAL_SURFACE('',#242,11.4999999999842);
#40=CYLINDRICAL_SURFACE('',#253,6.49999999999599);
#41=CYLINDRICAL_SURFACE('',#257,5.09090909090364);
#42=FACE_OUTER_BOUND('',#57,.T.);
#43=FACE_OUTER_BOUND('',#58,.T.);
#44=FACE_OUTER_BOUND('',#59,.T.);
#45=FACE_OUTER_BOUND('',#61,.T.);
#46=FACE_OUTER_BOUND('',#62,.T.);
#47=FACE_OUTER_BOUND('',#63,.T.);
#48=FACE_OUTER_BOUND('',#64,.T.);
#49=FACE_OUTER_BOUND('',#65,.T.);
#50=FACE_OUTER_BOUND('',#66,.T.);
#51=FACE_OUTER_BOUND('',#67,.T.);
#52=FACE_OUTER_BOUND('',#69,.T.);
#53=FACE_OUTER_BOUND('',#70,.T.);
#54=FACE_OUTER_BOUND('',#71,.T.);
#55=FACE_OUTER_BOUND('',#73,.T.);
#56=FACE_OUTER_BOUND('',#74,.T.);
#57=EDGE_LOOP('',(#137,#138,#139,#140));
#58=EDGE_LOOP('',(#141,#142,#143,#144));
#59=EDGE_LOOP('',(#145));
#60=EDGE_LOOP('',(#146));
#61=EDGE_LOOP('',(#147,#148,#149,#150));
#62=EDGE_LOOP('',(#151,#152,#153,#154));
#63=EDGE_LOOP('',(#155,#156,#157,#158));
#64=EDGE_LOOP('',(#159,#160,#161,#162));
#65=EDGE_LOOP('',(#163,#164,#165,#166));
#66=EDGE_LOOP('',(#167,#168,#169,#170));
#67=EDGE_LOOP('',(#171));
#68=EDGE_LOOP('',(#172));
#69=EDGE_LOOP('',(#173,#174,#175,#176));
#70=EDGE_LOOP('',(#177,#178,#179,#180));
#71=EDGE_LOOP('',(#181));
#72=EDGE_LOOP('',(#182));
#73=EDGE_LOOP('',(#183,#184,#185,#186));
#74=EDGE_LOOP('',(#187,#188,#189,#190));
#75=CIRCLE('',#226,11.0619999999806);
#76=CIRCLE('',#227,0.438);
#77=CIRCLE('',#228,11.4999999999806);
#78=CIRCLE('',#230,11.4999999999806);
#79=CIRCLE('',#232,6.49999999999463);
#80=CIRCLE('',#234,0.438);
#81=CIRCLE('',#235,11.2118048227545);
#82=CIRCLE('',#237,10.1066768351712);
#83=CIRCLE('',#239,11.2118048227605);
#84=CIRCLE('',#240,0.438);
#85=CIRCLE('',#241,11.4999999999842);
#86=CIRCLE('',#243,11.4999999999842);
#87=CIRCLE('',#245,10.1066768351727);
#88=CIRCLE('',#247,0.438);
#89=CIRCLE('',#248,11.0619999999842);
#90=CIRCLE('',#250,5.84090909091968);
#91=CIRCLE('',#252,1.15);
#92=CIRCLE('',#254,6.49999999999735);
#93=CIRCLE('',#256,5.09090909089975);
#94=CIRCLE('',#258,5.09090909090753);
#95=VERTEX_POINT('',#341);
#96=VERTEX_POINT('',#343);
#97=VERTEX_POINT('',#347);
#98=VERTEX_POINT('',#351);
#99=VERTEX_POINT('',#354);
#100=VERTEX_POINT('',#358);
#101=VERTEX_POINT('',#362);
#102=VERTEX_POINT('',#364);
#103=VERTEX_POINT('',#368);
#104=VERTEX_POINT('',#372);
#105=VERTEX_POINT('',#376);
#106=VERTEX_POINT('',#380);
#107=VERTEX_POINT('',#385);
#108=VERTEX_POINT('',#389);
#109=VERTEX_POINT('',#392);
#110=EDGE_CURVE('',#95,#95,#75,.T.);
#111=EDGE_CURVE('',#95,#96,#76,.T.);
#112=EDGE_CURVE('',#96,#96,#77,.T.);
#113=EDGE_CURVE('',#96,#97,#24,.T.);
#114=EDGE_CURVE('',#97,#97,#78,.T.);
#115=EDGE_CURVE('',#98,#98,#79,.T.);
#116=EDGE_CURVE('',#97,#99,#80,.T.);
#117=EDGE_CURVE('',#99,#99,#81,.T.);
#118=EDGE_CURVE('',#99,#100,#25,.T.);
#119=EDGE_CURVE('',#100,#100,#82,.T.);
#120=EDGE_CURVE('',#101,#101,#83,.T.);
#121=EDGE_CURVE('',#101,#102,#84,.T.);
#122=EDGE_CURVE('',#102,#102,#85,.T.);
#123=EDGE_CURVE('',#102,#103,#26,.T.);
#124=EDGE_CURVE('',#103,#103,#86,.T.);
#125=EDGE_CURVE('',#104,#104,#87,.T.);
#126=EDGE_CURVE('',#104,#101,#27,.T.);
#127=EDGE_CURVE('',#103,#105,#88,.T.);
#128=EDGE_CURVE('',#105,#105,#89,.T.);
#129=EDGE_CURVE('',#106,#106,#90,.T.);
#130=EDGE_CURVE('',#104,#100,#91,.T.);
#131=EDGE_CURVE('',#98,#107,#28,.T.);
#132=EDGE_CURVE('',#107,#107,#92,.T.);
#133=EDGE_CURVE('',#108,#108,#93,.T.);
#134=EDGE_CURVE('',#108,#109,#29,.T.);
#135=EDGE_CURVE('',#109,#109,#94,.T.);
#136=EDGE_CURVE('',#109,#106,#30,.T.);
#137=ORIENTED_EDGE('',*,*,#110,.T.);
#138=ORIENTED_EDGE('',*,*,#111,.T.);
#139=ORIENTED_EDGE('',*,*,#112,.T.);
#140=ORIENTED_EDGE('',*,*,#111,.F.);
#141=ORIENTED_EDGE('',*,*,#112,.F.);
#142=ORIENTED_EDGE('',*,*,#113,.T.);
#143=ORIENTED_EDGE('',*,*,#114,.F.);
#144=ORIENTED_EDGE('',*,*,#113,.F.);
#145=ORIENTED_EDGE('',*,*,#110,.F.);
#146=ORIENTED_EDGE('',*,*,#115,.F.);
#147=ORIENTED_EDGE('',*,*,#114,.T.);
#148=ORIENTED_EDGE('',*,*,#116,.T.);
#149=ORIENTED_EDGE('',*,*,#117,.T.);
#150=ORIENTED_EDGE('',*,*,#116,.F.);
#151=ORIENTED_EDGE('',*,*,#117,.F.);
#152=ORIENTED_EDGE('',*,*,#118,.T.);
#153=ORIENTED_EDGE('',*,*,#119,.T.);
#154=ORIENTED_EDGE('',*,*,#118,.F.);
#155=ORIENTED_EDGE('',*,*,#120,.T.);
#156=ORIENTED_EDGE('',*,*,#121,.T.);
#157=ORIENTED_EDGE('',*,*,#122,.T.);
#158=ORIENTED_EDGE('',*,*,#121,.F.);
#159=ORIENTED_EDGE('',*,*,#122,.F.);
#160=ORIENTED_EDGE('',*,*,#123,.T.);
#161=ORIENTED_EDGE('',*,*,#124,.F.);
#162=ORIENTED_EDGE('',*,*,#123,.F.);
#163=ORIENTED_EDGE('',*,*,#125,.F.);
#164=ORIENTED_EDGE('',*,*,#126,.T.);
#165=ORIENTED_EDGE('',*,*,#120,.F.);
#166=ORIENTED_EDGE('',*,*,#126,.F.);
#167=ORIENTED_EDGE('',*,*,#124,.T.);
#168=ORIENTED_EDGE('',*,*,#127,.T.);
#169=ORIENTED_EDGE('',*,*,#128,.T.);
#170=ORIENTED_EDGE('',*,*,#127,.F.);
#171=ORIENTED_EDGE('',*,*,#128,.F.);
#172=ORIENTED_EDGE('',*,*,#129,.T.);
#173=ORIENTED_EDGE('',*,*,#125,.T.);
#174=ORIENTED_EDGE('',*,*,#130,.T.);
#175=ORIENTED_EDGE('',*,*,#119,.F.);
#176=ORIENTED_EDGE('',*,*,#130,.F.);
#177=ORIENTED_EDGE('',*,*,#115,.T.);
#178=ORIENTED_EDGE('',*,*,#131,.T.);
#179=ORIENTED_EDGE('',*,*,#132,.F.);
#180=ORIENTED_EDGE('',*,*,#131,.F.);
#181=ORIENTED_EDGE('',*,*,#132,.T.);
#182=ORIENTED_EDGE('',*,*,#133,.F.);
#183=ORIENTED_EDGE('',*,*,#133,.T.);
#184=ORIENTED_EDGE('',*,*,#134,.T.);
#185=ORIENTED_EDGE('',*,*,#135,.F.);
#186=ORIENTED_EDGE('',*,*,#134,.F.);
#187=ORIENTED_EDGE('',*,*,#135,.T.);
#188=ORIENTED_EDGE('',*,*,#136,.T.);
#189=ORIENTED_EDGE('',*,*,#129,.F.);
#190=ORIENTED_EDGE('',*,*,#136,.F.);
#191=TOROIDAL_SURFACE('',#225,11.0619999999806,0.438);
#192=TOROIDAL_SURFACE('',#233,11.0619999999806,0.438);
#193=TOROIDAL_SURFACE('',#238,11.0619999999842,0.438);
#194=TOROIDAL_SURFACE('',#246,11.0619999999842,0.438);
#195=TOROIDAL_SURFACE('',#251,10.4999999999965,1.15);
#196=ADVANCED_FACE('',(#42),#191,.T.);
#197=ADVANCED_FACE('',(#43),#38,.T.);
#198=ADVANCED_FACE('',(#44,#18),#21,.T.);
#199=ADVANCED_FACE('',(#45),#192,.T.);
#200=ADVANCED_FACE('',(#46),#15,.T.);
#201=ADVANCED_FACE('',(#47),#193,.T.);
#202=ADVANCED_FACE('',(#48),#39,.T.);
#203=ADVANCED_FACE('',(#49),#16,.T.);
#204=ADVANCED_FACE('',(#50),#194,.T.);
#205=ADVANCED_FACE('',(#51,#19),#22,.T.);
#206=ADVANCED_FACE('',(#52),#195,.F.);
#207=ADVANCED_FACE('',(#53),#40,.F.);
#208=ADVANCED_FACE('',(#54,#20),#23,.T.);
#209=ADVANCED_FACE('',(#55),#41,.F.);
#210=ADVANCED_FACE('',(#56),#17,.F.);
#211=CLOSED_SHELL('',(#196,#197,#198,#199,#200,#201,#202,#203,#204,#205,
#206,#207,#208,#209,#210));
#212=DERIVED_UNIT_ELEMENT(#214,1.);
#213=DERIVED_UNIT_ELEMENT(#402,-3.);
#214=(
MASS_UNIT()
NAMED_UNIT(*)
SI_UNIT(.KILO.,.GRAM.)
);
#215=DERIVED_UNIT((#212,#213));
#216=MEASURE_REPRESENTATION_ITEM('density measure',
POSITIVE_RATIO_MEASURE(7850.),#215);
#217=PROPERTY_DEFINITION_REPRESENTATION(#222,#219);
#218=PROPERTY_DEFINITION_REPRESENTATION(#223,#220);
#219=REPRESENTATION('material name',(#221),#399);
#220=REPRESENTATION('density',(#216),#399);
#221=DESCRIPTIVE_REPRESENTATION_ITEM('Steel','Steel');
#222=PROPERTY_DEFINITION('material property','material name',#409);
#223=PROPERTY_DEFINITION('material property','density of part',#409);
#224=AXIS2_PLACEMENT_3D('',#339,#260,#261);
#225=AXIS2_PLACEMENT_3D('',#340,#262,#263);
#226=AXIS2_PLACEMENT_3D('',#342,#264,#265);
#227=AXIS2_PLACEMENT_3D('',#344,#266,#267);
#228=AXIS2_PLACEMENT_3D('',#345,#268,#269);
#229=AXIS2_PLACEMENT_3D('',#346,#270,#271);
#230=AXIS2_PLACEMENT_3D('',#349,#273,#274);
#231=AXIS2_PLACEMENT_3D('',#350,#275,#276);
#232=AXIS2_PLACEMENT_3D('',#352,#277,#278);
#233=AXIS2_PLACEMENT_3D('',#353,#279,#280);
#234=AXIS2_PLACEMENT_3D('',#355,#281,#282);
#235=AXIS2_PLACEMENT_3D('',#356,#283,#284);
#236=AXIS2_PLACEMENT_3D('',#357,#285,#286);
#237=AXIS2_PLACEMENT_3D('',#360,#288,#289);
#238=AXIS2_PLACEMENT_3D('',#361,#290,#291);
#239=AXIS2_PLACEMENT_3D('',#363,#292,#293);
#240=AXIS2_PLACEMENT_3D('',#365,#294,#295);
#241=AXIS2_PLACEMENT_3D('',#366,#296,#297);
#242=AXIS2_PLACEMENT_3D('',#367,#298,#299);
#243=AXIS2_PLACEMENT_3D('',#370,#301,#302);
#244=AXIS2_PLACEMENT_3D('',#371,#303,#304);
#245=AXIS2_PLACEMENT_3D('',#373,#305,#306);
#246=AXIS2_PLACEMENT_3D('',#375,#308,#309);
#247=AXIS2_PLACEMENT_3D('',#377,#310,#311);
#248=AXIS2_PLACEMENT_3D('',#378,#312,#313);
#249=AXIS2_PLACEMENT_3D('',#379,#314,#315);
#250=AXIS2_PLACEMENT_3D('',#381,#316,#317);
#251=AXIS2_PLACEMENT_3D('',#382,#318,#319);
#252=AXIS2_PLACEMENT_3D('',#383,#320,#321);
#253=AXIS2_PLACEMENT_3D('',#384,#322,#323);
#254=AXIS2_PLACEMENT_3D('',#387,#325,#326);
#255=AXIS2_PLACEMENT_3D('',#388,#327,#328);
#256=AXIS2_PLACEMENT_3D('',#390,#329,#330);
#257=AXIS2_PLACEMENT_3D('',#391,#331,#332);
#258=AXIS2_PLACEMENT_3D('',#394,#334,#335);
#259=AXIS2_PLACEMENT_3D('',#395,#336,#337);
#260=DIRECTION('axis',(0.,0.,1.));
#261=DIRECTION('refdir',(1.,0.,0.));
#262=DIRECTION('center_axis',(1.,0.,-6.97856601983454E-13));
#263=DIRECTION('ref_axis',(-6.97876539167296E-13,0.,-1.));
#264=DIRECTION('center_axis',(-1.,0.,6.97856601983454E-13));
#265=DIRECTION('ref_axis',(6.97856601983454E-13,1.22464679914735E-16,1.));
#266=DIRECTION('center_axis',(-8.54627853882885E-29,-1.,-1.22464679914735E-16));
#267=DIRECTION('ref_axis',(6.97799306261235E-13,-1.22464679914735E-16,1.));
#268=DIRECTION('center_axis',(1.,0.,-6.97856601983454E-13));
#269=DIRECTION('ref_axis',(6.97853610648339E-13,1.22464679914735E-16,1.));
#270=DIRECTION('center_axis',(1.,0.,-6.97856601983454E-13));
#271=DIRECTION('ref_axis',(-6.97837137465119E-13,0.,-1.));
#272=DIRECTION('',(-1.,0.,6.97856601983454E-13));
#273=DIRECTION('center_axis',(-1.,0.,6.97856601983454E-13));
#274=DIRECTION('ref_axis',(6.97856627558673E-13,1.22464679914735E-16,1.));
#275=DIRECTION('center_axis',(1.,0.,-6.97856601983454E-13));
#276=DIRECTION('ref_axis',(-6.97856601983454E-13,0.,-1.));
#277=DIRECTION('center_axis',(1.,0.,-6.97856601983454E-13));
#278=DIRECTION('ref_axis',(-6.97856601983454E-13,0.,-1.));
#279=DIRECTION('center_axis',(1.,0.,-6.97856601983454E-13));
#280=DIRECTION('ref_axis',(-6.97876539167296E-13,0.,-1.));
#281=DIRECTION('center_axis',(-8.54627853882885E-29,-1.,-1.22464679914735E-16));
#282=DIRECTION('ref_axis',(6.97799306261235E-13,-1.22464679914735E-16,1.));
#283=DIRECTION('center_axis',(1.,-6.87339989686914E-29,-6.97713843147956E-13));
#284=DIRECTION('ref_axis',(6.97713843147956E-13,0.,1.));
#285=DIRECTION('center_axis',(1.,0.,-6.97856601983454E-13));
#286=DIRECTION('ref_axis',(-6.97837137465119E-13,0.,-1.));
#287=DIRECTION('',(-0.342020143320236,1.15079156023056E-16,-0.939692620787886));
#288=DIRECTION('center_axis',(1.,0.,-6.97856601983454E-13));
#289=DIRECTION('ref_axis',(-6.97856601983454E-13,0.,-1.));
#290=DIRECTION('center_axis',(1.,0.,-6.97856601983454E-13));
#291=DIRECTION('ref_axis',(-6.97876539167076E-13,0.,-1.));
#292=DIRECTION('center_axis',(-1.,1.33224999322464E-29,6.97812865833241E-13));
#293=DIRECTION('ref_axis',(6.97812865833241E-13,2.19874531155876E-32,1.));
#294=DIRECTION('center_axis',(-8.54627853882885E-29,-1.,-1.22464679914735E-16));
#295=DIRECTION('ref_axis',(6.97895847393591E-13,-1.22464679914735E-16,1.));
#296=DIRECTION('center_axis',(1.,0.,-6.97856601983454E-13));
#297=DIRECTION('ref_axis',(6.97856627558512E-13,1.22464679914735E-16,1.));
#298=DIRECTION('center_axis',(1.,0.,-6.97856601983454E-13));
#299=DIRECTION('ref_axis',(-6.97837137465118E-13,0.,-1.));
#300=DIRECTION('',(-1.,0.,6.97856601983454E-13));
#301=DIRECTION('center_axis',(-1.,0.,6.97856601983454E-13));
#302=DIRECTION('ref_axis',(6.9785361064806E-13,1.22464679914735E-16,1.));
#303=DIRECTION('center_axis',(-1.,0.,6.97856601983454E-13));
#304=DIRECTION('ref_axis',(-6.97837137465119E-13,0.,-1.));
#305=DIRECTION('center_axis',(1.,0.,-6.97856601983454E-13));
#306=DIRECTION('ref_axis',(-6.97856601983454E-13,0.,-1.));
#307=DIRECTION('',(-0.342020143324346,-1.15079156022815E-16,0.93969262078639));
#308=DIRECTION('center_axis',(1.,0.,-6.97856601983454E-13));
#309=DIRECTION('ref_axis',(-6.97876539167076E-13,0.,-1.));
#310=DIRECTION('center_axis',(-8.54627853882885E-29,-1.,-1.22464679914735E-16));
#311=DIRECTION('ref_axis',(6.97895847393591E-13,-1.22464679914735E-16,1.));
#312=DIRECTION('center_axis',(1.,0.,-6.97856601983454E-13));
#313=DIRECTION('ref_axis',(6.97856601983454E-13,1.22464679914735E-16,1.));
#314=DIRECTION('center_axis',(-1.,0.,6.97856601983454E-13));
#315=DIRECTION('ref_axis',(6.97856601983454E-13,0.,1.));
#316=DIRECTION('center_axis',(1.,0.,-6.97856601983454E-13));
#317=DIRECTION('ref_axis',(-6.97856601983454E-13,0.,-1.));
#318=DIRECTION('center_axis',(1.,0.,-6.97856601983454E-13));
#319=DIRECTION('ref_axis',(-6.97887146260721E-13,0.,-1.));
#320=DIRECTION('center_axis',(-8.54627853882885E-29,-1.,-1.22464679914735E-16));
#321=DIRECTION('ref_axis',(6.97868086637981E-13,-1.22464679914735E-16,1.));
#322=DIRECTION('center_axis',(1.,0.,-6.97856601983454E-13));
#323=DIRECTION('ref_axis',(-6.97837137465119E-13,0.,-1.));
#324=DIRECTION('',(-1.,0.,6.97856601983454E-13));
#325=DIRECTION('center_axis',(1.,0.,-6.97856601983454E-13));
#326=DIRECTION('ref_axis',(-6.97856601983454E-13,0.,-1.));
#327=DIRECTION('center_axis',(1.,0.,-6.97856601983454E-13));
#328=DIRECTION('ref_axis',(-6.97856601983454E-13,0.,-1.));
#329=DIRECTION('center_axis',(1.,0.,-6.97856601983454E-13));
#330=DIRECTION('ref_axis',(-6.97856601983454E-13,0.,-1.));
#331=DIRECTION('center_axis',(1.,0.,-6.97856601983454E-13));
#332=DIRECTION('ref_axis',(-6.97837137465119E-13,0.,-1.));
#333=DIRECTION('',(-1.,0.,6.97856601983454E-13));
#334=DIRECTION('center_axis',(1.,0.,-6.97856601983454E-13));
#335=DIRECTION('ref_axis',(-6.97856601983454E-13,0.,-1.));
#336=DIRECTION('center_axis',(-1.,0.,6.97856601983454E-13));
#337=DIRECTION('ref_axis',(-6.97837137465118E-13,0.,-1.));
#338=DIRECTION('',(-0.707106781180244,-8.65956056242609E-17,0.707106781192851));
#339=CARTESIAN_POINT('',(0.,0.,0.));
#340=CARTESIAN_POINT('Origin',(11.8120000000046,0.,-5.13677072321134E-12));
#341=CARTESIAN_POINT('',(12.2500000000123,-1.35470428921442E-15,11.0619999999751));
#342=CARTESIAN_POINT('Origin',(12.2500000000046,0.,-5.44243191488009E-12));
#343=CARTESIAN_POINT('',(11.8120000000126,-1.40834381901707E-15,11.4999999999754));
#344=CARTESIAN_POINT('Origin',(11.8120000000123,-1.35470428921442E-15,11.0619999999754));
#345=CARTESIAN_POINT('Origin',(11.8120000000046,0.,-5.13677072321134E-12));
#346=CARTESIAN_POINT('Origin',(11.6688873363065,0.,-5.03689860602224E-12));
#347=CARTESIAN_POINT('',(11.3944655743508,-1.40834381901707E-15,11.4999999999757));
#348=CARTESIAN_POINT('',(11.6688873363146,-1.40834381901707E-15,11.4999999999755));
#349=CARTESIAN_POINT('Origin',(11.3944655743428,0.,-4.84539156770792E-12));
#350=CARTESIAN_POINT('Origin',(12.25,0.,-6.50000000000007));
#351=CARTESIAN_POINT('',(12.2500000000091,-7.96020419445288E-16,6.49999999999055));
#352=CARTESIAN_POINT('Origin',(12.2500000000046,0.,-5.44243191488009E-12));
#353=CARTESIAN_POINT('Origin',(11.3944655743428,0.,-4.84539156770792E-12));
#354=CARTESIAN_POINT('',(10.9828802064454,-1.37305008888512E-15,11.21180482275));
#355=CARTESIAN_POINT('Origin',(11.3944655743505,-1.35470428921442E-15,11.0619999999757));
#356=CARTESIAN_POINT('Origin',(10.9828802064376,-1.37305008888512E-15,-4.55746551608627E-12));
#357=CARTESIAN_POINT('Origin',(10.8342105932579,0.,-4.45441393036373E-12));
#358=CARTESIAN_POINT('',(10.5806465139179,-1.23771094362091E-15,10.1066768351669));
#359=CARTESIAN_POINT('',(10.8342105932655,-1.32302738131902E-15,10.8033384175717));
#360=CARTESIAN_POINT('Origin',(10.5806465139109,0.,-4.27746256356552E-12));
#361=CARTESIAN_POINT('Origin',(7.60553442566337,0.,-2.20126095114122E-12));
#362=CARTESIAN_POINT('',(8.01711979357553,-1.37305008888585E-15,11.211804822758));
#363=CARTESIAN_POINT('Origin',(8.0171197935677,-1.37305008888585E-15,-2.48689957516035E-12));
#364=CARTESIAN_POINT('',(7.6055344256714,-1.40834381901752E-15,11.499999999982));
#365=CARTESIAN_POINT('Origin',(7.60553442567109,-1.35470428921486E-15,11.061999999982));
#366=CARTESIAN_POINT('Origin',(7.60553442566337,0.,-2.20126095114122E-12));
#367=CARTESIAN_POINT('Origin',(7.33111266370383,0.,-2.00975391282982E-12));
#368=CARTESIAN_POINT('',(7.18800000001606,-1.40834381901752E-15,11.4999999999823));
#369=CARTESIAN_POINT('',(7.33111266371186,-1.40834381901752E-15,11.4999999999822));
#370=CARTESIAN_POINT('Origin',(7.18800000000803,0.,-1.90988179564227E-12));
#371=CARTESIAN_POINT('Origin',(8.16578940675146,0.,-2.59223858848766E-12));
#372=CARTESIAN_POINT('',(8.41935348611034,-1.2377109436211E-15,10.1066768351699));
#373=CARTESIAN_POINT('Origin',(8.41935348610329,0.,-2.76918995528918E-12));
#374=CARTESIAN_POINT('',(8.165789406759,-1.32302738131928E-15,10.8033384175756));
#375=CARTESIAN_POINT('Origin',(7.18800000000803,0.,-1.90988179564227E-12));
#376=CARTESIAN_POINT('',(6.75000000001575,-1.35470428921486E-15,11.0619999999826));
#377=CARTESIAN_POINT('Origin',(7.18800000001575,-1.35470428921486E-15,11.0619999999823));
#378=CARTESIAN_POINT('Origin',(6.75000000000803,0.,-1.60422060397352E-12));
#379=CARTESIAN_POINT('Origin',(6.75000000000001,0.,-11.4999999999863));
#380=CARTESIAN_POINT('',(6.75000000000816,-7.15305062230547E-16,5.84090909091808));
#381=CARTESIAN_POINT('Origin',(6.75000000000408,0.,-1.60422060397076E-12));
#382=CARTESIAN_POINT('Origin',(9.50000000000736,0.,-3.52332625942754E-12));
#383=CARTESIAN_POINT('Origin',(9.50000000001469,-1.28587913910429E-15,10.499999999993));
#384=CARTESIAN_POINT('Origin',(10.2500000000046,0.,-4.04671871091319E-12));
#385=CARTESIAN_POINT('',(8.2500000000091,-7.96020419445288E-16,6.49999999999334));
#386=CARTESIAN_POINT('',(10.2500000000091,-7.96020419445288E-16,6.49999999999194));
#387=CARTESIAN_POINT('Origin',(8.25000000000457,0.,-2.65100550694628E-12));
#388=CARTESIAN_POINT('Origin',(8.25000000000065,0.,-5.0909090909024));
#389=CARTESIAN_POINT('',(8.25000000000776,-6.23456552292531E-16,5.09090909090099));
#390=CARTESIAN_POINT('Origin',(8.2500000000042,0.,-2.65100550694603E-12));
#391=CARTESIAN_POINT('Origin',(7.87500000000405,0.,-2.38930928120213E-12));
#392=CARTESIAN_POINT('',(7.50000000000746,-6.23456552292531E-16,5.09090909090152));
#393=CARTESIAN_POINT('',(7.87500000000761,-6.23456552292531E-16,5.09090909090125));
#394=CARTESIAN_POINT('Origin',(7.5000000000039,0.,-2.12761305545822E-12));
#395=CARTESIAN_POINT('Origin',(7.12500000000399,0.,-1.86591682971449E-12));
#396=CARTESIAN_POINT('',(7.12500000000781,-6.69380807261777E-16,5.46590909091174));
#397=UNCERTAINTY_MEASURE_WITH_UNIT(LENGTH_MEASURE(0.01),#401,
'DISTANCE_ACCURACY_VALUE',
'Maximum model space distance between geometric entities at asserted c
onnectivities');
#398=UNCERTAINTY_MEASURE_WITH_UNIT(LENGTH_MEASURE(0.01),#401,
'DISTANCE_ACCURACY_VALUE',
'Maximum model space distance between geometric entities at asserted c
onnectivities');
#399=(
GEOMETRIC_REPRESENTATION_CONTEXT(3)
GLOBAL_UNCERTAINTY_ASSIGNED_CONTEXT((#397))
GLOBAL_UNIT_ASSIGNED_CONTEXT((#401,#403,#404))
REPRESENTATION_CONTEXT('','3D')
);
#400=(
GEOMETRIC_REPRESENTATION_CONTEXT(3)
GLOBAL_UNCERTAINTY_ASSIGNED_CONTEXT((#398))
GLOBAL_UNIT_ASSIGNED_CONTEXT((#401,#403,#404))
REPRESENTATION_CONTEXT('','3D')
);
#401=(
LENGTH_UNIT()
NAMED_UNIT(*)
SI_UNIT(.MILLI.,.METRE.)
);
#402=(
LENGTH_UNIT()
NAMED_UNIT(*)
SI_UNIT($,.METRE.)
);
#403=(
NAMED_UNIT(*)
PLANE_ANGLE_UNIT()
SI_UNIT($,.RADIAN.)
);
#404=(
NAMED_UNIT(*)
SI_UNIT($,.STERADIAN.)
SOLID_ANGLE_UNIT()
);
#405=SHAPE_DEFINITION_REPRESENTATION(#406,#407);
#406=PRODUCT_DEFINITION_SHAPE('',$,#409);
#407=SHAPE_REPRESENTATION('',(#224),#399);
#408=PRODUCT_DEFINITION_CONTEXT('part definition',#413,'design');
#409=PRODUCT_DEFINITION('Idler_5mm','Idler_5mm',#410,#408);
#410=PRODUCT_DEFINITION_FORMATION('',$,#415);
#411=PRODUCT_RELATED_PRODUCT_CATEGORY('Idler_5mm','Idler_5mm',(#415));
#412=APPLICATION_PROTOCOL_DEFINITION('international standard',
'automotive_design',2009,#413);
#413=APPLICATION_CONTEXT(
'Core Data for Automotive Mechanical Design Process');
#414=PRODUCT_CONTEXT('part definition',#413,'mechanical');
#415=PRODUCT('Idler_5mm','Idler_5mm',$,(#414));
#416=PRESENTATION_STYLE_ASSIGNMENT((#417));
#417=SURFACE_STYLE_USAGE(.BOTH.,#418);
#418=SURFACE_SIDE_STYLE('',(#419));
#419=SURFACE_STYLE_FILL_AREA(#420);
#420=FILL_AREA_STYLE('Paint - Enamel Glossy (Green)',(#421));
#421=FILL_AREA_STYLE_COLOUR('Paint - Enamel Glossy (Green)',#422);
#422=COLOUR_RGB('Paint - Enamel Glossy (Green)',0.266666666666667,0.588235294117647,
0.282352941176471);
ENDSEC;
END-ISO-10303-21;
